<?xml version="1.0" encoding="UTF-8"?>
<!DOCTYPE svg  PUBLIC '-//W3C//DTD SVG 1.1//EN'  'http://www.w3.org/Graphics/SVG/1.1/DTD/svg11.dtd'>
<svg version="1.1" xmlns="http://www.w3.org/2000/svg">
<defs>
<font id="DKLemonYellowSun" horiz-adv-x="381">
<font-face font-family="DK Lemon Yellow Sun" font-weight="400" ascent="800" bbox="-55 -131.73 585.16 1014" cap-height="772" descent="-200" panose-1="2 0 0 0 0 0 0 0 0 0" underline-position="-100" underline-thickness="50" unicode-range="U+0020-00FE" units-per-em="1000" x-height="747"/>
<missing-glyph/>
<glyph glyph-name="space" horiz-adv-x="300" unicode=" "/>
<glyph d="M50 789q7 17 18 19q4 1 8 1q30 -2 34 -20q6 -89 6 -101q0 -89 15 -323q7 -116 7 -211q-3 -29 -19 -31q-11 0 -18 5.5t-10.5 16.5t-4 19t-1.5 21v1v5q-5 83 -10 223q-9 230 -25 375zM76 44q0 14 22 26q7 4 12 4q34 0 43 -33q2 -8 2 -16q-1 -25 -40 -25q-38 2 -39 44z" glyph-name="exclam" horiz-adv-x="205" unicode="!"/>
<glyph d="M177 425q-12 198 -12 352q2 22 24 23q26 0 35 -13q2 -3 2 -6v-338q0 -19 -15 -28q-5 -3 -9 -3q-14 1 -25 13zM61 461q-11 159 -11 309q2 19 22 20q28 0 34 -13q1 -2 1 -4v-296q0 -16 -15 -25q-4 -2 -8 -2q-13 1 -23 11z" glyph-name="quotedbl" horiz-adv-x="276" unicode='"'/>
<glyph d="M145 -95q-8 58 -11 108q-58 14 -74 106q-4 22 -4 44q0 17 20 27q11 4 19 2q19 -6 21 -46q4 -52 15 -68q7 -9 16 -15h6q51 0 67 75q5 22 5 43q0 105 -27 166q-15 34 -75 128q-63 99 -71 166q-2 15 -2 28q0 62 35 109q16 22 36 32q-7 60 -7 103q2 9 22 9q30 -1 32 -8v-97 q54 -9 85 -45q17 -20 17 -41q-2 -29 -26 -30q-18 0 -31 23q-16 28 -31 34q-9 3 -20 3q-55 -1 -55 -106q0 -66 60 -152q57 -82 61 -88q5 -9 9 -16q50 -95 48 -199q-1 -37 -10 -66q-22 -71 -70 -105q-9 -6 -17 -10v-108q0 -7 -15 -10q-3 -1 -6 -1q-13 1 -22 5z" glyph-name="dollar" horiz-adv-x="336" unicode="$"/>
<glyph d="M62 425q-12 198 -12 352q2 22 24 23q26 0 35 -13q2 -3 2 -6v-338q0 -19 -15 -28q-5 -3 -9 -3q-14 1 -25 13z" glyph-name="quotesingle" horiz-adv-x="161" unicode="'"/>
<glyph d="M50 430q0 218 94 337q3 4 6 7q27 30 35 35q11 7 21 7q21 -2 22 -25q0 -4 -49 -72q-29 -41 -35 -57q-42 -108 -42 -260q0 -143 36 -229q20 -45 53 -82l35 -35q4 -4 15 -9q20 -14 21 -27q0 -3 -1 -5t-3.5 -3.5t-4.5 -2t-5.5 -1t-5 -0.5h-5.5h-4q-34 0 -72 42q-3 3 -5 6 q-106 120 -106 374z" glyph-name="parenleft" horiz-adv-x="312" unicode="("/>
<glyph d="M262 430q-1 -255 -106 -374q-36 -42 -64 -47q-7 -1 -13 -1q-28 1 -29 12q0 16 20 26q12 7 16 10l35 35q33 38 53 82q36 87 36 229q0 153 -42 260q-6 15 -64 97q-19 27 -20 32q2 24 22 25q21 0 49 -34q5 -6 7 -8q98 -124 100 -344z" glyph-name="parenright" horiz-adv-x="312" unicode=")"/>
<glyph d="M50 32q2 24 25 25q30 0 36 -26q1 -4 1 -8q0 -22 -19 -88q-1 -2 -1 -3q-4 -13 -16 -14q-14 0 -16 16v4v3q0 11 -5 38q-5 37 -5 53z" glyph-name="comma" horiz-adv-x="162" unicode=","/>
<glyph d="M50 377q2 21 17 25q39 -1 245 5q42 1 74 1h111q23 -2 23 -30q0 -20 -38 -17q-11 1 -14 1l-316 -5l-74 -12h-3q-20 0 -24 25q-1 4 -1 7z" glyph-name="hyphen" horiz-adv-x="570" unicode="-"/>
<glyph d="M50 56q0 14 22 26q7 4 12 4q34 0 43 -33q2 -8 2 -16q-1 -25 -40 -25q-38 2 -39 44z" glyph-name="period" horiz-adv-x="179" unicode="."/>
<glyph d="M50 17v6l1 5q148 492 214 763q0 1 1 8q3 19 5 22q1 0 13 1q32 -2 33 -35q0 -40 -31 -127q-10 -31 -15 -48q-18 -63 -53 -191q-77 -277 -121 -410q-6 -16 -17 -17q-28 5 -30 23z" glyph-name="slash" horiz-adv-x="367" unicode="/"/>
<glyph d="M50 475q0 63 11 123q0 2 1 6t1 5l2 10q38 191 127 192q112 0 146 -122q10 -37 16 -96q13 -126 13 -157q0 -50 -13 -210q-11 -125 -71 -175q-30 -24 -68 -24q-72 0 -112 97q-7 18 -12 36q-40 142 -41 301v14zM103 454q0 -106 24 -223q33 -156 92 -157q45 0 72 132 q2 11 4 20l6 52q7 61 7 152q0 76 -14 183q-15 129 -77 149q-11 3 -21 3q-27 0 -63 -117q-2 -5 -3 -9q-18 -60 -26 -151v-4q-1 -23 -1 -30z" glyph-name="zero" horiz-adv-x="417" unicode="0"/>
<glyph d="M50 26l1 11q0 67 7 217v535q5 15 26 15q27 -1 34 -28v-264l-13 -508q-9 -13 -31 -14q-16 0 -23 27q-1 5 -1 9z" glyph-name="one" horiz-adv-x="168" unicode="1"/>
<glyph d="M50 43q0 4 70 196q171 482 94 483h-4q-63 -8 -103 -33q-17 -10 -26 -14q-26 -8 -27 22q0 37 89 68q34 11 57 14q74 7 94 -53q6 -17 6 -38q0 -109 -67 -287q-70 -186 -74 -198q-15 -44 -25 -82l-7 -28q-1 -1 0 -4v-1l139 11h4q27 0 35 -23t-15 -31q-4 -1 -9 -2l-206 -25 q-22 0 -24 12q-1 5 -1 13z" glyph-name="two" horiz-adv-x="357" unicode="2"/>
<glyph d="M50 69q0 20 22 23q3 1 6 1q10 0 32 -14q14 -8 24 -8q77 0 109 93q20 63 11 124q-18 114 -105 169q-7 5 -20 12q-31 21 -33 32q0 3 2 8q4 10 47 53q74 78 75 133q0 43 -53 52q-11 2 -21 2q-12 0 -55 -8q-15 0 -29 23q-5 9 -5 15q1 25 64 25h4q106 0 142 -59q14 -25 14 -55 q0 -68 -65 -139q-23 -26 -48 -43q113 -69 141 -192q4 -16 6 -31q2 -20 2 -32q0 -95 -54 -167q-52 -67 -128 -68q-62 0 -80 31q-5 10 -5 20z" glyph-name="three" horiz-adv-x="365" unicode="3"/>
<glyph d="M260 11q-5 30 -7 130q-1 49 -7 80l-2 2q-1 2 -2 3l-2 1q-15 -1 -55 -8q-76 -12 -106 -12q-15 0 -25 21q-4 7 -4 13q0 1 3 13t3 14q8 35 15 81q2 17 10 92q31 298 36 348q6 28 12 32q3 2 5 2q42 -6 45 -39v-22q-14 -142 -62 -494h8l6 -1q35 0 109 14q1 0 3 1h3v142 q1 14 23 14q39 0 40 -52q0 -10 -2 -32q-3 -52 7 -66q6 -7 32 -10q22 -4 23 -24q-1 -23 -53 -33h-2v-210q0 -8 -20 -13q-3 -1 -4 -1q-24 1 -30 14z" glyph-name="four" horiz-adv-x="419" unicode="4"/>
<glyph d="M98 119q11 27 21 28q19 0 35 -26q16 -25 28 -28q4 -1 7 -1q69 0 93 158q14 98 6 235q-5 93 -61 111q-23 7 -101 4h-26q-30 0 -35 3q-5 4 -7 10v18q0 29 -4 86q-4 56 -4 84q2 28 21 29h189q20 0 27 -23q2 -6 2 -11q0 -17 -8 -19q-5 -1 -13 -1h-143q-2 0 -3.5 -1t-2 -3.5 t-0.5 -4v-4.5v-3l3 -106q160 18 202 -66q12 -24 18 -59q0 -11 1 -45q8 -237 -27 -341q-40 -111 -126 -112q-47 0 -76 40q-16 23 -16 48z" glyph-name="five" horiz-adv-x="396" unicode="5"/>
<glyph d="M50 246v17q14 214 54 369q9 35 20 71q19 64 28 80q19 29 43 30q23 -8 25 -29l-2 -16l-1 -2q-3 -5 -5 -9q-35 -81 -47 -122q-1 -3 -1 -4q-33 -107 -35 -121q-12 -91 -12 -135v-24q45 34 85 34q82 0 117 -95q16 -46 16 -95q0 -134 -79 -178q-32 -18 -74 -18 q-122 0 -131 214q-1 16 -1 33zM110 212q1 -121 48 -159q2 0 12 -1h12q59 0 83 76q9 30 9 61q0 90 -35 126q-16 16 -36 16q-36 0 -69 -52q-24 -37 -24 -67z" glyph-name="six" horiz-adv-x="385" unicode="6"/>
<glyph d="M84 9v9q77 352 143 684v13q-1 12 -7 14q-25 3 -74 7q-50 4 -75 7q-19 12 -21 33q0 8 7 14q5 1 31 1t78 -4t78 -4q36 0 47 -25q3 -8 3 -15v-7q-2 -13 -88 -417q-24 -115 -27 -138q-5 -23 -13 -69q-16 -85 -28 -127q-8 -8 -24 -8q-29 2 -30 32z" glyph-name="seven" horiz-adv-x="344" unicode="7"/>
<glyph d="M175 1q-124 25 -125 168v11v5.5v7.5v8.5v8.5t0.5 8t0.5 7.5v6.5v5v2q2 40 23 76q15 22 32 23q22 -1 30 -27q0 -2 -3 -11q-23 -80 -24 -117q2 -128 73 -129q66 0 77 87q2 14 2 28q0 115 -50 197q-2 2 -3 4q-12 19 -39 57q-69 97 -86 152q-12 36 -12 70q0 70 41 116 q31 32 72 33q99 0 118 -93q5 -27 5 -65q0 -90 -65 -210q79 -146 79 -298q0 -73 -67 -111q-36 -20 -79 -20zM129 653q0 -35 29 -107q23 -57 40 -58q18 0 42 115q8 42 8 57q-3 88 -56 91q-31 0 -53 -54q-10 -26 -10 -44z" glyph-name="eight" horiz-adv-x="371" unicode="8"/>
<glyph d="M129 71q2 22 26 23q13 0 40 -17q16 -10 28 -10q30 1 44 83v3q14 82 14 243q0 12 -0.5 35.5t-0.5 42.5v20q0 35 -20 185v2q-1 2 -1 3q-7 57 -25 66q-5 2 -10 2q-57 0 -93 -84q-22 -51 -22 -95q7 -98 59 -105q2 0 20 4q17 3 20 3q2 1 17 1q20 0 22 -9q1 -5 1 -12 q0 -35 -65 -39q-12 -1 -21 0q-83 6 -106 109q-6 29 -6 61q0 97 58 165q52 59 127 60q28 0 47 -17.5t27.5 -50t11.5 -54.5t5 -56v-1v-6q14 -170 14 -254v-11v-14t-0.5 -13.5t-0.5 -11.5v-4l-13 -138q-14 -160 -99 -171q-7 -1 -13 -1q-27 0 -61 27q-23 19 -24 36z" glyph-name="nine" horiz-adv-x="390" unicode="9"/>
<glyph d="M50 566q0 14 22 26q7 4 12 4q34 0 43 -33q2 -8 2 -16q-1 -25 -40 -25q-38 2 -39 44zM50 56q0 14 22 26q7 4 12 4q34 0 43 -33q2 -8 2 -16q-1 -25 -40 -25q-38 2 -39 44z" glyph-name="colon" horiz-adv-x="179" unicode=":"/>
<glyph d="M50 566q0 14 22 26q7 4 12 4q34 0 43 -33q2 -8 2 -16q-1 -25 -40 -25q-38 2 -39 44zM50 32q2 24 25 25q30 0 36 -26q1 -4 1 -8q0 -22 -19 -88q-1 -2 -1 -3q-4 -13 -16 -14q-14 0 -16 16v4v3q0 11 -5 38q-5 37 -5 53z" glyph-name="semicolon" horiz-adv-x="179" unicode=";"/>
<glyph d="M52 296q1 24 18 28q26 -1 257 0h18h118q25 -2 25 -33q0 -22 -38 -19q-16 1 -18 1l-271 1h-83q-25 4 -26 22zM50 442q1 24 18 28q26 -1 257 0h18h118q25 -2 25 -33q0 -22 -38 -19q-16 1 -18 1l-271 1h-83q-25 4 -26 22z" glyph-name="equal" horiz-adv-x="538" unicode="="/>
<glyph d="M135 162v105q0 112 6 147q7 40 21 71q3 7 45 81q35 63 35 108q-2 49 -45 50q-36 0 -69 -47q-27 -39 -36 -46q-10 -7 -20 -7q-20 3 -22 28q0 57 61 98q41 27 81 27q67 0 99 -47q17 -25 17 -56q0 -58 -48 -142q-46 -80 -56 -113q-9 -31 -9 -59v-198q-1 -14 -23 -14 q-28 1 -37 14zM135 53v17q2 2 3.5 3t4 2t3.5 1.5t3.5 0.5h3.5h5h3q34 0 39 -23q2 -10 2 -25v-11q-1 -12 -1 -15q-1 -3 -3 -4.5t-5 -2t-5.5 -0.5h-5.5h-4q-37 0 -42 37q-1 9 -1 20z" glyph-name="question" horiz-adv-x="358" unicode="?"/>
<glyph d="M51 347q-6 165 51 292q76 164 226 165q132 0 191 -171q34 -98 34 -211q0 -179 -70 -218q-23 -13 -52 -13q-52 0 -73 43q-5 11 -7 21q-44 -25 -100 -25q-91 0 -97 79q-1 7 -1 13q0 50 43 100q30 33 62 41q26 7 66 5q10 -1 18 -1q0 2 1 14q2 19 2 22q-8 52 -44 70 q-10 4 -20 5q-26 3 -53 -32q-24 -30 -35 -35q-5 -2 -10 -2q-23 2 -24 27q0 39 57 70q35 19 63 19q82 0 112 -90q11 -34 12 -72v-168q5 -54 28 -58q4 -1 6 -1l6 1q56 49 59 166v18q0 128 -41 226q-47 110 -132 111q-60 0 -82 -12q-145 -81 -145 -389q0 -126 53 -220 q59 -102 158 -103q59 0 92 32q8 8 15 16q4 5 14 23q24 46 44 51q6 2 12 1q6 -2 14 -18q2 -3 2 -5q-3 -29 -35 -72q-3 -2 -4 -4q-60 -69 -160 -69q-128 0 -202 141q-51 100 -54 217zM206 318q0 -35 29 -40q7 -1 15 -1q72 0 94 66q7 22 7 47v15q-32 20 -73 13q-12 -3 -20 -7 q-35 -20 -48 -68q-4 -14 -4 -25z" glyph-name="at" horiz-adv-x="603" unicode="@"/>
<glyph d="M51 2l44 746q4 60 33 60q25 1 42 -38q5 -11 8 -22q27 -106 153 -719v-1v-1q0 -18 -17 -24q-19 -4 -31 17l-36 180l-135 -20q-12 -70 -17 -178q-1 -17 -23 -16q-20 3 -21 16zM139 691q-20 -302 -25 -409q-2 -13 -2 -54l125 18z" glyph-name="A" unicode="A"/>
<glyph d="M113 14q-25 14 -41 419q-10 265 -16 297q-6 35 -6 69q0 20 26 26q6 1 12 1q140 -9 172 -99q8 -24 8 -51q0 -58 -15 -81q-11 -15 -43 -44q165 -77 166 -332q0 -104 -92 -167q-37 -25 -81 -38l-25 -6q-32 -6 -57 3q-4 2 -8 3zM119 516q0 -2 1 -18v-18q4 -70 13 -200 q9 -145 13 -221h6q117 0 154 97q13 36 13 80q0 158 -75 232q-50 48 -125 48zM106 769q0 -93 2 -135q0 -20 5 -57q3 -1 17 -1q50 0 71 48q9 20 9 41q0 79 -66 99q-18 5 -38 5z" glyph-name="B" horiz-adv-x="426" unicode="B"/>
<glyph d="M55 449q5 121 51 214q54 106 143 107h7q58 -3 80 -40q8 -15 8 -32q-2 -21 -17 -22q-16 0 -37 23q-20 20 -38 23h-2q-3 1 -4 1q-52 0 -94 -107q-49 -125 -46 -279q3 -176 79 -231q27 -19 60 -21h5q36 0 52 38q17 37 18 39q12 15 31 16h3q23 -2 24 -22q-1 -10 -11 -29 q-2 -6 -4 -10q-36 -73 -112 -74h-9q-146 7 -181 204q-17 93 -6 202z" glyph-name="C" horiz-adv-x="428" unicode="C"/>
<glyph d="M70 776q4 20 44 22h4q205 -10 205 -365q0 -8 -1 -23v-20q-10 -342 -229 -343q-23 0 -43 4q0 1 2 158q3 106 13 379q1 9 2 92q2 80 2 90zM126 742l-23 -651q8 -1 11 -1q109 0 142 201q8 45 10 95q9 178 -39 277q-37 73 -101 79z" glyph-name="D" horiz-adv-x="373" unicode="D"/>
<glyph d="M65 93l-1 49v198q0 48 -10 248q-4 71 -4 130v51q158 13 174 -8q4 -5 4 -12q-2 -18 -12 -25h-109q-7 -1 -7 -8q0 -55 13 -245q2 -26 3 -48q7 -2 116 -1q23 -1 34 -25t-10 -32q-5 -2 -13 -2h-127l2 -234q2 -1 70 2q80 1 81 -27q-1 -22 -19 -26h-5q-177 -14 -180 15z" glyph-name="E" horiz-adv-x="319" unicode="E"/>
<glyph d="M75 108q0 108 -6 276q-2 48 -8 154q-11 173 -11 244q0 21 83 24q14 1 18 1q7 0 22 1q47 3 59 -11q7 -11 7 -27q-3 -15 -137 -15l13 -196l91 1q16 0 24 -22q2 -6 2 -10q0 -19 -76 -19q-31 0 -38 -1l3 -58q6 -125 6 -330q-3 -22 -23 -25q-23 1 -29 13z" glyph-name="F" horiz-adv-x="289" unicode="F"/>
<glyph d="M220 22q-110 -6 -147 146q-23 96 -23 272q0 139 49 219q24 39 56 55q41 20 102 7q72 -22 78 -73q-2 -24 -22 -25q-16 0 -42 25q-31 28 -58 29h-4q-86 -5 -105 -153q-4 -33 -4 -67v-20q8 -162 15 -207q4 -31 11 -61q18 -85 80 -96q8 -1 15 -1h5q92 5 92 157q0 12 -1 24 l-8 148q-12 0 -36 -3q-36 -4 -54 -2q-2 1 -4 4t-3 6.5l-2 7t-1.5 7t-0.5 5.5l-1 2q0 24 72 25h30h32q24 -6 27 -63q0 -9 1 -29q1 -19 1 -28v-10q8 -154 -18 -219q-33 -77 -112 -82h-20z" glyph-name="G" horiz-adv-x="423" unicode="G"/>
<glyph d="M264 59q4 150 -6 248q-70 15 -144 5v-259q-3 -11 -25 -14q-21 0 -26 17q-1 2 -1 3l-12 711q5 35 26 38q21 0 33 -9q2 -3 3 -5l1 -427q6 -1 119 -5q20 -1 30 -2v42q0 71 -4 200q-4 117 -4 174q1 31 17 32q31 0 38 -21q1 -3 1 -5l13 -718q0 -22 -23 -29q-6 -2 -11 -2h-5 q-9 1 -19 23q-1 2 -1 3z" glyph-name="H" horiz-adv-x="373" unicode="H"/>
<glyph d="M51 758q1 18 25 14q25 -4 28 -22l44 -610q5 -48 5 -53q-3 -21 -34 -22q-22 0 -28 32q-1 3 -1 6l-25 439q-2 23 -6 68q-9 99 -8 148z" glyph-name="I" horiz-adv-x="203" unicode="I"/>
<glyph d="M51 91q4 18 28 17q6 -1 29 -14q12 -7 21 -7q27 0 45 53q3 8 4 15q29 130 36 378q2 97 3 117q3 110 6 135q5 22 10 26q4 2 9 2q39 -6 40 -32q-8 -80 -20 -348q-6 -146 -17 -223q-15 -106 -44 -142q-27 -32 -69 -32q-9 0 -14 1q-62 12 -67 48v6z" glyph-name="J" horiz-adv-x="333" unicode="J"/>
<glyph d="M84 13v76q0 449 -34 720q-1 13 19 18q28 5 37 -19l2 -8l20 -400q42 78 63 148q13 57 35 196q2 18 5 31q1 2 2 8q7 18 18 19q30 -5 33 -27q1 -6 1 -13q0 -57 -18.5 -129.5t-34 -112t-55.5 -133.5v-1l-11 -26q155 -109 203 -284q6 -21 11 -46q5 -31 -28 -31q-17 0 -32 46 q-27 89 -35 105q-51 119 -158 168q0 -30 4 -105q7 -159 -1 -213q-3 -7 -9 -7q-23 1 -37 20z" glyph-name="K" horiz-adv-x="422" unicode="K"/>
<glyph d="M50 795q8 14 20 15q19 0 31 -28q1 -4 2 -7q2 -68 6 -205q7 -319 21 -477q79 21 120 21q33 -2 34 -25q-2 -22 -20 -29q-13 -5 -81 -14q-20 -2 -33 -6q-5 -1 -15 -5q-18 -8 -28 -8q-16 0 -28 18q-2 5 -3 9q-6 62 -10 277q-1 53 -3 90l-13 247v127z" glyph-name="L" horiz-adv-x="334" unicode="L"/>
<glyph d="M50 56l11 456q7 276 43 277q3 -1 4 -1q1 -1 7 -4q22 -12 27 -29q35 -142 54 -192q23 -60 50 -98q10 9 65 108l5 8q59 107 86 180q10 17 29 18q17 -2 34 -15q-2 -64 -6 -507q0 -90 -2 -160l-1 -48q-11 -23 -32 -24q-11 1 -23 14l1 59q2 80 1 241q-2 202 2 302 q-48 -86 -69 -131l-59 -116v-1q-9 -19 -24 -24q-15 -4 -24 14q-100 227 -104 227q-22 -181 -26 -548v-1q-6 -16 -21 -19q-14 0 -26 11q-1 2 -2 3z" glyph-name="M" horiz-adv-x="515" unicode="M"/>
<glyph d="M50 29l25 719q19 37 54 -4q2 -4 4 -6q11 -32 90 -286q45 -143 84 -240l10 140q13 146 11 361q8 23 38 25q20 -1 28 -13q-20 -236 -33 -676l-1 -13q-4 -11 -18 -17q-4 -2 -6 -2q-13 0 -26 17q-2 1 -2 2q-28 83 -86 248q-73 206 -106 310l-7 -570q-18 -40 -42 -26 q-16 10 -17 31z" glyph-name="N" horiz-adv-x="444" unicode="N"/>
<glyph d="M83 192q-38 176 -32 330q13 258 166 259q86 0 138 -131q52 -133 43 -308q-9 -178 -77 -253q-32 -34 -72 -38q-2 0 -6 -1h-6q-109 0 -148 121q-3 11 -6 21zM211 726q-102 -9 -104 -244q-1 -133 22 -237q1 -4 2 -7q17 -71 52 -110q20 -21 39 -23h12q67 6 98 169v1 q15 77 7 204q-13 217 -97 244q-12 3 -23 3h-8z" glyph-name="O" horiz-adv-x="450" unicode="O"/>
<glyph d="M50 17v4q6 733 7 773q17 17 47 20q113 0 164 -100q28 -56 28 -128q0 -145 -93 -231q-35 -32 -85 -61l-7 -61q0 -8 -7 -218q-6 -19 -19 -21q-4 -1 -8 -1q-26 2 -27 24zM118 745l-7 -341v-43q2 0 4.5 0.5t5 1.5t5.5 2.5t5.5 3t5 2.5t4 2.5t3.5 2.5l1 1q73 58 82 159 q1 18 1 38q-1 178 -96 179q-11 -2 -14 -8z" glyph-name="P" horiz-adv-x="346" unicode="P"/>
<glyph d="M310 55q-40 -42 -85 -47q-130 0 -164 267q-11 81 -11 177q0 180 43 286q37 88 97 89q138 0 168 -276q7 -67 7 -147q0 -147 -28 -287q36 -47 96 -102q7 -6 7 -21q-8 -22 -35 -22q-2 0 -5 0.5t-6 1.5h-2zM111 408q0 -130 27 -233q27 -105 74 -106q50 2 51 35q0 4 -1 6 l-41 41q-18 20 -20 25q-1 6 -1 12q2 24 32 25q22 0 48 -31q8 -9 10 -11q20 108 20 263q0 109 -24 213q-32 127 -86 119q-66 -11 -84 -196q-4 -42 -4 -77v-16q-1 -53 -1 -69z" glyph-name="Q" horiz-adv-x="490" unicode="Q"/>
<glyph d="M64 42v396q0 94 -7 260q0 30 -7 109v4q1 28 46 29q143 0 177 -133q10 -37 10 -81q0 -114 -82 -181q-9 -7 -17 -13q113 -50 138 -240q5 -43 5 -86q-2 -24 -29 -25q-15 0 -19 9q-2 3 -3 7q-18 272 -128 286q-7 1 -12 1h-4q-5 -1 -6 -1q-5 -53 -6 -235q0 -63 -3 -106 q-14 -20 -38 -12q-9 4 -15 12zM100 772l19 -310q64 13 95 83q15 36 15 72q0 74 -32 124q-25 38 -62 39q-33 -1 -35 -8z" glyph-name="R" unicode="R"/>
<glyph d="M51 120q1 15 20 22q6 2 10 2q18 -3 33 -28q14 -26 29 -31l8 -2q61 -10 81 51q4 16 8 38q16 98 -48 211q-15 27 -49 81q-41 65 -36 124l2 14q25 132 135 133q14 0 22 -1q39 -4 42 -24q0 -7 -1 -13q-3 -18 -34 -18q-44 -1 -61 -10q-33 -19 -43 -78q-9 -50 19 -98 q4 -7 14 -24q11 -17 16 -26q63 -110 77 -169q13 -57 4 -113q-18 -106 -89 -125q-18 -5 -40 -5q-16 0 -24 1q-44 7 -76 40q-19 21 -20 41q0 1 0.5 3.5t0.5 3.5z" glyph-name="S" horiz-adv-x="358" unicode="S"/>
<glyph d="M155 115q0 21 1 89q4 210 4 261q0 40 -0.5 103.5t-1.5 115.5v53l-80 3q-26 7 -28 25q-1 18 31 26q1 1 2 1q26 -1 78 -1q103 -1 157 -5q30 -3 34 -27q3 -20 -13 -26q-4 -1 -8 -1l-109 2q0 -1 -7 -447q0 -20 -2 -77q-2 -64 -2 -89v-13q-6 -23 -30 -18q-20 6 -26 25z" glyph-name="T" horiz-adv-x="403" unicode="T"/>
<glyph d="M53 464q7 239 11 292q1 17 3 32q12 11 25 12q13 0 20.5 -6t9.5 -15.5t3 -20.5t0 -21v-1v-6q-1 -50 -8 -149t-8 -149q0 -8 -2 -34q-13 -209 22 -273q21 -34 53 -35q44 0 78 91q7 20 11 36q60 284 60 535v22q2 19 33 20q21 0 29 -20q2 -5 2 -10l-1 -15q-18 -271 -49 -449 l-2 -13q0 -1 -1 -3q-1 -5 -2 -7q-30 -178 -98 -222q-25 -15 -54 -15q-132 0 -137 202v21v18q0 86 2 183z" glyph-name="U" horiz-adv-x="445" unicode="U"/>
<glyph d="M218 34q-12 47 -94 420q-39 179 -73 300l-1 6q1 18 32 21q27 0 35 -28q2 -7 5 -24q47 -251 119 -557l101 568q3 18 24 25q4 1 7 1q30 -2 32 -26l-112 -573q-1 -4 -6 -25q-25 -120 -40 -121q-2 -1 -3 -1q-18 4 -20 6q-4 4 -6 8z" glyph-name="V" horiz-adv-x="455" unicode="V"/>
<glyph d="M155 26l-26 261q-15 159 -78 476v9q4 29 22 31q36 -2 37 -21q13 -90 38 -241q4 -24 36 -263q5 -39 10 -69q23 76 57 246l3 15q3 18 29 31q33 16 40 -9q1 -2 1 -3l42 -189q5 -20 12 -60q7 -41 11 -57q14 73 84 502q1 7 3 23q6 63 26 77q9 5 20 5q22 -2 23 -26 q0 -12 -1 -15q-79 -435 -98 -571q-10 -76 -18 -145q-11 -25 -29 -26q-15 1 -23 12l-86 381l-70 -334q-1 -6 -2 -17q-3 -33 -17 -40q-8 -3 -17 -3q-18 0 -27 17q-1 2 -2 3z" glyph-name="W" horiz-adv-x="595" unicode="W"/>
<glyph d="M213 326l-110 -312q-4 -1 -19 -1q-29 0 -32 10q-1 3 -1 6v4q0 1 4 11q8 19 9 22q31 91 110 338v14q0 21 -12 58q-3 9 -21 58q-32 89 -38 105q-3 8 -21 54q-15 36 -18 44q-2 5 -6 13q-8 16 -8 26q0 18 12 20q5 1 13 1q32 0 53 -54q2 -4 5 -11l3 -9q4 -13 31 -87 q34 -97 40 -115l59 190q1 3 3 13q16 83 45 85q6 0 10 -1q22 -6 19 -51v-1l-58 -169q-2 -6 -4.5 -14.5t-5 -18t-5.5 -19.5l-6 -20t-5.5 -19.5t-5 -17.5t-4 -14l-2.5 -10l-1 -4v-39l45 -136v-1l33 -90q41 -110 58 -165q-13 -19 -28 -20q-16 1 -24 8l-6 12q-2 4 -14 38 q-17 48 -19 54q-12 33 -36 102q-19 54 -29 81q-1 5 -4 12.5t-6 13.5z" glyph-name="X" horiz-adv-x="432" unicode="X"/>
<glyph d="M221 25q-5 42 -11 139q-15 206 -34 280q-98 197 -119 243q-18 39 6 50q18 9 30 -6q3 -4 4 -7l114 -240l67 265q3 19 29 19q28 1 34 -19q1 -4 1 -7v-4l-99 -304l35 -406q-2 -21 -27 -22q-25 1 -30 19z" glyph-name="Y" horiz-adv-x="392" unicode="Y"/>
<glyph d="M109 63h-2q-24 0 -32 26q-2 7 -2 14q58 144 147 458q12 42 17 60q2 13 10 38q8 30 10 45q-32 1 -97 6q-56 4 -83 5q-15 0 -23 20q-10 28 18 38l258 -19q-38 -127 -115 -395q-46 -158 -68 -235q30 -1 91 1q45 1 66 1q20 0 22 -22q2 -23 -16 -31q-5 -2 -9 -2 q-69 -5 -192 -8z" glyph-name="Z" horiz-adv-x="380" unicode="Z"/>
<glyph d="M317 17q-8 -21 -30 -23q-12 1 -17 17q-40 120 -143 491q-18 63 -31 110q-5 18 -18 55q-28 80 -28 120q2 34 33 35l13 -1q2 -2 4 -16l2 -14q66 -272 214 -763v-6q1 -4 1 -5z" glyph-name="backslash" horiz-adv-x="367" unicode="\"/>
<glyph d="M76 -15q-24 3 -25.5 23t19.5 26q5 1 8 1q30 0 346 11q80 3 140 3q23 -7 21 -27q-3 -18 -23 -23q-30 0 -346 -11q-80 -3 -140 -3z" glyph-name="underscore" horiz-adv-x="636" unicode="_"/>
<glyph d="M273 218h-148l-6 -6l-17 -113q-5 -37 -8 -43q-8 -14 -22 -15q-14 0 -21 27q-1 6 -1 9l105 727q11 42 31 46q3 1 6 1q22 -1 31 -15l8 -21q57 -226 104 -630q3 -25 8 -70l6 -65l-1 -1v-1q-8 -22 -19 -26q-5 -1 -11 -1h-3q-15 1 -17 7zM198 744l-58 -464l125 -3z" glyph-name="a" horiz-adv-x="399" unicode="a"/>
<glyph d="M50 778q41 47 107 43q65 -5 92 -57q13 -25 13 -56q-1 -77 -54 -137q118 -74 147 -185q12 -47 12 -105q0 -135 -81 -209q-62 -56 -155 -56q-26 1 -35 15q-5 68 -10 206q-8 181 -16 282l-20 238v21zM149 77q7 -1 18 -1q96 0 129 111q12 43 12 94q0 116 -57 187 q-49 58 -125 59q0 -163 23 -450zM108 756l15 -165q47 0 72 54q13 28 13 59q0 51 -42 61q-27 5 -58 -9z" glyph-name="b" horiz-adv-x="417" unicode="b"/>
<glyph d="M283 797q29 0 42 -21q5 -8 5 -16q-4 -31 -72 -28h-6q-71 0 -112 -131q-28 -90 -28 -183q0 -138 27 -201q23 -52 69 -91q23 -19 78 -16q39 2 46 -10q20 -35 -26 -45q-11 -2 -23 -2q-145 3 -203 159q-48 128 -22 295q4 24 9 47q37 159 126 216q41 27 90 27z" glyph-name="c" horiz-adv-x="380" unicode="c"/>
<glyph d="M50 33v170v571v4q1 41 29 54h9q72 -1 112 -36q128 -115 122 -384q-1 -10 -1 -20q-15 -358 -202 -395l-16 -2q-45 -6 -52 23q-1 7 -1 15zM114 768q-7 -194 -7 -372v-343q100 15 140 177q18 73 18 150q0 268 -75 354q-30 33 -69 34h-7z" glyph-name="d" horiz-adv-x="372" unicode="d"/>
<glyph d="M61 32l-11 698q0 22 22 32q7 3 13 3h158q9 0 24 -15q2 -4 3 -5q1 -3 1 -5q0 -21 -32 -28q-6 -1 -11 -1h-120l5 -332l108 16h5q28 0 28 -18q0 -19 -24 -30q-8 -3 -15 -4l-100 -15l-3 -261q10 -1 52 -1q19 0 51 3q49 5 60 -5q7 -8 8 -21q1 -16 -54.5 -22t-111.5 -2t-56 13z " glyph-name="e" horiz-adv-x="334" unicode="e"/>
<glyph d="M51 705v2q0 79 113 87h2q4 0 14 1q80 3 89 -24q1 -4 1 -7q-1 -16 -27 -19q-68 2 -87 -2q-42 -10 -43 -39v-8q9 -144 16 -202q23 -3 56 -1q3 0 15 3q55 7 59 -15q0 -33 -78 -38q-44 -3 -49 -5q-4 -60 10 -208q9 -81 9 -132v-4q0 -29 -22 -29q-20 -1 -28 19l-2 6 q-30 247 -45 527q-2 49 -3 88z" glyph-name="f" horiz-adv-x="320" unicode="f"/>
<glyph d="M51 387v14q0 336 145 383q18 6 38 7l8 1q47 0 86 -26q24 -18 25 -37q0 -6 -3 -13q-11 -25 -35 -10q-5 3 -16 10q-37 26 -61 30h-5q-125 -18 -125 -302v-22l2 -109q9 -149 62 -203q24 -23 53 -23h4q67 5 79 186q9 75 7 106q0 10 -4.5 16.5t-11 9t-15.5 3t-18.5 0 t-18.5 -1.5t-18 -1t-15.5 1.5t-11 7t-4.5 13.5q1 27 45 28l18 1q108 3 110 -38v-19q-3 -92 -11 -158q-14 -135 -65 -178q-30 -24 -71 -26h-8q-162 1 -165 350z" glyph-name="g" horiz-adv-x="421" unicode="g"/>
<glyph d="M250 316h-143v-282q0 -31 -30 -29q-22 3 -27 14q0 18 1 120q1 99 1 117q0 54 6 417q2 117 2 141q9 8 28 8q16 -1 31 -21q0 -47 -4 -163q-5 -120 -5 -172q0 -77 1 -91q8 -7 24 -7q76 0 113 -2q14 204 9 435v5q2 21 26 22q19 -1 33 -20q0 -24 -4 -107q-5 -150 -4 -529 q0 -150 -14 -161q-2 -2 -4 -2q-26 -1 -32 35q-3 20 -3 74q0 9 -3 99q-2 89 -2 99z" glyph-name="h" horiz-adv-x="366" unicode="h"/>
<glyph d="M50 19l27 742q6 18 18 20q5 1 15 1q25 0 28 -18q1 -8 1 -24q0 -2 -1 -11v-7l-30 -684q-1 -30 -28 -37q-23 -5 -29 11q-1 3 -1 7z" glyph-name="i" horiz-adv-x="189" unicode="i"/>
<glyph d="M51 57q3 20 27 21h5q21 -1 26 -18q5 -15 14 -17q4 -1 8 -1q73 0 84 505q3 145 4 155q1 11 2 27q0 26 11 34q5 3 12 6h4q32 -2 38 -27q1 -9 2 -24l-11 -182q-15 -318 -36 -411q-23 -105 -79 -124q-16 -5 -35 -5h-8q-42 3 -60 33q-8 13 -8 28z" glyph-name="j" horiz-adv-x="335" unicode="j"/>
<glyph d="M78 16l-28 773q0 24 22 28q3 1 6 1q28 0 30 -36v-2l10 -334q106 212 134 310q1 5 4 16q9 42 26 49q8 3 15 3q32 0 31 -30q-1 -9 -4 -20l-162 -374l187 -347q11 -20 -4 -36q-9 -9 -21 -9q-17 0 -23 9q-2 2 -3 4q-7 13 -94 186q-47 95 -84 151v-8q0 -17 4 -94 q9 -164 9 -242q-9 -22 -30 -24q-22 -3 -25 24v2z" glyph-name="k" horiz-adv-x="403" unicode="k"/>
<glyph d="M279 40l-203 -30l-13 584q0 12 -9 134q-4 50 -4 57v7q1 12 7 18q6 2 19 2q22 0 27 -8q3 -6 5 -13q6 -25 6 -88v-14q11 -469 16 -552q1 -34 3 -65h7q12 0 84 11q24 3 41 3q33 -2 34 -24q-2 -18 -20 -22z" glyph-name="l" horiz-adv-x="349" unicode="l"/>
<glyph d="M389 34q4 265 -13 604l-108 -266q-2 -17 -35 -18q-17 0 -22 5q-4 4 -7 12q-58 188 -77 235q-2 8 -5 14q-7 -79 -7 -308q-1 -162 -13 -259q-12 -7 -31 -7q-18 0 -19 9q-1 5 -1 15q0 6 1 20q8 146 6 662v2q0 22 23 33q25 10 35 -13l122 -334q17 19 94 238q35 98 44 113 q16 28 57 0l7 -470v-1q0 -39 3 -120q3 -102 3 -152q0 -26 -22 -33q-5 -1 -9 -1q-17 0 -23 13q-2 4 -3 7z" glyph-name="m" horiz-adv-x="496" unicode="m"/>
<glyph d="M50 32l12 704q-1 27 22 38q28 12 46 -19q3 -6 6 -13l204 -553q5 227 15 388q1 17 1 53q2 85 11 124q3 11 26 11q22 -1 24 -9q1 -5 1 -15q-1 -29 -17 -225q-4 -50 -5 -87q-12 -347 -12 -393q-6 -19 -29 -8q-12 7 -17 16q-12 26 -229 605v1l-1 2l-7 -614q0 -14 -12.5 -19.5 t-25.5 -1t-13 14.5z" glyph-name="n" horiz-adv-x="469" unicode="n"/>
<glyph d="M50 448q0 234 74 313q44 47 112 47q145 -16 150 -378q1 -90 -7 -201q-10 -104 -60 -160q-36 -39 -84 -40q-153 0 -180 291q-5 57 -5 128zM108 540q-1 -33 -1 -88q0 -347 107 -371q9 -2 18 -2q87 0 98 247q1 32 1 70v4q0 122 -28 232q-33 124 -88 125q-57 0 -90 -116 q-17 -59 -17 -101z" glyph-name="o" horiz-adv-x="437" unicode="o"/>
<glyph d="M50 -12v259q0 252 7 534q5 12 42 12q86 0 140 -72q39 -54 39 -120q0 -101 -71 -191q-45 -57 -102 -84q-5 -78 -5 -110v-221q-9 -13 -31 -13q-11 1 -19 6zM110 740l-7 -347q14 1 21 7q92 85 92 194q0 55 -34 103q-31 42 -72 43z" glyph-name="p" horiz-adv-x="328" unicode="p"/>
<glyph d="M50 369q1 283 103 404q54 64 118 38q18 -7 33 -20q133 -221 68 -594q-7 -43 -17 -85l70 -48q14 -26 -13 -36q-5 -2 -9 -2l-69 37q-39 -59 -103 -65q-59 -4 -101 41q-64 58 -78 267q-2 34 -2 63zM244 761q-4 1 -9 1q-41 0 -74 -74t-45 -179.5t-9 -211t33 -179.5t80 -74h6 q29 3 46 31q8 12 8 22q0 14 -26 28q-26 17 -28 29q1 11 7 19q20 0 69 -30q3 -2 5 -3q61 329 -15 559q-22 61 -48 62z" glyph-name="q" horiz-adv-x="480" unicode="q"/>
<glyph d="M50 5v84q0 153 14 677q2 38 23 44q11 2 36 2h10q93 0 132 -70q19 -34 19 -78v-11q-1 -145 -85 -203q21 -21 32 -39q34 -45 37 -197q1 -61 2 -74q0 -3 3 -29q3 -25 3 -29v-8q-1 -19 -29 -19h-1q-24 1 -28 14q-1 33 -12 220q-8 98 -54 113q-10 3 -21 3h-16q-6 -25 -6 -58 q-4 -33 -7 -316q0 -30 -7 -36q-6 -4 -15 -4q-20 1 -30 14zM115 485q1 -9 13 -9q56 0 85 97q13 45 13 80q0 64 -37 93q-19 14 -42 14q-24 -2 -25 -26q0 -15 -6 -186q-1 -35 -1 -63z" glyph-name="r" horiz-adv-x="334" unicode="r"/>
<glyph d="M56 163q0 17 20 27q11 4 19 2q19 -6 21 -46q4 -52 15 -68q7 -9 16 -15h6q51 0 67 75q5 22 5 43q0 105 -27 166q-15 34 -75 128q-63 99 -71 166q-2 15 -2 28q0 62 35 110q29 38 68 39q46 0 86 -32q30 -25 31 -55q-2 -29 -26 -30q-18 0 -31 23q-16 28 -31 34q-9 3 -20 3 q-55 -1 -55 -106q0 -66 60 -152q57 -82 61 -88q5 -9 9 -16q50 -95 48 -199q-1 -37 -10 -66q-21 -69 -68 -104q-27 -19 -54 -19q-65 0 -89 87q-8 32 -8 65z" glyph-name="s" horiz-adv-x="336" unicode="s"/>
<glyph d="M162 112l-20 633q-82 -5 -90 9q-2 3 -2 5q2 27 13 34q19 10 93 6h84q58 -4 59 -33q0 -12 -14 -18q-4 -1 -6 -1h-84l19 -635q-3 -11 -26 -14q-16 0 -24 9q-2 3 -2 5z" glyph-name="t" horiz-adv-x="349" unicode="t"/>
<glyph d="M326 247q-2 -100 -20 -136q-25 -49 -87 -50q-7 0 -24 2q-85 10 -116 225q-17 121 -26 444l-2 49v5q0 16 27 16q27 -1 33 -15q4 -7 6 -176q3 -394 62 -478q19 -25 42 -26q35 0 45 65q2 10 2 19q5 229 -4 596q15 17 29 18q29 -2 31 -20q1 -45 0 -370q0 -96 2 -168z" glyph-name="u" horiz-adv-x="376" unicode="u"/>
<glyph d="M172 40q-28 131 -75 475q-26 189 -47 300q8 11 32 14q10 1 14 -2q9 -5 18 -17q1 -1 1 -2l85 -616q18 100 55 328q31 186 45 269q5 37 32 39q23 0 31 -17q1 -2 1 -3q-36 -137 -88 -455q-5 -29 -8 -50l-39 -257q-10 -19 -31 -19q-22 1 -26 13z" glyph-name="v" horiz-adv-x="414" unicode="v"/>
<glyph d="M291 344q-7 -75 -36 -233q-8 -43 -12 -74q0 -1 -1 -3q-8 -31 -19 -38q-7 -4 -16 -5q-15 -1 -21 6q-2 3 -4 5l-13 66q-8 53 -24 158q-38 256 -61 384q-15 77 -33 125l-1 5q0 20 27 24q29 4 36 -13q1 -2 1 -3q15 -68 71 -404q5 -29 9 -52l19 -110q15 54 34 205q1 15 3 26 q3 24 30 29h3q21 1 29 -10l111 -276q6 197 36 628q9 21 33 20q22 -2 26 -24q1 -16 -10 -110q-1 -13 -2 -21q-10 -127 -24 -525q-2 -61 -4 -108q-4 -4 -7 -11q-8 -10 -20 -12h-7q-19 0 -27 22q-1 2 -2 8q-3 10 -5 15z" glyph-name="w" horiz-adv-x="569" unicode="w"/>
<glyph d="M221 350q-21 -98 -73 -308q-8 -25 -29 -27h-4q-22 2 -23 17q0 10 5 31q32 115 94 364l-138 303q0 2 -1 7l-1 5q1 20 34 20q21 -1 32 -23q16 -36 82 -196l5 -12q1 -4 7 -12q9 34 31 127q29 124 40 158q4 8 21 8h2q35 0 37 -24q-15 -57 -95 -351q24 -70 88 -221l73 -155 q8 -18 8 -23q0 -16 -22 -24q-7 -2 -12 -2q-15 1 -23 17q-134 317 -135 318z" glyph-name="x" horiz-adv-x="467" unicode="x"/>
<glyph d="M161 -5v5q1 7 1 10q1 21 4 99q11 246 11 275l-85 231q-17 39 -35 91q-7 16 -7 24q3 16 24 17q31 -1 42 -21q12 -34 33 -105q35 -118 58 -171q5 4 31 61.5t49.5 114t22.5 56.5q2 5 5 16q9 34 25 40q7 2 14 2q29 -3 30 -19v-7q-16 -43 -82 -176q-48 -97 -64 -158l-18 -381 q-3 -19 -34 -18h-2q-20 4 -23 14z" glyph-name="y" horiz-adv-x="435" unicode="y"/>
<glyph d="M120 56v5q0 12 17 75q0 4 1 6q17 83 63 384q19 126 36 212h-147q-36 1 -39 18q-2 18 13 28q9 5 18 5q34 0 99 1q63 1 95 1q20 0 23 -17q1 -3 1 -4l-116 -685q8 0 69 10q19 3 31 3q38 -2 39 -26q0 -24 -72 -31q-10 -1 -13 -1q-12 -2 -32 -6q-32 -7 -51 -7q-22 0 -32 21 q-2 4 -3 8z" glyph-name="z" horiz-adv-x="373" unicode="z"/>
<glyph d="M155 20q-7 -17 -18 -19q-4 -1 -8 -1q-30 2 -34 20q-6 89 -6 101q0 89 -15 323q-7 116 -7 211q3 29 19 31q11 0 18 -5.5t10.5 -16.5t4 -19t1.5 -21v-1v-5q5 -83 10 -223q9 -230 25 -375zM129 765q0 -14 -22 -26q-7 -4 -12 -4q-34 0 -43 33q-2 8 -2 16q1 25 40 25 q38 -2 39 -44z" glyph-name="exclamdown" horiz-adv-x="205" unicode="¡"/>
<glyph d="M430 67q-1 -22 -11 -25q-26 1 -165 -5q-28 -1 -50 -1h-74q-14 0 -23 23q-2 6 -3 10q2 6 5 45t4.5 75.5t0.5 36.5q-63 1 -64 28q2 14 21 15h47q12 264 15 300q4 39 8 71q15 106 44 142q27 32 69 32q9 0 14 -1q62 -12 67 -48v-6q-4 -18 -28 -17q-6 1 -29 14q-12 7 -21 7 q-27 0 -45 -53q-3 -8 -4 -15q-29 -133 -36 -385q0 -7 -1 -44q39 -1 77 0q27 -7 28 -29q0 -7 -10 -11q-1 -1 -2 -1q-15 -3 -94 -1q0 -16 -1 -24q-3 -106 -4 -117l249 15q15 -1 16 -31z" glyph-name="sterling" horiz-adv-x="480" unicode="£"/>
<glyph d="M296 607q-2 -38 -19 -52q-15 -13 -31 17q-1 1 -1 2q-44 -22 -99 -22q-92 8 -96 78q0 43 43 85q29 28 60 35q24 5 68 3h15q0 2 1 12q2 16 2 19q-8 44 -44 58q-9 4 -19 5q-26 3 -54 -29q-28 -27 -42 -29q-23 2 -24 23q0 33 56 59q34 16 62 16q84 0 112 -82q9 -26 10 -55 v-143zM102 627q0 -31 31 -34q6 -1 12 -1q72 0 94 58q6 18 6 38v13q-35 18 -76 10q-10 -2 -16 -5q-35 -18 -48 -59q-3 -11 -3 -20z" glyph-name="ordfeminine" horiz-adv-x="347" unicode="ª"/>
<glyph d="M61 323q-16 26 -7 46l197 132q24 9 34 -10q9 -20 -12 -35l-171 -104l157 -117q21 -16 9 -35q-13 -17 -35 -8zM233 317q-16 26 -7 46l197 132q24 9 34 -10q9 -20 -12 -35l-171 -104l157 -117q21 -16 9 -35q-13 -17 -35 -8z" glyph-name="guillemotleft" horiz-adv-x="510" unicode="«"/>
<glyph d="M97 881q84 57 138 -11q43 -55 41 -147q-2 -44 -16 -78q-25 -59 -82 -67q-24 -3 -48 4q-62 17 -77 113q-12 84 17 149q12 26 27 37zM187 847q-54 31 -77 -53q-10 -34 -10 -66v-6q2 -69 33 -90q10 -6 21 -6q5 0 12 2q38 9 55 73q19 70 -8 119q-11 18 -26 27z" glyph-name="ordmasculine" horiz-adv-x="326" unicode="º"/>
<glyph d="M277 317l-172 -131q-25 -11 -36 9q-8 19 10 34l157 117l-171 104q-21 14 -13 34q11 20 35 11l197 -132q10 -21 -7 -46zM449 323l-172 -131q-25 -11 -36 9q-8 19 10 34l157 117l-171 104q-21 14 -13 34q11 20 35 11l197 -132q10 -21 -7 -46z" glyph-name="guillemotright" horiz-adv-x="510" unicode="»"/>
<glyph d="M223 610v-105q0 -112 -6 -147q-7 -40 -21 -71q-3 -7 -45 -81q-35 -63 -35 -108q2 -49 45 -50q36 0 69 47q27 39 36 46q10 7 20 7q20 -3 22 -28q0 -57 -61 -98q-41 -27 -81 -27q-67 0 -99 47q-17 25 -17 56q0 58 48 142q46 80 56 113q9 31 9 59v198q1 14 23 14 q28 -1 37 -14zM223 719v-17q-2 -2 -3.5 -3t-4 -2t-3.5 -1.5t-3.5 -0.5h-3.5h-5h-3q-34 0 -39 23q-2 10 -2 25v11q1 12 1 15q1 3 3 4.5t5 2t5.5 0.5h5.5h4q37 0 42 -37q1 -9 1 -20z" glyph-name="questiondown" horiz-adv-x="358" unicode="¿"/>
<glyph d="M51 2l44 746q4 60 33 60q25 1 42 -38q5 -11 8 -22q27 -106 153 -719v-1v-1q0 -18 -17 -24q-19 -4 -31 17l-36 180l-135 -20q-12 -70 -17 -178q-1 -17 -23 -16q-20 3 -21 16zM139 691q-20 -302 -25 -409q-2 -13 -2 -54l125 18zM184 882q0 -18 -18 -22q-3 -1 -6 -1 q-9 1 -14 5l-37 28l-51 32q-5 5 -5 12q0 17 20 23q4 2 8 2q1 0 9 -4l65 -42q25 -16 28 -26q1 -4 1 -7z" glyph-name="Agrave" unicode="À"/>
<glyph d="M51 2l44 746q4 60 33 60q25 1 42 -38q5 -11 8 -22q27 -106 153 -719v-1v-1q0 -18 -17 -24q-19 -4 -31 17l-36 180l-135 -20q-12 -70 -17 -178q-1 -17 -23 -16q-20 3 -21 16zM139 691q-20 -302 -25 -409q-2 -13 -2 -54l125 18zM62 900q0 14 26 31q2 1 3 2l65 42l9 4 q18 0 26 -17q2 -4 2 -8q-1 -9 -5 -12l-51 -32l-37 -28q-7 -5 -14 -5q-18 0 -23 17q-1 3 -1 6z" glyph-name="Aacute" unicode="Á"/>
<glyph d="M51 2l44 746q4 60 33 60q25 1 42 -38q5 -11 8 -22q27 -106 153 -719v-1v-1q0 -18 -17 -24q-19 -4 -31 17l-36 180l-135 -20q-12 -70 -17 -178q-1 -17 -23 -16q-20 3 -21 16zM139 691q-20 -302 -25 -409q-2 -13 -2 -54l125 18zM11 843q0 6 1 8q9 17 56 68q12 13 19 22 q2 2 7 11q14 22 23 23q17 0 38 -31q1 -2 2 -3q24 -31 38 -52q1 -2 11 -12q20 -23 22 -26q5 -6 5 -15q-2 -13 -13 -14q-7 1 -16 5q-8 9 -61 73q-10 13 -18 22q-6 -6 -27 -33q-52 -67 -65 -68q-18 0 -21 17q-1 3 -1 5z" glyph-name="Acircumflex" unicode="Â"/>
<glyph d="M51 2l44 746q4 60 33 60q25 1 42 -38q5 -11 8 -22q27 -106 153 -719v-1v-1q0 -18 -17 -24q-19 -4 -31 17l-36 180l-135 -20q-12 -70 -17 -178q-1 -17 -23 -16q-20 3 -21 16zM139 691q-20 -302 -25 -409q-2 -13 -2 -54l125 18zM80 906q-16 0 -29 -28q-11 -22 -19 -23 q-21 0 -29 14q-1 3 -1 6q0 34 33 59q18 14 36 14q37 0 76 -44q16 -16 21 -17q17 0 24.5 7.5t7.5 16.5t3.5 16.5t12.5 7.5q26 -2 27 -34q0 -48 -48 -55q-7 -1 -14 -1q-35 0 -66 35q-23 25 -35 26z" glyph-name="Atilde" unicode="Ã"/>
<glyph d="M51 2l44 746q4 60 33 60q25 1 42 -38q5 -11 8 -22q27 -106 153 -719v-1v-1q0 -18 -17 -24q-19 -4 -31 17l-36 180l-135 -20q-12 -70 -17 -178q-1 -17 -23 -16q-20 3 -21 16zM139 691q-20 -302 -25 -409q-2 -13 -2 -54l125 18zM9 891q0 14 22 26q7 4 12 4q34 0 43 -33 q2 -8 2 -16q-1 -25 -40 -25q-38 2 -39 44zM141 901q0 15 20 27q5 3 9 3q29 0 36 -34q2 -8 2 -16q-1 -26 -34 -26q-32 2 -33 46z" glyph-name="Adieresis" unicode="Ä"/>
<glyph d="M36 866q0 86 70 100q13 3 26 3q49 0 69 -42q7 -17 7 -35q0 -71 -47 -93q-4 -2 -8 -3q18 -20 25 -48q27 -106 153 -719v-1v-1q0 -18 -17 -24q-19 -4 -31 17l-36 180l-135 -20q-12 -70 -17 -178q-1 -17 -23 -16q-20 3 -21 16l44 746q2 29 11 45q-53 7 -67 50q-3 11 -3 23z M139 691q-20 -302 -25 -409q-2 -13 -2 -54l125 18zM74 866q6 -29 38 -33q45 0 54 42q1 8 1 15q-2 40 -30 41q-41 0 -57 -37q-6 -14 -6 -28z" glyph-name="Aring" unicode="Å"/>
<glyph d="M323 760q-99 0 -149 -2l3 -10q18 -72 94 -436l11 -52h10l6 1q5 0 112 15h5q25 0 36 -19q10 -19 -15 -25q-3 -1 -5 -1l-139 -21l32 -154h19v-5q2 -1 70 2q80 1 81 -27q-1 -22 -19 -26h-12q-122 -10 -160 2q-12 3 -21 18l-36 180l-135 -20q-12 -70 -17 -178q-2 -18 -25 -16 q-18 3 -19 16l44 746q8 55 45 57q195 14 196 -20q-2 -18 -12 -25zM138 691q-20 -302 -25 -409q-2 -13 -2 -54l125 18z" glyph-name="AE" horiz-adv-x="544" unicode="Æ"/>
<glyph d="M143 -87q1 21 14 22q14 0 29 -14q11 -10 25 -10q43 2 44 31q0 21 -23 25q-36 7 -38 8q-31 15 -32 69v22q-107 64 -111 284q-1 50 4 99q5 121 51 214q54 106 143 107h7q58 -3 80 -40q8 -15 8 -32q-2 -21 -17 -22q-16 0 -37 23q-20 20 -38 23h-2q-3 1 -4 1q-52 0 -94 -107 q-49 -125 -46 -279q3 -176 79 -231q27 -19 60 -21h5q36 0 52 38q17 37 18 39q12 15 31 16h3q23 -2 24 -22q-1 -10 -11 -29q-2 -6 -4 -10q-36 -73 -112 -74h-9q-18 0 -36 5v-30q56 -5 79 -53q21 -43 -4 -74q-25 -29 -80 -21q-15 0 -43 23q-14 12 -15 20z" glyph-name="Ccedilla" horiz-adv-x="428" unicode="Ç"/>
<glyph d="M65 93l-1 49v198q0 48 -10 248q-4 71 -4 130v51q158 13 174 -8q4 -5 4 -12q-2 -18 -12 -25h-109q-7 -1 -7 -8q0 -55 13 -245q2 -26 3 -48q7 -2 116 -1q23 -1 34 -25t-10 -32q-5 -2 -13 -2h-127l2 -234q2 -1 70 2q80 1 81 -27q-1 -22 -19 -26h-5q-177 -14 -180 15z M195 888q0 -18 -18 -22q-3 -1 -6 -1q-9 1 -14 5l-37 28l-51 32q-5 5 -5 12q0 17 20 23q4 2 8 2q1 0 9 -4l65 -42q25 -16 28 -26q1 -4 1 -7z" glyph-name="Egrave" horiz-adv-x="319" unicode="È"/>
<glyph d="M65 93l-1 49v198q0 48 -10 248q-4 71 -4 130v51q158 13 174 -8q4 -5 4 -12q-2 -18 -12 -25h-109q-7 -1 -7 -8q0 -55 13 -245q2 -26 3 -48q7 -2 116 -1q23 -1 34 -25t-10 -32q-5 -2 -13 -2h-127l2 -234q2 -1 70 2q80 1 81 -27q-1 -22 -19 -26h-5q-177 -14 -180 15zM93 888 q0 14 26 31q2 1 3 2l65 42l9 4q18 0 26 -17q2 -4 2 -8q-1 -9 -5 -12l-51 -32l-37 -28q-7 -5 -14 -5q-18 0 -23 17q-1 3 -1 6z" glyph-name="Eacute" horiz-adv-x="319" unicode="É"/>
<glyph d="M65 93l-1 49v198q0 48 -10 248q-4 71 -4 130v51q158 13 174 -8q4 -5 4 -12q-2 -18 -12 -25h-109q-7 -1 -7 -8q0 -55 13 -245q2 -26 3 -48q7 -2 116 -1q23 -1 34 -25t-10 -32q-5 -2 -13 -2h-127l2 -234q2 -1 70 2q80 1 81 -27q-1 -22 -19 -26h-5q-177 -14 -180 15zM11 845 q0 6 1 8q9 17 56 68q12 13 19 22q2 2 7 11q14 22 23 23q17 0 38 -31q1 -2 2 -3q24 -31 38 -52q1 -2 11 -12q20 -23 22 -26q5 -6 5 -15q-2 -13 -13 -14q-7 1 -16 5q-8 9 -61 73q-10 13 -18 22q-6 -6 -27 -33q-52 -67 -65 -68q-18 0 -21 17q-1 3 -1 5z" glyph-name="Ecircumflex" horiz-adv-x="319" unicode="Ê"/>
<glyph d="M65 93l-1 49v198q0 48 -10 248q-4 71 -4 130v51q158 13 174 -8q4 -5 4 -12q-2 -18 -12 -25h-109q-7 -1 -7 -8q0 -55 13 -245q2 -26 3 -48q7 -2 116 -1q23 -1 34 -25t-10 -32q-5 -2 -13 -2h-127l2 -234q2 -1 70 2q80 1 81 -27q-1 -22 -19 -26h-5q-177 -14 -180 15zM24 889 q0 14 22 26q7 4 12 4q34 0 43 -33q2 -8 2 -16q-1 -25 -40 -25q-38 2 -39 44zM156 899q0 15 20 27q5 3 9 3q29 0 36 -34q2 -8 2 -16q-1 -26 -34 -26q-32 2 -33 46z" glyph-name="Edieresis" horiz-adv-x="319" unicode="Ë"/>
<glyph d="M51 758q1 18 25 14q25 -4 28 -22l44 -610q5 -48 5 -53q-3 -21 -34 -22q-22 0 -28 32q-1 3 -1 6l-25 439q-2 23 -6 68q-9 99 -8 148zM128 859q0 -18 -18 -22q-3 -1 -6 -1q-9 1 -14 5l-37 28l-51 32q-5 5 -5 12q0 17 20 23q4 2 8 2q1 0 9 -4l65 -42q25 -16 28 -26 q1 -4 1 -7z" glyph-name="Igrave" horiz-adv-x="203" unicode="Ì"/>
<glyph d="M51 758q1 18 25 14q25 -4 28 -22l44 -610q5 -48 5 -53q-3 -21 -34 -22q-22 0 -28 32q-1 3 -1 6l-25 439q-2 23 -6 68q-9 99 -8 148zM-2 869q0 14 26 31q2 1 3 2l65 42l9 4q18 0 26 -17q2 -4 2 -8q-1 -9 -5 -12l-51 -32l-37 -28q-7 -5 -14 -5q-18 0 -23 17q-1 3 -1 6z" glyph-name="Iacute" horiz-adv-x="203" unicode="Í"/>
<glyph d="M51 758q1 18 25 14q25 -4 28 -22l44 -610q5 -48 5 -53q-3 -21 -34 -22q-22 0 -28 32q-1 3 -1 6l-25 439q-2 23 -6 68q-9 99 -8 148zM-55 856q0 6 1 8q9 17 56 68q12 13 19 22q2 2 7 11q14 22 23 23q17 0 38 -31q1 -2 2 -3q24 -31 38 -52q1 -2 11 -12q20 -23 22 -26 q5 -6 5 -15q-2 -13 -13 -14q-7 1 -16 5q-8 9 -61 73q-10 13 -18 22q-6 -6 -27 -33q-52 -67 -65 -68q-18 0 -21 17q-1 3 -1 5z" glyph-name="Icircumflex" horiz-adv-x="203" unicode="Î"/>
<glyph d="M51 758q1 18 25 14q25 -4 28 -22l44 -610q5 -48 5 -53q-3 -21 -34 -22q-22 0 -28 32q-1 3 -1 6l-25 439q-2 23 -6 68q-9 99 -8 148zM-40 900q0 14 22 26q7 4 12 4q34 0 43 -33q2 -8 2 -16q-1 -25 -40 -25q-38 2 -39 44zM92 910q0 15 20 27q5 3 9 3q29 0 36 -34 q2 -8 2 -16q-1 -26 -34 -26q-32 2 -33 46z" glyph-name="Idieresis" horiz-adv-x="203" unicode="Ï"/>
<glyph d="M76 391q-24 3 -25.5 23t19.5 26q5 1 8 1q20 0 30 -1l6 148q1 9 2 92q2 80 2 90l1 6q4 20 44 22h4q205 -10 205 -365q0 -8 -1 -23v-20q-10 -342 -229 -343q-23 0 -43 4q0 1 2 158q1 62 5 181q-11 1 -30 1zM175 742l-11 -305q50 -2 74 -2q23 -7 21 -27q-3 -18 -23 -23 q-25 0 -74 2l-10 -296q8 -1 11 -1q109 0 142 201q8 45 10 95q9 178 -39 277q-37 73 -101 79z" glyph-name="Eth" horiz-adv-x="422" unicode="Ð"/>
<glyph d="M50 29l25 719q19 37 54 -4q2 -4 4 -6q11 -32 90 -286q45 -143 84 -240l10 140q13 146 11 361q8 23 38 25q20 -1 28 -13q-20 -236 -33 -676l-1 -13q-4 -11 -18 -17q-4 -2 -6 -2q-13 0 -26 17q-2 1 -2 2q-28 83 -86 248q-73 206 -106 310l-7 -570q-18 -40 -42 -26 q-16 10 -17 31zM193 869q-16 0 -29 -28q-11 -22 -19 -23q-21 0 -29 14q-1 3 -1 6q0 34 33 59q18 14 36 14q37 0 76 -44q16 -16 21 -17q17 0 24.5 7.5t7.5 16.5t3.5 16.5t12.5 7.5q26 -2 27 -34q0 -48 -48 -55q-7 -1 -14 -1q-35 0 -66 35q-23 25 -35 26z" glyph-name="Ntilde" horiz-adv-x="444" unicode="Ñ"/>
<glyph d="M83 192q-38 176 -32 330q13 258 166 259q86 0 138 -131q52 -133 43 -308q-9 -178 -77 -253q-32 -34 -72 -38q-2 0 -6 -1h-6q-109 0 -148 121q-3 11 -6 21zM211 726q-102 -9 -104 -244q-1 -133 22 -237q1 -4 2 -7q17 -71 52 -110q20 -21 39 -23h12q67 6 98 169v1 q15 77 7 204q-13 217 -97 244q-12 3 -23 3h-8zM291 887q0 -18 -18 -22q-3 -1 -6 -1q-9 1 -14 5l-37 28l-51 32q-5 5 -5 12q0 17 20 23q4 2 8 2q1 0 9 -4l65 -42q25 -16 28 -26q1 -4 1 -7z" glyph-name="Ograve" horiz-adv-x="450" unicode="Ò"/>
<glyph d="M83 192q-38 176 -32 330q13 258 166 259q86 0 138 -131q52 -133 43 -308q-9 -178 -77 -253q-32 -34 -72 -38q-2 0 -6 -1h-6q-109 0 -148 121q-3 11 -6 21zM211 726q-102 -9 -104 -244q-1 -133 22 -237q1 -4 2 -7q17 -71 52 -110q20 -21 39 -23h12q67 6 98 169v1 q15 77 7 204q-13 217 -97 244q-12 3 -23 3h-8zM159 887q0 14 26 31q2 1 3 2l65 42l9 4q18 0 26 -17q2 -4 2 -8q-1 -9 -5 -12l-51 -32l-37 -28q-7 -5 -14 -5q-18 0 -23 17q-1 3 -1 6z" glyph-name="Oacute" horiz-adv-x="450" unicode="Ó"/>
<glyph d="M83 192q-38 176 -32 330q13 258 166 259q86 0 138 -131q52 -133 43 -308q-9 -178 -77 -253q-32 -34 -72 -38q-2 0 -6 -1h-6q-109 0 -148 121q-3 11 -6 21zM211 726q-102 -9 -104 -244q-1 -133 22 -237q1 -4 2 -7q17 -71 52 -110q20 -21 39 -23h12q67 6 98 169v1 q15 77 7 204q-13 217 -97 244q-12 3 -23 3h-8zM82 846q0 6 1 8q9 17 56 68q12 13 19 22q2 2 7 11q14 22 23 23q17 0 38 -31q1 -2 2 -3q24 -31 38 -52q1 -2 11 -12q20 -23 22 -26q5 -6 5 -15q-2 -13 -13 -14q-7 1 -16 5q-8 9 -61 73q-10 13 -18 22q-6 -6 -27 -33 q-52 -67 -65 -68q-18 0 -21 17q-1 3 -1 5z" glyph-name="Ocircumflex" horiz-adv-x="450" unicode="Ô"/>
<glyph d="M83 192q-38 176 -32 330q13 258 166 259q86 0 138 -131q52 -133 43 -308q-9 -178 -77 -253q-32 -34 -72 -38q-2 0 -6 -1h-6q-109 0 -148 121q-3 11 -6 21zM211 726q-102 -9 -104 -244q-1 -133 22 -237q1 -4 2 -7q17 -71 52 -110q20 -21 39 -23h12q67 6 98 169v1 q15 77 7 204q-13 217 -97 244q-12 3 -23 3h-8zM150 897q-16 0 -29 -28q-11 -22 -19 -23q-21 0 -29 14q-1 3 -1 6q0 34 33 59q18 14 36 14q37 0 76 -44q16 -16 21 -17q17 0 24.5 7.5t7.5 16.5t3.5 16.5t12.5 7.5q26 -2 27 -34q0 -48 -48 -55q-7 -1 -14 -1q-35 0 -66 35 q-23 25 -35 26z" glyph-name="Otilde" horiz-adv-x="450" unicode="Õ"/>
<glyph d="M83 192q-38 176 -32 330q13 258 166 259q86 0 138 -131q52 -133 43 -308q-9 -178 -77 -253q-32 -34 -72 -38q-2 0 -6 -1h-6q-109 0 -148 121q-3 11 -6 21zM211 726q-102 -9 -104 -244q-1 -133 22 -237q1 -4 2 -7q17 -71 52 -110q20 -21 39 -23h12q67 6 98 169v1 q15 77 7 204q-13 217 -97 244q-12 3 -23 3h-8zM75 876q0 14 22 26q7 4 12 4q34 0 43 -33q2 -8 2 -16q-1 -25 -40 -25q-38 2 -39 44zM207 886q0 15 20 27q5 3 9 3q29 0 36 -34q2 -8 2 -16q-1 -26 -34 -26q-32 2 -33 46z" glyph-name="Odieresis" horiz-adv-x="450" unicode="Ö"/>
<glyph d="M91 17q0 1 1 6v5q20 67 25 83q-21 30 -34 81q-38 176 -32 330q13 258 166 259q42 -1 78 -35q3 16 11 45q0 1 1 8q3 19 5 22q1 0 13 1q32 -2 33 -35q0 -37 -21 -99q61 -114 62 -295q2 -182 -58 -278q-38 -59 -92 -64q-2 0 -6 -1h-6q-46 0 -80 20l-19 -59q-6 -16 -17 -17 q-28 5 -30 23zM211 726q-102 -9 -104 -244q-1 -133 22 -237q1 -4 2 -7q4 -18 12 -40q81 272 138 495q-26 32 -62 33h-8zM332 275q15 79 7 206q-6 85 -24 143l-3 -12q-18 -63 -53 -190q-54 -192 -82 -287q24 -28 45 -30h12q67 6 98 169v1z" glyph-name="Oslash" horiz-adv-x="450" unicode="Ø"/>
<glyph d="M53 464q7 239 11 292q1 17 3 32q12 11 25 12q13 0 20.5 -6t9.5 -15.5t3 -20.5t0 -21v-1v-6q-1 -50 -8 -149t-8 -149q0 -8 -2 -34q-13 -209 22 -273q21 -34 53 -35q44 0 78 91q7 20 11 36q60 284 60 535v22q2 19 33 20q21 0 29 -20q2 -5 2 -10l-1 -15q-18 -271 -49 -449 l-2 -13q0 -1 -1 -3q-1 -5 -2 -7q-30 -178 -98 -222q-25 -15 -54 -15q-132 0 -137 202v21v18q0 86 2 183zM288 887q0 -18 -18 -22q-3 -1 -6 -1q-9 1 -14 5l-37 28l-51 32q-5 5 -5 12q0 17 20 23q4 2 8 2q1 0 9 -4l65 -42q25 -16 28 -26q1 -4 1 -7z" glyph-name="Ugrave" horiz-adv-x="445" unicode="Ù"/>
<glyph d="M53 464q7 239 11 292q1 17 3 32q12 11 25 12q13 0 20.5 -6t9.5 -15.5t3 -20.5t0 -21v-1v-6q-1 -50 -8 -149t-8 -149q0 -8 -2 -34q-13 -209 22 -273q21 -34 53 -35q44 0 78 91q7 20 11 36q60 284 60 535v22q2 19 33 20q21 0 29 -20q2 -5 2 -10l-1 -15q-18 -271 -49 -449 l-2 -13q0 -1 -1 -3q-1 -5 -2 -7q-30 -178 -98 -222q-25 -15 -54 -15q-132 0 -137 202v21v18q0 86 2 183zM156 887q0 14 26 31q2 1 3 2l65 42l9 4q18 0 26 -17q2 -4 2 -8q-1 -9 -5 -12l-51 -32l-37 -28q-7 -5 -14 -5q-18 0 -23 17q-1 3 -1 6z" glyph-name="Uacute" horiz-adv-x="445" unicode="Ú"/>
<glyph d="M53 464q7 239 11 292q1 17 3 32q12 11 25 12q13 0 20.5 -6t9.5 -15.5t3 -20.5t0 -21v-1v-6q-1 -50 -8 -149t-8 -149q0 -8 -2 -34q-13 -209 22 -273q21 -34 53 -35q44 0 78 91q7 20 11 36q60 284 60 535v22q2 19 33 20q21 0 29 -20q2 -5 2 -10l-1 -15q-18 -271 -49 -449 l-2 -13q0 -1 -1 -3q-1 -5 -2 -7q-30 -178 -98 -222q-25 -15 -54 -15q-132 0 -137 202v21v18q0 86 2 183zM111 880q0 6 1 8q9 17 56 68q12 13 19 22q2 2 7 11q14 22 23 23q17 0 38 -31q1 -2 2 -3q24 -31 38 -52q1 -2 11 -12q20 -23 22 -26q5 -6 5 -15q-2 -13 -13 -14 q-7 1 -16 5q-8 9 -61 73q-10 13 -18 22q-6 -6 -27 -33q-52 -67 -65 -68q-18 0 -21 17q-1 3 -1 5z" glyph-name="Ucircumflex" horiz-adv-x="445" unicode="Û"/>
<glyph d="M53 464q7 239 11 292q1 17 3 32q12 11 25 12q13 0 20.5 -6t9.5 -15.5t3 -20.5t0 -21v-1v-6q-1 -50 -8 -149t-8 -149q0 -8 -2 -34q-13 -209 22 -273q21 -34 53 -35q44 0 78 91q7 20 11 36q60 284 60 535v22q2 19 33 20q21 0 29 -20q2 -5 2 -10l-1 -15q-18 -271 -49 -449 l-2 -13q0 -1 -1 -3q-1 -5 -2 -7q-30 -178 -98 -222q-25 -15 -54 -15q-132 0 -137 202v21v18q0 86 2 183zM123 900q0 14 22 26q7 4 12 4q34 0 43 -33q2 -8 2 -16q-1 -25 -40 -25q-38 2 -39 44zM255 910q0 15 20 27q5 3 9 3q29 0 36 -34q2 -8 2 -16q-1 -26 -34 -26 q-32 2 -33 46z" glyph-name="Udieresis" horiz-adv-x="445" unicode="Ü"/>
<glyph d="M221 25q-5 42 -11 139q-15 206 -34 280q-98 197 -119 243q-18 39 6 50q18 9 30 -6q3 -4 4 -7l114 -240l67 265q3 19 29 19q28 1 34 -19q1 -4 1 -7v-4l-99 -304l35 -406q-2 -21 -27 -22q-25 1 -30 19zM104 835q0 14 26 31q2 1 3 2l65 42l9 4q18 0 26 -17q2 -4 2 -8 q-1 -9 -5 -12l-51 -32l-37 -28q-7 -5 -14 -5q-18 0 -23 17q-1 3 -1 6z" glyph-name="Yacute" horiz-adv-x="392" unicode="Ý"/>
<glyph d="M92 -10l-42 715v74q10 11 22 12q15 0 25 -18l2 -6q5 -38 5 -59v-113q1 -28 22 -32q5 0 16 -1q18 -1 27 -3q97 -20 116 -145q4 -27 4 -54q0 -116 -96 -180q-6 -4 -40 -15q-12 -5 -19 -9v-38q0 -16 3 -46q3 -31 3 -47q-2 -46 -30 -47l-17 9q-1 2 -1 3zM116 467 q0 -168 12 -252q1 0 6 -1h5q66 0 88 94q8 33 8 65q0 76 -38 116q-23 23 -55 23q-16 -1 -26 -6v-39z" glyph-name="Thorn" horiz-adv-x="339" unicode="Þ"/>
<glyph d="M50 20v89q6 212 6 361v36q4 88 12 166q21 154 139 155q54 0 83 -44q16 -24 16 -51q0 -32 -31 -94q-29 -57 -29 -91q1 -29 29 -65q77 -86 87 -99q68 -88 68 -175q0 -82 -60 -123q-35 -24 -80 -24q-40 0 -66 20q-13 12 -14 25q0 19 23 26q7 2 13 1q8 -2 25 -16q12 -8 23 -8 q62 0 78 72q4 18 4 37q0 77 -84 173q-11 13 -34 38q-25 28 -36 41q-30 36 -30 84q0 35 30 99q25 54 25 84q0 39 -29 47q-6 1 -11 1h-3q-79 -34 -91 -154q-2 -24 -4 -95q-5 -156 -5 -326v-66q0 -19 3 -55q2 -36 2 -54q-5 -24 -36 -27q-17 0 -22 9q-1 2 -1 3z" glyph-name="germandbls" horiz-adv-x="480" unicode="ß"/>
<glyph d="M273 218h-148l-6 -6l-17 -113q-5 -37 -8 -43q-8 -14 -22 -15q-14 0 -21 27q-1 6 -1 9l105 727q11 42 31 46q3 1 6 1q22 -1 31 -15l8 -21q57 -226 104 -630q3 -25 8 -70l6 -65l-1 -1v-1q-8 -22 -19 -26q-5 -1 -11 -1h-3q-15 1 -17 7zM198 744l-58 -464l125 -3zM259 899 q0 -18 -18 -22q-3 -1 -6 -1q-9 1 -14 5l-37 28l-51 32q-5 5 -5 12q0 17 20 23q4 2 8 2q1 0 9 -4l65 -42q25 -16 28 -26q1 -4 1 -7z" glyph-name="agrave" horiz-adv-x="399" unicode="à"/>
<glyph d="M273 218h-148l-6 -6l-17 -113q-5 -37 -8 -43q-8 -14 -22 -15q-14 0 -21 27q-1 6 -1 9l105 727q11 42 31 46q3 1 6 1q22 -1 31 -15l8 -21q57 -226 104 -630q3 -25 8 -70l6 -65l-1 -1v-1q-8 -22 -19 -26q-5 -1 -11 -1h-3q-15 1 -17 7zM198 744l-58 -464l125 -3zM113 929 q0 14 26 31q2 1 3 2l65 42l9 4q18 0 26 -17q2 -4 2 -8q-1 -9 -5 -12l-51 -32l-37 -28q-7 -5 -14 -5q-18 0 -23 17q-1 3 -1 6z" glyph-name="aacute" horiz-adv-x="399" unicode="á"/>
<glyph d="M273 218h-148l-6 -6l-17 -113q-5 -37 -8 -43q-8 -14 -22 -15q-14 0 -21 27q-1 6 -1 9l105 727q11 42 31 46q3 1 6 1q22 -1 31 -15l8 -21q57 -226 104 -630q3 -25 8 -70l6 -65l-1 -1v-1q-8 -22 -19 -26q-5 -1 -11 -1h-3q-15 1 -17 7zM198 744l-58 -464l125 -3zM84 888 q0 5 1 7q8 17 52 67q10 12 16 20q2 2 5 9q14 22 22 23q14 0 32 -27q3 -3 4 -5l34 -50q1 -2 15 -18q13 -16 15 -19q4 -6 4 -14q-2 -13 -12 -14q-7 1 -14 5q-7 7 -56 73q-9 11 -15 19q-5 -6 -23 -31q-48 -66 -60 -67q-17 5 -20 22z" glyph-name="acircumflex" horiz-adv-x="399" unicode="â"/>
<glyph d="M273 218h-148l-6 -6l-17 -113q-5 -37 -8 -43q-8 -14 -22 -15q-14 0 -21 27q-1 6 -1 9l105 727q11 42 31 46q3 1 6 1q22 -1 31 -15l8 -21q57 -226 104 -630q3 -25 8 -70l6 -65l-1 -1v-1q-8 -22 -19 -26q-5 -1 -11 -1h-3q-15 1 -17 7zM198 744l-58 -464l125 -3zM139 955 q-16 0 -29 -28q-11 -22 -19 -23q-21 0 -29 14q-1 3 -1 6q0 34 33 59q18 14 36 14q37 0 76 -44q16 -16 21 -17q17 0 24.5 7.5t7.5 16.5t3.5 16.5t12.5 7.5q26 -2 27 -34q0 -48 -48 -55q-7 -1 -14 -1q-35 0 -66 35q-23 25 -35 26z" glyph-name="atilde" horiz-adv-x="399" unicode="ã"/>
<glyph d="M273 218h-148l-6 -6l-17 -113q-5 -37 -8 -43q-8 -14 -22 -15q-14 0 -21 27q-1 6 -1 9l105 727q11 42 31 46q3 1 6 1q22 -1 31 -15l8 -21q57 -226 104 -630q3 -25 8 -70l6 -65l-1 -1v-1q-8 -22 -19 -26q-5 -1 -11 -1h-3q-15 1 -17 7zM198 744l-58 -464l125 -3zM100 902 q0 14 22 26q7 4 12 4q34 0 43 -33q2 -8 2 -16q-1 -25 -40 -25q-38 2 -39 44zM232 912q0 15 20 27q5 3 9 3q29 0 36 -34q2 -8 2 -16q-1 -26 -34 -26q-32 2 -33 46z" glyph-name="adieresis" horiz-adv-x="399" unicode="ä"/>
<glyph d="M113 891q0 86 70 100q13 3 26 3q49 0 69 -42q7 -17 7 -35q0 -73 -49 -93q-4 -2 -7 -3l2 -6q57 -226 104 -630q3 -25 8 -70l6 -65l-1 -1v-1q-8 -22 -19 -26q-5 -1 -11 -1h-3q-15 1 -17 7l-25 190h-148l-6 -6l-17 -113q-5 -37 -8 -43q-8 -14 -22 -15q-14 0 -21 27 q-1 6 -1 9l105 727q2 10 6 20q-47 18 -48 67zM198 744l-58 -464l125 -3zM151 891q6 -29 38 -33q45 0 54 42q1 8 1 15q-2 40 -30 41q-41 0 -57 -37q-6 -14 -6 -28z" glyph-name="aring" horiz-adv-x="399" unicode="å"/>
<glyph d="M273 218h-148l-6 -6l-17 -113q-5 -37 -8 -43q-8 -14 -22 -15q-14 0 -21 27q-1 6 -1 9l105 727q11 42 31 46q3 1 6 1h7q57 -5 216 -13h1h1q9 0 24 -15q2 -4 3 -5q1 -3 1 -5q0 -21 -30 -28q-6 -1 -11 -1h-2l-165 8q49 -203 87 -513l149 15q27 0 29 -21q3 -22 -25 -33 q-8 -3 -17 -4l-130 -18q2 -17 6 -46q5 -37 7 -57l5 -54l5 -1q10 -1 52 -1q19 0 51 3q49 5 60 -5q7 -8 8 -21q1 -23 -108 -26q-91 -1 -112 11q-5 3 -6 7zM198 744l-58 -464l125 -3z" glyph-name="ae" horiz-adv-x="575" unicode="æ"/>
<glyph d="M137 -59q1 21 14 22q14 0 29 -14q11 -10 25 -10q43 2 44 31q0 21 -23 25q-36 7 -38 8q-31 15 -32 69v25q-94 77 -106 259q-6 102 17 198q37 159 126 216q41 27 90 27q29 0 42 -21q5 -8 5 -16q-4 -31 -72 -28h-6q-71 0 -112 -131q-28 -90 -28 -183q0 -138 27 -201 q23 -52 69 -91q23 -19 78 -16q39 2 46 -10q20 -35 -26 -45q-11 -2 -23 -2q-44 0 -83 18v-25q56 -5 79 -53q21 -43 -4 -74q-25 -29 -80 -21q-15 0 -43 23q-14 12 -15 20z" glyph-name="ccedilla" horiz-adv-x="380" unicode="ç"/>
<glyph d="M61 32l-11 698q0 22 22 32q7 3 13 3h158q9 0 24 -15q2 -4 3 -5q1 -3 1 -5q0 -21 -32 -28q-6 -1 -11 -1h-120l5 -332l108 16h5q28 0 28 -18q0 -19 -24 -30q-8 -3 -15 -4l-100 -15l-3 -261q10 -1 52 -1q19 0 51 3q49 5 60 -5q7 -8 8 -21q1 -16 -54.5 -22t-111.5 -2t-56 13z M203 889q0 -18 -18 -22q-3 -1 -6 -1q-9 1 -14 5l-37 28l-51 32q-5 5 -5 12q0 17 20 23q4 2 8 2q1 0 9 -4l65 -42q25 -16 28 -26q1 -4 1 -7z" glyph-name="egrave" horiz-adv-x="334" unicode="è"/>
<glyph d="M61 32l-11 698q0 22 22 32q7 3 13 3h158q9 0 24 -15q2 -4 3 -5q1 -3 1 -5q0 -21 -32 -28q-6 -1 -11 -1h-120l5 -332l108 16h5q28 0 28 -18q0 -19 -24 -30q-8 -3 -15 -4l-100 -15l-3 -261q10 -1 52 -1q19 0 51 3q49 5 60 -5q7 -8 8 -21q1 -16 -54.5 -22t-111.5 -2t-56 13z M101 889q0 14 26 31q2 1 3 2l65 42l9 4q18 0 26 -17q2 -4 2 -8q-1 -9 -5 -12l-51 -32l-37 -28q-7 -5 -14 -5q-18 0 -23 17q-1 3 -1 6z" glyph-name="eacute" horiz-adv-x="334" unicode="é"/>
<glyph d="M61 32l-11 698q0 22 22 32q7 3 13 3h158q9 0 24 -15q2 -4 3 -5q1 -3 1 -5q0 -21 -32 -28q-6 -1 -11 -1h-120l5 -332l108 16h5q28 0 28 -18q0 -19 -24 -30q-8 -3 -15 -4l-100 -15l-3 -261q10 -1 52 -1q19 0 51 3q49 5 60 -5q7 -8 8 -21q1 -16 -54.5 -22t-111.5 -2t-56 13z M32 852q0 6 1 8q9 17 56 68q12 13 19 22q2 2 7 11q14 22 23 23q17 0 38 -31q1 -2 2 -3q24 -31 38 -52q1 -2 11 -12q20 -23 22 -26q5 -6 5 -15q-2 -13 -13 -14q-7 1 -16 5q-8 9 -61 73q-10 13 -18 22q-6 -6 -27 -33q-52 -67 -65 -68q-18 0 -21 17q-1 3 -1 5z" glyph-name="ecircumflex" horiz-adv-x="334" unicode="ê"/>
<glyph d="M61 32l-11 698q0 22 22 32q7 3 13 3h158q9 0 24 -15q2 -4 3 -5q1 -3 1 -5q0 -21 -32 -28q-6 -1 -11 -1h-120l5 -332l108 16h5q28 0 28 -18q0 -19 -24 -30q-8 -3 -15 -4l-100 -15l-3 -261q10 -1 52 -1q19 0 51 3q49 5 60 -5q7 -8 8 -21q1 -16 -54.5 -22t-111.5 -2t-56 13z M67 902q0 14 22 26q7 4 12 4q34 0 43 -33q2 -8 2 -16q-1 -25 -40 -25q-38 2 -39 44zM199 912q0 15 20 27q5 3 9 3q29 0 36 -34q2 -8 2 -16q-1 -26 -34 -26q-32 2 -33 46z" glyph-name="edieresis" horiz-adv-x="334" unicode="ë"/>
<glyph d="M50 19l27 742q6 18 18 20q5 1 15 1q25 0 28 -18q1 -8 1 -24q0 -2 -1 -11v-7l-30 -684q-1 -30 -28 -37q-23 -5 -29 11q-1 3 -1 7zM161 889q0 -18 -18 -22q-3 -1 -6 -1q-9 1 -14 5l-37 28l-51 32q-5 5 -5 12q0 17 20 23q4 2 8 2q1 0 9 -4l65 -42q25 -16 28 -26q1 -4 1 -7z " glyph-name="igrave" horiz-adv-x="189" unicode="ì"/>
<glyph d="M50 19l27 742q6 18 18 20q5 1 15 1q25 0 28 -18q1 -8 1 -24q0 -2 -1 -11v-7l-30 -684q-1 -30 -28 -37q-23 -5 -29 11q-1 3 -1 7zM29 889q0 14 26 31q2 1 3 2l65 42l9 4q18 0 26 -17q2 -4 2 -8q-1 -9 -5 -12l-51 -32l-37 -28q-7 -5 -14 -5q-18 0 -23 17q-1 3 -1 6z" glyph-name="iacute" horiz-adv-x="189" unicode="í"/>
<glyph d="M50 19l27 742q6 18 18 20q5 1 15 1q25 0 28 -18q1 -8 1 -24q0 -2 -1 -11v-7l-30 -684q-1 -30 -28 -37q-23 -5 -29 11q-1 3 -1 7zM-16 882q0 6 1 8q9 17 56 68q12 13 19 22q2 2 7 11q14 22 23 23q17 0 38 -31q1 -2 2 -3q24 -31 38 -52q1 -2 11 -12q20 -23 22 -26 q5 -6 5 -15q-2 -13 -13 -14q-7 1 -16 5q-8 9 -61 73q-10 13 -18 22q-6 -6 -27 -33q-52 -67 -65 -68q-18 0 -21 17q-1 3 -1 5z" glyph-name="icircumflex" horiz-adv-x="189" unicode="î"/>
<glyph d="M50 19l27 742q6 18 18 20q5 1 15 1q25 0 28 -18q1 -8 1 -24q0 -2 -1 -11v-7l-30 -684q-1 -30 -28 -37q-23 -5 -29 11q-1 3 -1 7zM-5 902q0 14 22 26q7 4 12 4q34 0 43 -33q2 -8 2 -16q-1 -25 -40 -25q-38 2 -39 44zM127 912q0 15 20 27q5 3 9 3q29 0 36 -34q2 -8 2 -16 q-1 -26 -34 -26q-32 2 -33 46z" glyph-name="idieresis" horiz-adv-x="189" unicode="ï"/>
<glyph d="M76 377q-24 3 -25.5 23t19.5 26q5 1 8 1h70q0 89 -1 252v95v4q1 41 29 54h9q72 -1 112 -36q128 -115 122 -384q-1 -10 -1 -20q-15 -358 -202 -395l-16 -2q-45 -6 -52 23q-1 7 -1 15v170v49q1 81 1 125h-72zM211 768q-4 -108 -7 -339h52q23 -7 21 -27q-3 -18 -23 -23h-50 v-326q100 15 140 177q18 73 18 150q0 268 -75 354q-30 33 -69 34h-7z" glyph-name="eth" horiz-adv-x="469" unicode="ð"/>
<glyph d="M50 32l12 704q-1 27 22 38q28 12 46 -19q3 -6 6 -13l204 -553q5 227 15 388q1 17 1 53q2 85 11 124q3 11 26 11q22 -1 24 -9q1 -5 1 -15q-1 -29 -17 -225q-4 -50 -5 -87q-12 -347 -12 -393q-6 -19 -29 -8q-12 7 -17 16q-12 26 -229 605v1l-1 2l-7 -614q0 -14 -12.5 -19.5 t-25.5 -1t-13 14.5zM194 877q-16 0 -29 -28q-11 -22 -19 -23q-21 0 -29 14q-1 3 -1 6q0 34 33 59q18 14 36 14q37 0 76 -44q16 -16 21 -17q17 0 24.5 7.5t7.5 16.5t3.5 16.5t12.5 7.5q26 -2 27 -34q0 -48 -48 -55q-7 -1 -14 -1q-35 0 -66 35q-23 25 -35 26z" glyph-name="ntilde" horiz-adv-x="469" unicode="ñ"/>
<glyph d="M50 448q0 234 74 313q44 47 112 47q145 -16 150 -378q1 -90 -7 -201q-10 -104 -60 -160q-36 -39 -84 -40q-153 0 -180 291q-5 57 -5 128zM108 540q-1 -33 -1 -88q0 -347 107 -371q9 -2 18 -2q87 0 98 247q1 32 1 70v4q0 122 -28 232q-33 124 -88 125q-57 0 -90 -116 q-17 -59 -17 -101zM284 889q0 -18 -18 -22q-3 -1 -6 -1q-9 1 -14 5l-37 28l-51 32q-5 5 -5 12q0 17 20 23q4 2 8 2q1 0 9 -4l65 -42q25 -16 28 -26q1 -4 1 -7z" glyph-name="ograve" horiz-adv-x="437" unicode="ò"/>
<glyph d="M50 448q0 234 74 313q44 47 112 47q145 -16 150 -378q1 -90 -7 -201q-10 -104 -60 -160q-36 -39 -84 -40q-153 0 -180 291q-5 57 -5 128zM108 540q-1 -33 -1 -88q0 -347 107 -371q9 -2 18 -2q87 0 98 247q1 32 1 70v4q0 122 -28 232q-33 124 -88 125q-57 0 -90 -116 q-17 -59 -17 -101zM152 889q0 14 26 31q2 1 3 2l65 42l9 4q18 0 26 -17q2 -4 2 -8q-1 -9 -5 -12l-51 -32l-37 -28q-7 -5 -14 -5q-18 0 -23 17q-1 3 -1 6z" glyph-name="oacute" horiz-adv-x="437" unicode="ó"/>
<glyph d="M50 448q0 234 74 313q44 47 112 47q145 -16 150 -378q1 -90 -7 -201q-10 -104 -60 -160q-36 -39 -84 -40q-153 0 -180 291q-5 57 -5 128zM108 540q-1 -33 -1 -88q0 -347 107 -371q9 -2 18 -2q87 0 98 247q1 32 1 70v4q0 122 -28 232q-33 124 -88 125q-57 0 -90 -116 q-17 -59 -17 -101zM91 864q0 6 1 8q9 17 56 68q12 13 19 22q2 2 7 11q14 22 23 23q17 0 38 -31q1 -2 2 -3q24 -31 38 -52q1 -2 11 -12q20 -23 22 -26q5 -6 5 -15q-2 -13 -13 -14q-7 1 -16 5q-8 9 -61 73q-10 13 -18 22q-6 -6 -27 -33q-52 -67 -65 -68q-18 0 -21 17 q-1 3 -1 5z" glyph-name="ocircumflex" horiz-adv-x="437" unicode="ô"/>
<glyph d="M50 448q0 234 74 313q44 47 112 47q145 -16 150 -378q1 -90 -7 -201q-10 -104 -60 -160q-36 -39 -84 -40q-153 0 -180 291q-5 57 -5 128zM108 540q-1 -33 -1 -88q0 -347 107 -371q9 -2 18 -2q87 0 98 247q1 32 1 70v4q0 122 -28 232q-33 124 -88 125q-57 0 -90 -116 q-17 -59 -17 -101zM176 921q-16 0 -29 -28q-11 -22 -19 -23q-21 0 -29 14q-1 3 -1 6q0 34 33 59q18 14 36 14q37 0 76 -44q16 -16 21 -17q17 0 24.5 7.5t7.5 16.5t3.5 16.5t12.5 7.5q26 -2 27 -34q0 -48 -48 -55q-7 -1 -14 -1q-35 0 -66 35q-23 25 -35 26z" glyph-name="otilde" horiz-adv-x="437" unicode="õ"/>
<glyph d="M50 448q0 234 74 313q44 47 112 47q145 -16 150 -378q1 -90 -7 -201q-10 -104 -60 -160q-36 -39 -84 -40q-153 0 -180 291q-5 57 -5 128zM108 540q-1 -33 -1 -88q0 -347 107 -371q9 -2 18 -2q87 0 98 247q1 32 1 70v4q0 122 -28 232q-33 124 -88 125q-57 0 -90 -116 q-17 -59 -17 -101zM119 902q0 14 22 26q7 4 12 4q34 0 43 -33q2 -8 2 -16q-1 -25 -40 -25q-38 2 -39 44zM251 912q0 15 20 27q5 3 9 3q29 0 36 -34q2 -8 2 -16q-1 -26 -34 -26q-32 2 -33 46z" glyph-name="odieresis" horiz-adv-x="437" unicode="ö"/>
<glyph d="M85 17q0 1 1 6v5l24 80q-60 104 -60 340q0 234 74 313q44 47 112 47q34 -5 61 -28l3 11q0 1 1 8q3 19 5 22q1 0 13 1q32 -2 33 -35q0 -31 -12 -70q64 -143 39 -488q-10 -104 -60 -160q-36 -39 -84 -40q-50 1 -87 32l-16 -50q-6 -16 -17 -17q-28 5 -30 23zM108 540 q-1 -33 -1 -88q0 -179 26 -268q93 315 145 518q-27 54 -63 55q-57 0 -90 -116q-17 -59 -17 -101zM331 400q0 107 -24 215q-1 -2 -1 -3q-18 -63 -53 -189q-57 -207 -88 -309q27 -35 67 -35q87 0 98 247q1 32 1 70v4z" glyph-name="oslash" horiz-adv-x="437" unicode="ø"/>
<glyph d="M326 247q-2 -100 -20 -136q-25 -49 -87 -50q-7 0 -24 2q-85 10 -116 225q-17 121 -26 444l-2 49v5q0 16 27 16q27 -1 33 -15q4 -7 6 -176q3 -394 62 -478q19 -25 42 -26q35 0 45 65q2 10 2 19q5 229 -4 596q15 17 29 18q29 -2 31 -20q1 -45 0 -370q0 -96 2 -168zM254 889 q0 -18 -18 -22q-3 -1 -6 -1q-9 1 -14 5l-37 28l-51 32q-5 5 -5 12q0 17 20 23q4 2 8 2q1 0 9 -4l65 -42q25 -16 28 -26q1 -4 1 -7z" glyph-name="ugrave" horiz-adv-x="376" unicode="ù"/>
<glyph d="M326 247q-2 -100 -20 -136q-25 -49 -87 -50q-7 0 -24 2q-85 10 -116 225q-17 121 -26 444l-2 49v5q0 16 27 16q27 -1 33 -15q4 -7 6 -176q3 -394 62 -478q19 -25 42 -26q35 0 45 65q2 10 2 19q5 229 -4 596q15 17 29 18q29 -2 31 -20q1 -45 0 -370q0 -96 2 -168zM122 889 q0 14 26 31q2 1 3 2l65 42l9 4q18 0 26 -17q2 -4 2 -8q-1 -9 -5 -12l-51 -32l-37 -28q-7 -5 -14 -5q-18 0 -23 17q-1 3 -1 6z" glyph-name="uacute" horiz-adv-x="376" unicode="ú"/>
<glyph d="M326 247q-2 -100 -20 -136q-25 -49 -87 -50q-7 0 -24 2q-85 10 -116 225q-17 121 -26 444l-2 49v5q0 16 27 16q27 -1 33 -15q4 -7 6 -176q3 -394 62 -478q19 -25 42 -26q35 0 45 65q2 10 2 19q5 229 -4 596q15 17 29 18q29 -2 31 -20q1 -45 0 -370q0 -96 2 -168zM77 882 q0 6 1 8q9 17 56 68q12 13 19 22q2 2 7 11q14 22 23 23q17 0 38 -31q1 -2 2 -3q24 -31 38 -52q1 -2 11 -12q20 -23 22 -26q5 -6 5 -15q-2 -13 -13 -14q-7 1 -16 5q-8 9 -61 73q-10 13 -18 22q-6 -6 -27 -33q-52 -67 -65 -68q-18 0 -21 17q-1 3 -1 5z" glyph-name="ucircumflex" horiz-adv-x="376" unicode="û"/>
<glyph d="M326 247q-2 -100 -20 -136q-25 -49 -87 -50q-7 0 -24 2q-85 10 -116 225q-17 121 -26 444l-2 49v5q0 16 27 16q27 -1 33 -15q4 -7 6 -176q3 -394 62 -478q19 -25 42 -26q35 0 45 65q2 10 2 19q5 229 -4 596q15 17 29 18q29 -2 31 -20q1 -45 0 -370q0 -96 2 -168zM88 902 q0 14 22 26q7 4 12 4q34 0 43 -33q2 -8 2 -16q-1 -25 -40 -25q-38 2 -39 44zM220 912q0 15 20 27q5 3 9 3q29 0 36 -34q2 -8 2 -16q-1 -26 -34 -26q-32 2 -33 46z" glyph-name="udieresis" horiz-adv-x="376" unicode="ü"/>
<glyph d="M161 -5v5q1 7 1 10q1 21 4 99q11 246 11 275l-85 231q-17 39 -35 91q-7 16 -7 24q3 16 24 17q31 -1 42 -21q12 -34 33 -105q35 -118 58 -171q5 4 31 61.5t49.5 114t22.5 56.5q2 5 5 16q9 34 25 40q7 2 14 2q29 -3 30 -19v-7q-16 -43 -82 -176q-48 -97 -64 -158l-18 -381 q-3 -19 -34 -18h-2q-20 4 -23 14zM129 825q0 14 26 31q2 1 3 2l65 42l9 4q18 0 26 -17q2 -4 2 -8q-1 -9 -5 -12l-51 -32l-37 -28q-7 -5 -14 -5q-18 0 -23 17q-1 3 -1 6z" glyph-name="yacute" horiz-adv-x="435" unicode="ý"/>
<glyph d="M86 -16q-5 72 -20 446q-6 155 -15 272q-1 3 -1 32q0 27 1 33q0 3 2 4.5t5 1.5t5 0.5t5 0.5l3 -1q28 0 31 -35q0 -1 2 -24q1 -12 5 -91q1 -28 1 -34q81 -9 136 -80q42 -57 42 -121q-1 -214 -160 -273v-21q0 -15 3 -45q3 -29 3 -43q0 -22 -18 -27q-3 -1 -6 -1q-11 0 -24 6z M114 531q0 -192 7 -357h4q3 0 7.5 1.5t7 3t6.5 4.5l5 3q78 44 83 147q1 11 1 22q0 90 -44 141q-32 35 -77 35z" glyph-name="thorn" horiz-adv-x="338" unicode="þ"/>
</font>
</defs>
</svg>
