<?xml version="1.0" encoding="utf-8"?>
<!-- Generator: Adobe Illustrator 21.0.0, SVG Export Plug-In . SVG Version: 6.00 Build 0)  -->
<svg version="1.1" id="Layer_1" xmlns="http://www.w3.org/2000/svg" xmlns:xlink="http://www.w3.org/1999/xlink" x="0px" y="0px"
	 viewBox="0 0 195.7 50.5" style="enable-background:new 0 0 195.7 50.5;" xml:space="preserve">
<style type="text/css">
	.st0{fill:#A9C935;stroke:#A9C935;stroke-width:2;stroke-linejoin:round;stroke-miterlimit:10;}
	.st1{fill:#DF165B;stroke:#DF165B;stroke-width:2;stroke-miterlimit:10;}
	.st2{fill:#EE841E;stroke:#EE841E;stroke-width:2;stroke-linejoin:round;stroke-miterlimit:10;}
	.st3{fill:#A9C935;stroke:#A9C935;stroke-width:2;stroke-miterlimit:10;}
	.st4{fill:#FFFFFF;}
	.st5{fill:#EE841E;}
	.st6{fill:#A9C935;}
	.st7{fill:#DF165B;}
	.st8{fill:#130D13;}
	.st9{fill:#2828DC;}
</style>
<path class="st0" d="M1,32.4c0-5.2,0.6-15.9,7.6-16.2h0.3c1.6,0,4.6,1,4.6,2.6c0,0.2,0,0.3-0.1,0.5c-0.8,2-2.2-0.9-4.7-1.2H8.6
	c-3.8,0.5-5.2,5.6-5.2,12.6v0.9L3.5,36c0.2,2.8,1,9.4,4.8,9.4h0.2c2.7-0.2,3.2-5.8,3.3-7.7c0.2-1.4,0.4-2.9,0.3-4.4
	c-0.1-2.6-4.7,0.2-4.9-2c0-1,1.2-1.2,1.9-1.2h0.7c1,0,4.6-0.1,4.6,1.6v0.8c0,1.3-0.4,5.9-0.5,6.6c-0.4,3.7-1.2,8.3-5.7,8.5H7.9
	C1.5,47.5,1,37.4,1,33V32.4z"/>
<path class="st0" d="M20.5,40l-0.2,0.3L19.6,45c-0.1,0.6,0,2.4-1.2,2.4c-0.5,0-0.9-1.1-0.9-1.5c4.3-30.2,4.4-30.3,4.4-30.3
	c0.2-0.8,0.5-2,1.5-2c0.5,0,1,0.2,1.3,0.6l0.3,0.9c2.4,9.5,3.5,19.3,4.7,29.1l0.2,2.7c0,0,0,0,0,0.1c-0.3,0.8-0.5,1.1-1.2,1.1h-0.1
	c-0.2,0-0.7,0-0.7-0.3l-1-7.9L20.5,40L20.5,40z M21.2,37.4l5.2,0.1l-2.8-19.4L21.2,37.4z"/>
<path class="st0" d="M33.8,48.7c0,0-0.5-21.5-0.5-24.3c0-0.8-0.5-7.2-0.5-8v-0.3c0-0.3,0-0.5,0.3-0.7c0.1,0,0.6-0.1,0.8-0.1
	c0.7,0,1.1,0,1.3,0.9c0.4,1.6,0.2,2.6,0.2,4.2c0.2,8.5,0.3,17.1,0.8,25.7h0.3c1.7,0,3.4-0.6,5.2-0.6c0.7,0,1.4,0.2,1.4,1
	c0,0.5-0.2,0.8-0.8,0.9L33.8,48.7z"/>
<path class="st0" d="M45.7,18.7c0-0.7,0.7-1.5,1.5-1.5h6.6c0.2,0,1.1,0.6,1.1,0.8c0,0.1,0,0.1,0,0.2c0,0.8-1.1,1.2-1.8,1.2h-5
	l0.2,13.8l4.5-0.7H53c2,0,1.2,1.9-0.5,2.2l-4.2,0.6l-0.1,10.9c0.4,0,1.8,0,2.2,0c2.8,0,4.8-1,5,1c0.1,1.4-9.2,1.2-9.2,0.5L45.7,18.7
	z"/>
<path class="st0" d="M59.6,45.4c0-9.4,0.3-18.8,0.6-28.2c0.1-1.9,0.8-1.9,2.5-1.9H63c3.8,0,6.3,2.5,6.3,6.2V22c0,3-0.8,6.6-3.5,8.5
	c0.2,0.2,1.2,1.3,1.3,1.6c1.9,2.5,1.4,8.4,1.6,11.3c0,0.3,0.2,2.2,0.2,2.4V46c0,0.7-0.7,0.8-1.2,0.8l0,0c-0.5,0-1,0-1.2-0.6
	c0-1.4-0.4-7.7-0.5-9.2c-0.2-2-0.6-4.8-3.1-4.8h-0.7c-0.1,0.4-0.3,2-0.3,2.4s-0.2,9.6-0.3,13.2c0,0.8,0.1,1.7-0.9,1.7
	c-0.5,0-1-0.2-1.2-0.6L59.6,45.4L59.6,45.4z M62.8,29.3c3,0,4.1-5.5,4.1-7.4c0-2-0.9-4.5-3.3-4.5c-0.6,0-1,0.4-1,1.1
	c0,3.6-0.3,6.7-0.3,10.4C62.3,29.2,62.6,29.3,62.8,29.3z"/>
<path class="st0" d="M88.6,40l-0.2,0.3L87.7,45c-0.1,0.6,0,2.4-1.2,2.4c-0.5,0-0.9-1.1-0.9-1.5C89.9,15.7,90,15.6,90,15.6
	c0.2-0.8,0.5-2,1.5-2c0.5,0,1,0.2,1.3,0.6l0.3,0.9c2.4,9.5,3.5,19.3,4.7,29.1l0.2,2.7c0,0,0,0,0,0.1c-0.3,0.8-0.5,1.1-1.2,1.1h-0.1
	c-0.2,0-0.7,0-0.7-0.3l-1-7.9L88.6,40L88.6,40z M89.2,37.4l5.2,0.1l-2.8-19.4L89.2,37.4z"/>
<path class="st1" d="M110.5,40.6c0-3.6,0-20.2,0-23.8v-0.2c0-0.9,0.3-1.9,1.2-2.2h0.4c1.7,0,3.4,0.4,4.7,1.5c4.5,4,5.3,11.2,5,16.8
	c-0.3,8-2.2,15.7-9.1,16.5c-1.3,0.2-2.2,0-2.2-1.6V40.6z M112.9,32.6c0,3.7-0.1,10,0,14.3c5.2-0.8,6.6-9,6.6-13.6
	c0-3.3-0.2-16.2-6-16.2h-0.3C113.1,19.4,112.9,30.3,112.9,32.6z"/>
<path class="st1" d="M126,18.7c0-0.7,0.7-1.5,1.5-1.5h6.6c0.2,0,1.1,0.6,1.1,0.8c0,0.1,0,0.1,0,0.2c0,0.8-1.1,1.2-1.8,1.2h-5
	l0.2,13.8l4.5-0.7h0.2c2,0,1.2,1.9-0.5,2.2l-4.2,0.6l-0.1,10.9c0.4,0,1.8,0,2.2,0c2.8,0,4.8-1,5,1c0.1,1.4-9.2,1.2-9.2,0.5L126,18.7
	z"/>
<path class="st2" d="M149.2,40l-0.2,0.3l-0.7,4.7c-0.1,0.6,0,2.4-1.2,2.4c-0.5,0-0.9-1.1-0.9-1.5c4.3-30.2,4.4-30.3,4.4-30.3
	c0.2-0.8,0.5-2,1.5-2c0.5,0,1,0.2,1.3,0.6l0.3,0.9c2.4,9.5,3.5,19.3,4.7,29.1l0.2,2.7c0,0,0,0,0,0.1c-0.3,0.8-0.5,1.1-1.2,1.1h-0.1
	c-0.2,0-0.7,0-0.7-0.3l-1-7.9L149.2,40L149.2,40z M149.8,37.4l5.2,0.1l-2.8-19.4L149.8,37.4z"/>
<path class="st2" d="M161.1,45.4c0-9.4,0.3-18.8,0.6-28.2c0.1-1.9,0.8-1.9,2.5-1.9h0.4c3.8,0,6.3,2.5,6.3,6.2V22
	c0,3-0.8,6.6-3.5,8.5c0.2,0.2,1.2,1.3,1.3,1.6c1.9,2.5,1.4,8.4,1.6,11.3c0,0.3,0.2,2.2,0.2,2.4V46c0,0.7-0.7,0.8-1.2,0.8l0,0
	c-0.5,0-1,0-1.2-0.6c0-1.4-0.4-7.7-0.5-9.2c-0.2-2-0.6-4.8-3.1-4.8h-0.7c-0.1,0.4-0.3,2-0.3,2.4s-0.2,9.6-0.3,13.2
	c0,0.8,0.1,1.7-0.9,1.7c-0.5,0-1-0.2-1.2-0.6L161.1,45.4L161.1,45.4z M164.3,29.3c3,0,4.1-5.5,4.1-7.4c0-2-0.9-4.5-3.3-4.5
	c-0.6,0-1,0.4-1,1.1c0,3.6-0.3,6.7-0.3,10.4C163.8,29.2,164.1,29.3,164.3,29.3z"/>
<path class="st2" d="M176.6,18.1c-2.6,0.2-3.7,0.1-3.8-0.6c0.1-1.4,0.1-1.9,4.4-1.7h3.5c0.9,0,2.5,0.2,2.5,1.4
	c0,0.4-0.5,0.8-0.8,0.8h-3.5l0.8,26.4c0,0.4-0.8,0.6-1.1,0.6s-1.1-0.2-1.1-0.6L176.6,18.1z"/>
<path class="st2" d="M185,18.7c0-0.7,0.7-1.5,1.5-1.5h6.6c0.2,0,1.1,0.6,1.1,0.8c0,0.1,0,0.1,0,0.2c0,0.8-1.1,1.2-1.8,1.2h-5
	l0.2,13.8l4.5-0.7h0.2c2,0,1.2,1.9-0.5,2.2l-4.2,0.6l-0.1,10.9c0.4,0,1.8,0,2.2,0c2.8,0,4.8-1,5,1c0.1,1.4-9.2,1.2-9.2,0.5L185,18.7
	z"/>
<g>
	<path class="st3" d="M80.4,1.1c1.1,0.3,1.7,1.4,1.3,2.6c-0.6,1.9-1.8,3.6-2.7,5.1c-0.3,0.6-0.6,0.7-1.1,0.6
		c-0.8-0.3-0.6-0.9-0.4-1.6c0.4-1.5,0.6-3.9,1.1-5.6C79,1.2,79.5,0.8,80.4,1.1z"/>
</g>
<polygon class="st4" points="77.5,13.9 81.6,20.2 80.7,21.7 73.8,21 73.5,20.2 "/>
<path class="st5" d="M77.1,13.5c0.1-0.1,0.3-0.2,0.4-0.2c0.2,0,0.4,0.1,0.5,0.3l4,6.3c0.1,0.2,0.1,0.4,0,0.6L81.3,22
	c-0.1,0.2-0.4,0.3-0.6,0.3l-6.9-0.7c-0.2,0-0.4-0.2-0.5-0.4L73,20.5c-0.1-0.2-0.1-0.4,0-0.6L77.1,13.5
	C77.1,13.5,77.1,13.5,77.1,13.5 M80.9,20.2L77.5,15l-3.4,5.3v0.1l6.2,0.6L80.9,20.2z"/>
<path class="st6" d="M81.6,20c0,0-0.8,2.3-2.8,0.4c0,0-1.4,1.8-2.6,0.1c0,0-1.3,1.2-2.6-0.2l0.2,19.9l8,0.2L81.6,20z"/>
<path class="st6" d="M73.1,19.8c0.1-0.1,0.1-0.1,0.2-0.1c0.2-0.1,0.5,0,0.7,0.1c0.9,0.9,1.7,0.2,1.8,0.2c0.1-0.1,0.3-0.2,0.5-0.2
	s0.3,0.1,0.4,0.3c0.2,0.3,0.4,0.5,0.7,0.5c0.4,0,0.9-0.4,1-0.6c0.1-0.1,0.3-0.2,0.4-0.2c0.2,0,0.3,0,0.5,0.2
	c0.5,0.4,0.9,0.7,1.2,0.6c0.4-0.1,0.6-0.6,0.6-0.7c0.1-0.3,0.4-0.5,0.7-0.4c0.3,0,0.5,0.3,0.5,0.6l0.1,20.3c0,0.2-0.1,0.3-0.2,0.4
	l0,0c-0.1,0.1-0.3,0.2-0.4,0.2l-8-0.2c-0.3,0-0.6-0.3-0.6-0.6L73,20.3C72.9,20.1,72.9,19.9,73.1,19.8 M76,21.2
	c-0.5,0.3-1.2,0.4-1.9,0.1l0.2,18.1l6.7,0.2l0-18c-0.1,0-0.2,0.1-0.3,0.1c-0.6,0.1-1.2,0-1.9-0.5c-0.4,0.3-0.9,0.6-1.5,0.6
	C76.9,21.8,76.5,21.7,76,21.2"/>
<path class="st4" d="M81.6,42.9c0,0,0.3,2.1-1.1,3.5c-1.2,1.2-2.8,2.3-5.1,0.8c0,0-1.6-1.4-1.6-3.1l0.1-1.5"/>
<path class="st5" d="M73.4,42.2c0.1-0.1,0.3-0.2,0.5-0.2c0.3,0,0.6,0.3,0.6,0.7l-0.1,1.5c0.1,1.2,1.2,2.4,1.4,2.6
	c1.8,1.2,3,0.5,4.3-0.7c1.2-1.2,0.9-3,0.9-3c0-0.3,0.2-0.6,0.5-0.7c0.3,0,0.6,0.2,0.7,0.5c0,0.1,0.3,2.4-1.3,4
	c-1.2,1.2-3.2,2.6-5.9,0.9c0,0-0.1,0-0.1-0.1c-0.1-0.1-1.7-1.6-1.8-3.5c0,0,0,0,0-0.1l0.1-1.5C73.2,42.5,73.3,42.3,73.4,42.2"/>
<path class="st7" d="M73.3,39.7c0.1-0.1,0.3-0.2,0.4-0.2l8,0.2c0.2,0,0.3,0.1,0.4,0.2c0.1,0.1,0.2,0.3,0.2,0.4L82.2,43
	c0,0.2-0.1,0.3-0.2,0.4c-0.1,0.1-0.3,0.2-0.4,0.2l-7.8-0.3c-0.3,0-0.6-0.3-0.6-0.6l-0.1-2.5C73.1,40,73.2,39.8,73.3,39.7L73.3,39.7z
	 M81,40.9l-6.7-0.2l0.1,1.3l6.6,0.2V40.9z"/>
<path class="st4" d="M81.5,19.9c0,0-0.6,2-2.8,0.3c0,0-0.8,1.9-2.7,0.1c0,0-1.1,1.6-2.3,0.1"/>
<path class="st5" d="M73.3,19.9C73.3,19.8,73.3,19.8,73.3,19.9c0.3-0.3,0.7-0.2,0.9,0.1c0.1,0.2,0.4,0.4,0.6,0.4
	c0.3,0,0.6-0.4,0.7-0.5s0.3-0.2,0.4-0.3c0.2,0,0.4,0,0.5,0.2c0.5,0.5,0.9,0.7,1.2,0.6c0.3-0.1,0.5-0.5,0.5-0.5
	c0.1-0.2,0.2-0.3,0.4-0.4c0.2-0.1,0.4,0,0.5,0.1c0.6,0.5,1,0.6,1.3,0.6c0.3-0.1,0.5-0.5,0.5-0.5c0.1-0.3,0.4-0.5,0.8-0.4
	c0.3,0.1,0.5,0.4,0.4,0.8c0,0.1-0.3,1-1.3,1.3c-0.6,0.2-1.2,0.1-1.9-0.4c-0.2,0.2-0.5,0.5-1,0.6c-0.6,0.1-1.2-0.1-1.9-0.6
	c-0.3,0.3-0.7,0.5-1.2,0.5c-0.4,0-1-0.2-1.6-0.9C73.1,20.4,73.1,20.1,73.3,19.9"/>
<g>
	<path class="st4" d="M74.9,33.7c0,0-0.6-3.1,0.9-4.3c1.5-1.1,3.6-1.5,5.8-0.1c0,0,0.5,3.4-2.6,5C79,34.3,77.1,35.4,74.9,33.7"/>
	<path class="st8" d="M79,30.7c0.4,0.5,0.3,1.2-0.2,1.6c-0.5,0.4-1.2,0.3-1.6-0.3c-0.4-0.5-0.3-1.2,0.2-1.6S78.6,30.2,79,30.7"/>
	<path class="st9" d="M74.5,30.7c0,0-0.1,0-0.2,0l-1.4-0.9c-0.1,0-0.1-0.1-0.1-0.2s0.1-0.1,0.2,0l1.4,0.9
		C74.6,30.5,74.6,30.6,74.5,30.7C74.6,30.7,74.5,30.7,74.5,30.7"/>
	<path class="st9" d="M75.9,29c-0.1,0-0.1,0-0.2,0l-1.1-1.4c-0.1-0.1,0-0.2,0-0.2c0.1-0.1,0.2,0,0.2,0l1.1,1.4
		C76,28.9,76,28.9,75.9,29L75.9,29"/>
	<path class="st9" d="M77.7,28.3L77.7,28.3c-0.1,0-0.2,0-0.2-0.1l-0.8-1.9c0-0.1,0-0.2,0.1-0.2s0.2,0,0.2,0.1l0.8,1.9
		C77.8,28.1,77.7,28.2,77.7,28.3"/>
	<path class="st9" d="M79.5,28L79.5,28c-0.1,0-0.2,0-0.2-0.1l-0.1-1.5c0-0.1,0.1-0.2,0.1-0.2c0.1,0,0.2,0.1,0.2,0.1l0.1,1.5
		C79.6,27.9,79.6,28,79.5,28"/>
</g>
</svg>
