<?xml version="1.0" encoding="utf-8"?>
<!-- Generator: Adobe Illustrator 21.0.0, SVG Export Plug-In . SVG Version: 6.00 Build 0)  -->
<svg version="1.1" id="Layer_1" xmlns="http://www.w3.org/2000/svg" xmlns:xlink="http://www.w3.org/1999/xlink" x="0px" y="0px"
	 viewBox="0 0 48.6 50" style="enable-background:new 0 0 48.6 50;" xml:space="preserve">
<style type="text/css">
	.st0{fill:#F3F7FC;}
	.st1{clip-path:url(#SVGID_2_);fill:#CE2028;}
	.st2{clip-path:url(#SVGID_2_);fill:#23408B;}
	.st3{opacity:0.15;fill:url(#SVGID_3_);}
</style>
<g>
	<path class="st0" d="M47.2,9.9c4.8,12.7-3.9,36.7-11.3,39.5C26.5,53,6.1,40,1.3,27.4C-3.5,14.7,5.8,8.3,18.5,3.5
		C31.2-1.3,42.4-2.7,47.2,9.9z"/>
	<g>
		<defs>
			<path id="SVGID_1_" d="M45.3,11.2c4.4,11.6-3.6,33.6-10.3,36.1c-8.7,3.3-27.3-8.6-31.7-20.2C-1.2,15.5,7.4,9.7,19,5.3
				C30.6,0.9,40.9-0.4,45.3,11.2z"/>
		</defs>
		<use xlink:href="#SVGID_1_"  style="overflow:visible;fill:#FAD114;"/>
		<clipPath id="SVGID_2_">
			<use xlink:href="#SVGID_1_"  style="overflow:visible;"/>
		</clipPath>
		<rect x="0.1" y="37.3" class="st1" width="49.6" height="11.9"/>
		<rect x="0.1" y="25.4" class="st2" width="49.6" height="11.9"/>
	</g>
	<linearGradient id="SVGID_3_" gradientUnits="userSpaceOnUse" x1="24.2959" y1="14.2355" x2="24.2959" y2="2.0067">
		<stop  offset="0" style="stop-color:#FFFFFF"/>
		<stop  offset="0.871" style="stop-color:#FFFFFF;stop-opacity:0"/>
	</linearGradient>
	<path class="st3" d="M46.5,20.2c-15.4-13.5-31.4-3.8-44.4,0C2.8,13,9.8,8.8,18.8,5.4c11-4.2,20.5-5.6,25.4,3.6
		C46.4,13,46.5,17.3,46.5,20.2z"/>
</g>
</svg>
