<?xml version="1.0" encoding="utf-8"?>
<!-- Generator: Adobe Illustrator 21.0.0, SVG Export Plug-In . SVG Version: 6.00 Build 0)  -->
<svg version="1.1" id="Layer_1" xmlns="http://www.w3.org/2000/svg" xmlns:xlink="http://www.w3.org/1999/xlink" x="0px" y="0px"
	 viewBox="0 0 202 36.1" style="enable-background:new 0 0 202 36.1;" xml:space="preserve">
<style type="text/css">
	.st0{fill:#DF165B;stroke:#DF165B;stroke-width:2;stroke-linejoin:bevel;stroke-miterlimit:10;}
	.st1{fill:#2828DC;stroke:#2828DC;stroke-miterlimit:10;}
	.st2{fill:#DF165B;stroke:#DF165B;stroke-miterlimit:10;}
	.st3{fill:#EC821F;stroke:#EC821F;stroke-miterlimit:10;}
</style>
<g>
	<g>
		<path class="st0" d="M12.1,4.6c0,1.4-2.3,1.1-2.9,1.1H9c-3.9,0-5.6,8-5.6,12.5c0,5.1,0.3,8.7,3.8,11.6c1.7,1.4,4.3,0,4.9,1
			c0.8,1.4-0.7,1.9-1.9,1.9c-9-0.2-10.4-12.1-8.6-19.9c1-4.1,3.4-9.6,8.6-9.6C11.1,3.1,12.1,3.7,12.1,4.6z"/>
		<path class="st0" d="M21.6,2.7c7.1,0.8,6.1,17.7,5.7,23c-0.3,2.9-1.7,7.9-5.7,7.9c-7,0-7.3-12-7.3-16.6C14.3,12,14.6,2.7,21.6,2.7
			z M16.5,16.8c0,11.6,2.1,14.8,5,14.8c3.9,0,3.9-10.1,3.9-12.6v-0.2c0-3.1-0.8-14.2-4.6-14.2c-3,0-4.2,6.6-4.2,8.6
			C16.5,14.6,16.5,15.7,16.5,16.8z"/>
		<path class="st0" d="M31.7,34.4c0,0-0.5-20.5-0.5-23.2c0-0.8-0.5-6.8-0.5-7.6V3.3c0-0.3,0-0.4,0.3-0.7c0.1,0,0.6-0.1,0.8-0.1
			c0.7,0,1,0,1.3,0.8c0.4,1.5,0.2,2.5,0.2,4c0.2,8.1,0.3,16.3,0.8,24.5h0.3c1.7,0,3.3-0.6,5-0.6c0.6,0,1.3,0.2,1.3,1
			c0,0.4-0.2,0.8-0.8,0.9L31.7,34.4z"/>
		<path class="st0" d="M45.6,26.1l-0.2,0.2l-0.7,4.5c-0.1,0.6,0,2.3-1.2,2.3c-0.5,0-0.9-1-0.9-1.4c4.1-28.8,4.2-28.9,4.2-28.9
			C47,2.1,47.3,1,48.3,1c0.4,0,1,0.2,1.2,0.6l0.3,0.8c2.3,9.1,3.4,18.4,4.4,27.8l0.2,2.6c0,0,0,0,0,0.1C54.2,33.6,54,34,53.3,34
			h-0.1c-0.2,0-0.6,0-0.7-0.3l-1-7.5H45.6z M46.2,23.7l5,0.1L48.5,5.2L46.2,23.7z"/>
		<path class="st0" d="M65.5,6.7c0,2.1-0.8,3.9-2.1,5.4c4.5,2.8,6.3,6.2,6.3,11.5c0,5.7-3.1,10.5-9.4,10.5c-0.3,0-1.1,0-1.4-0.6
			c-0.4-6.1-0.4-12.2-1-19.4l-0.8-9.4V3.9C59.7,1,65.5,1.8,65.5,6.7z M60,11.3c2,0,3.4-2.3,3.4-4.5c0-2.3-1.9-3.1-4-2.1L60,11.3z
			 M61.7,31.8c4.2,0,5.6-4.3,5.6-8.1c0-4.4-2-9.8-7.2-9.8c0,6,0.4,11.9,0.9,17.9C61.2,31.8,61.5,31.8,61.7,31.8z"/>
		<path class="st0" d="M79.5,2.7c7.1,0.8,6.1,17.7,5.7,23c-0.3,2.9-1.7,7.9-5.7,7.9c-7,0-7.3-12-7.3-16.6C72.1,12,72.4,2.7,79.5,2.7
			z M74.3,16.8c0,11.6,2.1,14.8,5,14.8c3.9,0,3.9-10.1,3.9-12.6v-0.2c0-3.1-0.8-14.2-4.6-14.2c-3,0-4.2,6.6-4.2,8.6
			C74.3,14.6,74.3,15.7,74.3,16.8z"/>
		<path class="st0" d="M89.4,31.3c0-8.9,0.3-17.9,0.6-26.9c0.1-1.8,0.8-1.8,2.3-1.8h0.4c3.7,0,6,2.4,6,5.9v0.4
			c0,2.9-0.8,6.3-3.4,8.1c0.2,0.2,1.1,1.3,1.3,1.5c1.8,2.3,1.3,8,1.5,10.8c0,0.2,0.2,2.1,0.2,2.3v0.3c0,0.7-0.6,0.8-1.2,0.8h0
			c-0.4,0-1,0-1.1-0.6c0-1.3-0.4-7.4-0.5-8.7c-0.2-1.9-0.6-4.6-3-4.6H92c-0.1,0.4-0.2,1.9-0.2,2.3c0,0.4-0.2,9.2-0.3,12.5
			c0,0.8,0.1,1.6-0.9,1.6c-0.4,0-0.9-0.2-1.2-0.6V31.3z M92.5,15.9c2.8,0,3.9-5.2,3.9-7c0-1.9-0.9-4.2-3.1-4.2c-0.6,0-1,0.4-1,1
			c0,3.5-0.3,6.4-0.3,9.9C92,15.8,92.3,15.9,92.5,15.9z"/>
		<path class="st0" d="M105.7,26.1l-0.2,0.2l-0.7,4.5c-0.1,0.6,0,2.3-1.2,2.3c-0.5,0-0.9-1-0.9-1.4c4.1-28.8,4.2-28.9,4.2-28.9
			c0.2-0.8,0.5-1.9,1.5-1.9c0.4,0,1,0.2,1.2,0.6l0.3,0.8c2.3,9.1,3.4,18.4,4.4,27.8l0.2,2.6c0,0,0,0,0,0.1c-0.3,0.8-0.4,1.1-1.2,1.1
			h-0.1c-0.2,0-0.6,0-0.7-0.3l-1-7.5H105.7z M106.3,23.7l5,0.1l-2.7-18.5L106.3,23.7z"/>
		<path class="st0" d="M118.6,26.7c0-3.4,0-19.3,0-22.7V3.9c0-0.9,0.3-1.8,1.2-2.1h0.4c1.6,0,3.3,0.4,4.4,1.4c4.2,3.8,5,10.6,4.8,16
			c-0.3,7.7-2.1,15-8.7,15.8c-1.3,0.2-2.1,0-2.1-1.5V26.7z M120.8,19.1c0,3.5-0.1,9.6,0,13.6c4.9-0.8,6.3-8.6,6.3-13
			c0-3.1-0.2-15.4-5.7-15.4h-0.3C121,6.5,120.8,16.9,120.8,19.1z"/>
		<path class="st0" d="M166.7,31.3c0-8.9,0.3-17.9,0.6-26.9c0.1-1.8,0.8-1.8,2.3-1.8h0.4c3.7,0,6,2.4,6,5.9v0.4
			c0,2.9-0.8,6.3-3.4,8.1c0.2,0.2,1.1,1.3,1.3,1.5c1.8,2.3,1.3,8,1.5,10.8c0,0.2,0.2,2.1,0.2,2.3v0.3c0,0.7-0.6,0.8-1.2,0.8h0
			c-0.4,0-1,0-1.1-0.6c0-1.3-0.4-7.4-0.5-8.7c-0.2-1.9-0.6-4.6-3-4.6h-0.6c-0.1,0.4-0.2,1.9-0.2,2.3c0,0.4-0.2,9.2-0.3,12.5
			c0,0.8,0.1,1.6-0.9,1.6c-0.4,0-0.9-0.2-1.2-0.6V31.3z M169.8,15.9c2.8,0,3.9-5.2,3.9-7c0-1.9-0.9-4.2-3.1-4.2c-0.6,0-1,0.4-1,1
			c0,3.5-0.3,6.4-0.3,9.9C169.3,15.8,169.5,15.9,169.8,15.9z"/>
		<path class="st0" d="M179.9,5.8c0-0.7,0.7-1.4,1.4-1.4h6.3c0.2,0,1,0.6,1.1,0.8c0,0.1,0,0.1,0,0.2c0,0.8-1.1,1.2-1.7,1.2h-4.8
			l0.2,13.2l4.3-0.6h0.2c1.9,0,1.2,1.8-0.4,2.1l-4,0.6l-0.1,10.4c0.4,0,1.7,0,2.1,0c2.7,0,4.6-0.9,4.7,0.9c0.1,1.3-8.8,1.2-8.8,0.4
			L179.9,5.8z"/>
		<path class="st0" d="M193.5,27.2c1.6,0.5,0.1,4,2.1,5.1h0.2c2.2,0,2.9-3.1,2.9-4.7c0-2.2-0.2-4.5-1.1-6.6
			c-1.9-4.3-5.9-7.9-5.9-12.8c0-2.2,1.3-5.9,4.1-5.9c1.7,0,4.6,1.4,4.6,3.5c0,0.8-0.2,1.2-1,1.2c-1.5,0-1.1-2.4-3.3-2.4
			c-2,0-2.2,2.8-2.2,4.2c0,4,3.4,6.8,5.2,10.2c1.6,3.1,2.5,7.5,1.5,10.5c-0.6,2.1-2.4,4.9-4.8,4.9c-2.9,0-3.8-3.7-3.8-6
			C191.9,27.6,192.8,27,193.5,27.2z"/>
	</g>
	<g>
		<path class="st1" d="M163.6,17c-0.1-1.9-0.5-3.6-1.3-5.3c-0.9-2.1-2.3-3.9-4.1-5.4c-2.3-2-5-3.2-8-3.6c-0.3,0-0.6,0-1-0.1h-0.1
			c0,0.1-0.1,0.1-0.1,0.1c0,0-0.1,0-0.1,0c-0.1,0-0.2,0-0.2-0.1h-1.1c-0.1,0.1-0.2,0.1-0.2,0.1c0,0-0.1,0-0.1,0c0,0-0.1,0-0.1-0.1
			h-0.2c-0.4,0.1-0.9,0.1-1.3,0.1c-3.7,0.6-6.8,2.4-9.2,5.2c-1.9,2.2-3.1,4.7-3.6,7.6c-0.1,0.4-0.1,0.9-0.1,1.3V17c0,0,0,0.1,0,0.1
			v0.1c0,0.1,0,0.2,0,0.2v1.1c0.1,0.1,0,0.1,0,0.2v0.1c0,0,0,0.1,0,0.1v0.2c0.1,0.6,0.1,1.3,0.2,1.9c0.8,3.4,2.5,6.3,5.1,8.6
			c1.5,1.3,3.2,2.3,5,2.9c1.3,0.5,2.7,0.8,4.1,0.8c1.2,0,2.4,0.1,3.6-0.1c3.7-0.6,6.8-2.4,9.2-5.2c1.8-2.1,3-4.5,3.5-7.2
			C163.7,19.7,163.7,18.3,163.6,17 M148.1,31.7c-7.5,0-13.7-6.1-13.7-13.7c0-7.5,6.2-13.7,13.7-13.7c7.5,0,13.7,6.1,13.7,13.7
			C161.8,25.6,155.7,31.7,148.1,31.7"/>
		<path class="st2" d="M157.6,17.3h-9.5h-0.5c-3.1,0-6.1,0-9.2,0c-0.6,0-1,0.4-1,0.9c0,1.1,0.2,2.2,0.5,3.3c0.7,2.2,2.1,4,4,5.4
			c1.8,1.3,3.9,1.9,6.2,1.9c1.7,0,3.4-0.4,4.9-1.2c2-1,3.5-2.6,4.5-4.5c0.7-1.4,1.1-2.9,1.2-4.5C158.8,17.6,158.5,17.3,157.6,17.3
			 M152.9,25.6c-1.3,0.9-2.7,1.3-4.3,1.4c-2.1,0.1-4-0.4-5.7-1.6c-2.1-1.5-3.3-3.6-3.6-6.1c0-0.1,0-0.2,0.1-0.2c0,0,0.1,0,0.2,0
			h16.9h0.3C156.5,21.9,155.2,24,152.9,25.6"/>
		<path class="st3" d="M138,14c0.4,0.1,0.7,0.1,1-0.2c0.3-0.3,0.7-0.6,1.2-0.7c1.3-0.4,2.4-0.2,3.4,0.7c0.4,0.4,1,0.4,1.3,0
			c0.4-0.4,0.3-0.9-0.1-1.4c-1-0.9-2.1-1.4-3.4-1.4c-1.4,0-2.6,0.5-3.6,1.4c-0.2,0.2-0.3,0.5-0.3,0.8C137.5,13.6,137.7,13.9,138,14"
			/>
		<path class="st3" d="M151.4,12.5c-0.3,0.3-0.4,0.6-0.3,1c0.1,0.4,0.4,0.6,0.8,0.6c0.3,0,0.6-0.1,0.8-0.3c0.6-0.5,1.3-0.8,2.1-0.8
			c0.9,0,1.7,0.3,2.4,0.9c0.4,0.4,1,0.3,1.3,0c0.4-0.4,0.3-0.9-0.1-1.3c-1-0.9-2.1-1.4-3.5-1.4C153.6,11.1,152.4,11.6,151.4,12.5"/>
	</g>
</g>
</svg>
