<?xml version="1.0" encoding="utf-8"?>
<!-- Generator: Adobe Illustrator 21.0.0, SVG Export Plug-In . SVG Version: 6.00 Build 0)  -->
<svg version="1.1" id="Layer_1" xmlns="http://www.w3.org/2000/svg" xmlns:xlink="http://www.w3.org/1999/xlink" x="0px" y="0px"
	 viewBox="0 0 204.2 63.7" style="enable-background:new 0 0 204.2 63.7;" xml:space="preserve">
<style type="text/css">
	.st0{fill:#FFFFFF;stroke:#FFFFFF;stroke-width:2;stroke-miterlimit:10;}
	.st1{fill:#FFFFFF;}
	.st2{fill:#130D13;}
	.st3{fill:#A9C935;}
	.st4{fill:#2828DC;}
</style>
<path class="st0" d="M18.5,16.1c0,2.2-3.6,1.8-4.5,1.8h-0.4c-6.1,0-8.8,12.6-8.8,19.6c0,8,0.5,13.7,6,18.3c2.7,2.3,6.8-0.1,7.8,1.6
	c1.3,2.2-1.1,2.9-3.1,2.9C1.4,60-0.8,41.2,2.1,29c1.5-6.5,5.4-15.2,13.5-15.2C16.9,13.8,18.5,14.7,18.5,16.1z"/>
<path class="st0" d="M33.5,13.1c11.2,1.3,9.6,27.9,8.9,36.2c-0.4,4.6-2.8,12.5-9,12.5c-11.1,0-11.6-18.9-11.6-26.2
	C21.9,27.7,22.4,13.1,33.5,13.1z M25.4,35.4c0,18.3,3.4,23.3,7.8,23.3c6.1,0,6.2-15.9,6.2-19.8v-0.2c0-4.8-1.3-22.3-7.3-22.3
	c-4.7,0-6.7,10.4-6.7,13.6C25.4,31.9,25.4,33.6,25.4,35.4z"/>
<path class="st0" d="M50,17.6c-0.1-2.5,3.3-4,4.6-0.4l12.8,34.6c0.1-2.8,0.6-18.1,0.9-24.3c0.2-3.8-0.1-7.6,0.7-11.1
	c0-0.7,0.7-0.7,1.6-0.7c1.5,0.1,1.6,0.1,1.6,1.5c-0.2,6.5-1.1,13-1.4,19.5c-0.1,3.6-0.8,21-0.8,24.6c-0.4,1.3-2.4,0.6-2.9-0.5
	c-0.6-1.3-1.1-2.6-14.4-38l-0.4,38.4c0,1.9-3.2,1.7-3.2,0.4L50,17.6z"/>
<path class="st0" d="M81.4,17c-3.9,0.2-5.6,0.2-5.8-0.9c0.1-2.1,0.1-2.9,6.6-2.5h5.3c1.4,0.1,3.7,0.2,3.7,2.1c0,0.6-0.7,1.2-1.3,1.2
	h-5.3l1.2,39.7c0,0.6-1.3,0.9-1.6,0.9c-0.4,0-1.6-0.3-1.6-0.9L81.4,17z"/>
<path class="st0" d="M97.3,50l-0.4,0.4l-1.1,7.1c-0.1,0.9-0.1,3.6-1.9,3.6c-0.8,0-1.4-1.6-1.4-2.3c6.5-45.3,6.6-45.5,6.6-45.5
	c0.3-1.2,0.8-2.9,2.3-2.9c0.7,0,1.6,0.3,1.9,0.9l0.5,1.3c3.6,14.3,5.3,29,7,43.8l0.4,4.1c0,0.1-0.1,0.1-0.1,0.1
	c-0.4,1.2-0.7,1.7-1.9,1.7h-0.2c-0.4,0-1,0-1.1-0.4L106.5,50H97.3z M98.2,46.1l7.8,0.2l-4.2-29.2L98.2,46.1z"/>
<path class="st0" d="M132.6,16.1c0,2.2-3.6,1.8-4.5,1.8h-0.4c-6.1,0-8.8,12.6-8.8,19.6c0,8,0.5,13.7,6,18.3c2.7,2.3,6.8-0.1,7.8,1.6
	c1.3,2.2-1.1,2.9-3.1,2.9C115.5,60,113.3,41.2,116.2,29c1.5-6.5,5.4-15.2,13.5-15.2C131,13.8,132.6,14.7,132.6,16.1z"/>
<path class="st0" d="M143.2,17c-3.9,0.2-5.6,0.2-5.8-0.9c0.1-2.1,0.1-2.9,6.6-2.5h5.3c1.4,0.1,3.7,0.2,3.7,2.1
	c0,0.6-0.7,1.2-1.3,1.2h-5.3l1.2,39.7c0,0.6-1.3,0.9-1.6,0.9c-0.4,0-1.6-0.3-1.6-0.9L143.2,17z"/>
<g>
	<path class="st1" d="M161.2,41c0,0,2.8-7,7.3-7.3c4.5-0.4,8.4,1.4,11,6.9c0,0-2.5,7.3-10.8,6.7C168.7,47.2,163.3,47,161.2,41"/>
	<path class="st2" d="M173.4,40c0.1,1.5-1,2.8-2.5,3c-1.5,0.1-2.8-1-3-2.5c-0.1-1.5,1-2.8,2.5-3C171.9,37.4,173.3,38.5,173.4,40"/>
	<path class="st3" d="M203.6,23.6c-1.8-2.1-4.7-0.6-5.9,0.4l-5.1,4l1.6-7.6c0.1-0.3,2.8-7.9,1.2-11c-0.4-0.7-0.9-1.2-1.7-1.4
		c-1.3-0.3-2.5-0.2-3.3,0.4c-1.4,1.1-1.5,3.1-1.5,3.1l-2,11.4c-0.6-2.6-1.7-7-2.5-10.8c-0.4-2-0.8-3.6-1.2-4.8
		c0-0.4-0.1-0.7-0.2-1.1c-1.4-3.4-4.7-6.2-8.5-6.3c-1.9-0.1-3.7,1.1-3.9,3.1c-0.2,1.8,1.2,3.8,3.1,3.9c0.2,0,0.4,0,0.6,0
		c0,0,0.1,0,0.1,0c0,0,0,0,0.1,0c0.2,0.1,0.4,0.2,0.6,0.3c0,0,0,0,0.1,0c0,0,0.1,0.1,0.2,0.1c0.7,0.6,1.4,1.6,1.7,2.5l3,15.3
		c-11.5-4.2-19.6-2.3-23.9,5.6c-1.3,2.4-2.5,5.5,0,7.3c0.5,0.4,1.1,0.5,1.7,0.4c1.3-0.3,2.3-1.8,2.4-1.9l0-0.1
		c2.7-8.4,10.9-7,11.2-7c4.6,1.1,7.8,3.1,9.6,6c2.2,3.7,1.2,7.7,1.2,7.8l0,0.1c-0.3,3-1.9,5.7-4.4,7.5c-2.8,2-6.3,2.7-9.9,1.9
		c-5.7-1.2-6.7-5.2-7.5-8c-0.3-1-0.5-1.8-0.8-2.4c-0.7-1.3-2.5-1.7-4.1-0.9c-1.5,0.7-2.7,2.7-1.4,5.8l0.4,0.8
		c2.1,4.9,4.3,10,9.7,11.6c1.5,0.5,3.1,0.7,4.8,0.7c4.7,0,9.9-1.7,13.6-4.7c2.8-2.3,3.6-2.1,4.8-1.9c0.9,0.2,2,0.4,3.9-0.2
		c2.3-0.7,3.1-2,3.5-3c0.5-1.6,0.1-3.3-0.4-4c-0.5-0.8-1.7-6.1-0.5-9.2c1.2-3.1,6.4-6.1,6.5-6.2c0.2-0.1,3.8-3.2,4-5.7
		C204.2,24.7,204.1,24.1,203.6,23.6"/>
	<path class="st4" d="M162.4,32.5c-0.3,0-0.5-0.1-0.7-0.4l-3.1-4.1c-0.3-0.4-0.2-1,0.2-1.3c0.4-0.3,1-0.2,1.3,0.2l3.1,4.1
		c0.3,0.4,0.2,1-0.2,1.3C162.7,32.4,162.6,32.5,162.4,32.5"/>
	<path class="st4" d="M168.1,29.9c-0.4,0-0.8-0.3-0.9-0.8l-0.9-5.4c-0.1-0.5,0.2-1,0.7-1c0.5-0.1,1,0.2,1,0.7l0.9,5.4
		c0.1,0.5-0.2,1-0.7,1C168.2,29.9,168.1,29.9,168.1,29.9"/>
	<path class="st4" d="M174.5,30.9c-0.1,0-0.2,0-0.3-0.1c-0.5-0.2-0.7-0.7-0.5-1.2l2-5.4c0.2-0.5,0.7-0.7,1.2-0.5
		c0.5,0.2,0.7,0.7,0.5,1.2l-2,5.4C175.2,30.7,174.9,30.9,174.5,30.9"/>
	<path class="st4" d="M179.7,33.8c-0.2,0-0.3,0-0.5-0.1c-0.4-0.3-0.6-0.8-0.3-1.2l2.8-4.5c0.3-0.4,0.8-0.6,1.2-0.3
		c0.4,0.3,0.6,0.8,0.3,1.2l-2.8,4.5C180.3,33.7,180,33.8,179.7,33.8"/>
</g>
</svg>
