<?xml version="1.0" encoding="utf-8"?>
<!-- Generator: Adobe Illustrator 21.0.0, SVG Export Plug-In . SVG Version: 6.00 Build 0)  -->
<svg version="1.1" id="Layer_1" xmlns="http://www.w3.org/2000/svg" xmlns:xlink="http://www.w3.org/1999/xlink" x="0px" y="0px"
	 viewBox="0 0 195.2 44.2" style="enable-background:new 0 0 195.2 44.2;" xml:space="preserve">
<style type="text/css">
	.st0{fill:#E4145B;stroke:#E4145B;stroke-width:1.5;stroke-miterlimit:10;}
	.st1{fill:#EE841E;}
	.st2{fill:#FFFFFF;}
	.st3{fill:#DF165B;}
	.st4{fill:#A9C935;}
	.st5{fill:#130D13;}
	.st6{fill:#2828DC;}
</style>
<g>
	<path class="st0" d="M0.8,6.7C0.8,5.8,1.6,5,2.5,5h7.8c0.3,0,1.3,0.7,1.3,1c0,0.1,0,0.1,0,0.2c0,1-1.3,1.4-2.1,1.4H3.6l0.2,16.3
		l5.3-0.8h0.2c2.3,0,1.4,2.3-0.5,2.6l-4.9,0.7L3.8,39.2c0.4,0,2.1,0,2.6,0c3.3,0,5.7-1.1,5.8,1.1c0.1,1.7-10.9,1.5-10.9,0.5L0.8,6.7
		z"/>
	<path class="st0" d="M43.4,30.4c0-3.9,0.2-22.3,0.3-26.2c0.2-0.7,1.5-0.6,2.1-0.6c5.1,0,8.8,4.5,8.8,9.4c0,5.3-3.6,11.2-8.5,13.5
		c0,0.8-0.2,4.6-0.2,5.4c0,1.7,0,9.2,0,10.9c-0.3,0.5-1,0.6-1.5,0.6c-0.4,0-0.5,0-0.9-0.3V30.4z M46,23.2c0.3,0,0.8-0.1,1-0.3
		c2.8-2.6,4.5-5.6,4.5-9.5c0-2.6-1.8-7.2-5.2-7.2L46,23.2z"/>
	<path class="st0" d="M59.5,6.7c0-0.9,0.8-1.7,1.7-1.7H69c0.3,0,1.3,0.7,1.3,1c0,0.1,0,0.1,0,0.2c0,1-1.3,1.4-2.1,1.4h-5.9l0.2,16.3
		l5.3-0.8h0.2c2.3,0,1.4,2.3-0.5,2.6l-4.9,0.7l-0.1,12.8c0.4,0,2.1,0,2.6,0c3.3,0,5.7-1.1,5.8,1.1c0.1,1.7-10.9,1.5-10.9,0.5
		L59.5,6.7z"/>
	<path class="st0" d="M76,38.2c0-11,0.4-22.2,0.7-33.2c0.1-2.3,0.9-2.3,2.9-2.3H80c4.5,0,7.4,2.9,7.4,7.3v0.5c0,3.6-0.9,7.8-4.2,10
		c0.2,0.2,1.4,1.6,1.6,1.9c2.2,2.9,1.7,9.9,1.9,13.3c0,0.3,0.3,2.6,0.3,2.8v0.4c0,0.8-0.8,0.9-1.4,0.9h0c-0.5,0-1.2,0-1.4-0.7
		c0-1.6-0.5-9.1-0.6-10.8c-0.2-2.4-0.7-5.7-3.7-5.7h-0.8c-0.1,0.4-0.3,2.4-0.3,2.8c0,0.4-0.3,11.3-0.3,15.5c0,0.9,0.1,2-1.1,2
		c-0.5,0-1.1-0.2-1.5-0.7V38.2z M79.8,19.2c3.5,0,4.8-6.4,4.8-8.7c0-2.3-1.1-5.3-3.9-5.3c-0.7,0-1.2,0.4-1.2,1.3
		c0,4.3-0.3,7.9-0.3,12.2C79.1,19.1,79.5,19.2,79.8,19.2z"/>
	<path class="st0" d="M93.7,5.2c0.3-1,0.6-1,1.6-1c1.4,0,1.4,0.6,1.4,2.1c0,0.1,0,0.8,0,0.9l-1.5,33.6c-0.1,2.2-2.8,2.4-2.8,0.9
		L93.7,5.2z"/>
	<path class="st0" d="M101.6,6.7c0-0.9,0.8-1.7,1.7-1.7h7.8c0.3,0,1.3,0.7,1.3,1c0,0.1,0,0.1,0,0.2c0,1-1.3,1.4-2.1,1.4h-5.9
		l0.2,16.3l5.3-0.8h0.2c2.3,0,1.4,2.3-0.5,2.6l-4.9,0.7l-0.1,12.8c0.4,0,2.1,0,2.6,0c3.3,0,5.7-1.1,5.8,1.1
		c0.1,1.7-10.9,1.5-10.9,0.5L101.6,6.7z"/>
	<path class="st0" d="M118.6,6.4c-0.1-2,2.6-3.1,3.6-0.3l10,27.2c0-2.2,0.4-14.2,0.7-19.1c0.1-2.9,0-5.9,0.6-8.7
		c0-0.5,0.5-0.5,1.3-0.5c1.2,0,1.3,0.1,1.2,1.2c-0.1,5.1-0.9,10.2-1.1,15.3c-0.1,2.8-0.6,16.4-0.6,19.3c-0.3,1-1.9,0.4-2.3-0.4
		c-0.5-1-0.9-2-11.3-29.9l-0.3,30.1c0,1.5-2.5,1.3-2.5,0.3L118.6,6.4z"/>
	<path class="st0" d="M151.4,5.2c0,1.7-2.8,1.4-3.5,1.4h-0.3c-4.8,0-6.9,9.9-6.9,15.4c0,6.3,0.4,10.8,4.7,14.3
		c2.1,1.8,5.4,0,6.1,1.3c1,1.7-0.8,2.3-2.4,2.3c-11.1-0.2-12.9-15-10.6-24.6c1.2-5.1,4.2-11.9,10.6-11.9
		C150.1,3.4,151.4,4.1,151.4,5.2z"/>
	<path class="st0" d="M157.6,5.2c0.3-1,0.6-1,1.6-1c1.4,0,1.4,0.6,1.4,2.1c0,0.1,0,0.8,0,0.9l-1.5,33.6c-0.1,2.2-2.8,2.4-2.8,0.9
		L157.6,5.2z"/>
	<path class="st0" d="M169.3,31.8l-0.3,0.3l-0.8,5.5c-0.1,0.7-0.1,2.8-1.5,2.8c-0.6,0-1.1-1.3-1.1-1.8c5.1-35.6,5.2-35.7,5.2-35.7
		c0.2-0.9,0.6-2.3,1.8-2.3c0.5,0,1.2,0.2,1.5,0.7l0.4,1c2.8,11.2,4.2,22.8,5.5,34.4l0.3,3.2c0,0,0,0,0,0.1c-0.3,0.9-0.5,1.3-1.5,1.3
		h-0.1c-0.3,0-0.8,0-0.8-0.3l-1.2-9.3H169.3z M170,28.8l6.1,0.1L172.9,6L170,28.8z"/>
	<path class="st0" d="M185.2,33.1c2,0.6,0.1,4.9,2.6,6.3h0.3c2.8,0,3.5-3.8,3.5-5.8c0-2.7-0.2-5.6-1.3-8.1
		c-2.3-5.3-7.3-9.7-7.3-15.8c0-2.8,1.7-7.3,5.1-7.3c2.2,0,5.7,1.7,5.7,4.3c0,0.9-0.3,1.5-1.3,1.5c-1.9,0-1.3-2.9-4-2.9
		c-2.5,0-2.7,3.5-2.7,5.2c0,5,4.2,8.4,6.4,12.6c2,3.8,3,9.3,1.9,13c-0.8,2.6-3,6-6,6c-3.6,0-4.8-4.5-4.8-7.5
		C183.2,33.7,184.4,32.9,185.2,33.1z"/>
	<g>
		<path class="st1" d="M29.2,29.8l2.5,3.4c0,0-2,2.7-0.4,5.2c1.6,2.5,4.7,3.9,7.6,1.3c3-2.7,0.5-6.7-0.2-7.1
			c-0.7-0.4-1.7-1.5-4.2-1.1l-3.5-4.8l-2.1,2.4L29.2,29.8z"/>
		<path class="st1" d="M35.6,41.4c-0.2,0-0.4,0-0.6,0c-1.5-0.2-2.9-1.2-3.8-2.7c-1.4-2.3-0.1-4.7,0.3-5.4L29,29.9l-0.3-0.8l2.4-2.8
			l3.5,5c2.1-0.3,3.1,0.4,3.8,0.9c0.1,0.1,0.3,0.2,0.4,0.3c0.5,0.3,1.6,1.8,1.8,3.7c0.2,1.5-0.4,2.8-1.5,3.8
			C38,40.9,36.8,41.4,35.6,41.4 M29.4,29.7l2.6,3.5l-0.1,0.1c0,0-1.9,2.6-0.4,5c0.9,1.4,2.2,2.3,3.5,2.5c1.3,0.2,2.6-0.3,3.7-1.3
			c1-0.9,1.5-2.1,1.4-3.4c-0.2-1.7-1.2-3.1-1.5-3.3c-0.1-0.1-0.3-0.2-0.4-0.3c-0.7-0.5-1.6-1.1-3.6-0.8l-0.1,0l-3.4-4.7l-1.8,2.1
			L29.4,29.7z"/>
		<path class="st2" d="M33,36.9c0.4,1.5,1.9,2.3,3.4,1.9c1.5-0.4,2.3-1.9,1.9-3.4c-0.4-1.5-1.9-2.3-3.4-1.9
			C33.4,33.9,32.5,35.4,33,36.9"/>
		<path class="st3" d="M23.9,25.2c-0.1,0-0.1,0-0.2,0c-0.2-0.1-0.4-0.2-0.5-0.4c-0.2-0.6-5.9-14.3-6.5-16.6
			c-0.5-1.9-0.4-2.5-0.2-2.8c0.1-0.2,0.3-0.3,0.5-0.3c1.4-0.4,2.6,1.7,2.9,2.3l5.8,11.6l0,0l1.6,3.4c0.1,0.2,0.1,0.4,0,0.6
			c-0.1,0.2-0.3,0.3-0.5,0.4l-0.5,0.1L24.4,25C24.2,25.1,24.1,25.2,23.9,25.2 M17.9,6.8c0,0.3,0.1,0.6,0.2,1
			c0.5,1.9,4.8,12.4,6.1,15.5l1.4-1.1c0,0,0,0,0.1,0l-1.2-2.6L18.7,8C18.5,7.5,18.2,7.1,17.9,6.8 M17.4,6.4
			C17.4,6.4,17.4,6.4,17.4,6.4C17.4,6.4,17.4,6.4,17.4,6.4C17.4,6.4,17.4,6.4,17.4,6.4"/>
		<path class="st1" d="M26.4,29.8l-2.5,3.4c0,0,2,2.7,0.4,5.2c-1.6,2.5-4.7,3.9-7.6,1.3c-3-2.7-0.5-6.7,0.2-7.1
			c0.7-0.4,1.7-1.5,4.2-1.1l3.5-4.8l2.1,2.4L26.4,29.8z"/>
		<path class="st1" d="M20,41.4c-1.2,0-2.4-0.5-3.5-1.4c-1.1-1-1.7-2.3-1.5-3.8c0.2-1.8,1.3-3.4,1.8-3.7c0.1-0.1,0.3-0.2,0.4-0.3
			c0.7-0.5,1.7-1.2,3.8-0.9l3.5-5l2.4,2.8l-0.4,0.8l-2.4,3.3c0.4,0.6,1.7,3.1,0.3,5.4c-0.9,1.5-2.3,2.5-3.8,2.7
			C20.4,41.4,20.2,41.4,20,41.4 M20,31.7c-1.3,0-2,0.5-2.5,0.9c-0.2,0.1-0.3,0.2-0.4,0.3c-0.3,0.2-1.4,1.6-1.5,3.3
			c-0.1,1.4,0.3,2.5,1.4,3.4c1.2,1,2.5,1.5,3.7,1.3c1.4-0.2,2.6-1.1,3.5-2.5c1.5-2.4-0.4-5-0.4-5l-0.1-0.1l2.6-3.5l0.2-0.5l-1.8-2.1
			l-3.4,4.7l-0.1,0C20.6,31.7,20.3,31.7,20,31.7"/>
		<path class="st2" d="M22.5,36.9c-0.4,1.5-1.9,2.3-3.4,1.9c-1.5-0.4-2.3-1.9-1.9-3.4c0.4-1.5,1.9-2.3,3.4-1.9
			C22.1,33.9,22.9,35.4,22.5,36.9"/>
		<path class="st3" d="M31.6,25.2c-0.2,0-0.3-0.1-0.4-0.2l-2.1-1.6l-0.5-0.1c-0.2-0.1-0.4-0.2-0.5-0.4c-0.1-0.2-0.1-0.4,0-0.6
			l1.6-3.4c0,0,0,0,0,0l6.1-11.6c0.3-0.6,1.4-2.7,2.9-2.3c0.2,0,0.4,0.2,0.5,0.3c0.2,0.3,0.3,0.9-0.2,2.8c-0.6,2.3-6.5,16-6.7,16.6
			c-0.1,0.2-0.3,0.4-0.5,0.4C31.7,25.2,31.7,25.2,31.6,25.2 M29.8,22.2C29.8,22.2,29.9,22.2,29.8,22.2l1.5,1.2
			c1.3-3.1,5.8-13.7,6.3-15.5c0.1-0.4,0.2-0.8,0.3-1c-0.3,0.3-0.6,0.7-0.8,1.2l-6.1,11.6L29.8,22.2z M38.5,6.4L38.5,6.4L38.5,6.4z
			 M38.5,6.4L38.5,6.4z M38.4,6.4C38.4,6.4,38.4,6.4,38.4,6.4C38.4,6.4,38.4,6.4,38.4,6.4"/>
		<path class="st4" d="M32.6,25.8c0,2.6-2.1,4.7-4.7,4.7c-2.6,0-4.7-2.1-4.7-4.7c0-2.6,2.1-4.7,4.7-4.7
			C30.4,21.1,32.6,23.2,32.6,25.8"/>
		<path class="st2" d="M24,26.1c0,0,1.2-2.7,3-2.8c1.8-0.1,3.7,0.7,4.7,2.9c0,0-1.5,2.9-4.8,2.5C26.9,28.7,24.8,28.5,24,26.1"/>
		<path class="st5" d="M28.9,25.9c0,0.6-0.4,1.1-1,1.1c-0.6,0-1.1-0.4-1.1-1c0-0.6,0.4-1.1,1-1.1C28.3,24.8,28.8,25.3,28.9,25.9"/>
		<path class="st6" d="M25.3,23.6c-0.1,0-0.1,0-0.1-0.1L24.6,22c0-0.1,0-0.2,0.1-0.2c0.1,0,0.2,0,0.2,0.1l0.6,1.5
			C25.5,23.4,25.5,23.5,25.3,23.6C25.4,23.6,25.3,23.6,25.3,23.6"/>
		<path class="st6" d="M27.3,23c-0.1,0-0.1-0.1-0.1-0.1l-0.1-1.6c0-0.1,0.1-0.2,0.1-0.2c0.1,0,0.1,0.1,0.2,0.1l0.1,1.6
			C27.5,22.9,27.5,23,27.3,23C27.4,23,27.4,23,27.3,23"/>
		<path class="st6" d="M29.2,23.3C29.2,23.3,29.2,23.3,29.2,23.3c-0.1,0-0.1-0.1-0.1-0.2l0.4-1.9c0-0.1,0.1-0.1,0.2-0.1
			c0.1,0,0.1,0.1,0.1,0.2l-0.4,1.9C29.3,23.3,29.2,23.3,29.2,23.3"/>
		<path class="st6" d="M30.8,24.1C30.7,24.1,30.7,24.1,30.8,24.1c-0.1-0.1-0.2-0.1-0.1-0.2l0.7-1.2c0-0.1,0.1-0.1,0.2-0.1
			c0.1,0,0.1,0.1,0.1,0.2l-0.7,1.2C30.9,24.1,30.8,24.2,30.8,24.1"/>
	</g>
</g>
</svg>
