<?xml version="1.0" encoding="utf-8"?>
<!-- Generator: Adobe Illustrator 21.0.0, SVG Export Plug-In . SVG Version: 6.00 Build 0)  -->
<svg version="1.1" id="Layer_1" xmlns="http://www.w3.org/2000/svg" xmlns:xlink="http://www.w3.org/1999/xlink" x="0px" y="0px"
	 viewBox="0 0 50 50" style="enable-background:new 0 0 50 50;" xml:space="preserve">
<style type="text/css">
	.st0{fill:#52B8A6;}
	.st1{fill:#A9C935;}
	.st2{fill:#2828DC;}
	.st3{fill:#DF165B;}
	.st4{fill:#FFFFFF;}
	.st5{fill:#130D13;}
</style>
<g>
	<path class="st0" d="M22.2,45.6c-0.2,0-0.4-0.1-0.5-0.2c-0.2-0.3-0.2-0.7,0.1-1c1.5-1.9,3.3-7.1,0.4-10.1l-0.4-0.4l0.5-0.1
		c0,0,1.6-0.4,4.1-2.1c2.5-1.7,3-2.1,3-2.1l0.4-0.3l0.1,0.5c0,0.1,0.5,2.6-0.1,5.8c-0.6,3-2.3,7.1-7,9.9
		C22.5,45.5,22.3,45.6,22.2,45.6 M22.9,34.2c1.5,1.8,1.5,4,1.3,5.6c-0.2,1.8-1,3.8-2,5c-0.1,0.1-0.1,0.2-0.1,0.2c0,0,0.1,0,0.3-0.1
		c3.6-2.2,5.9-5.3,6.7-9.4c0.4-2.3,0.3-4.2,0.2-5.1c-0.4,0.3-1.2,0.8-2.6,1.8C24.9,33.4,23.5,33.9,22.9,34.2"/>
	<path class="st0" d="M22.2,45.8c-0.3,0-0.5-0.1-0.6-0.3c-0.3-0.3-0.3-0.8,0-1.2c1.5-1.9,3.3-6.9,0.4-9.9l-0.6-0.6l0.8-0.2
		c0,0,1.6-0.4,4-2.1c2.5-1.6,2.9-2,3-2.1l0.6-0.5l0.2,0.8c0,0.1,0.5,2.6-0.1,5.9c-0.6,3-2.3,7.1-7.1,10
		C22.6,45.7,22.4,45.8,22.2,45.8 M22.1,34l0.1,0.1c3,3.1,1.2,8.4-0.4,10.4c-0.2,0.3-0.2,0.6-0.1,0.8c0,0.1,0.2,0.2,0.4,0.2
		c0.1,0,0.3,0,0.5-0.1c4.7-2.8,6.3-6.8,6.9-9.7c0.6-3.1,0.1-5.6,0.1-5.7l0-0.2l-0.1,0.1c-0.1,0-0.6,0.5-3,2.1
		c-2.5,1.7-4.1,2.1-4.1,2.1L22.1,34z M22.2,45.1c-0.1,0-0.1,0-0.2-0.1c-0.1-0.1-0.1-0.3,0.1-0.5c1-1.2,1.7-3.1,2-4.9
		c0.2-1.5,0.1-3.7-1.3-5.4l-0.2-0.2l0.3-0.1c0.6-0.2,2-0.8,3.8-2c1.4-1,2.2-1.5,2.6-1.8l0.3-0.2l0,0.3c0.1,0.9,0.2,2.9-0.2,5.1
		c-0.8,4.2-3.1,7.4-6.8,9.6C22.4,45.1,22.2,45.1,22.2,45.1 M23.2,34.3c1.4,1.8,1.4,4,1.2,5.5c-0.2,1.7-0.9,3.6-1.8,4.8
		c3.4-2.1,5.6-5.2,6.4-9.2c0.4-2,0.3-3.7,0.2-4.7c-0.4,0.3-1.2,0.8-2.4,1.6C25.2,33.4,23.9,34,23.2,34.3"/>
	<path class="st0" d="M6.6,32c-0.1,0-0.2,0-0.4-0.1c-0.2-0.2-0.4-0.5-0.2-1c2.1-5.1,6-7.3,8.8-8.3c3.1-1.1,5.6-0.9,5.7-0.9l0.5,0
		l-0.3,0.4c0,0-0.3,0.6-1.7,3.2c-1.3,2.7-1.5,4.3-1.5,4.3l-0.1,0.5L17.2,30c-3.4-2.5-8.2,0-10,1.8C7.1,31.9,6.9,32,6.6,32
		 M20.1,22.3c-0.9,0-2.8,0.1-5,0.9c-4,1.4-6.8,4-8.4,7.9c-0.1,0.2-0.1,0.3,0,0.3c0,0,0.1,0,0.2-0.1c1.1-1.1,2.9-2.2,4.7-2.7
		c1.5-0.4,3.7-0.7,5.7,0.5c0.2-0.7,0.5-2.1,1.5-4C19.4,23.6,19.9,22.8,20.1,22.3"/>
	<path class="st0" d="M6.6,32.2c-0.2,0-0.3,0-0.5-0.1c-0.3-0.2-0.5-0.6-0.3-1.3c2.2-5.1,6.1-7.4,8.9-8.4c3.1-1.1,5.7-0.9,5.8-0.9
		l0.8,0.1L21,22.3c0,0-0.3,0.5-1.6,3.2c-1.3,2.6-1.5,4.2-1.5,4.3l-0.1,0.8l-0.7-0.5c-3.3-2.4-8,0-9.7,1.8
		C7.2,32.1,6.9,32.2,6.6,32.2 M20.2,21.9c-0.8,0-2.9,0.1-5.2,0.9c-2.8,1-6.6,3.2-8.7,8.2c-0.2,0.5,0,0.8,0.1,0.8
		c0.2,0.1,0.5,0.1,0.7-0.2c1.8-1.8,6.7-4.3,10.2-1.8l0.2,0.1l0-0.2c0,0,0.2-1.7,1.5-4.4c1.3-2.7,1.6-3.2,1.7-3.3l0.1-0.2l-0.2,0
		C20.6,21.9,20.5,21.9,20.2,21.9 M6.6,31.6c0,0-0.1,0-0.1,0c-0.1-0.1-0.1-0.3,0-0.5c1.7-3.9,4.5-6.6,8.6-8c2.2-0.8,4.1-0.9,5.1-0.9
		l0.3,0l-0.2,0.3c-0.2,0.4-0.7,1.3-1.4,2.8c-0.9,1.9-1.3,3.3-1.5,4l-0.1,0.3l-0.2-0.1c-1.9-1.2-4.1-0.9-5.5-0.5
		C9.8,29.3,8,30.4,7,31.5C6.9,31.6,6.7,31.6,6.6,31.6 M19.8,22.5c-1,0-2.7,0.2-4.6,0.9c-3.8,1.3-6.6,3.9-8.2,7.5
		c1.1-1.1,2.9-2,4.5-2.5c1.5-0.4,3.6-0.7,5.6,0.4c0.2-0.7,0.6-2.1,1.4-3.8C19.1,23.8,19.5,23,19.8,22.5"/>
	<path class="st1" d="M42.4,15.7L33,7.5l0.5-0.3c0,0,2.1-1,4.4-1.8c4.2-1.6,5.3-1.2,5.7-0.9c0.4,0.4,0.9,1.4,0,5.9
		c-0.5,2.4-1.1,4.6-1.1,4.7L42.4,15.7z M34.4,7.7l7.5,6.6c0.2-0.8,0.6-2.4,0.9-4c0.9-4.3,0.3-5,0.2-5.1c-0.1-0.1-0.9-0.5-5,1
		C36.7,6.7,35.2,7.4,34.4,7.7"/>
	<path class="st2" d="M33.7,7.6l4.2,3.7l4.2,3.7c-3.4,7.7-7.7,14.2-19.6,20l-6-5.3C20.7,17.1,26.6,12,33.7,7.6"/>
	<path class="st2" d="M22.6,35.3c-0.1,0-0.1,0-0.2-0.1l-6-5.3c-0.1-0.1-0.1-0.2-0.1-0.3c1.9-5.9,4.4-10.5,7.5-14.2
		c3.1-3.7,6.7-6.1,9.8-8.1c0.1-0.1,0.3-0.1,0.4,0l8.5,7.4c0.1,0.1,0.1,0.2,0.1,0.4c-1.5,3.3-3.4,7.2-6.7,10.8
		c-3.2,3.6-7.5,6.7-13.1,9.4C22.7,35.3,22.6,35.3,22.6,35.3 M16.9,29.6l5.7,5c12.2-6,16.2-12.9,19.2-19.6L33.7,8
		C27.5,11.8,21.2,16.8,16.9,29.6"/>
	<path class="st3" d="M19.5,36.6l-4-3.5c-7,3.8-6.2,10.6-6.2,10.6C17.3,44,19.5,36.6,19.5,36.6"/>
	<path class="st4" d="M16.1,33.6l2.8,2.4c-1.1,1.7-3.3,4.2-6.7,4.7C12.1,40.7,12.3,36.9,16.1,33.6"/>
	<path class="st3" d="M14.8,37.7c0,0,0.2-1.7,1.9-3.7l1.7,1.5C17.5,36.4,16.3,37.4,14.8,37.7"/>
	<path class="st0" d="M19.9,37.3l-5.3-4.6l1.8-3.5l6.6,5.8L19.9,37.3z M15.4,32.6l4.5,3.9l2.2-1.6l-5.4-4.7L15.4,32.6z"/>
	<path class="st0" d="M19.9,37.6l-5.5-4.8l2-3.8l7,6.1L19.9,37.6z M14.9,32.7l5,4.4l2.9-2.1l-6.2-5.4L14.9,32.7z M19.9,36.8
		l-4.8-4.1l1.4-2.7l5.8,5.1L19.9,36.8z M15.6,32.6l4.3,3.8l1.9-1.3l-5.1-4.4L15.6,32.6z"/>
	<path class="st4" d="M25.4,20.8c0,0,1.2-3.7,3.5-4c2.3-0.3,4.9,0.5,6.4,3.2c0,0-1.5,3.9-5.8,3.8C29.5,23.7,26.7,23.8,25.4,20.8"/>
	<path class="st5" d="M31.6,19.9c0.1,0.8-0.4,1.5-1.2,1.6c-0.8,0.1-1.5-0.4-1.6-1.2c-0.1-0.8,0.4-1.5,1.2-1.6
		C30.8,18.6,31.5,19.1,31.6,19.9"/>
	<path class="st1" d="M26.7,17.5c-0.1,0-0.2-0.1-0.2-0.1l-1-1.8c-0.1-0.1,0-0.3,0.1-0.4c0.1-0.1,0.3,0,0.4,0.1l1,1.8
		c0.1,0.1,0,0.3-0.1,0.4C26.8,17.4,26.8,17.5,26.7,17.5"/>
	<path class="st1" d="M29.3,16.4c-0.1,0-0.3-0.1-0.3-0.2l-0.3-2.1c0-0.2,0.1-0.3,0.2-0.3c0.2,0,0.3,0.1,0.3,0.2l0.3,2.1
		C29.6,16.3,29.5,16.4,29.3,16.4C29.3,16.4,29.3,16.4,29.3,16.4"/>
	<path class="st1" d="M31.7,16.7C31.7,16.7,31.7,16.7,31.7,16.7c-0.2,0-0.3-0.2-0.3-0.3l0.3-2.5c0-0.2,0.1-0.3,0.3-0.2
		c0.2,0,0.3,0.2,0.2,0.3L32,16.4C32,16.5,31.8,16.7,31.7,16.7"/>
	<path class="st1" d="M33.9,17.5c0,0-0.1,0-0.1,0c-0.1-0.1-0.2-0.2-0.1-0.4l0.7-1.6c0.1-0.1,0.2-0.2,0.4-0.1
		c0.1,0.1,0.2,0.2,0.1,0.4l-0.7,1.6C34.1,17.4,34,17.5,33.9,17.5"/>
</g>
</svg>
