<?xml version="1.0" encoding="utf-8"?>
<!-- Generator: Adobe Illustrator 21.0.0, SVG Export Plug-In . SVG Version: 6.00 Build 0)  -->
<svg version="1.1" id="Layer_1" xmlns="http://www.w3.org/2000/svg" xmlns:xlink="http://www.w3.org/1999/xlink" x="0px" y="0px"
	 viewBox="0 0 50 50" style="enable-background:new 0 0 50 50;" xml:space="preserve">
<style type="text/css">
	.st0{fill:#FFFFFF;}
	.st1{fill:#130D13;}
	.st2{fill:#52B8A6;}
	.st3{fill:#DF165B;}
</style>
<g>
	<path class="st0" d="M14.1,28.3c0,0,1.7-4.3,4.5-4.5c2.8-0.2,5.2,0.9,6.8,4.3c0,0-1.5,4.5-6.6,4.1C18.8,32.2,15.5,32,14.1,28.3"/>
	<path class="st1" d="M21.7,27.7c0.1,0.9-0.6,1.7-1.6,1.8c-0.9,0.1-1.7-0.6-1.8-1.5c-0.1-0.9,0.6-1.7,1.6-1.8
		C20.8,26.1,21.6,26.8,21.7,27.7"/>
	<path class="st2" d="M40.3,17.6c-1.1-1.3-2.9-0.4-3.7,0.3l-3.2,2.4l1-4.7c0.1-0.2,1.7-4.9,0.7-6.8c-0.2-0.4-0.6-0.7-1-0.8
		c-0.8-0.2-1.5-0.1-2,0.3c-0.9,0.7-0.9,1.9-0.9,1.9l-1.3,7.1c-0.4-1.6-1.1-4.3-1.5-6.7c-0.3-1.2-0.5-2.2-0.7-3
		c0-0.2-0.1-0.4-0.1-0.7c-0.8-2.1-2.9-3.8-5.2-3.9c-1.2,0-2.3,0.7-2.4,1.9c-0.1,1.1,0.7,2.3,1.9,2.4c0.1,0,0.3,0,0.4,0
		c0,0,0,0,0.1,0c0,0,0,0,0.1,0c0.1,0.1,0.3,0.1,0.4,0.2c0,0,0,0,0,0c0,0,0.1,0,0.1,0.1c0.4,0.4,0.9,1,1.1,1.5l1.8,9.4
		C18.6,16,13.6,17.1,11,22c-0.8,1.5-1.6,3.4,0,4.5c0.3,0.2,0.7,0.3,1,0.2c0.8-0.2,1.4-1.1,1.5-1.2l0-0.1c1.6-5.2,6.7-4.3,6.9-4.3
		c2.8,0.7,4.8,1.9,5.9,3.7c1.4,2.3,0.7,4.8,0.7,4.8l0,0c-0.2,1.8-1.2,3.5-2.7,4.6c-1.7,1.2-3.9,1.7-6.1,1.2c-3.5-0.7-4.1-3.2-4.6-5
		c-0.2-0.6-0.3-1.1-0.5-1.5c-0.5-0.8-1.6-1-2.5-0.6c-0.9,0.5-1.7,1.7-0.9,3.6l0.2,0.5c1.3,3,2.6,6.2,6,7.2c0.9,0.3,1.9,0.4,3,0.4
		c2.9,0,6.1-1.1,8.4-2.9c1.7-1.4,2.2-1.3,3-1.2c0.5,0.1,1.2,0.2,2.4-0.1c1.4-0.4,1.9-1.3,2.1-1.9c0.3-1,0-2-0.3-2.5
		c-0.3-0.5-1.1-3.8-0.3-5.7c0.8-1.9,3.9-3.8,4-3.8c0.1-0.1,2.4-2,2.5-3.5C40.7,18.2,40.6,17.9,40.3,17.6"/>
	<path class="st3" d="M14.8,23.1c-0.2,0-0.3-0.1-0.4-0.2l-1.9-2.6c-0.2-0.2-0.1-0.6,0.1-0.8c0.2-0.2,0.6-0.1,0.8,0.1l1.9,2.6
		c0.2,0.2,0.1,0.6-0.1,0.8C15.1,23,15,23.1,14.8,23.1"/>
	<path class="st3" d="M18.4,21.4c-0.3,0-0.5-0.2-0.5-0.5l-0.6-3.4c-0.1-0.3,0.2-0.6,0.5-0.6c0.3,0,0.6,0.2,0.6,0.5l0.6,3.4
		C19,21.1,18.8,21.4,18.4,21.4C18.4,21.4,18.4,21.4,18.4,21.4"/>
	<path class="st3" d="M22.3,22.1c-0.1,0-0.1,0-0.2,0c-0.3-0.1-0.4-0.4-0.3-0.7l1.2-3.3c0.1-0.3,0.4-0.4,0.7-0.3
		c0.3,0.1,0.4,0.4,0.3,0.7l-1.2,3.3C22.8,21.9,22.6,22.1,22.3,22.1"/>
	<path class="st3" d="M25.6,23.9c-0.1,0-0.2,0-0.3-0.1c-0.3-0.2-0.3-0.5-0.2-0.8l1.7-2.8c0.2-0.3,0.5-0.3,0.8-0.2
		c0.3,0.2,0.3,0.5,0.2,0.8L26,23.6C25.9,23.8,25.8,23.9,25.6,23.9"/>
	<path class="st2" d="M22.7,44.9C22.7,44.9,22.7,44.9,22.7,44.9c-0.1-0.3-0.1-0.7-0.2-1c0-0.4-0.1-0.8-0.2-1.2
		c-0.4-1-1.5-1.1-2.1-0.4c-0.2,0.2-0.3,0.4-0.4,0.7c-0.4,1.1-0.3,2.3-0.3,3.5c0,0.2,0.1,0.4,0.4,0.4c0.3,0,0.3-0.2,0.4-0.4
		c0.1-0.3,0-0.6,0-0.9c0-0.1,0-0.2,0.1-0.2c0.4,0,0.8-0.1,1.2-0.2c0.2,0,0.2,0,0.2,0.2c0,0.4,0.1,0.7,0.1,1c0,0.3,0.2,0.5,0.5,0.4
		c0.3-0.1,0.4-0.3,0.3-0.5C22.8,45.9,22.8,45.4,22.7,44.9 M21.3,44.5c-0.2,0.1-0.5,0.1-0.7,0.2c-0.1,0-0.2,0-0.2-0.2
		c0-0.5,0.1-1,0.4-1.4c0.1-0.2,0.3-0.4,0.5-0.3c0.2,0,0.3,0.2,0.4,0.4c0.1,0.2,0.1,0.4,0.1,0.7C21.8,44.3,21.8,44.3,21.3,44.5"/>
	<path class="st2" d="M31.9,40.7C31.8,40.7,31.8,40.7,31.9,40.7c-0.3-0.2-0.5-0.5-0.7-0.8c-0.2-0.3-0.5-0.6-0.8-0.9
		c-0.8-0.6-1.8-0.2-2,0.8c0,0.3,0,0.5,0,0.8c0.3,1.2,0.9,2.1,1.5,3.1c0.1,0.2,0.3,0.3,0.5,0.2c0.2-0.1,0.2-0.4,0.1-0.6
		c-0.1-0.3-0.3-0.6-0.4-0.8c-0.1-0.1-0.1-0.2,0-0.3c0.3-0.2,0.6-0.5,0.9-0.8c0.1-0.1,0.2-0.1,0.3,0c0.2,0.3,0.4,0.6,0.6,0.8
		c0.2,0.2,0.4,0.3,0.6,0.1c0.2-0.2,0.2-0.4,0-0.6C32.4,41.5,32.1,41.1,31.9,40.7 M30.4,41c-0.2,0.2-0.4,0.3-0.6,0.5
		c-0.1,0.1-0.2,0.1-0.2,0c-0.2-0.4-0.4-0.9-0.4-1.4c0-0.2,0-0.5,0.3-0.6c0.2-0.1,0.4,0.1,0.5,0.2c0.2,0.1,0.3,0.3,0.4,0.5
		C30.7,40.7,30.7,40.7,30.4,41"/>
	<path class="st2" d="M17.4,45.9c0.3-1.1,0.5-2.3,0.8-3.5c0.1-0.2,0-0.4-0.2-0.5c-0.2-0.1-0.3-0.1-0.5,0.1c-0.1,0.1-0.3,0.2-0.4,0.3
		c-0.1,0.1-0.2,0.2-0.4,0.3c-0.1,0.1-0.2,0.1-0.3,0.1c0,0,0,0,0,0c-0.1,0-0.2-0.1-0.2-0.2c-0.1-0.4-0.4-0.7-0.6-1
		c-0.1-0.1-0.2-0.2-0.3-0.2c-0.1,0-0.1,0-0.2,0c-0.2,0-0.2,0.1-0.3,0.2c-0.4,1.4-0.8,2.8-1.2,3.9c0,0.1,0,0.2,0,0.2
		c0,0.1,0.1,0.1,0.2,0.2c0.2,0.1,0.4,0,0.4-0.1c0.1-0.2,0.2-0.4,0.2-0.6c0.2-0.5,0.3-1,0.4-1.6c0.1-0.2,0.1-0.4,0.2-0.7l0-0.2
		l0.1,0.1c0.1,0.1,0.2,0.3,0.3,0.5c0.1,0.2,0.1,0.3,0.3,0.4c0.2,0.1,0.4,0,0.6-0.2c0.1-0.1,0.3-0.2,0.4-0.2l0.2,0l0,0.2
		c0,0.1,0,0.2,0,0.2c0,0.2-0.1,0.3-0.1,0.5c-0.1,0.3-0.2,0.7-0.2,1c-0.1,0.3-0.2,0.7-0.2,1c-0.1,0.2,0,0.4,0.3,0.4
		c0.1,0,0.2,0,0.3,0c0.1,0,0.1-0.1,0.1-0.2c0-0.1,0-0.1,0-0.2C17.4,46,17.4,46,17.4,45.9"/>
	<path class="st2" d="M26.1,41c-0.5-0.3-1-0.3-1.2-0.2c0,0-0.1,0-0.1,0c-0.4,0.2-0.7,0.4-0.7,0.6c0,0.1,0,0.3,0.1,0.4
		c0.4,0.7,0.8,1.5,1.1,2.2c0.2,0.4,0.7,1.5,0.9,1.9c0.1,0.3,0.2,0.3,0.4,0.3c0.1,0,0.2-0.1,0.2-0.2c0-0.1,0-0.2,0-0.3
		c0-0.1-0.1-0.2-0.1-0.2c-0.1-0.3-0.6-1.5-0.8-1.8c0-0.1-0.1-0.2,0-0.3c0-0.1,0.1-0.2,0.2-0.2l0,0c0.5-0.2,0.7-0.6,0.8-1.1
		C26.8,41.6,26.5,41.2,26.1,41 M26,42.3c-0.1,0.2-0.2,0.3-0.3,0.3c-0.1,0-0.1,0-0.2,0.1c-0.1,0-0.2,0-0.3-0.2c0,0,0,0,0-0.1
		c-0.1-0.2-0.2-0.3-0.3-0.4l-0.1-0.1c-0.1-0.1-0.1-0.1-0.1-0.2c0-0.1,0.1-0.1,0.2-0.2c0.3-0.2,0.7-0.1,1,0.1
		C26.1,41.8,26.1,42,26,42.3"/>
</g>
</svg>
