<?xml version="1.0" encoding="utf-8"?>
<!-- Generator: Adobe Illustrator 21.0.0, SVG Export Plug-In . SVG Version: 6.00 Build 0)  -->
<svg version="1.1" id="Layer_1" xmlns="http://www.w3.org/2000/svg" xmlns:xlink="http://www.w3.org/1999/xlink" x="0px" y="0px"
	 viewBox="0 0 50 50" style="enable-background:new 0 0 50 50;" xml:space="preserve">
<style type="text/css">
	.st0{fill:#F5F5F5;}
	.st1{fill:#DF165B;}
	.st2{fill:#2828DC;}
	.st3{fill:#A9C935;}
	.st4{fill:#EC821F;}
</style>
<g>
	<path class="st0" d="M24.8,20l0.3,0C25.1,19.9,25,19.9,24.8,20"/>
	<path class="st1" d="M24.8,20.1L20,24.5l-0.5-2.3c0.2,0,0.2-0.2,0.3-0.3c1.4-1.4,2.8-2.8,4.2-4.2c0.4-0.4,0.8-0.6,1.4-0.6
		c0.6,0,1.1,0,1.7,0c0.8,0,1.3-0.4,1.3-1.3c0-1.3,0-2.7,0-4c0-0.4,0-0.7,0.1-1c0.1-0.2,0-0.3-0.2-0.3c-0.9,0-1.9,0-2.8,0
		c-0.6,0-1.1-0.2-1.5-0.6c-1.2-1.1-2.5-1.7-4.1-1.7c-2.6,0-5.3,0-7.9,0c-0.3,0-0.5,0.1-0.7,0.2c-0.4,0.3-0.5,0.8-0.4,1.3
		c0.2,0.5,0.6,0.7,1.1,0.7c1.4,0,2.8,0,4.1,0c0.1,0,0.3,0,0.4,0c0.5,0.1,0.9,0.6,0.9,1.2c-0.1,0.6-0.5,1-1.1,1c-1.6,0-3.1,0-4.7,0
		c-0.6,0-1.3,0-1.9,0c-0.6,0-1.1,0.5-1.1,1.1c0,0.6,0.5,1.1,1.1,1.1c0.1,0,0.2,0,0.3,0c1.7,0,3.5,0,5.2,0c0.4,0,0.8,0,1.2,0
		c0.6,0,1,0.5,1,1c0,0.5-0.3,1-0.9,1.2c-0.1,0-0.3,0-0.4,0c-1.4,0-2.7,0-4.1,0c-0.4,0-0.8,0.2-1,0.6c-0.2,0.3-0.2,0.6-0.1,0.9
		l-2.2-0.1c0-0.4,0-0.7,0.1-1.1c0.1-0.3,0.1-0.4-0.2-0.5c-1.3-0.4-2.2-1.7-2.2-3c0-1.3,0.9-2.6,2.2-3c0.3-0.1,0.3-0.2,0.2-0.5
		c-0.3-1.3,0-2.4,1-3.4c0.5-0.5,1.1-0.7,1.8-0.8h9c0,0,0,0.1,0.1,0.1c1.8,0.2,3.3,0.9,4.7,2c0.2,0.1,0.3,0.2,0.5,0.2
		c1.6,0,3.2,0,4.8,0v2.9c-0.1,0.1-0.1,0.3-0.1,0.5c0,0.5,0,1.1,0,1.6c0,0,0.4,3.8-0.7,4.8c-0.2,0.3-0.5,0.6-0.9,0.8
		c-0.4,0.2-0.8,0.3-1.3,0.5c0.2,0.1-0.1-0.1,0,0L25.1,20"/>
	<path class="st1" d="M10.8,18.7c0,0,0.2,0.6,0.3,0.8H8.6l0-0.9"/>
	<path class="st2" d="M18.7,39.2c0,0,0.6-0.2,0.8-0.3v2.5h-0.9"/>
	<path class="st3" d="M39.2,31.4c0,0-0.2-0.6-0.3-0.8h2.5v0.9"/>
	<path class="st4" d="M31.3,10.8c0,0-0.6,0.2-0.8,0.3V8.5h0.9"/>
	<path class="st2" d="M20.2,25.2l4.5,4.7l-2.4,0.6c0-0.2-0.2-0.2-0.3-0.3c-1.4-1.4-2.8-2.8-4.2-4.2c-0.4-0.4-0.6-0.8-0.6-1.4
		c0-0.6,0-1.1,0-1.7c0-0.8-0.4-1.3-1.3-1.3c-1.3,0-2.7,0-4,0c-0.4,0-0.7,0-1-0.1c-0.2-0.1-0.3,0-0.3,0.2c0,0.9,0,1.9,0,2.8
		c0,0.6-0.2,1.1-0.6,1.5c-1.1,1.2-1.7,2.5-1.7,4.1c0,2.6,0,5.3,0,7.9c0,0.3,0.1,0.5,0.2,0.7c0.3,0.4,0.8,0.5,1.3,0.4
		c0.5-0.2,0.7-0.6,0.7-1.1c0-1.4,0-2.8,0-4.1c0-0.1,0-0.3,0-0.4c0.1-0.5,0.6-0.9,1.2-0.9c0.6,0.1,1,0.5,1,1.1c0,1.6,0,3.1,0,4.7
		c0,0.6,0,1.3,0,1.9c0,0.6,0.5,1.1,1.1,1.1s1.1-0.5,1.1-1.1c0-0.1,0-0.2,0-0.3v-5.2c0-0.4,0-0.8,0-1.2c0-0.6,0.5-1,1-1
		c0.5,0,1,0.3,1.2,0.9c0,0.1,0,0.3,0,0.4c0,1.4,0,2.7,0,4.1c0,0.4,0.2,0.8,0.6,1c0.3,0.2,0.6,0.2,0.9,0.1l-0.1,2.2
		c-0.4,0-0.7,0-1.1-0.1c-0.3-0.1-0.4-0.1-0.5,0.2c-0.4,1.3-1.7,2.2-3,2.2c-1.3,0-2.6-0.9-3-2.2c-0.1-0.3-0.2-0.3-0.5-0.2
		c-1.3,0.3-2.4,0-3.4-1c-0.5-0.5-0.7-1.1-0.8-1.8v-9c0,0,0.1,0,0.1-0.1c0.2-1.8,0.9-3.3,2-4.7c0.1-0.2,0.2-0.3,0.2-0.5
		c0-1.6,0-3.2,0-4.8h2.9c0.1,0.1,0.3,0.1,0.5,0.1c0.5,0,1.1,0,1.6,0c0,0,3.8-0.4,4.8,0.7c0.3,0.2,0.6,0.5,0.8,0.9
		c0.2,0.4,0.3,0.8,0.5,1.3c0.1-0.2-0.1,0.1,0,0l0.6,2.4"/>
	<path class="st3" d="M25.1,29.9l4.8-4.8l0.6,2.6c-0.2,0-0.2,0.2-0.3,0.3c-1.4,1.4-2.8,2.8-4.2,4.2c-0.4,0.4-0.8,0.6-1.4,0.6
		c-0.6,0-1.1,0-1.7,0c-0.8,0-1.3,0.4-1.3,1.3c0,1.3,0,2.7,0,4c0,0.4,0,0.7-0.1,1c-0.1,0.2,0,0.3,0.2,0.3c0.9,0,1.9,0,2.8,0
		c0.6,0,1.1,0.2,1.5,0.6c1.2,1.1,2.5,1.7,4.1,1.7c2.6,0,5.3,0,7.9,0c0.3,0,0.5-0.1,0.7-0.2c0.4-0.3,0.5-0.8,0.4-1.3
		c-0.2-0.5-0.6-0.7-1.1-0.7c-1.4,0-2.8,0-4.1,0c-0.1,0-0.3,0-0.4,0c-0.5-0.1-0.9-0.6-0.8-1.2c0.1-0.6,0.5-1,1.1-1c1.6,0,3.1,0,4.7,0
		c0.6,0,1.3,0,1.9,0c0.6,0,1.1-0.5,1.1-1.1c0-0.6-0.5-1.1-1.1-1.1c-0.1,0-0.2,0-0.3,0c-1.7,0-3.5,0-5.2,0c-0.4,0-0.8,0-1.2,0
		c-0.6,0-1-0.5-1-1c0-0.5,0.3-1,0.9-1.2c0.1,0,0.3,0,0.4,0c1.4,0,2.7,0,4.1,0c0.4,0,0.8-0.2,1-0.6c0.2-0.3,0.2-0.6,0.1-0.9l2.2,0.1
		c0,0.4,0,0.7-0.1,1.1c-0.1,0.3-0.1,0.4,0.2,0.5c1.3,0.4,2.2,1.7,2.2,3c0,1.3-0.9,2.6-2.2,3c-0.3,0.1-0.3,0.2-0.2,0.5
		c0.3,1.3,0,2.4-1,3.4c-0.5,0.5-1.1,0.7-1.8,0.8h-9c0,0,0-0.1-0.1-0.1c-1.8-0.2-3.3-0.9-4.7-2c-0.2-0.1-0.3-0.2-0.5-0.2
		c-1.6,0-3.2,0-4.8,0v-2.9c0.1-0.1,0.1-0.3,0.1-0.5c0-0.5,0-1.1,0-1.6c0,0-0.4-3.8,0.7-4.8c0.2-0.3,0.5-0.6,0.9-0.8
		c0.4-0.2,0.8-0.3,1.3-0.5c-0.2-0.1,0.1,0.1,0,0l2.4-0.6"/>
	<path class="st4" d="M29.8,24.8L25.2,20l2.5-0.6c0,0.2,0.2,0.3,0.3,0.4c1.4,1.4,2.8,2.8,4.2,4.2c0.4,0.4,0.6,0.8,0.6,1.4
		c0,0.6,0,1.1,0,1.7c0,0.8,0.4,1.3,1.3,1.3c1.3,0,2.7,0,4,0c0.4,0,0.7,0,1,0.1c0.2,0.1,0.3,0,0.3-0.2c0-0.9,0-1.9,0-2.8
		c0-0.6,0.2-1.1,0.6-1.5c1.1-1.2,1.7-2.5,1.7-4.1c0-2.6,0-5.3,0-7.9c0-0.3-0.1-0.5-0.2-0.7c-0.3-0.4-0.8-0.5-1.3-0.4
		c-0.5,0.2-0.7,0.6-0.7,1.1c0,1.4,0,2.8,0,4.1c0,0.1,0,0.3,0,0.4c-0.1,0.5-0.6,0.9-1.2,0.8c-0.6-0.1-1-0.5-1-1.1c0-1.6,0-3.1,0-4.7
		c0-0.6,0-1.3,0-1.9C37,9,36.5,8.5,36,8.5c-0.6,0-1.1,0.5-1.1,1.1c0,0.1,0,0.2,0,0.3c0,1.7,0,3.5,0,5.2c0,0.4,0,0.8,0,1.2
		c0,0.6-0.5,1-1,1c-0.5,0-1-0.3-1.2-0.9c0-0.1,0-0.3,0-0.4c0-1.4,0-2.7,0-4.1c0-0.4-0.2-0.8-0.6-1c-0.3-0.2-0.6-0.2-0.9-0.1l0.1-2.2
		c0.4,0,0.7,0,1.1,0.1c0.3,0.1,0.4,0.1,0.5-0.2c0.4-1.3,1.7-2.2,3-2.2c1.3,0,2.6,0.9,3,2.2c0.1,0.3,0.2,0.3,0.5,0.2
		c1.3-0.3,2.4,0,3.4,1c0.5,0.5,0.7,1.1,0.8,1.8v9c0,0-0.1,0-0.1,0.1c-0.2,1.8-0.9,3.3-2,4.7c-0.1,0.2-0.2,0.3-0.2,0.5
		c0,1.6,0,3.2,0,4.8h-2.9c-0.1-0.1-0.3-0.1-0.5-0.1c-0.5,0-1.1,0-1.6,0c0,0-3.8,0.4-4.8-0.7c-0.3-0.2-0.6-0.5-0.8-0.9
		c-0.2-0.4-0.3-0.8-0.5-1.3c-0.1,0.2,0.1-0.1,0,0l-0.6-2.4"/>
</g>
</svg>
