<?xml version="1.0" encoding="utf-8"?>
<!-- Generator: Adobe Illustrator 21.0.0, SVG Export Plug-In . SVG Version: 6.00 Build 0)  -->
<svg version="1.1" id="Layer_1" xmlns="http://www.w3.org/2000/svg" xmlns:xlink="http://www.w3.org/1999/xlink" x="0px" y="0px"
	 viewBox="0 0 50 50" style="enable-background:new 0 0 50 50;" xml:space="preserve">
<style type="text/css">
	.st0{fill:#FFFFFF;}
	.st1{fill:#EE841E;}
	.st2{fill:#A9C935;}
	.st3{fill:#DF165B;}
	.st4{fill:#130D13;}
	.st5{fill:#2828DC;}
</style>
<g>
	<polygon class="st0" points="8,42.3 10.1,32.3 12.3,31.7 18.4,39 18,40 	"/>
	<path class="st1" d="M8,43.1c-0.2,0-0.4-0.1-0.6-0.2c-0.2-0.2-0.3-0.5-0.2-0.8l2.1-10c0.1-0.3,0.3-0.6,0.6-0.6l2.2-0.6
		c0.3-0.1,0.7,0,0.9,0.3l6.1,7.3c0.2,0.2,0.2,0.5,0.1,0.8l-0.4,1c-0.1,0.3-0.3,0.5-0.6,0.5l-10,2.3C8.1,43.1,8.1,43.1,8,43.1
		 M10.8,32.9l-1.7,8.3l8.3-1.9l0-0.1L12,32.6L10.8,32.9z"/>
	<path class="st2" d="M9.9,32.5c0,0,3-1.5,3.1,2.3c0,0,3.1-0.4,2.6,2.5c0,0,2.4,0.1,2.4,2.7l18.8-19.6l-7.6-7.8L9.9,32.5z"/>
	<path class="st2" d="M18,40.8c-0.1,0-0.2,0-0.3-0.1c-0.3-0.1-0.5-0.4-0.5-0.8c0-1.8-1.4-1.9-1.6-1.9c-0.2,0-0.5-0.1-0.6-0.3
		c-0.2-0.2-0.2-0.4-0.2-0.7c0.1-0.5,0-0.9-0.2-1.1c-0.4-0.4-1.2-0.4-1.5-0.4c-0.2,0-0.5,0-0.6-0.2c-0.2-0.2-0.3-0.4-0.3-0.6
		c0-0.9-0.2-1.5-0.6-1.7c-0.4-0.3-1.1,0-1.3,0.1c-0.4,0.2-0.8,0.1-1.1-0.3c-0.2-0.3-0.2-0.8,0.1-1.1l19.4-19.9
		c0.2-0.2,0.4-0.3,0.6-0.3h0c0.2,0,0.4,0.1,0.6,0.3l7.6,7.8c0.3,0.3,0.3,0.8,0,1.2L18.6,40.6C18.5,40.7,18.2,40.8,18,40.8
		 M16.5,36.6c0.8,0.2,1.6,0.8,2,1.7l17.1-17.9l-6.4-6.6L12,31.5c0.1,0,0.3,0.1,0.4,0.2c0.7,0.4,1.2,1.2,1.3,2.3
		c0.6,0.1,1.5,0.3,2.1,0.9C16.1,35.2,16.5,35.7,16.5,36.6"/>
	<path class="st2" d="M8.6,39.5c0,0,1.9,0,2.5,2.2L8,42.3L8.6,39.5z"/>
	<path class="st2" d="M8,43.1c-0.2,0-0.4-0.1-0.6-0.3c-0.2-0.2-0.3-0.5-0.2-0.8l0.7-2.9c0.1-0.4,0.5-0.7,0.8-0.7
		c0.9,0,2.7,0.6,3.3,2.8c0.1,0.2,0,0.5-0.1,0.7c-0.1,0.2-0.3,0.3-0.5,0.4l-3.2,0.7C8.1,43.1,8,43.1,8,43.1 M9.3,40.5l-0.2,0.7L10,41
		C9.7,40.8,9.5,40.6,9.3,40.5"/>
	<path class="st0" d="M31.8,10.1c0,0,1.7-2.3,4.4-2.4c2.4,0,4.9,0.5,5.8,4.1c0,0,0.2,2.9-1.4,4.6l-1.5,1.4"/>
	<path class="st1" d="M39.1,18.6c-0.2,0-0.5-0.1-0.6-0.3c-0.3-0.3-0.3-0.9,0.1-1.2l1.5-1.3c1.1-1.3,1.1-3.5,1.1-3.9
		c-0.7-2.9-2.4-3.4-4.9-3.4c-2.3,0-3.7,2-3.8,2c-0.3,0.4-0.8,0.5-1.2,0.2c-0.4-0.3-0.5-0.8-0.2-1.2c0.1-0.1,2-2.7,5.1-2.7
		c2.3,0,5.6,0.5,6.6,4.8c0,0,0,0.1,0,0.1c0,0.1,0.2,3.3-1.6,5.2c0,0,0,0-0.1,0.1l-1.5,1.4C39.5,18.5,39.3,18.6,39.1,18.6"/>
	<path class="st3" d="M36.8,21.2c-0.2,0-0.4-0.1-0.6-0.3l-7.6-7.8c-0.2-0.2-0.2-0.4-0.2-0.6c0-0.2,0.1-0.4,0.3-0.6l2.6-2.5
		c0.2-0.2,0.4-0.2,0.6-0.2c0.2,0,0.4,0.1,0.6,0.3l7.3,7.7c0.3,0.3,0.3,0.8,0,1.1l-2.3,2.6C37.3,21.1,37.1,21.2,36.8,21.2L36.8,21.2z
		 M30.4,12.6l6.4,6.5l1.2-1.3l-6.2-6.5L30.4,12.6z"/>
	<path class="st0" d="M9.9,32.6c0,0,2.5-1.4,3,2.4c0,0,2.6-1.2,2.7,2.6c0,0,2.7-0.5,2.3,2.1"/>
	<path class="st1" d="M17.8,40.5c0,0-0.1,0-0.1,0c-0.5-0.1-0.8-0.5-0.7-0.9c0-0.3,0.1-0.7-0.2-1c-0.3-0.3-0.9-0.2-1.1-0.2
		c-0.2,0-0.5,0-0.7-0.2c-0.2-0.2-0.3-0.4-0.3-0.6c0-0.9-0.2-1.6-0.6-1.8c-0.4-0.2-0.9,0-0.9,0c-0.2,0.1-0.5,0.1-0.8,0
		c-0.2-0.1-0.4-0.4-0.4-0.6c-0.1-1-0.4-1.6-0.8-1.8c-0.4-0.2-0.9,0.1-0.9,0.1c-0.4,0.2-0.9,0.1-1.1-0.3c-0.2-0.4-0.1-0.9,0.3-1.1
		c0.1-0.1,1.3-0.7,2.5-0.1c0.7,0.4,1.2,1.1,1.5,2.2c0.4,0,1,0,1.5,0.4c0.7,0.4,1.1,1.2,1.3,2.3c0.5,0,1.2,0.2,1.7,0.7
		c0.4,0.4,0.8,1.1,0.7,2.4C18.6,40.2,18.3,40.5,17.8,40.5"/>
	<path class="st0" d="M19.4,26.4c0,0,1.7-4,4.3-4.1c2.6-0.1,5.3,1.1,6.6,4.3c0,0-2.1,4.2-6.8,3.6C23.6,30.2,20.5,30,19.4,26.4"/>
	<path class="st4" d="M26.4,26.1c0,0.9-0.6,1.6-1.5,1.7c-0.9,0-1.6-0.6-1.6-1.5c0-0.9,0.6-1.6,1.5-1.7
		C25.6,24.5,26.3,25.2,26.4,26.1"/>
	<path class="st5" d="M21.3,22.7c-0.1,0-0.1-0.1-0.2-0.1l-0.9-2.2c0-0.1,0-0.2,0.1-0.3c0.1,0,0.2,0,0.3,0.1l0.9,2.2
		c0,0.1,0,0.2-0.1,0.3C21.4,22.7,21.3,22.7,21.3,22.7"/>
	<path class="st5" d="M24.2,21.9c-0.1,0-0.2-0.1-0.2-0.2l-0.1-2.4c0-0.1,0.1-0.2,0.2-0.2c0.1,0,0.2,0.1,0.2,0.2l0.1,2.4
		C24.5,21.8,24.4,21.9,24.2,21.9C24.2,21.9,24.2,21.9,24.2,21.9"/>
	<path class="st5" d="M26.8,22.4C26.8,22.4,26.8,22.4,26.8,22.4c-0.1,0-0.2-0.1-0.2-0.3l0.6-2.7c0-0.1,0.1-0.2,0.2-0.2
		c0.1,0,0.2,0.1,0.2,0.3L27,22.2C27,22.3,26.9,22.4,26.8,22.4"/>
	<path class="st5" d="M29.1,23.6C29,23.6,29,23.6,29.1,23.6c-0.2-0.1-0.2-0.2-0.2-0.3l1-1.8c0.1-0.1,0.2-0.1,0.3-0.1
		c0.1,0.1,0.1,0.2,0.1,0.3l-1,1.8C29.2,23.5,29.2,23.6,29.1,23.6"/>
</g>
</svg>
