<?xml version="1.0" encoding="utf-8"?>
<!-- Generator: Adobe Illustrator 21.0.0, SVG Export Plug-In . SVG Version: 6.00 Build 0)  -->
<svg version="1.1" id="Layer_1" xmlns="http://www.w3.org/2000/svg" xmlns:xlink="http://www.w3.org/1999/xlink" x="0px" y="0px"
	 viewBox="0 0 119.8 41.7" style="enable-background:new 0 0 119.8 41.7;" xml:space="preserve">
<style type="text/css">
	.st0{fill:#A9C935;stroke:#A9C935;stroke-width:1.5;stroke-miterlimit:10;}
	.st1{fill:#52B8A6;}
	.st2{fill:#A9C935;}
	.st3{fill:#2828DC;}
	.st4{fill:#DF165B;}
	.st5{fill:#FFFFFF;}
	.st6{fill:#130D13;}
</style>
<path class="st0" d="M36.7,10.6l-5,12.3c-0.1,0.9-2.3,1-2.6,0.6c0,0-0.3-0.4-0.3-0.6c-1.2-3.9-2.3-7.7-3.8-11.5
	C24.1,20.1,25.1,29,24,37.6C23.5,38,23.1,38,22.6,38c-1,0-0.9-0.2-0.9-1.1c0-1.5,0.4-2.5,0.3-31.6c0-1.4,2.1-2.5,2.7-0.9l5.6,15.4
	c1.3-1.5,5.4-14.5,6.4-16.2c0.5-0.9,1.5-0.8,2.6,0c0,0,0.3,15.3,0.3,21.8c0,4.1,0.3,8.4,0.3,12.6c0,0.8-0.6,1.6-1.4,1.6
	c-0.7,0-0.9-0.2-1.2-0.9C37.4,29.2,37.1,19.9,36.7,10.6z"/>
<path class="st0" d="M44.5,28.7c0-3.7,0.2-21,0.3-24.7c0.2-0.6,1.4-0.6,1.9-0.6c4.8,0,8.3,4.3,8.3,8.9c0,5-3.4,10.6-8,12.7
	c0,0.7-0.2,4.3-0.2,5.1c0,1.6,0,8.7,0,10.2c-0.3,0.5-1,0.6-1.4,0.6c-0.4,0-0.5,0-0.9-0.3V28.7z M47,21.9c0.3,0,0.7-0.1,1-0.3
	c2.7-2.5,4.3-5.3,4.3-9c0-2.4-1.7-6.8-4.9-6.8L47,21.9z"/>
<path class="st0" d="M59.9,30l-0.3,0.3l-0.8,5.2c-0.1,0.7,0,2.7-1.4,2.7c-0.6,0-1-1.2-1-1.7C61.2,3,61.3,2.9,61.3,2.9
	C61.5,2,61.8,0.8,63,0.8c0.5,0,1.2,0.2,1.4,0.7l0.4,1C67.5,13,68.7,23.9,70,34.8l0.3,3c0,0,0,0,0,0.1c-0.3,0.9-0.5,1.2-1.4,1.2h-0.1
	c-0.3,0-0.7,0-0.8-0.3L66.7,30H59.9z M60.6,27.2l5.8,0.1L63.3,5.7L60.6,27.2z"/>
<path class="st0" d="M86,5c0,1.6-2.7,1.3-3.3,1.3h-0.3c-4.5,0-6.5,9.3-6.5,14.5c0,5.9,0.4,10.1,4.4,13.5c2,1.7,5,0,5.7,1.2
	c0.9,1.6-0.8,2.2-2.3,2.2c-10.5-0.2-12.1-14.1-10-23.2c1.1-4.8,4-11.2,10-11.2C84.8,3.2,86,3.9,86,5z"/>
<path class="st0" d="M93.8,5.7c-2.9,0.2-4.2,0.1-4.3-0.6c0.1-1.6,0.1-2.1,4.9-1.8h3.9c1,0,2.7,0.2,2.7,1.5c0,0.4-0.5,0.9-0.9,0.9
	h-3.9l0.9,29.4c0,0.4-0.9,0.6-1.2,0.6c-0.3,0-1.2-0.2-1.2-0.6L93.8,5.7z"/>
<path class="st0" d="M112.1,2.7c8.3,0.9,7.1,20.6,6.6,26.8c-0.3,3.4-2,9.2-6.7,9.2c-8.2,0-8.6-14-8.6-19.4
	C103.5,13.5,103.9,2.7,112.1,2.7z M106.1,19.2c0,13.5,2.5,17.2,5.8,17.2c4.5,0,4.6-11.7,4.6-14.7v-0.2c0-3.6-1-16.5-5.4-16.5
	c-3.5,0-4.9,7.7-4.9,10C106.1,16.6,106.1,17.9,106.1,19.2z"/>
<g>
	<path class="st1" d="M17.5,36c-0.1,0.1-0.3,0.1-0.4,0.1c-0.3,0-0.5-0.3-0.5-0.6c0-1.9-1.5-5.9-4.7-6.2l-0.4,0l0.2-0.3
		c0,0,0.7-1,1.4-3.3c0.7-2.2,0.7-2.7,0.8-2.7l0.1-0.4l0.3,0.3c0.1,0.1,1.6,1.3,2.8,3.5c1.1,2,2.1,5.3,0.7,9.3
		C17.7,35.8,17.6,35.9,17.5,36 M12.3,28.9c1.8,0.3,2.9,1.6,3.5,2.7c0.7,1.2,1.3,2.8,1.3,4c0,0.1,0.1,0.2,0.1,0.2c0,0,0.1,0,0.1-0.2
		c1.1-3.1,0.9-6.1-0.7-8.9c-0.9-1.6-1.9-2.7-2.4-3.1c-0.1,0.4-0.3,1.1-0.7,2.4C13.1,27.4,12.6,28.4,12.3,28.9"/>
	<path class="st1" d="M17.6,36.1c-0.2,0.1-0.3,0.2-0.5,0.1c-0.3-0.1-0.6-0.4-0.6-0.8c0-1.9-1.5-5.7-4.6-6.1l-0.6-0.1l0.4-0.5
		c0,0,0.7-1,1.4-3.2c0.7-2.2,0.7-2.7,0.7-2.7l0.1-0.6l0.5,0.4c0.1,0.1,1.6,1.3,2.8,3.6c1.1,2.1,2.2,5.4,0.7,9.5
		C17.8,35.9,17.7,36,17.6,36.1 M11.7,29.1l0.1,0c3.3,0.4,4.8,4.4,4.9,6.4c0,0.3,0.1,0.4,0.3,0.5c0.1,0,0.2,0,0.3-0.1
		c0.1-0.1,0.2-0.2,0.2-0.3c1.4-4,0.4-7.2-0.7-9.2c-1.2-2.2-2.7-3.4-2.8-3.5L14,22.8l0,0.1c0,0.1-0.1,0.6-0.8,2.7
		c-0.7,2.2-1.4,3.3-1.4,3.3L11.7,29.1z M17.3,35.8c0,0-0.1,0.1-0.1,0c-0.1,0-0.2-0.1-0.2-0.3c0-1.2-0.5-2.7-1.3-3.9
		c-0.6-1-1.7-2.3-3.4-2.6l-0.2,0l0.1-0.2c0.3-0.5,0.8-1.4,1.2-3c0.4-1.3,0.6-2,0.7-2.4l0.1-0.2l0.2,0.2c0.5,0.5,1.6,1.6,2.4,3.2
		c1.6,2.9,1.8,5.9,0.7,9.1C17.4,35.6,17.3,35.7,17.3,35.8 M12.5,28.8c1.7,0.4,2.8,1.7,3.4,2.7c0.7,1.1,1.2,2.6,1.3,3.8
		c1-3,0.8-5.9-0.7-8.6c-0.7-1.4-1.6-2.4-2.2-2.9c-0.1,0.4-0.3,1.1-0.6,2.1C13.3,27.3,12.8,28.2,12.5,28.8"/>
	<path class="st1" d="M1.6,35.6c-0.1,0.1-0.2,0.1-0.3,0.1c-0.2,0-0.5-0.1-0.6-0.5c-1.2-4.1,0-7.3,1.2-9.3c1.3-2.1,2.9-3.3,3-3.4
		l0.3-0.2l0,0.4c0,0,0.1,0.5,0.6,2.7C6.3,27.7,7,28.8,7,28.8l0.2,0.3l-0.4,0c-3.2,0.2-4.9,4.1-5.1,6C1.8,35.3,1.7,35.5,1.6,35.6
		 M4.8,23.2c-0.5,0.4-1.6,1.5-2.5,3c-1.7,2.8-2.1,5.8-1.1,8.9c0,0.2,0.1,0.2,0.1,0.2c0,0,0.1-0.1,0.1-0.2c0.1-1.2,0.7-2.7,1.5-3.9
		c0.7-1,1.9-2.2,3.7-2.5c-0.2-0.5-0.7-1.5-1.1-3.1C5,24.3,4.9,23.6,4.8,23.2"/>
	<path class="st1" d="M1.6,35.7c-0.1,0.1-0.2,0.1-0.3,0.1c-0.3,0-0.6-0.1-0.8-0.6c-1.2-4.1,0-7.4,1.2-9.4c1.3-2.2,2.9-3.4,3-3.4
		L5.2,22l0.1,0.7c0,0,0.1,0.5,0.6,2.7c0.5,2.2,1.2,3.3,1.2,3.3l0.3,0.5l-0.6,0c-3.2,0.2-4.8,4-4.9,5.9C1.9,35.4,1.8,35.6,1.6,35.7
		 M4.6,22.9C4.2,23.3,3,24.3,2,26c-1.2,2-2.4,5.1-1.2,9.2c0.1,0.4,0.4,0.4,0.5,0.4c0.2,0,0.3-0.2,0.4-0.5c0.1-2,1.9-5.9,5.2-6.1
		L7,29l-0.1-0.1c0,0-0.7-1.1-1.2-3.4C5.1,23.2,5,22.8,5,22.7l0-0.2l-0.1,0.1C4.9,22.7,4.8,22.7,4.6,22.9 M1.3,35.4
		C1.3,35.4,1.3,35.4,1.3,35.4C1.1,35.4,1,35.3,1,35.1c-1-3.2-0.6-6.2,1.1-9c0.9-1.5,2-2.6,2.6-3l0.2-0.2l0,0.2
		c0.1,0.4,0.2,1.1,0.6,2.4c0.4,1.6,0.9,2.6,1.1,3.1l0.1,0.2l-0.2,0c-1.7,0.3-2.9,1.5-3.6,2.4c-0.8,1.1-1.4,2.7-1.4,3.8
		C1.5,35.2,1.4,35.3,1.3,35.4 M4.7,23.4c-0.6,0.5-1.5,1.5-2.3,2.8c-1.6,2.7-2,5.5-1.2,8.6c0.1-1.2,0.7-2.6,1.5-3.7
		c0.7-1,1.8-2.2,3.6-2.5c-0.3-0.5-0.7-1.5-1-3C4.9,24.5,4.8,23.9,4.7,23.4"/>
	<path class="st2" d="M14.8,8.2L5.2,7.9l0.2-0.4c0,0,0.8-1.6,1.7-3.3c1.8-3,2.5-3.4,3-3.4c0.4,0,1.2,0.4,2.9,3.5
		c0.9,1.6,1.6,3.3,1.6,3.3L14.8,8.2z M6.1,7.4l7.8,0.2C13.6,7,13,5.8,12.4,4.7c-1.6-3-2.3-3.2-2.4-3.2c-0.1,0-0.8,0.1-2.5,3
		C6.9,5.7,6.4,6.8,6.1,7.4"/>
	<path class="st3" d="M5.6,7.7L10,7.8l4.4,0.1c1.7,6.3,2.5,12.3-1.8,21.6l-6.2-0.2C2.6,19.8,3.6,13.8,5.6,7.7"/>
	<path class="st3" d="M12.7,29.7c0,0-0.1,0.1-0.2,0.1l-6.2-0.2c-0.1,0-0.2-0.1-0.2-0.1C4.4,25,3.5,21,3.6,17.2c0-3.7,1-7,1.8-9.6
		c0-0.1,0.1-0.2,0.2-0.2l8.7,0.2c0.1,0,0.2,0.1,0.2,0.2c0.8,2.7,1.5,6,1.4,9.7C15.8,21.3,14.7,25.2,12.7,29.7
		C12.7,29.6,12.7,29.6,12.7,29.7 M6.5,29.1l5.9,0.1c4.3-9.6,3.3-15.7,1.8-21.1L5.8,7.9C4,13.3,2.7,19.3,6.5,29.1"/>
	<path class="st4" d="M11.4,32l-4.1-0.1c-2.3,5.7,1.6,9.4,1.6,9.4C13.8,37.5,11.4,32,11.4,32"/>
	<path class="st5" d="M8,31.9l2.8,0.1c0.2,1.5,0.1,4.1-1.7,6.1C9.1,38.1,7.3,35.7,8,31.9"/>
	<path class="st4" d="M9.2,35c0,0-0.7-1.1-0.7-3.1l1.7,0C10.2,32.9,9.9,34,9.2,35"/>
	<path class="st1" d="M12.1,32.2l-5.4-0.1l-0.6-3l6.8,0.2L12.1,32.2z M7.1,31.6l4.7,0.1l0.5-2l-5.6-0.1L7.1,31.6z"/>
	<path class="st1" d="M12.2,32.4l-5.6-0.1l-0.7-3.3l7.1,0.2L12.2,32.4z M6.8,31.9l5.2,0.1l0.7-2.7l-6.4-0.2L6.8,31.9z M11.8,31.9
		l-4.9-0.1l-0.5-2.3l6,0.1L11.8,31.9z M7.2,31.5l4.4,0.1l0.4-1.7l-5.2-0.1L7.2,31.5z"/>
	<path class="st5" d="M7.1,19.6c0,0-1.1-2.8,0.1-4.1c1.2-1.3,3.1-2.1,5.4-1.2c0,0,1,3.1-1.6,5.1C11.1,19.4,9.4,20.8,7.1,19.6"/>
	<path class="st6" d="M10.4,16c0.4,0.4,0.5,1.1,0.1,1.5C10.1,18,9.4,18,9,17.6c-0.4-0.4-0.5-1.1-0.1-1.5C9.3,15.6,10,15.6,10.4,16"
		/>
	<path class="st2" d="M6.3,17c-0.1,0-0.1,0.1-0.2,0l-1.5-0.6c-0.1,0-0.2-0.2-0.1-0.3C4.5,16,4.7,16,4.8,16l1.5,0.6
		C6.4,16.7,6.4,16.8,6.3,17C6.4,16.9,6.4,17,6.3,17"/>
	<path class="st2" d="M7.3,15.1c-0.1,0.1-0.2,0.1-0.3,0L5.8,14c-0.1-0.1-0.1-0.2,0-0.3c0.1-0.1,0.2-0.1,0.3,0l1.2,1.1
		C7.4,14.9,7.5,15,7.3,15.1C7.4,15.1,7.4,15.1,7.3,15.1"/>
	<path class="st2" d="M8.9,14.1C8.9,14.1,8.9,14.1,8.9,14.1c-0.1,0.1-0.3,0.1-0.3,0l-1.1-1.6c-0.1-0.1,0-0.2,0.1-0.3
		c0.1-0.1,0.2,0,0.3,0.1l1.1,1.6C9,13.9,9,14,8.9,14.1"/>
	<path class="st2" d="M10.6,13.5C10.6,13.5,10.5,13.5,10.6,13.5c-0.2,0.1-0.3,0-0.3-0.1L9.9,12c0-0.1,0-0.2,0.2-0.3
		c0.1,0,0.2,0,0.3,0.2l0.4,1.3C10.7,13.3,10.6,13.4,10.6,13.5"/>
</g>
</svg>
