<?xml version="1.0" encoding="utf-8"?>
<!-- Generator: Adobe Illustrator 21.0.0, SVG Export Plug-In . SVG Version: 6.00 Build 0)  -->
<svg version="1.1" id="Layer_1" xmlns="http://www.w3.org/2000/svg" xmlns:xlink="http://www.w3.org/1999/xlink" x="0px" y="0px"
	 viewBox="0 0 271.5 50" style="enable-background:new 0 0 271.5 50;" xml:space="preserve">
<style type="text/css">
	.st0{fill:#2828DC;stroke:#2828DC;stroke-width:1.5;stroke-miterlimit:10;}
	.st1{fill:#FFFFFF;}
	.st2{fill:#EE841E;}
	.st3{fill:#A9C935;}
	.st4{fill:#DF165B;}
	.st5{fill:#130D13;}
	.st6{fill:#2828DC;}
</style>
<g>
	<path class="st0" d="M1.3,23.2C1.5,15.3,2.1,9.5,3.4,9.5c0,0,0.1,0,0.2,0C3.9,9.8,5,10,5.3,11.2c0.9,3.6,2.2,10.1,5.1,14.3
		c0.3-0.3,2.2-3.5,3.2-5.3l0.2-0.4c1.8-3.3,3-5.7,4.2-8.8c0.3-0.6,0.7-0.9,1.4-0.9c0.7,0,1,0.2,1.7,0.7c-0.3,10.9-0.1,21.9-0.4,32.8
		l0,2.4c-0.2,0.6-0.8,1.2-1.6,1.2c-0.4,0-0.9-0.4-1.1-0.7l0-2.9c0.2-8.9-0.2-17.8,0.1-26.7c-1.2,2.1-2.4,4.2-3.4,6.4
		C14.4,24,12.4,28,11.9,29c-0.3,0.6-1.6,2.2-2.4,0.5C4.6,18.3,4.5,18.3,4.4,18.3c-1.1,8.9-1.2,18-1.3,27c-0.1,0.5-0.6,0.9-1,0.9
		c-0.3,0-1.2-0.3-1.4-0.7L1.3,23.2z"/>
	<path class="st0" d="M36.5,13.5c0,2.6-1,4.9-2.7,6.7c5.6,3.5,7.8,7.7,7.8,14.3c0,7-3.9,13-11.6,13c-0.3,0-1.3,0-1.7-0.7
		c-0.5-7.6-0.5-15.1-1.3-24l-1-11.7v-1C29.3,6.5,36.5,7.5,36.5,13.5z M29.7,19.3c2.5,0,4.2-2.9,4.2-5.6c0-2.8-2.3-3.8-4.9-2.6
		L29.7,19.3z M31.8,44.6c5.2,0,6.9-5.4,6.9-10.1c0-5.5-2.5-12.1-8.9-12.1c0,7.4,0.5,14.7,1.1,22.1C31.2,44.6,31.5,44.6,31.8,44.6z"
		/>
	<path class="st0" d="M47.6,37.6l-0.3,0.3l-0.8,5.6c-0.1,0.7,0,2.9-1.5,2.9c-0.6,0-1.1-1.3-1.1-1.8C49,8.9,49.1,8.8,49.1,8.8
		c0.2-0.9,0.6-2.3,1.8-2.3c0.5,0,1.2,0.2,1.5,0.7l0.4,1c2.9,11.3,4.2,22.8,5.5,34.4l0.3,3.2c0,0,0,0,0,0.1c-0.3,0.9-0.5,1.3-1.5,1.3
		H57c-0.3,0-0.8,0-0.8-0.3l-1.2-9.3H47.6z M48.3,34.6l6.1,0.1l-3.3-23L48.3,34.6z"/>
	<path class="st0" d="M60.5,10.1c0-0.8,0.4-1.1,1.2-1.1c0.4,0,1.8,0.2,1.8,0.9v16.6c0,0.6-0.5,1.5-1.2,1.5c-0.5,0-0.8-0.1-1.2-0.6
		C60.7,21.8,60.5,15.8,60.5,10.1z"/>
	<path class="st0" d="M68.4,12.4c0-0.9,0.8-1.7,1.7-1.7h7.8c0.3,0,1.3,0.7,1.3,1c0,0.1,0,0.1,0,0.2c0,1-1.3,1.4-2.1,1.4h-5.9
		l0.2,16.3l5.3-0.8h0.2c2.3,0,1.4,2.3-0.5,2.6l-4.9,0.7L71.5,45c0.4,0,2.1,0,2.6,0c3.3,0,5.7-1.1,5.9,1.1c0.1,1.7-10.9,1.5-10.9,0.5
		L68.4,12.4z M72.3,3l3.2-2.1c0.1,0,0.4-0.2,0.4-0.2c0.6,0,1.4,0.6,1.4,1.2c0,0.3,0,0.4-0.2,0.6l-2.5,1.6l-1.8,1.4
		c-0.3,0.2-0.4,0.2-0.7,0.2c-0.6,0-1.2-0.5-1.2-1.1C70.9,3.8,71.8,3.4,72.3,3z"/>
	<path class="st0" d="M111.7,11c0,1.7-2.9,1.4-3.5,1.4h-0.3c-4.8,0-6.9,9.9-6.9,15.4c0,6.3,0.4,10.8,4.7,14.4c2.1,1.8,5.4,0,6.1,1.3
		c1,1.7-0.8,2.3-2.4,2.3c-11.2-0.2-12.9-15-10.6-24.6C100,16,103,9.2,109.4,9.2C110.4,9.2,111.7,9.8,111.7,11z"/>
	<path class="st0" d="M118.7,32.8v13.9c0,2.2-2.7,1.4-2.8,0.7c0-1.8,0.1-9.9,0.1-11.7c0-3.8,0.3-23.6,0.4-27.4
		c0.4-0.4,0.8-0.4,1.4-0.4c0.7,0,1.1,0.4,1.5,1c0,4.7-0.4,11.5-0.4,16.5c0,0.7,0,3.8,0,4.5c0.4,0.4,0.7,0.3,1.2,0.3
		c1.9,0,3.7,0,5.6,0.1c0.4-5.6,0.6-15.1,0.4-21.4V8.7c0-0.7,0.6-1.1,1.3-1.1c0.6,0,1.3,0.5,1.6,1c0,1.1-0.1,4.2-0.2,5.3
		c-0.7,22.6,0.5,34-1.1,34c-1.7,0-1.7-2.1-1.7-5.4c0-0.9-0.2-8.8-0.2-9.7H118.7z"/>
	<path class="st0" d="M137.5,37.6l-0.3,0.3l-0.8,5.6c-0.1,0.7,0,2.9-1.5,2.9c-0.6,0-1.1-1.3-1.1-1.8C139,8.9,139,8.8,139,8.8
		c0.2-0.9,0.6-2.3,1.8-2.3c0.5,0,1.2,0.2,1.5,0.7l0.4,1c2.9,11.3,4.2,22.8,5.5,34.4l0.3,3.2c0,0,0,0,0,0.1c-0.3,0.9-0.5,1.3-1.5,1.3
		h-0.1c-0.3,0-0.8,0-0.8-0.3l-1.2-9.3H137.5z M138.3,34.6l6.1,0.1l-3.3-23L138.3,34.6z"/>
	<path class="st0" d="M153.5,36.2c0-3.9,0.2-22.3,0.3-26.3c0.2-0.7,1.5-0.6,2.1-0.6c5.1,0,8.8,4.5,8.8,9.4c0,5.3-3.6,11.3-8.5,13.5
		c0,0.8-0.2,4.6-0.2,5.4c0,1.7,0,9.2,0,10.9c-0.3,0.5-1,0.6-1.5,0.6c-0.4,0-0.5,0-0.9-0.3V36.2z M156.1,29c0.3,0,0.8-0.1,1-0.3
		c2.9-2.6,4.5-5.6,4.5-9.5c0-2.6-1.8-7.2-5.2-7.2L156.1,29z"/>
	<path class="st0" d="M169.8,37.6l-0.3,0.3l-0.8,5.6c-0.1,0.7,0,2.9-1.5,2.9c-0.6,0-1.1-1.3-1.1-1.8c5.1-35.6,5.2-35.7,5.2-35.7
		c0.2-0.9,0.6-2.3,1.8-2.3c0.5,0,1.2,0.2,1.5,0.7l0.4,1c2.9,11.3,4.2,22.8,5.5,34.4l0.3,3.2c0,0,0,0,0,0.1c-0.3,0.9-0.5,1.3-1.5,1.3
		h-0.1c-0.3,0-0.8,0-0.8-0.3l-1.2-9.3H169.8z M170.5,34.6l6.1,0.1l-3.3-23L170.5,34.6z"/>
	<path class="st0" d="M201,23.2c0.2-7.9,0.8-13.6,2.1-13.6c0,0,0.1,0,0.2,0c0.2,0.2,1.4,0.4,1.7,1.6c0.9,3.6,2.2,10.1,5.1,14.3
		c0.3-0.3,2.2-3.5,3.2-5.3l0.2-0.4c1.8-3.3,3-5.7,4.2-8.8c0.3-0.6,0.7-0.9,1.4-0.9c0.7,0,1,0.2,1.7,0.7c-0.3,10.9-0.1,21.9-0.4,32.8
		l0,2.4c-0.2,0.6-0.8,1.2-1.6,1.2c-0.4,0-0.9-0.4-1.1-0.7l0-2.9c0.2-8.9-0.2-17.8,0.1-26.7c-1.2,2.1-2.4,4.2-3.4,6.4
		c-0.4,0.7-2.5,4.8-2.9,5.8c-0.3,0.6-1.6,2.2-2.4,0.5c-4.9-11.2-5.1-11.2-5.1-11.2c-1.1,8.9-1.2,18-1.3,27c-0.1,0.5-0.6,0.9-1,0.9
		c-0.3,0-1.2-0.3-1.4-0.7L201,23.2z"/>
	<path class="st0" d="M228,11.6c0.3-4.5,3.2-3.3,4.1,0c1.2,4.9,2.2,9.4,7.5,35.4c0,1.1-1.5,1.9-2.4,0.3l-1.8-8.8l-6.6,1
		c-0.4,2.3-0.7,6.7-0.8,8.8c-0.1,1.2-2.2,0.9-2.2,0L228,11.6z M228.9,34.5c0,0.3-0.1,2.3-0.1,2.7l6.1-0.9l-4.8-21.9
		C230,17.4,229.1,31.4,228.9,34.5z"/>
	<path class="st0" d="M243.4,47.3c0-5.7,0.2-32.2,0.3-38c0.4-0.6,1.6-1,2.3-1c6.3,0,9.4,5.3,9.4,11.2c0,7-2.9,11-8.7,14.4l-0.3,3
		c-0.1,1.6-0.3,9.1-0.3,10.7c-0.2,0.8-0.5,1.1-1.3,1.1c-0.7,0-1.3-0.3-1.3-1.2V47.3z M246.4,28.5v2.1c0.5,0,1.6-0.7,1.7-0.8
		c3.3-2.6,4.1-5.7,4.1-9.7c0-3-0.4-8.8-4.7-8.8c-0.3,0-0.5,0-0.7,0.4L246.4,28.5z"/>
	<path class="st0" d="M259.2,11.6c0.3-4.5,3.2-3.3,4.1,0c1.2,4.9,2.2,9.4,7.5,35.4c0,1.1-1.5,1.9-2.4,0.3l-1.8-8.8l-6.6,1
		c-0.4,2.3-0.7,6.7-0.8,8.8c-0.1,1.2-2.2,0.9-2.2,0L259.2,11.6z M260.1,34.5c0,0.3-0.1,2.3-0.1,2.7l6.1-0.9l-4.8-21.9
		C261.1,17.4,260.3,31.4,260.1,34.5z"/>
	<g>
		<polygon class="st1" points="87.9,47.5 83.6,39.9 84.7,38.3 92.7,39.6 93,40.4 		"/>
		<path class="st2" d="M88.3,48c-0.1,0.1-0.3,0.2-0.5,0.2c-0.2,0-0.5-0.2-0.6-0.4L83,40.2c-0.1-0.2-0.1-0.5,0-0.7l1.1-1.6
			c0.2-0.2,0.4-0.4,0.7-0.3l8,1.3c0.2,0,0.5,0.2,0.5,0.4l0.3,0.8c0.1,0.2,0.1,0.5-0.1,0.7l-5.1,7.1C88.4,48,88.4,48,88.3,48
			 M84.5,39.9l3.5,6.2l4.3-5.8l0-0.1l-7.1-1.2L84.5,39.9z"/>
		<path class="st2" d="M83.6,40.1c0,0,1.1-2.6,3.3-0.2c0,0,1.8-2,3.1,0.1c0,0,1.6-1.3,3.1,0.4l1.1-23.1l-9.2-0.8L83.6,40.1z"/>
		<path class="st2" d="M93.5,41c-0.1,0.1-0.1,0.1-0.2,0.1c-0.3,0.1-0.6,0-0.8-0.2c-1-1.1-2-0.4-2.1-0.3c-0.2,0.1-0.4,0.2-0.6,0.2
			c-0.2,0-0.4-0.2-0.5-0.3c-0.2-0.4-0.5-0.6-0.7-0.6c-0.5,0-1,0.4-1.2,0.6c-0.1,0.1-0.3,0.2-0.5,0.2c-0.2,0-0.4-0.1-0.5-0.2
			c-0.5-0.6-1-0.8-1.3-0.8c-0.4,0.1-0.7,0.6-0.8,0.8c-0.1,0.3-0.5,0.5-0.8,0.4c-0.3-0.1-0.6-0.4-0.6-0.7l1.3-23.5
			c0-0.2,0.1-0.4,0.2-0.5l0,0c0.1-0.1,0.3-0.2,0.5-0.2l9.2,0.8c0.4,0,0.7,0.4,0.7,0.7l-1.1,23.1C93.7,40.7,93.6,40.8,93.5,41
			 M90.1,39.1c0.6-0.3,1.4-0.4,2.2,0l1-21l-7.8-0.7l-1.2,21c0.1,0,0.2-0.1,0.4-0.1c0.7-0.1,1.4,0.1,2.1,0.7c0.4-0.3,1.1-0.6,1.8-0.6
			C89.1,38.4,89.6,38.6,90.1,39.1"/>
		<path class="st3" d="M86.7,45.3c0,0,1.3-1.1,2.8,0l-1.7,2.2L86.7,45.3z"/>
		<path class="st2" d="M88.3,48c-0.1,0.1-0.3,0.2-0.5,0.2c-0.2,0-0.5-0.2-0.6-0.4l-1.2-2.2c-0.2-0.3-0.1-0.7,0.2-0.9
			c0.6-0.5,2.1-1.1,3.7,0c0.2,0.1,0.3,0.3,0.3,0.5c0,0.2,0,0.4-0.1,0.5l-1.7,2.2C88.4,48,88.4,48,88.3,48 M87.7,45.6l0.3,0.6
			l0.4-0.6C88.1,45.5,87.9,45.6,87.7,45.6"/>
		<path class="st1" d="M85.2,13.6c0,0-0.2-2.4,1.5-4c1.5-1.4,3.4-2.4,6-0.5c0,0,1.7,1.8,1.7,3.7l-0.2,1.7"/>
		<path class="st2" d="M94.7,15c-0.1,0.1-0.3,0.2-0.6,0.2c-0.4-0.1-0.7-0.4-0.6-0.8l0.2-1.7c0-1.4-1.2-2.8-1.4-3.1
			c-2-1.5-3.5-0.8-5,0.5c-1.4,1.3-1.3,3.4-1.3,3.4c0,0.4-0.3,0.7-0.7,0.8c-0.4,0-0.7-0.3-0.8-0.6c0-0.1-0.2-2.8,1.8-4.6
			c1.5-1.3,3.9-2.8,6.9-0.6c0,0,0.1,0,0.1,0.1c0.1,0.1,1.9,2,1.9,4.2c0,0,0,0.1,0,0.1l-0.2,1.7C94.9,14.7,94.8,14.9,94.7,15"/>
		<path class="st4" d="M94.6,17.9c-0.1,0.1-0.3,0.2-0.5,0.2l-9.2-0.8c-0.2,0-0.4-0.1-0.5-0.3c-0.1-0.1-0.2-0.3-0.2-0.5l0.3-3
			c0-0.2,0.1-0.4,0.3-0.5c0.1-0.1,0.3-0.2,0.5-0.2l9,0.9c0.4,0,0.7,0.4,0.6,0.7l-0.1,2.9C94.9,17.6,94.8,17.8,94.6,17.9L94.6,17.9z
			 M85.7,15.9l7.7,0.7l0-1.5l-7.6-0.7L85.7,15.9z"/>
		<path class="st1" d="M83.7,40.3c0,0,0.8-2.3,3.2-0.1c0,0,1-2.2,3.2,0.1c0,0,1.4-1.8,2.6,0.1"/>
		<path class="st2" d="M93.2,40.9C93.2,40.9,93.2,40.9,93.2,40.9c-0.4,0.3-0.9,0.2-1.1-0.1c-0.2-0.2-0.4-0.5-0.6-0.5
			c-0.3,0-0.7,0.4-0.9,0.5c-0.1,0.2-0.3,0.3-0.5,0.3c-0.2,0-0.4-0.1-0.5-0.2c-0.5-0.6-1-0.9-1.4-0.8c-0.4,0.1-0.6,0.5-0.6,0.5
			c-0.1,0.2-0.3,0.4-0.5,0.4c-0.2,0-0.5,0-0.6-0.2c-0.6-0.6-1.2-0.8-1.5-0.7c-0.4,0.1-0.6,0.6-0.6,0.6c-0.1,0.4-0.5,0.6-0.9,0.4
			c-0.4-0.1-0.6-0.5-0.4-0.9c0-0.1,0.5-1.2,1.6-1.5c0.7-0.2,1.4,0,2.2,0.6c0.3-0.3,0.6-0.5,1.2-0.6c0.7-0.1,1.4,0.1,2.1,0.8
			c0.4-0.3,0.9-0.5,1.5-0.5c0.5,0,1.2,0.2,1.8,1.2C93.5,40.3,93.5,40.7,93.2,40.9"/>
		<path class="st1" d="M86.4,30.9c0,0-1.1-3.5,0.5-5c1.6-1.5,4-2.2,6.7-0.9c0,0,1,3.9-2.3,6.1C91.2,31.1,89.1,32.6,86.4,30.9"/>
		<path class="st5" d="M90.7,26.9c0.5,0.5,0.5,1.4,0,1.9c-0.5,0.5-1.4,0.5-1.9-0.1c-0.5-0.5-0.5-1.4,0-1.9
			C89.3,26.3,90.1,26.3,90.7,26.9"/>
		<path class="st6" d="M85.5,27.5c-0.1,0-0.1,0-0.2,0l-1.8-0.9c-0.1,0-0.1-0.2-0.1-0.2c0-0.1,0.1-0.1,0.2-0.1l1.8,0.9
			C85.6,27.3,85.6,27.4,85.5,27.5C85.6,27.5,85.6,27.5,85.5,27.5"/>
		<path class="st6" d="M86.9,25.4c-0.1,0-0.2,0-0.2,0l-1.4-1.5c-0.1-0.1-0.1-0.2,0-0.3c0.1-0.1,0.2-0.1,0.3,0l1.4,1.5
			C87,25.2,87,25.3,86.9,25.4C86.9,25.4,86.9,25.4,86.9,25.4"/>
		<path class="st6" d="M88.9,24.3C88.9,24.3,88.9,24.3,88.9,24.3c-0.1,0.1-0.2,0-0.3-0.1l-1.2-2.1c-0.1-0.1,0-0.2,0.1-0.2
			c0.1,0,0.2,0,0.2,0.1l1.2,2.1C89,24.1,88.9,24.2,88.9,24.3"/>
		<path class="st6" d="M91,23.8C91,23.8,90.9,23.8,91,23.8c-0.2,0-0.3,0-0.3-0.1L90.3,22c0-0.1,0-0.2,0.1-0.2c0.1,0,0.2,0,0.2,0.1
			l0.4,1.7C91.1,23.7,91,23.7,91,23.8"/>
	</g>
</g>
</svg>
