<?xml version="1.0" encoding="utf-8"?>
<!-- Generator: Adobe Illustrator 21.0.0, SVG Export Plug-In . SVG Version: 6.00 Build 0)  -->
<svg version="1.1" id="Layer_1" xmlns="http://www.w3.org/2000/svg" xmlns:xlink="http://www.w3.org/1999/xlink" x="0px" y="0px"
	 viewBox="0 0 317.4 127" style="enable-background:new 0 0 317.4 127;" xml:space="preserve">
<style type="text/css">
	.st0{fill:#EE841E;}
	.st1{fill:#D31B5D;}
	.st2{fill:#FFFFFF;}
	.st3{fill:#DF165B;}
	.st4{fill:#A9C935;}
	.st5{fill:#130D13;}
	.st6{fill:#2828DC;}
</style>
<g>
	<path class="st0" d="M22.7,59.3l0.1-0.2V59c0-3.1,0.5-16.7,0.7-22.5l0.1-2c0.1-3.1,0.4-6.2,0.7-9.3c0.3-3.3,0.6-6.8,0.7-10.2
		c0-0.7,0.1-1.4-0.4-1.9c-0.5-0.5-1.2-0.6-2.1-0.6c-0.9,0-2.5,0-2.6,1.6c-0.6,2.5-0.6,5.3-0.7,7.9c0,1.1,0,2.2-0.1,3.2
		c-0.3,4.3-0.6,13.2-0.8,19L7.3,14.7c-0.9-2.4-2.6-3-3.9-2.8c-1.6,0.3-2.7,1.8-2.6,3.5L0,59.3c0,1.1,1.1,2,2.5,2
		c0.6,0,1.3-0.2,1.7-0.5c0.6-0.4,0.9-1.1,0.9-1.9L5.6,26C16.8,56.2,17.4,57.7,18,59c0.5,1.1,1.8,1.8,2.9,1.8
		C21.8,60.7,22.5,60.2,22.7,59.3z"/>
	<path class="st0" d="M48.4,45.9c-0.2-5.7-0.1-11.4-0.1-16.9c0-5.5,0.1-11.1-0.1-16.6c-0.1-1-0.6-2.2-2.9-2.2
		c-1.2,0-2.2,0.1-2.8,1.8l0,0.2l0,0.2c0.3,12.2,0.4,29.5,0.3,37c-0.1,1.8-0.8,4.3-1.9,4.3c-5.3,0-5.5-23.5-5.5-33.5
		c0-5.9-0.1-7.5-0.4-8.2c-0.5-1.2-2.2-1.7-3.7-1.5c-1.5,0.3-2,1.2-2,2l0.1,3.4c0.7,23.2,1.2,41.6,9.7,42.6l0.2,0
		c0.5,0.1,0.9,0.1,1.4,0.1c7.4,0,7.5-7.1,7.7-12.4L48.4,45.9z"/>
	<path class="st0" d="M61.1,12.4h-0.4l-0.2,0.1c-2,0.8-2.1,2.1-2.1,3.4c0,0.5,0,1-0.1,1.6c-0.1,0.8-0.2,3-0.2,6.4
		c-0.1,5.8-0.3,14.5-1,21.7C56,57.3,54,57.7,53.8,57.7c-0.2,0-0.3,0-0.3,0c0-0.1-0.1-0.2-0.1-0.3c-0.2-0.6-0.6-1.8-2.6-1.9h-0.3
		c-2.3,0-2.6,1.6-2.7,2.3c0,2.9,2.7,4.6,5.2,4.8h0.5c8.7,0,9.2-10.8,10.3-34.6l0.7-11.4C64.5,14.9,64.5,12.6,61.1,12.4z"/>
	<path class="st0" d="M70.1,60.4c0.9,0.5,3.7,0.8,6.6,0.8c3.1,0,6.4-0.3,7.6-1.1c0.8-0.5,0.9-1.2,0.9-1.5c-0.1-0.9-0.4-1.6-0.9-2.1
		c-1-0.9-2.5-0.7-4.4-0.5c-0.9,0.1-2,0.2-3.1,0.2c-1,0-1.8,0-2.2,0l0.2-14.4l5.4-0.8c1.9-0.3,3.4-1.8,3.3-3.3c-0.1-0.9-0.8-2-2.7-2
		l-6.1,0.8L74.3,18h6.5c1.5,0,3.7-0.9,3.7-2.8c0-0.2,0-0.4-0.2-0.8l0,0c-0.4-0.8-1.9-1.8-2.6-1.8h-9.8c-1.7,0-3.2,1.5-3.2,3.2
		l0.7,43.5C69.3,59.5,69.4,60,70.1,60.4z"/>
	<path class="st0" d="M103,53.2c1.7-5.5-0.1-12.8-2.4-17.3c-0.9-1.7-2.1-3.3-3.2-4.9c-2.4-3.4-4.7-6.6-4.7-10.5
		c0-2.6,0.4-5.6,2.4-5.6c1.2,0,1.6,0.5,2.2,1.6c0.5,0.9,1.2,2.1,2.9,2.1c1,0,2.6-0.4,2.6-2.9c0-3.9-5-6.4-8.3-6.4
		c-4.8,0-7.4,6-7.4,10.3c0,5.3,2.8,9.7,5.5,13.8c1.4,2.1,2.8,4.3,3.8,6.6c1.4,3.2,1.6,6.8,1.6,9.9c0,1.6-0.6,6.3-3.5,6.3h-0.1
		c-0.9-0.7-1.1-1.9-1.2-3.7c-0.1-1.7-0.2-3.7-2.1-4.3c-0.8-0.2-1.7,0-2.5,0.5c-0.8,0.6-1.3,1.4-1.3,2.2c0,5,2.2,10.5,7,10.5
		C98.6,61.6,101.8,57.3,103,53.2z"/>
	<path class="st0" d="M109.8,15.9l1.2,38.4c0,1.4,1.9,1.9,2.6,1.9c0.7,0,2.6-0.5,2.6-1.9l-1.2-38.5h4.2c1.1,0,2.2-1.1,2.2-2.2
		c0-2.8-3.5-3-4.7-3.1l-5.2,0c-6.2-0.4-7.5,0.2-7.7,3.4l0,0.1l0,0.1C104.3,16.1,106.8,16.1,109.8,15.9z"/>
	<path class="st0" d="M134.3,57l0,0.2c0.5,1.6,2,1.6,2.8,1.6c2.4,0,2.8-1.4,2.8-2.2v-0.5c0-0.2-0.1-0.8-0.2-1.9
		c-0.1-0.6-0.2-1.5-0.2-1.8c-0.1-1-0.1-2.2-0.1-3.5c-0.1-4.8-0.2-10.7-2.5-13.8c-0.2-0.4-0.8-1.1-1.4-1.7c4.2-3.5,4.8-9.4,4.8-12.8
		v-0.7c0-6.1-4.2-10.2-10.4-10.2h-0.6c-2.4,0-4.5,0-4.7,3.8c-0.1,2.8-0.2,5.6-0.2,8.4c-0.3,11.1-0.6,22.6-0.6,33.8v5.5l0.2,0.3
		c0.6,0.8,1.6,1.3,2.7,1.3c0.7,0,1.3-0.2,1.7-0.6c0.7-0.7,0.7-1.7,0.7-2.5l0-0.3c0.1-5.3,0.4-18.9,0.4-19.6l0-0.1
		c0-0.4,0.1-1.7,0.2-2.6h0.1c2.2,0,3.3,1.8,3.7,6.3C134.1,53,134.3,56.1,134.3,57z M134.8,20.6c0,2.9-1.7,9.8-4.9,10
		c0-2.4,0.1-4.7,0.2-6.9c0.1-2.6,0.2-5.3,0.2-8.1c0-0.5,0.2-0.6,0.6-0.6C134,14.9,134.8,18.7,134.8,20.6z"/>
	<path class="st0" d="M220.5,41.3c0-4.8-0.1-12.4-0.2-18c0-3.1-0.1-6-0.1-8c0-1,0-1.9-0.1-2.5c0-0.9,0-1.6-0.7-1.8
		c-1.2-0.8-2.3-1.1-3.2-0.8c-0.7,0.2-1.2,0.6-1.5,1.3c-0.6,1-1.7,4-3.4,8.8c-1.3,3.8-3,8.6-4.2,11.2l-6.8-18.7
		c-0.4-1.2-1.5-1.8-2.8-1.6c-1.3,0.2-2.8,1.5-2.8,3.2c0.1,32.2-0.3,38.8-0.4,41.3c0,0.6,0,0.9,0,1.3l0,0.2c0,0.7,0,1.3,0.5,1.8
		c0.5,0.5,1.2,0.5,1.8,0.5c0.8,0,1.5,0,2.5-0.6l0.4-0.3l0.1-0.5c0.8-6.4,0.8-12.9,0.8-19.3c0-3.8,0-7.6,0.2-11.4
		c0.9,2.5,1.7,5.1,2.5,7.8c0.3,1.1,0.7,2.2,1,3.3c0.1,0.3,0.5,1,0.6,1.1c0.7,0.8,2.6,0.7,3.6,0.4c1.2-0.4,1.6-1.1,1.7-1.6l5-12.2
		c0.6,12.4,0.7,23,0.6,33l0,0.2l0.1,0.2c0.5,1.2,1,1.9,2.6,1.9c1.7,0,2.9-1.3,2.9-3.1c0-3.1-0.1-6.4-0.2-9.5
		C220.6,46.3,220.5,43.8,220.5,41.3z"/>
	<path class="st0" d="M229.8,11.6c-1.6,0-2.4,0.2-3,2l0,0.1l-1.7,46.4c0,1.2,1,2.1,2.3,2.2c0,0,0,0,0.1,0c1.5,0,3.2-1.1,3.3-3.3
		l1.9-42.6c0-0.1,0-0.2,0-0.4c0-0.3,0-0.6,0-0.7C232.6,13.5,232.6,11.6,229.8,11.6z"/>
	<path class="st0" d="M244.2,31c-2.4-3.4-4.7-6.6-4.7-10.5c0-2.6,0.4-5.6,2.4-5.6c1.2,0,1.6,0.5,2.2,1.6c0.5,0.9,1.2,2.1,2.9,2.1
		c1,0,2.6-0.4,2.6-2.9c0-3.9-5-6.4-8.3-6.4c-4.8,0-7.4,6-7.4,10.3c0,5.3,2.8,9.7,5.5,13.8c1.4,2.1,2.8,4.3,3.8,6.6
		c1.4,3.2,1.6,6.8,1.6,9.9c0,1.6-0.6,6.3-3.5,6.3h-0.1c-0.9-0.7-1.1-1.9-1.2-3.7c-0.1-1.7-0.2-3.7-2.1-4.3c-0.8-0.2-1.7,0-2.5,0.5
		c-0.8,0.6-1.3,1.4-1.3,2.2c0,5,2.2,10.5,7,10.5c4.1,0,7.3-4.3,8.6-8.4c1.7-5.5-0.1-12.8-2.4-17.3C246.6,34.2,245.4,32.6,244.2,31z"
		/>
	<path class="st0" d="M259.6,11.6c-1.6,0-2.4,0.2-3,2l0,0.1l-1.7,46.4c0,1.2,1,2.1,2.3,2.2c0,0,0,0,0.1,0c1.5,0,3.2-1.1,3.3-3.3
		l1.9-42.6c0-0.1,0-0.2,0-0.4c0-0.3,0-0.6,0-0.7C262.4,13.5,262.4,11.6,259.6,11.6z"/>
	<path class="st0" d="M274.1,8.4c0.5,0,0.9,0,1.5-0.5l2.2-1.7l3.2-2c0.7-0.4,0.8-0.9,0.8-1.4l0-0.1c0-1.4-1.5-2.6-2.7-2.6l-0.2,0
		l-0.2,0.1c0,0-0.5,0.2-0.6,0.3l-4.4,2.8c-0.8,0.5-2,1.3-2,2.7C271.6,7.3,272.7,8.4,274.1,8.4z"/>
	<path class="st0" d="M277.9,10l-0.1,0c-12.6,0-12.6,17-12.6,23.4c0,18,4.2,27.1,12.5,27.1c6.4,0,9.4-7.2,10-13.4
		C289.5,23.7,286.1,10.9,277.9,10z M282.7,36.4v0.2c0,11.7-1.9,18.7-5.2,18.7c-4.6,0-6.8-7.3-6.8-22.2c0-1.7,0-3.5,0.1-5.5
		c0-3.1,2-12.5,5.7-12.5C280.6,15.1,282.7,28.7,282.7,36.4z"/>
	<path class="st0" d="M316.9,13.2c-0.5-0.5-1.2-0.6-2.1-0.6c-0.9,0-2.5,0-2.6,1.6c-0.6,2.5-0.6,5.3-0.7,7.9c0,1.1,0,2.2-0.1,3.2
		c-0.3,4.3-0.6,13.2-0.8,19l-10.9-29.6c-0.9-2.4-2.6-3-3.9-2.8c-1.6,0.3-2.7,1.8-2.6,3.5l-0.7,43.8c0,1.1,1.1,2,2.5,2
		c0.6,0,1.3-0.2,1.7-0.5c0.6-0.4,0.9-1.1,0.9-1.9L298,26c11.3,30.2,11.9,31.6,12.5,32.9c0.5,1.1,1.8,1.8,2.9,1.8
		c0.9-0.1,1.5-0.6,1.8-1.4l0.1-0.2V59c0-3.2,0.5-17.4,0.7-22.7l0.1-1.7c0.1-3.1,0.4-6.2,0.7-9.3c0.3-3.3,0.6-6.8,0.7-10.2
		C317.4,14.5,317.4,13.8,316.9,13.2z"/>
	<path class="st1" d="M15.6,121.2c-1-0.9-2.5-0.7-4.4-0.5c-0.9,0.1-2,0.2-3.1,0.2c-1,0-1.8,0-2.2,0L6,106.5l5.4-0.8
		c1.9-0.3,3.4-1.8,3.3-3.3c-0.1-1-0.8-2-2.7-2l-6.1,0.8L5.6,82.8h6.5c1.5,0,3.7-0.9,3.7-2.8c0-0.2,0-0.4-0.2-0.8l0,0
		c-0.4-0.8-1.9-1.8-2.6-1.8H3.2c-1.7,0-3.2,1.5-3.2,3.2L0.7,124c0,0.3,0.1,0.8,0.7,1.1c0.9,0.5,3.7,0.8,6.6,0.8
		c3.1,0,6.4-0.3,7.6-1.1c0.8-0.5,0.9-1.2,0.9-1.5C16.4,122.4,16.1,121.7,15.6,121.2z"/>
	<path class="st1" d="M43.2,77.4c-0.9,0-2.5,0-2.6,1.6c-0.6,2.5-0.6,5.3-0.7,7.9c0,1.1,0,2.2-0.1,3.2c-0.3,4.3-0.6,13.2-0.8,19
		L28.1,79.5c-0.9-2.4-2.6-3-3.9-2.8c-1.6,0.3-2.7,1.8-2.6,3.5L20.8,124c0,1.1,1.1,2,2.5,2c0.6,0,1.3-0.2,1.7-0.5
		c0.6-0.4,0.9-1.1,0.9-1.9l0.4-32.9c11.3,30.2,11.9,31.6,12.5,32.9c0.5,1.1,1.8,1.8,2.9,1.8c0.8-0.1,1.5-0.6,1.8-1.4l0.1-0.2v-0.2
		c0-3.1,0.5-16.7,0.7-22.5l0.1-2c0.1-3.1,0.4-6.2,0.7-9.3c0.3-3.3,0.6-6.8,0.7-10.2c0-0.7,0.1-1.4-0.4-1.9
		C44.8,77.5,44.1,77.4,43.2,77.4z"/>
	<path class="st1" d="M82,75l-0.5-1.4l-0.1-0.2c-0.6-1-1.8-1.4-2.8-1.4c-2.3,0-2.9,2.4-3.3,3.7l0,0c-0.2,0.9-1,6.3-6.6,45.4l0,0.1
		c0,0.9,0.7,3.2,2.4,3.2c2.5,0,2.7-2.8,2.8-4.1c0-0.2,0-0.3,0-0.4l1-6.6h7.8l1.4,11c0.1,0.9,0.8,1.3,2,1.3h0.2
		c1.9,0,2.4-1.1,2.8-2.2l0.2-0.2l-0.4-4.5C87.3,104.3,85.6,89.4,82,75z M76.4,107.6L79,87.2l2.9,20.5L76.4,107.6z"/>
	<path class="st1" d="M106.8,118.2c-1.5,0.1-3,0.2-4.2-0.8c-5.2-4.3-5.6-9.7-5.6-17.4c0-7.7,2.9-18.6,7.7-18.6h0.4
		c0.1,0,0.2,0,0.4,0c1.1,0,3.2,0.1,4.4-1c0.5-0.5,0.7-1.1,0.7-1.8c0-2-2-3.3-3.9-3.3c-9.7,0-13.3,11.1-14.4,15.9
		c-2,8.5-1.7,20.2,3.6,27.1c2.7,3.5,6.3,5.3,10.8,5.4c0.9,0,3.2-0.2,4.1-1.7c0.3-0.6,0.6-1.5-0.2-2.8
		C109.8,118,108.3,118.1,106.8,118.2z"/>
	<path class="st1" d="M125.1,118.2c-1.5,0.1-3,0.2-4.2-0.8c-5.2-4.3-5.6-9.7-5.6-17.4c0-7.7,2.9-18.6,7.7-18.6h0.4
		c0.1,0,0.2,0,0.4,0c1.1,0,3.2,0.1,4.4-1c0.5-0.5,0.7-1.1,0.7-1.8c0-2-2-3.3-3.9-3.3c-9.7,0-13.3,11.1-14.4,15.9
		c-2,8.5-1.7,20.2,3.6,27c2.7,3.5,6.3,5.3,10.8,5.4c0.9,0,3.2-0.2,4.1-1.7c0.3-0.6,0.6-1.5-0.2-2.8
		C128.2,118,126.6,118.1,125.1,118.2z"/>
	<path class="st1" d="M137.9,76.3c-1.6,0-2.4,0.2-3,2l0,0.1l-1.7,46.4c0,1.2,1,2.1,2.3,2.2c0,0,0,0,0.1,0c1.5,0,3.2-1.1,3.3-3.3
		l1.9-42.6c0-0.1,0-0.2,0-0.4c0-0.3,0-0.6,0-0.7C140.7,78.3,140.7,76.3,137.9,76.3z"/>
	<path class="st1" d="M156.2,74.7l-0.1,0c-12.6,0-12.6,17-12.6,23.4c0,18,4.2,27.1,12.5,27.1c6.4,0,9.4-7.2,10-13.4
		C167.7,88.5,164.3,75.6,156.2,74.7z M154.7,79.9c4.1,0,6.2,13.6,6.2,21.2v0.2c0,11.7-1.9,18.7-5.2,18.7c-4.6,0-6.8-7.3-6.8-22.2
		c0-1.7,0-3.5,0.1-5.5C149.1,89.3,151.1,79.9,154.7,79.9z"/>
	<path class="st1" d="M157.2,64.8l-0.2,0l-0.2,0.1c0,0-0.5,0.2-0.6,0.3l-4.4,2.8c-0.8,0.5-2,1.3-2,2.7c0,1.3,1.1,2.4,2.5,2.4
		c0.5,0,0.9,0,1.5-0.5l2.2-1.7l3.2-2c0.7-0.4,0.8-0.9,0.8-1.4l0-0.1C160,65.9,158.5,64.8,157.2,64.8z"/>
	<path class="st1" d="M193.1,77.4c-0.9,0-2.5,0-2.6,1.6c-0.6,2.5-0.6,5.3-0.7,7.9c0,1.1,0,2.2-0.1,3.2c-0.3,4.3-0.6,13.2-0.8,19
		L178,79.5c-0.9-2.4-2.6-3-3.9-2.8c-1.6,0.3-2.7,1.8-2.6,3.5l-0.7,43.8c0,1.1,1.1,2,2.5,2c0.6,0,1.3-0.2,1.7-0.5
		c0.6-0.4,0.9-1.1,0.9-1.9l0.4-32.9c11.2,30.1,11.9,31.6,12.5,32.9c0.5,1.1,1.8,1.8,2.9,1.8c0.8-0.1,1.5-0.6,1.8-1.4l0.1-0.2v-0.2
		c0-3.1,0.5-16.7,0.7-22.5l0.1-2c0.1-3.1,0.4-6.2,0.7-9.2c0.3-3.3,0.6-6.8,0.7-10.2c0-0.7,0.1-1.4-0.4-1.9
		C194.7,77.5,193.9,77.4,193.1,77.4z"/>
	<g>
		<path class="st0" d="M157.5,26.9l-3.3-4.5c0,0,2.6-3.6,0.5-6.9c-2.1-3.4-6.2-5.1-10-1.7c-4,3.5-0.7,8.8,0.3,9.4
			c1,0.5,2.2,2,5.5,1.5L155,31l2.8-3.2L157.5,26.9z"/>
		<path class="st0" d="M149,11.6c0.3,0,0.6,0,0.9,0.1c2,0.3,3.8,1.6,5.1,3.6c1.9,3,0.1,6.3-0.4,7.1l3.2,4.4l0.5,1l-3.2,3.7l-4.7-6.6
			c-2.7,0.4-4.1-0.5-5-1.2c-0.2-0.1-0.4-0.3-0.5-0.3c-0.7-0.4-2.1-2.4-2.3-4.8c-0.2-2,0.5-3.8,2-5.1C145.9,12.3,147.4,11.6,149,11.6
			 M157.2,27.1l-3.4-4.7l0.1-0.2c0,0,2.4-3.4,0.5-6.6c-1.2-1.9-2.8-3.1-4.6-3.3c-1.7-0.3-3.4,0.3-4.9,1.7c-1.4,1.2-2,2.7-1.8,4.5
			c0.2,2.2,1.6,4.1,2,4.3c0.2,0.1,0.4,0.2,0.6,0.4c0.9,0.6,2.1,1.5,4.7,1l0.2,0l4.4,6.2l2.4-2.8L157.2,27.1z"/>
		<path class="st2" d="M152.5,17.5c-0.5-1.9-2.5-3.1-4.5-2.5c-1.9,0.5-3.1,2.5-2.5,4.5c0.5,1.9,2.5,3.1,4.5,2.5
			C151.9,21.4,153.1,19.4,152.5,17.5"/>
		<path class="st3" d="M164.4,33c0.1,0,0.2,0,0.2,0c0.3,0.1,0.5,0.3,0.6,0.6c0.3,0.8,7.7,18.9,8.6,21.9c0.7,2.5,0.5,3.3,0.3,3.7
			c-0.1,0.2-0.4,0.4-0.6,0.5c-1.9,0.5-3.4-2.2-3.8-3.1L162,41.3l0,0l-2.1-4.4c-0.1-0.2-0.1-0.5,0-0.8c0.1-0.3,0.3-0.4,0.6-0.5
			l0.6-0.2l2.7-2.2C164,33,164.2,33,164.4,33 M172.4,57.3c-0.1-0.3-0.2-0.8-0.3-1.4c-0.7-2.5-6.3-16.4-8-20.5l-1.9,1.5
			c0,0,0,0-0.1,0.1l1.6,3.5l7.7,15.3C171.7,56.3,172.1,56.9,172.4,57.3 M173,57.8C173.1,57.8,173.1,57.8,173,57.8
			C173.1,57.8,173.1,57.8,173,57.8C173,57.8,173,57.8,173,57.8"/>
		<path class="st0" d="M161.2,26.9l3.3-4.5c0,0-2.6-3.6-0.5-6.9c2.1-3.4,6.2-5.1,10-1.7c4,3.5,0.7,8.8-0.3,9.4c-1,0.5-2.2,2-5.5,1.5
			l-4.6,6.4l-2.8-3.2L161.2,26.9z"/>
		<path class="st0" d="M169.7,11.6c1.6,0,3.1,0.6,4.6,1.9c1.5,1.3,2.2,3.1,2,5.1c-0.2,2.4-1.7,4.5-2.3,4.8c-0.2,0.1-0.3,0.2-0.5,0.3
			c-0.9,0.6-2.3,1.6-5,1.2l-4.7,6.6l-3.2-3.7l0.5-1.1l3.2-4.3c-0.5-0.8-2.3-4-0.4-7.1c1.3-2,3.1-3.3,5.1-3.6
			C169.1,11.6,169.4,11.6,169.7,11.6 M169.7,24.4c1.7,0,2.6-0.7,3.3-1.2c0.2-0.1,0.4-0.3,0.6-0.4c0.4-0.2,1.8-2.1,2-4.3
			c0.2-1.8-0.4-3.3-1.8-4.5c-1.5-1.4-3.2-1.9-4.9-1.7c-1.8,0.3-3.5,1.5-4.6,3.3c-1.9,3.1,0.5,6.5,0.5,6.6l0.1,0.2l-3.4,4.7l-0.3,0.6
			l2.4,2.8l4.4-6.2l0.2,0C168.8,24.4,169.3,24.4,169.7,24.4"/>
		<path class="st2" d="M166.3,17.5c0.5-1.9,2.5-3.1,4.5-2.5c1.9,0.5,3.1,2.5,2.5,4.5c-0.5,1.9-2.5,3.1-4.5,2.5
			C166.9,21.4,165.8,19.4,166.3,17.5"/>
		<path class="st3" d="M154.3,33c0.2,0,0.4,0.1,0.6,0.2l2.7,2.2l0.6,0.2c0.3,0.1,0.5,0.3,0.6,0.5c0.1,0.3,0.1,0.5,0,0.8l-2.1,4.4
			c0,0,0,0,0,0l-8,15.3c-0.4,0.8-1.9,3.5-3.8,3c-0.2-0.1-0.5-0.2-0.6-0.5c-0.3-0.4-0.5-1.2,0.3-3.7c0.8-3,8.6-21.1,8.9-21.9
			c0.1-0.3,0.3-0.5,0.6-0.5C154.1,33,154.2,33,154.3,33 M156.7,37C156.6,37,156.6,37,156.7,37l-2-1.6c-1.7,4.1-7.7,18.1-8.3,20.5
			c-0.2,0.6-0.3,1-0.3,1.4c0.3-0.4,0.7-1,1-1.6l8-15.3L156.7,37z M145.2,57.8L145.2,57.8L145.2,57.8z M145.3,57.8L145.3,57.8z
			 M145.4,57.8c0,0-0.1,0-0.1,0C145.3,57.8,145.3,57.8,145.4,57.8"/>
		<path class="st4" d="M153,32.1c0-3.5,2.8-6.3,6.3-6.3c3.5,0,6.3,2.8,6.3,6.3c0,3.5-2.8,6.3-6.3,6.3C155.8,38.4,153,35.6,153,32.1"
			/>
		<path class="st2" d="M164.4,31.8c0,0-1.6,3.6-4,3.7c-2.4,0.1-4.9-0.9-6.1-3.9c0,0,1.9-3.8,6.3-3.3
			C160.5,28.4,163.3,28.6,164.4,31.8"/>
		<path class="st5" d="M157.9,32.1c0-0.8,0.6-1.5,1.4-1.5c0.8,0,1.5,0.6,1.5,1.4c0,0.8-0.6,1.5-1.4,1.5
			C158.6,33.5,158,32.9,157.9,32.1"/>
		<path class="st6" d="M162.6,35.1c0.1,0,0.1,0,0.2,0.1l0.8,1.9c0,0.1,0,0.2-0.1,0.3c-0.1,0-0.2,0-0.3-0.1l-0.8-1.9
			C162.4,35.3,162.4,35.2,162.6,35.1C162.6,35.1,162.6,35.1,162.6,35.1"/>
		<path class="st6" d="M159.9,35.9c0.1,0,0.2,0.1,0.2,0.2l0.1,2.2c0,0.1-0.1,0.2-0.2,0.2c-0.1,0-0.2-0.1-0.2-0.2l-0.1-2.2
			C159.7,36,159.8,35.9,159.9,35.9C159.9,35.9,159.9,35.9,159.9,35.9"/>
		<path class="st6" d="M157.5,35.4C157.5,35.4,157.5,35.4,157.5,35.4c0.1,0,0.2,0.1,0.2,0.2l-0.5,2.5c0,0.1-0.1,0.2-0.2,0.1
			c-0.1,0-0.2-0.1-0.2-0.2l0.5-2.5C157.3,35.5,157.4,35.4,157.5,35.4"/>
		<path class="st6" d="M155.4,34.4C155.4,34.4,155.5,34.4,155.4,34.4c0.2,0.1,0.2,0.2,0.1,0.3l-0.9,1.6c-0.1,0.1-0.2,0.1-0.3,0.1
			c-0.1-0.1-0.1-0.2-0.1-0.3l0.9-1.6C155.3,34.4,155.3,34.3,155.4,34.4"/>
	</g>
</g>
</svg>
