<?xml version="1.0" encoding="utf-8"?>
<!-- Generator: Adobe Illustrator 21.0.0, SVG Export Plug-In . SVG Version: 6.00 Build 0)  -->
<svg version="1.1" id="Layer_1" xmlns="http://www.w3.org/2000/svg" xmlns:xlink="http://www.w3.org/1999/xlink" x="0px" y="0px"
	 viewBox="0 0 174.8 42.7" style="enable-background:new 0 0 174.8 42.7;" xml:space="preserve">
<style type="text/css">
	.st0{fill:#60BAA4;stroke:#60BAA4;stroke-width:1.5;stroke-miterlimit:10;}
	.st1{fill:#60BAA4;stroke:#60BAA4;stroke-miterlimit:10;}
	.st2{fill:#454545;}
	.st3{fill:#848484;}
	.st4{fill:#606060;}
	.st5{fill:#DF165B;}
	.st6{fill:#EC821F;}
</style>
<path class="st0" d="M53.6,6.8c0,2.6-1,4.9-2.7,6.8c5.6,3.5,7.9,7.7,7.9,14.3c0,7.1-3.9,13.1-11.7,13.1c-0.3,0-1.3,0-1.7-0.7
	c-0.5-7.6-0.5-15.2-1.3-24.1l-1-11.8v-1C46.4-0.4,53.6,0.7,53.6,6.8z M46.8,12.5c2.5,0,4.2-2.9,4.2-5.6c0-2.8-2.3-3.8-4.9-2.6
	L46.8,12.5z M48.9,38c5.2,0,7-5.4,7-10.1c0-5.5-2.5-12.1-9-12.1c0,7.5,0.5,14.8,1.1,22.2C48.3,38,48.6,38,48.9,38z"/>
<path class="st0" d="M60.5,37.9h0.2c2,0.1,0.7,1.8,2.4,1.8c4.7,0,4-29.7,4.3-32.6c0.2-1.9-0.3-2.7,1.2-3.3h0.2c1.8,0.1,1.9,1,2,2.5
	l-0.5,9c-0.9,19.6-1.5,26.7-7.4,26.7h-0.4c-1.5-0.1-3.4-1.1-3.4-3C59.2,38.1,59.7,37.9,60.5,37.9z"/>
<path class="st0" d="M75.6,5.7c0-0.9,0.8-1.7,1.7-1.7h7.8c0.3,0,1.3,0.7,1.3,1c0,0.1,0,0.1,0,0.2c0,1-1.3,1.4-2.1,1.4h-5.9L78.8,23
	l5.3-0.8h0.2c2.3,0,1.4,2.3-0.5,2.6l-4.9,0.7l-0.1,12.9c0.4,0,2.1,0,2.6,0c3.3,0,5.7-1.1,5.9,1.1c0.1,1.7-11,1.5-11,0.5L75.6,5.7z"
	/>
<path class="st0" d="M95.2,4.9c-3.1,0.2-4.4,0.1-4.5-0.7c0.1-1.7,0.1-2.3,5.2-2h4.1c1.1,0,2.9,0.2,2.9,1.6c0,0.4-0.5,0.9-1,0.9h-4.1
	l0.9,31.4c0,0.4-1,0.7-1.3,0.7c-0.3,0-1.3-0.2-1.3-0.7L95.2,4.9z"/>
<path class="st0" d="M107.6,4.1c0.3-1,0.6-1,1.6-1c1.4,0,1.4,0.6,1.4,2.1c0,0.1,0,0.8,0,0.9l-1.5,33.8c-0.1,2.2-2.9,2.4-2.9,0.9
	L107.6,4.1z"/>
<path class="st0" d="M115.6,1.5c0.3-0.4,1.9-1,2.3-0.6c0.2,0.1,0.9,0.7,0.9,0.9l4.2,30.4c1.6-9,3.4-20.4,4.9-29.5
	c0-1.7,0.7-1.9,1.6-1.9c0.7,0,1.2,0.1,1.6,1c-2.1,8.1-3.4,16.6-4.7,24.9l-1.9,12.7c-0.3,0.9-0.8,0.9-1.5,0.9c-0.5,0-1.1,0-1.3-0.6
	C119.1,27.4,118,14.1,115.6,1.5z"/>
<path class="st0" d="M143.1,1.8c8.8,1,7.6,22,7.1,28.6c-0.3,3.6-2.2,9.9-7.1,9.9c-8.7,0-9.1-14.9-9.1-20.7
	C133.9,13.3,134.4,1.8,143.1,1.8z M136.7,19.4c0,14.5,2.7,18.4,6.2,18.4c4.8,0,4.9-12.5,4.9-15.7V22c0-3.8-1-17.6-5.7-17.6
	c-3.7,0-5.3,8.2-5.3,10.7C136.7,16.6,136.7,18,136.7,19.4z"/>
<path class="st0" d="M155.8,32.2c2,0.6,0.1,4.9,2.6,6.4h0.3c2.8,0,3.6-3.8,3.6-5.8c0-2.7-0.2-5.6-1.3-8.2c-2.3-5.3-7.3-9.8-7.3-15.9
	c0-2.8,1.7-7.4,5.1-7.4c2.2,0,5.8,1.7,5.8,4.3c0,0.9-0.3,1.5-1.3,1.5c-1.9,0-1.3-3-4-3c-2.5,0-2.7,3.5-2.7,5.2c0,5,4.2,8.5,6.4,12.6
	c2,3.8,3.1,9.3,1.9,13.1c-0.8,2.6-3,6.1-6,6.1c-3.7,0-4.8-4.5-4.8-7.5C153.9,32.8,155,32,155.8,32.2z"/>
<path class="st0" d="M171.8,12.3c1.3,0,2.2,1,2.2,2.4c0,1.1-1,1.2-2,1.2c-1.2,0-1.9-0.8-1.9-2.2C170.2,13.1,171.2,12.3,171.8,12.3z
	 M171.8,37.5c1.3,0,2.2,1,2.2,2.4c0,1.1-1,1.2-2,1.2c-1.2,0-1.9-0.8-1.9-2.2C170.2,38.3,171.2,37.5,171.8,37.5z"/>
<path class="st1" d="M39.7,20.1c-0.1-2.4-0.7-4.6-1.6-6.7c-1.2-2.7-2.9-5-5.2-6.9C30,4,26.6,2.4,22.8,1.9c-0.4-0.1-0.8,0-1.2-0.1
	h-0.2c0,0.1-0.1,0.1-0.1,0.1c-0.1,0-0.1,0-0.2,0c-0.1,0-0.2,0-0.3-0.1h-1.4c-0.1,0.1-0.2,0.1-0.3,0.1c-0.1,0-0.1,0-0.2,0
	c-0.1,0-0.1,0-0.1-0.1h-0.2C18,1.9,17.5,1.9,16.9,2C12.2,2.8,8.3,5,5.2,8.6c-2.4,2.8-3.9,6-4.5,9.6c-0.1,0.5-0.1,1.1-0.2,1.6v0.3
	c0.1,0.1,0,0.1,0,0.2v0.1c0,0.1,0,0.2,0,0.3v1.4c0.1,0.1,0,0.2,0,0.3v0.1c0,0.1,0,0.1,0,0.2V23c0.1,0.8,0.1,1.6,0.3,2.4
	c1,4.3,3.1,8,6.5,10.9c1.9,1.6,4,2.9,6.4,3.7c1.7,0.6,3.4,1,5.2,1c1.5,0,3.1,0.1,4.6-0.2c4.7-0.8,8.5-3,11.7-6.6
	c2.3-2.6,3.8-5.7,4.4-9.1C39.8,23.5,39.8,21.8,39.7,20.1 M20.1,38.7c-9.5,0-17.3-7.8-17.3-17.3c0-9.5,7.8-17.3,17.3-17.3
	c9.5,0,17.3,7.8,17.3,17.3C37.4,31,29.7,38.7,20.1,38.7"/>
<path class="st2" d="M19.1,1.9c0.1,0,0.2,0,0.3,0L19.1,1.9C19.1,1.8,19.1,1.8,19.1,1.9L19.1,1.9z"/>
<path class="st2" d="M19.1,1.9L19.1,1.9C19.1,1.9,19.1,1.9,19.1,1.9c0.1,0,0.2,0.1,0.3,0C19.3,1.9,19.2,1.8,19.1,1.9"/>
<path class="st2" d="M21.1,1.9L21.1,1.9C21.1,1.8,21.1,1.8,21.1,1.9l-0.3,0C20.9,1.9,21,1.8,21.1,1.9"/>
<path class="st2" d="M21.1,1.9C21.1,1.9,21.1,1.9,21.1,1.9L21.1,1.9c-0.1,0-0.2,0-0.3-0.1C20.9,1.9,21,1.9,21.1,1.9"/>
<path class="st3" d="M19,1.9C19,1.8,19,1.8,19,1.9l-0.2,0C18.8,1.9,18.9,1.9,19,1.9"/>
<path class="st3" d="M19,1.9C19,1.9,19,1.9,19,1.9c-0.1,0-0.1,0-0.1-0.1C18.8,1.9,18.9,1.9,19,1.9"/>
<path class="st4" d="M19,1.9L19,1.9L19,1.9c0.1,0,0.1,0,0.1,0c0,0,0,0,0,0L19,1.9C19,1.8,19,1.8,19,1.9"/>
<path class="st4" d="M19.1,1.9L19.1,1.9L19.1,1.9c-0.1,0-0.1,0-0.1,0c0,0,0,0,0,0C19,1.9,19.1,1.9,19.1,1.9
	C19.1,1.9,19.1,1.9,19.1,1.9"/>
<path class="st4" d="M19.1,1.8C19.1,1.8,19.1,1.9,19.1,1.8L19.1,1.8C19.1,1.8,19.1,1.8,19.1,1.8C19.1,1.8,19.1,1.8,19.1,1.8"/>
<path class="st4" d="M19.1,1.9C19.1,1.9,19.1,1.9,19.1,1.9C19.1,1.9,19.1,1.9,19.1,1.9L19.1,1.9z"/>
<path class="st4" d="M19,1.9C19,1.8,19,1.8,19,1.9C19,1.8,19,1.8,19,1.9C19,1.9,19,1.9,19,1.9"/>
<path class="st4" d="M19,1.9C19,1.9,19,1.9,19,1.9C19,1.9,19,1.9,19,1.9C19,1.9,19,1.9,19,1.9C19,1.9,19,1.9,19,1.9"/>
<path class="st4" d="M21.1,1.9L21.1,1.9c0.1,0,0.1,0,0.1,0c0,0,0,0,0,0L21.1,1.9C21.1,1.8,21.1,1.8,21.1,1.9"/>
<path class="st4" d="M21.2,1.9L21.2,1.9C21.1,1.9,21.1,1.9,21.2,1.9c-0.1,0-0.1,0-0.1,0C21.2,1.9,21.2,1.9,21.2,1.9
	C21.3,1.9,21.3,1.9,21.2,1.9C21.2,1.9,21.2,1.9,21.2,1.9"/>
<path class="st4" d="M21.1,1.9C21.1,1.8,21.1,1.8,21.1,1.9C21.1,1.8,21.1,1.8,21.1,1.9L21.1,1.9z"/>
<path class="st4" d="M21.1,1.9C21.1,1.9,21.1,1.9,21.1,1.9L21.1,1.9C21.1,1.9,21.1,1.9,21.1,1.9C21.1,1.9,21.1,1.9,21.1,1.9"/>
<path class="st3" d="M21.3,1.9c0,0,0.1,0,0.1,0L21.3,1.9C21.3,1.8,21.3,1.8,21.3,1.9"/>
<path class="st3" d="M21.3,1.9C21.3,1.9,21.3,1.9,21.3,1.9C21.3,1.9,21.3,1.9,21.3,1.9c0,0,0.1,0.1,0.1,0
	C21.4,1.9,21.3,1.9,21.3,1.9"/>
<path class="st3" d="M21.3,1.9C21.3,1.8,21.3,1.8,21.3,1.9C21.3,1.8,21.3,1.8,21.3,1.9C21.3,1.9,21.3,1.9,21.3,1.9"/>
<path class="st3" d="M21.3,1.9C21.3,1.9,21.3,1.9,21.3,1.9C21.3,1.9,21.3,1.9,21.3,1.9C21.3,1.9,21.3,1.9,21.3,1.9
	C21.3,1.9,21.3,1.9,21.3,1.9"/>
<path class="st5" d="M32.1,20.4h-12h-0.6c-3.9,0-7.7,0-11.6,0c-0.8,0-1.3,0.5-1.3,1.2c0,1.4,0.2,2.8,0.7,4.2c0.9,2.8,2.6,5.1,5,6.8
	c2.3,1.7,5,2.5,7.8,2.5c2.2,0,4.3-0.5,6.2-1.5c2.5-1.3,4.4-3.2,5.7-5.7c0.9-1.8,1.4-3.7,1.5-5.8C33.6,20.9,33.2,20.4,32.1,20.4
	 M26.2,30.9c-1.6,1.1-3.4,1.7-5.4,1.8c-2.6,0.1-5-0.5-7.2-2.1C11,28.7,9.5,26.1,9,22.9c0-0.2,0-0.2,0.2-0.2c0.1,0,0.1,0,0.2,0h21.4
	h0.4C30.7,26.2,29.1,29,26.2,30.9"/>
<path class="st6" d="M7.4,16.3c0.5,0.2,0.9,0.1,1.2-0.2c0.4-0.4,0.9-0.7,1.5-0.9c1.6-0.5,3-0.2,4.2,0.9c0.6,0.5,1.2,0.5,1.7,0
	c0.5-0.5,0.4-1.2-0.2-1.7c-1.2-1.1-2.7-1.7-4.3-1.7c-1.8,0-3.3,0.6-4.5,1.8c-0.3,0.3-0.4,0.6-0.4,1C6.7,15.8,7,16.2,7.4,16.3"/>
<path class="st6" d="M24.3,14.4c-0.4,0.3-0.5,0.8-0.3,1.3c0.2,0.5,0.5,0.7,1,0.8c0.4,0,0.7-0.2,1-0.4c0.7-0.7,1.6-1,2.6-1.1
	c1.2,0,2.2,0.4,3,1.2c0.5,0.5,1.2,0.4,1.6,0c0.4-0.5,0.4-1.2-0.1-1.7c-1.2-1.2-2.7-1.8-4.4-1.8C27,12.6,25.5,13.2,24.3,14.4"/>
</svg>
