<?xml version="1.0" encoding="utf-8"?>
<!-- Generator: Adobe Illustrator 21.0.0, SVG Export Plug-In . SVG Version: 6.00 Build 0)  -->
<svg version="1.1" id="Layer_1" xmlns="http://www.w3.org/2000/svg" xmlns:xlink="http://www.w3.org/1999/xlink" x="0px" y="0px"
	 viewBox="0 0 474 127" style="enable-background:new 0 0 474 127;" xml:space="preserve">
<style type="text/css">
	.st0{fill:#E4145B;stroke:#E4145B;stroke-width:2;stroke-miterlimit:10;}
	.st1{fill:#2828DC;stroke:#2828DC;stroke-width:2;stroke-miterlimit:10;}
	.st2{fill:#EE841E;}
	.st3{fill:#2828DC;}
	.st4{fill:#DF165B;}
	.st5{fill:#FFFFFF;}
	.st6{fill:#130D13;}
	.st7{fill:#A9C935;}
</style>
<path class="st0" d="M11.7,29.7c0,4.5,0.3,9.3-1.7,13.5c-1.7,3.8-5,7.3-5,11.7c0,1.9,0.6,3.1,2.8,3.1c4.2,0,5-6.2,7.7-6.2
	c0.9,0,1.4,0.9,1.4,1.7c0,4.3-5.1,7.7-8.8,7.7C4.4,61.3,1,59,1,54.9c0-7.3,7-12.1,7-19.5V23.2c0-0.8,0.9-0.9,1.4-0.9
	c0.7,0,1.9,0.1,2.3,0.9V29.7z M11.7,17.5c-0.6,0.5-1,0.4-1.6,0.4c-2.2,0-2.5-0.9-2.5-3c0-0.2,0.1-1.4,0.1-1.6
	c0.1-0.6,1.2-0.4,1.4-0.4c2.2,0,2.7,1.4,2.7,3.5V17.5z"/>
<path class="st0" d="M23.2,45.7c0-5,0.3-28.1,0.4-33.1c0.3-0.9,1.9-0.7,2.6-0.7c6.4,0,11.1,5.7,11.1,11.9c0,6.7-4.6,14.2-10.7,17
	c-0.1,1-0.3,5.8-0.3,6.8c-0.1,2.1-0.1,11.7,0,13.7c-0.4,0.6-1.3,0.8-1.9,0.8c-0.6,0-0.7-0.1-1.2-0.4V45.7z M26.5,36.6
	c0.4,0,1-0.1,1.3-0.4c3.6-3.3,5.7-7.1,5.7-12c0-3.2-2.3-9.1-6.6-9.1L26.5,36.6z"/>
<path class="st0" d="M53.2,10.9c11.1,1.2,9.5,27.6,8.9,35.9c-0.4,4.5-2.7,12.4-8.9,12.4c-11,0-11.5-18.7-11.5-26
	C41.6,25.4,42.2,10.9,53.2,10.9z M45.2,33c0,18.2,3.3,23.1,7.7,23.1c6.1,0,6.1-15.7,6.1-19.7v-0.2c0-4.8-1.3-22.1-7.2-22.1
	c-4.6,0-6.6,10.4-6.6,13.5C45.2,29.5,45.2,31.3,45.2,33z"/>
<path class="st0" d="M68.7,55.5c0-13.9,0.5-28,0.9-42c0.1-2.9,1.2-2.9,3.7-2.9h0.6c5.7,0,9.4,3.7,9.4,9.2v0.7
	c0,4.5-1.2,9.8-5.3,12.6c0.3,0.3,1.7,2,2,2.4c2.8,3.7,2.1,12.5,2.4,16.8c0,0.4,0.4,3.2,0.4,3.6v0.5c0,1.1-1,1.2-1.8,1.2h-0.1
	c-0.7,0-1.5,0-1.7-0.9c-0.1-2-0.6-11.5-0.7-13.6c-0.2-3-0.9-7.2-4.6-7.2h-1c-0.1,0.6-0.4,3-0.4,3.6C72.3,40.1,72,53.8,72,59.1
	c0,1.2,0.2,2.5-1.4,2.5c-0.7,0-1.4-0.2-1.9-0.9V55.5z M73.6,31.5c4.4,0,6.1-8.1,6.1-11c0-2.9-1.4-6.6-4.9-6.6
	c-0.9,0-1.5,0.6-1.5,1.6c0.1,5.4-0.4,9.9-0.4,15.4C72.8,31.4,73.2,31.5,73.6,31.5z"/>
<path class="st0" d="M114.4,13.1c3-3.5,6.6-3.5,9.4-1.1c7.4,12.3,6.1,29.2,3.2,42.1l4.3,3c0.9,1.6-0.7,2.4-1.4,2.4l-4.3-2.3
	c-2.9,4.5-8.9,5.6-12.6,1.5c-4.1-3.7-5-15.4-5-20.5C108.1,30,108.9,19.7,114.4,13.1z M119.5,13.8c-9,0-11.9,44.5-0.9,44.5h0.4
	c1.5-0.2,3.3-1.8,3.3-3.3c0-1.7-3.3-1.8-3.3-3.5c0-0.4,0.1-0.7,0.4-1.2c1.5,0,3.2,1.2,4.6,2c2.2-11.7,2.8-23.4-0.9-34.7
	c-0.4-1.2-1.4-3.8-3-3.8C119.9,13.8,119.7,13.8,119.5,13.8z"/>
<path class="st0" d="M145.4,57.2c-0.4,0-0.9-0.1-1.5-0.1c-7.6-0.9-8.2-19.8-8.8-41.5l-0.1-3v-0.3c0-1.4,3.3-1.3,3.7-0.1
	c1.1,1.8-1.7,42.2,6.8,42.2c2.2,0,2.9-3.5,2.9-5.2c0.2-7.7,0.1-25-0.2-36.9c0.3-1,0.7-1.1,1.8-1.1c1,0,1.9,0.2,1.9,1.2
	c0.3,10.9-0.2,21.9,0.1,33.4C151.9,51.1,151.8,57.2,145.4,57.2z"/>
<path class="st0" d="M158.2,15.8c0-1.1,1.1-2.2,2.2-2.2h9.8c0.4,0,1.6,0.9,1.7,1.2c0.1,0.1,0.1,0.2,0.1,0.3c0,1.2-1.7,1.8-2.7,1.8
	h-7.4l0.3,20.6l6.7-1h0.3c2.9,0,1.8,2.9-0.7,3.2l-6.2,0.9l-0.2,16.2c0.6,0.1,2.7,0.1,3.2,0.1c4.2,0,7.2-1.4,7.4,1.4
	c0.1,2.1-13.8,1.9-13.8,0.7L158.2,15.8z M163.2,3.9l4-2.6c0.1-0.1,0.6-0.2,0.6-0.2c0.8,0,1.7,0.7,1.7,1.6c0,0.4,0.1,0.5-0.3,0.7
	l-3.2,2L163.8,7c-0.4,0.3-0.5,0.3-0.9,0.3c-0.8,0-1.5-0.6-1.5-1.4C161.4,4.9,162.5,4.3,163.2,3.9z"/>
<path class="st0" d="M202.2,47.5l-0.4,0.4l-1,7c-0.1,0.9-0.1,3.6-1.9,3.6c-0.8,0-1.4-1.6-1.4-2.2c6.4-44.9,6.5-45.1,6.5-45.1
	c0.3-1.2,0.7-2.9,2.3-2.9c0.7,0,1.5,0.3,1.9,0.9l0.5,1.3c3.6,14.2,5.3,28.8,6.9,43.4l0.4,4c0,0.1-0.1,0.1-0.1,0.1
	c-0.4,1.2-0.7,1.7-1.9,1.7H214c-0.4,0-1,0-1.1-0.4l-1.5-11.8H202.2z M203.1,43.7l7.8,0.2l-4.2-29L203.1,43.7z"/>
<path class="st0" d="M233.2,17.1c0,3.2-1.2,6.1-3.4,8.5c7.1,4.4,9.9,9.7,9.9,18c0,8.9-4.9,16.4-14.6,16.4c-0.4,0-1.7-0.1-2.2-0.9
	c-0.7-9.5-0.7-19-1.6-30.3l-1.2-14.8v-1.3C224.1,8.2,233.2,9.5,233.2,17.1z M224.6,24.4c3.2,0,5.3-3.6,5.3-7c0-3.5-2.9-4.8-6.2-3.2
	L224.6,24.4z M227.3,56.3c6.6,0,8.7-6.8,8.7-12.7c0-6.9-3.2-15.2-11.3-15.2c0,9.4,0.7,18.6,1.4,27.9C226.6,56.3,227,56.3,227.3,56.3
	z"/>
<path class="st0" d="M244.5,55.5c0-13.9,0.5-28,0.9-42c0.1-2.9,1.2-2.9,3.7-2.9h0.6c5.7,0,9.4,3.7,9.4,9.2v0.7
	c0,4.5-1.2,9.8-5.3,12.6c0.3,0.3,1.7,2,2,2.4c2.8,3.7,2.1,12.5,2.4,16.8c0,0.4,0.4,3.2,0.4,3.6v0.5c0,1.1-1,1.2-1.8,1.2h-0.1
	c-0.7,0-1.5,0-1.7-0.9c-0.1-2-0.6-11.5-0.7-13.6c-0.2-3-0.9-7.2-4.6-7.2h-1c-0.1,0.6-0.4,3-0.4,3.6c-0.1,0.6-0.4,14.3-0.4,19.6
	c0,1.2,0.2,2.5-1.4,2.5c-0.7,0-1.4-0.2-1.9-0.9V55.5z M249.4,31.5c4.4,0,6.1-8.1,6.1-11c0-2.9-1.4-6.6-4.9-6.6
	c-0.9,0-1.5,0.6-1.5,1.6c0.1,5.4-0.4,9.9-0.4,15.4C248.5,31.4,249,31.5,249.4,31.5z"/>
<path class="st0" d="M266.9,13.8c0.4-1.2,0.7-1.3,2-1.3c1.8,0,1.8,0.8,1.8,2.6c0,0.2-0.1,1-0.1,1.1l-1.9,42.4
	c-0.1,2.7-3.6,3-3.6,1.2L266.9,13.8z"/>
<path class="st0" d="M277,55.5c0-13.9,0.5-28,0.9-42c0.1-2.9,1.2-2.9,3.7-2.9h0.6c5.7,0,9.4,3.7,9.4,9.2v0.7c0,4.5-1.2,9.8-5.3,12.6
	c0.3,0.3,1.7,2,2,2.4c2.8,3.7,2.1,12.5,2.4,16.8c0,0.4,0.4,3.2,0.4,3.6v0.5c0,1.1-1,1.2-1.8,1.2h-0.1c-0.7,0-1.5,0-1.7-0.9
	c-0.1-2-0.6-11.5-0.7-13.6c-0.2-3-0.9-7.2-4.6-7.2h-1c-0.1,0.6-0.4,3-0.4,3.6c-0.1,0.6-0.4,14.3-0.4,19.6c0,1.2,0.2,2.5-1.4,2.5
	c-0.7,0-1.4-0.2-1.9-0.9V55.5z M281.8,31.5c4.4,0,6.1-8.1,6.1-11c0-2.9-1.4-6.6-4.9-6.6c-0.9,0-1.5,0.6-1.5,1.6
	c0.1,5.4-0.4,9.9-0.4,15.4C281,31.4,281.4,31.5,281.8,31.5z"/>
<path class="st1" d="M333.6,13.9c0,2.2-3.6,1.7-4.5,1.7h-0.4c-6,0-8.7,12.5-8.7,19.5c0,7.9,0.5,13.6,6,18.1c2.7,2.2,6.8-0.1,7.7,1.6
	c1.2,2.2-1,2.9-3,2.9c-14.1-0.3-16.2-19-13.4-31.1c1.5-6.4,5.3-15.1,13.4-15.1C332,11.6,333.6,12.5,333.6,13.9z"/>
<path class="st1" d="M344.5,47.5l-0.4,0.4l-1,7c-0.1,0.9-0.1,3.6-1.9,3.6c-0.8,0-1.4-1.6-1.4-2.2c6.4-44.9,6.5-45.1,6.5-45.1
	c0.3-1.2,0.7-2.9,2.3-2.9c0.7,0,1.5,0.3,1.9,0.9l0.5,1.3c3.6,14.2,5.3,28.8,6.9,43.4l0.4,4c0,0.1-0.1,0.1-0.1,0.1
	c-0.4,1.2-0.7,1.7-1.9,1.7h-0.2c-0.4,0-1,0-1.1-0.4l-1.5-11.8H344.5z M345.4,43.7l7.8,0.2l-4.2-29L345.4,43.7z"/>
<path class="st1" d="M384.8,21.5l-6.7,16.5c-0.1,1.2-3,1.4-3.5,0.8c-0.1-0.1-0.4-0.6-0.4-0.7c-1.6-5.2-3-10.4-5.1-15.4
	c-1,11.7,0.2,23.6-1.2,35.2c-0.7,0.4-1.2,0.4-1.9,0.4c-1.3,0-1.2-0.3-1.2-1.5c0-2,0.6-3.3,0.4-42.4c0-1.9,2.9-3.3,3.6-1.2l7.6,20.7
	c1.8-2,7.2-19.5,8.6-21.8c0.6-1.2,2-1.1,3.5,0c0.1,0,0.4,20.5,0.4,29.2c0.1,5.5,0.4,11.3,0.4,16.9c0,1.1-0.7,2.1-1.9,2.1
	c-1,0-1.2-0.2-1.6-1.2C385.8,46.4,385.4,33.9,384.8,21.5z"/>
<path class="st1" d="M397,13.8c0.4-1.2,0.7-1.3,2-1.3c1.8,0,1.8,0.8,1.8,2.6c0,0.2-0.1,1-0.1,1.1L399,58.7c-0.1,2.7-3.6,3-3.6,1.2
	L397,13.8z"/>
<path class="st1" d="M407.8,15.4c-0.1-2.5,3.3-4,4.6-0.4l12.6,34.3c0.1-2.7,0.6-18,0.9-24.1c0.2-3.7-0.1-7.5,0.7-11
	c0-0.7,0.7-0.7,1.6-0.7c1.5,0.1,1.6,0.1,1.5,1.5c-0.2,6.4-1.1,12.9-1.4,19.3c-0.1,3.6-0.7,20.8-0.7,24.4c-0.4,1.3-2.4,0.6-2.9-0.5
	c-0.6-1.3-1.1-2.5-14.3-37.7l-0.4,38.1c0,1.9-3.2,1.7-3.2,0.4L407.8,15.4z"/>
<path class="st1" d="M445.3,10.9c11.1,1.2,9.5,27.6,8.9,35.9c-0.4,4.5-2.7,12.4-8.9,12.4c-11,0-11.5-18.7-11.5-26
	C433.8,25.4,434.3,10.9,445.3,10.9z M437.3,33c0,18.2,3.3,23.1,7.7,23.1c6.1,0,6.1-15.7,6.1-19.7v-0.2c0-4.8-1.3-22.1-7.2-22.1
	c-4.6,0-6.6,10.4-6.6,13.5C437.3,29.5,437.3,31.3,437.3,33z"/>
<path class="st1" d="M461.2,49.1c2.5,0.7,0.1,6.2,3.2,8h0.4c3.5,0,4.5-4.8,4.5-7.3c0-3.4-0.2-7.1-1.7-10.3c-2.9-6.7-9.2-12.3-9.2-20
	c0-3.5,2.1-9.2,6.4-9.2c2.7,0,7.3,2.2,7.3,5.4c0,1.2-0.4,1.9-1.6,1.9c-2.4,0-1.7-3.7-5.1-3.7c-3.2,0-3.4,4.4-3.4,6.6
	c0,6.3,5.3,10.7,8.1,15.9c2.5,4.8,3.8,11.7,2.4,16.4c-1,3.2-3.8,7.6-7.6,7.6c-4.6,0-6-5.7-6-9.4C458.8,49.9,460.2,48.8,461.2,49.1z"
	/>
<path class="st1" d="M5.6,111.9l-0.4,0.4l-1,7c-0.1,0.9-0.1,3.6-1.9,3.6c-0.8,0-1.4-1.6-1.4-2.2c6.4-44.9,6.5-45.1,6.5-45.1
	c0.3-1.2,0.7-2.9,2.3-2.9c0.7,0,1.5,0.3,1.9,0.9l0.5,1.3c3.6,14.2,5.3,28.8,6.9,43.4l0.4,4c0,0.1-0.1,0.1-0.1,0.1
	c-0.4,1.2-0.7,1.7-1.9,1.7h-0.2c-0.4,0-1,0-1.1-0.4l-1.5-11.8H5.6z M6.6,108.1l7.8,0.2l-4.2-28.9L6.6,108.1z"/>
<path class="st1" d="M46,124.8c-0.1,0-0.8-32-0.8-36.2c0-1.2-0.7-10.7-0.8-11.8v-0.4c0-0.5,0-0.7,0.4-1.1c0.2-0.1,0.9-0.1,1.2-0.1
	c1.1,0,1.6-0.1,2,1.3c0.6,2.4,0.3,3.9,0.4,6.3c0.3,12.6,0.4,25.5,1.2,38.3h0.4c2.6,0,5.1-0.9,7.8-0.9c1,0,2.1,0.2,2.1,1.5
	c0,0.7-0.4,1.2-1.2,1.4L46,124.8z"/>
<path class="st1" d="M67.7,111.9l-0.4,0.4l-1,7c-0.1,0.9-0.1,3.6-1.9,3.6c-0.8,0-1.4-1.6-1.4-2.2c6.4-44.9,6.5-45.1,6.5-45.1
	c0.3-1.2,0.7-2.9,2.3-2.9c0.7,0,1.5,0.3,1.9,0.9l0.5,1.3c3.6,14.2,5.3,28.8,6.9,43.4l0.4,4c0,0.1-0.1,0.1-0.1,0.1
	c-0.4,1.2-0.7,1.7-1.9,1.7h-0.2c-0.4,0-1,0-1.1-0.4l-1.5-11.8H67.7z M68.7,108.1l7.8,0.2l-4.2-28.9L68.7,108.1z"/>
<path class="st1" d="M123.8,78.3c0,2.2-3.6,1.7-4.5,1.7H119c-6,0-8.7,12.5-8.7,19.5c0,7.9,0.5,13.6,6,18.1c2.7,2.2,6.8-0.1,7.7,1.6
	c1.2,2.2-1,2.9-3,2.9c-14.1-0.3-16.2-19-13.4-31.1c1.5-6.4,5.3-15.1,13.4-15.1C122.2,76,123.8,76.9,123.8,78.3z"/>
<path class="st1" d="M128,119.9c0-13.9,0.5-28,0.9-42c0.1-2.9,1.2-2.9,3.7-2.9h0.6c5.7,0,9.4,3.7,9.4,9.2V85c0,4.5-1.2,9.8-5.3,12.6
	c0.3,0.3,1.7,2,2,2.4c2.8,3.7,2.1,12.5,2.4,16.8c0,0.4,0.4,3.2,0.4,3.6v0.5c0,1.1-1,1.2-1.8,1.2h-0.1c-0.7,0-1.5,0-1.7-0.9
	c-0.1-2-0.6-11.5-0.7-13.6c-0.2-3-0.9-7.2-4.6-7.2h-1c-0.1,0.6-0.4,3-0.4,3.6c-0.1,0.6-0.4,14.3-0.4,19.6c0,1.2,0.2,2.5-1.4,2.5
	c-0.7,0-1.4-0.2-1.9-0.9V119.9z M132.9,95.9c4.4,0,6.1-8.1,6.1-11c0-2.9-1.4-6.6-4.9-6.6c-0.9,0-1.5,0.6-1.5,1.6
	c0.1,5.4-0.4,9.9-0.4,15.4C132.1,95.9,132.5,95.9,132.9,95.9z"/>
<path class="st1" d="M148.7,80.2c0-1.1,1.1-2.2,2.2-2.2h9.8c0.4,0,1.6,0.9,1.7,1.2c0.1,0.1,0.1,0.2,0.1,0.3c0,1.2-1.7,1.8-2.7,1.8
	h-7.4l0.3,20.6l6.7-1h0.3c2.9,0,1.8,2.9-0.7,3.2l-6.2,0.9l-0.2,16.2c0.6,0.1,2.7,0.1,3.2,0.1c4.2,0,7.2-1.4,7.4,1.4
	c0.1,2.1-13.8,1.9-13.8,0.7L148.7,80.2z"/>
<path class="st1" d="M172.2,111.9l-0.4,0.4l-1,7c-0.1,0.9-0.1,3.6-1.9,3.6c-0.8,0-1.4-1.6-1.4-2.2c6.4-44.9,6.5-45.1,6.5-45.1
	c0.3-1.2,0.7-2.9,2.3-2.9c0.7,0,1.5,0.3,1.9,0.9l0.5,1.3c3.6,14.2,5.3,28.8,6.9,43.4l0.4,4c0,0.1-0.1,0.1-0.1,0.1
	c-0.4,1.2-0.7,1.7-1.9,1.7H184c-0.4,0-1,0-1.1-0.4l-1.5-11.8H172.2z M173.1,108.1l7.8,0.2l-4.2-28.9L173.1,108.1z"/>
<path class="st1" d="M191.2,79.3c-3.8,0.2-5.6,0.2-5.7-0.9c0.1-2.1,0.1-2.9,6.6-2.5h5.2c1.4,0.1,3.7,0.2,3.7,2
	c0,0.6-0.7,1.2-1.2,1.2h-5.2l1.2,39.4c0,0.6-1.2,0.9-1.6,0.9s-1.6-0.3-1.6-0.9L191.2,79.3z"/>
<path class="st1" d="M229.9,74.9c0.4-0.5,2.4-1.2,2.9-0.7c0.2,0.1,1.1,0.9,1.2,1.2l5.3,38.2c2-11.3,4.2-25.7,6.2-37
	c0-2.1,0.9-2.4,2-2.4c0.9,0,1.5,0.1,2,1.2c-2.7,10.2-4.2,20.9-6,31.3l-2.4,15.9c-0.4,1.1-1,1.2-1.9,1.2c-0.7,0-1.4,0-1.6-0.8
	C234.2,107.5,232.9,90.7,229.9,74.9z"/>
<path class="st1" d="M254.8,78.3c0.4-1.2,0.7-1.3,2-1.3c1.8,0,1.8,0.8,1.8,2.6c0,0.2-0.1,1-0.1,1.1l-1.9,42.4
	c-0.1,2.7-3.6,3-3.6,1.2L254.8,78.3z"/>
<path class="st1" d="M264.9,112.9c0.1-5.3,0.1-30.1,0-35.4v-0.2c0-1.4,0.5-2.8,1.8-3.3h0.6c2.5,0,5.1,0.6,6.9,2.2
	c6.6,6,7.9,16.6,7.5,25c-0.5,12-3.3,23.4-13.5,24.6c-2,0.2-3.3-0.1-3.3-2.4V112.9z M268.4,100.9c0,5.5-0.1,14.9,0,21.3
	c7.7-1.2,9.8-13.5,9.8-20.3c0-4.9-0.3-24.1-8.9-24.1h-0.4C268.7,81.3,268.4,97.5,268.4,100.9z"/>
<path class="st1" d="M289.8,111.9l-0.4,0.4l-1,7c-0.1,0.9-0.1,3.6-1.9,3.6c-0.8,0-1.4-1.6-1.4-2.2c6.4-44.9,6.5-45.1,6.5-45.1
	c0.3-1.2,0.7-2.9,2.3-2.9c0.7,0,1.5,0.3,1.9,0.9l0.5,1.3c3.6,14.2,5.3,28.8,6.9,43.4l0.4,4c0,0.1-0.1,0.1-0.1,0.1
	c-0.4,1.2-0.7,1.7-1.9,1.7h-0.2c-0.4,0-1,0-1.1-0.4l-1.5-11.8H289.8z M290.7,108.1l7.8,0.2l-4.2-28.9L290.7,108.1z"/>
<path class="st1" d="M309.9,112.9c0.1-5.3,0.1-30.1,0-35.4v-0.2c0-1.4,0.5-2.8,1.8-3.3h0.6c2.5,0,5.1,0.6,6.9,2.2
	c6.6,6,7.9,16.6,7.5,25c-0.5,12-3.3,23.4-13.5,24.6c-2,0.2-3.3-0.1-3.3-2.4V112.9z M313.4,100.9c0,5.5-0.1,14.9,0,21.3
	c7.7-1.2,9.8-13.5,9.8-20.3c0-4.9-0.3-24.1-8.9-24.1h-0.4C313.7,81.3,313.4,97.5,313.4,100.9z"/>
<path class="st1" d="M335.3,108.9c0-4.5-0.3-9.3,1.7-13.5c1.7-3.8,5-7.3,5-11.7c0-1.9-0.6-3.1-2.8-3.1c-4.1,0-5,6.2-7.7,6.2
	c-0.9,0-1.4-0.9-1.4-1.7c0-4.3,5.1-7.7,8.8-7.7c3.8,0,7.2,2.3,7.2,6.4c0,7.3-7,12.1-7,19.5v12.3c0,0.8-0.9,0.9-1.4,0.9
	c-0.7,0-1.9-0.1-2.3-0.9V108.9z M335.3,121.1c0.6-0.5,1-0.4,1.6-0.4c2.2,0,2.5,0.9,2.5,3c0,0.2-0.1,1.4-0.1,1.6
	c-0.1,0.6-1.2,0.4-1.4,0.4c-2.2,0-2.7-1.4-2.7-3.5V121.1z"/>
<path class="st2" d="M226.5,119.4c-0.2,0.2-0.4,0.2-0.5,0.2c-0.4,0-0.6-0.4-0.7-0.8c-0.1-2.6-2.3-7.8-6.7-8.2l-0.5,0l0.3-0.4
	c0,0,0.9-1.4,1.7-4.4c0.8-3,0.9-3.6,0.9-3.7l0.1-0.5l0.4,0.3c0.1,0.1,2.2,1.7,3.9,4.6c1.6,2.7,3.1,7,1.4,12.5
	C226.7,119.2,226.6,119.3,226.5,119.4 M219.1,110.1c2.4,0.4,3.9,2,4.9,3.4c1.1,1.6,1.8,3.7,1.9,5.3c0,0.2,0.1,0.2,0.1,0.2
	c0,0,0.1-0.1,0.2-0.3c1.3-4.2,0.9-8.2-1.3-12c-1.2-2.1-2.7-3.5-3.4-4.1c-0.1,0.5-0.3,1.5-0.8,3.2
	C220.1,108.1,219.5,109.4,219.1,110.1"/>
<path class="st2" d="M226.6,119.6c-0.2,0.2-0.4,0.3-0.7,0.2c-0.5-0.1-0.8-0.5-0.8-1c-0.1-2.5-2.3-7.6-6.5-8l-0.9-0.1l0.5-0.7
	c0,0,0.9-1.4,1.7-4.4c0.8-3,0.9-3.6,0.9-3.7l0.1-0.9l0.7,0.5c0.1,0.1,2.2,1.7,4,4.6c1.6,2.7,3.2,7.1,1.4,12.7
	C226.9,119.2,226.8,119.4,226.6,119.6 M218.4,110.4l0.2,0c4.5,0.4,6.7,5.7,6.9,8.3c0,0.3,0.2,0.6,0.5,0.6c0.1,0,0.2,0,0.4-0.1
	c0.1-0.1,0.2-0.2,0.3-0.4c1.7-5.4,0.2-9.7-1.4-12.3c-1.7-2.9-3.8-4.5-3.9-4.5l-0.2-0.1l0,0.2c0,0.1-0.1,0.7-0.9,3.7
	c-0.8,3-1.7,4.5-1.7,4.5L218.4,110.4z M226.2,119.1c-0.1,0.1-0.1,0.1-0.2,0.1c-0.1,0-0.3-0.2-0.3-0.4c-0.1-1.6-0.8-3.6-1.9-5.2
	c-0.9-1.3-2.4-2.9-4.7-3.3l-0.3,0l0.1-0.2c0.3-0.6,1-2,1.5-4.2c0.5-1.7,0.7-2.7,0.8-3.2l0.1-0.3l0.3,0.2c0.7,0.7,2.2,2.1,3.4,4.1
	c2.2,3.8,2.7,7.9,1.4,12.1C226.3,118.9,226.3,119.1,226.2,119.1 M219.4,109.9c2.3,0.5,3.8,2.1,4.7,3.4c1,1.5,1.7,3.4,1.9,5
	c1.2-4,0.7-7.9-1.4-11.5c-1.1-1.8-2.3-3.1-3.1-3.8c-0.1,0.6-0.3,1.5-0.7,2.9C220.4,107.9,219.8,109.2,219.4,109.9"/>
<path class="st2" d="M205.1,119.7c-0.1,0.1-0.2,0.1-0.3,0.2c-0.3,0-0.7-0.1-0.9-0.7c-1.8-5.4-0.4-9.8,1.1-12.5
	c1.7-2.9,3.7-4.6,3.8-4.7l0.4-0.3l0.1,0.5c0,0,0.1,0.7,1,3.7c0.8,3,1.8,4.4,1.8,4.4l0.3,0.4l-0.5,0.1c-4.4,0.5-6.4,5.7-6.5,8.3
	C205.3,119.3,205.2,119.5,205.1,119.7 M208.8,102.8c-0.7,0.6-2.1,2.1-3.3,4.2c-2.1,3.8-2.5,7.8-1.1,12c0.1,0.2,0.2,0.3,0.2,0.3
	c0,0,0.1-0.1,0.1-0.2c0.1-1.6,0.8-3.7,1.8-5.3c0.9-1.4,2.4-3.1,4.8-3.5c-0.4-0.6-1-2-1.6-4.2C209.2,104.3,208.9,103.3,208.8,102.8"
	/>
<path class="st2" d="M205.2,119.8c-0.1,0.1-0.3,0.2-0.5,0.2c-0.4,0.1-0.8-0.1-1.1-0.8c-1.9-5.5-0.4-9.9,1.1-12.7
	c1.7-3,3.8-4.7,3.9-4.7l0.7-0.5l0.1,0.9c0,0,0.1,0.7,1,3.6c0.8,2.9,1.8,4.3,1.8,4.3l0.5,0.7l-0.9,0.1c-4.2,0.4-6.2,5.6-6.3,8.1
	C205.5,119.4,205.4,119.6,205.2,119.8 M208.6,102.4c-0.6,0.6-2.2,2.1-3.5,4.3c-1.5,2.7-2.9,7-1.1,12.4c0.2,0.6,0.5,0.6,0.6,0.5
	c0.3,0,0.5-0.3,0.5-0.6c0.1-2.6,2.2-8,6.7-8.5l0.2,0l-0.1-0.2c0,0-1-1.5-1.8-4.5c-0.8-3-1-3.7-1-3.7l0-0.2l-0.2,0.1
	C208.9,102.2,208.8,102.2,208.6,102.4 M204.8,119.4c0,0-0.1,0.1-0.1,0.1c-0.2,0-0.3-0.1-0.4-0.4c-1.4-4.2-1.1-8.3,1.1-12.2
	c1.2-2.1,2.6-3.5,3.3-4.2l0.2-0.2l0.1,0.3c0.1,0.5,0.4,1.4,0.9,3.2c0.6,2.2,1.3,3.5,1.6,4.1l0.1,0.2l-0.3,0
	c-2.3,0.4-3.8,2.1-4.7,3.4c-1,1.6-1.7,3.6-1.8,5.2C204.9,119.2,204.8,119.3,204.8,119.4 M208.7,103.2c-0.8,0.7-2,2-3,3.9
	c-2.1,3.7-2.4,7.5-1.2,11.6c0.1-1.6,0.8-3.5,1.8-5.1c0.9-1.3,2.4-3,4.7-3.5c-0.4-0.7-1-2-1.5-4C209.1,104.6,208.8,103.7,208.7,103.2
	"/>
<path class="st2" d="M221.5,82.2l-13,0.1l0.2-0.6c0,0,1-2.2,2.1-4.4c2.2-4.2,3.3-4.6,3.9-4.6c0.6,0,1.7,0.5,4.1,4.6
	c1.3,2.2,2.4,4.4,2.4,4.4L221.5,82.2z M209.8,81.5l10.4-0.1c-0.4-0.8-1.2-2.3-2-3.8c-2.3-4-3.2-4.2-3.4-4.2c-0.2,0-1,0.2-3.1,4.2
	C210.8,79.2,210.2,80.7,209.8,81.5"/>
<path class="st3" d="M209.2,81.9l5.9-0.1l5.9-0.1c2.6,8.3,3.9,16.4-1.4,29.1l-8.3,0.1C205.6,98.4,206.7,90.3,209.2,81.9"/>
<path class="st3" d="M219.7,111.2c-0.1,0-0.1,0.1-0.2,0.1l-8.3,0.1c-0.1,0-0.2-0.1-0.3-0.2c-2.6-5.9-3.9-11.2-4-16.3
	c-0.1-5,0.9-9.4,2-13c0-0.1,0.2-0.2,0.3-0.2l11.7-0.1c0.1,0,0.3,0.1,0.3,0.2c1.1,3.6,2.3,8,2.3,13c0,5-1.2,10.4-3.7,16.3
	C219.8,111.1,219.7,111.1,219.7,111.2 M211.4,110.7l7.9-0.1c5.3-13.1,3.6-21.3,1.4-28.5l-11.2,0.1
	C207.3,89.5,205.8,97.7,211.4,110.7"/>
<path class="st4" d="M218.2,114.3l-5.5,0.1c-2.8,7.8,2.6,12.5,2.6,12.5C221.6,121.6,218.2,114.3,218.2,114.3"/>
<path class="st5" d="M213.5,114.3l3.8,0c0.3,2.1,0.3,5.5-2,8.3C215.3,122.6,212.8,119.5,213.5,114.3"/>
<path class="st4" d="M215.3,118.5c0,0-1-1.5-1.1-4.1l2.3,0C216.5,115.6,216.2,117.2,215.3,118.5"/>
<path class="st2" d="M219,114.6l-7.3,0.1l-1-4l9.1-0.1L219,114.6z M212.2,114l6.3-0.1l0.6-2.7l-7.5,0.1L212.2,114z"/>
<path class="st2" d="M219.2,114.8l-7.6,0.1l-1.1-4.4l9.6-0.1L219.2,114.8z M211.9,114.5l6.9-0.1l0.8-3.6l-8.6,0.1L211.9,114.5z
	 M218.7,114.2l-6.6,0.1l-0.8-3.1l8-0.1L218.7,114.2z M212.4,113.8l5.9-0.1l0.5-2.3l-7,0.1L212.4,113.8z"/>
<path class="st5" d="M211.8,97.9c0,0-1.6-3.7,0-5.6c1.6-1.9,4.1-3,7.2-1.9c0,0,1.5,4.1-1.9,7C217,97.4,214.9,99.4,211.8,97.9"/>
<path class="st6" d="M216,92.9c0.6,0.5,0.7,1.5,0.2,2.1c-0.5,0.6-1.5,0.7-2.1,0.2c-0.6-0.5-0.7-1.5-0.2-2.1
	C214.5,92.5,215.4,92.4,216,92.9"/>
<path class="st7" d="M210.6,94.4c-0.1,0.1-0.2,0.1-0.3,0.1l-2-0.7c-0.2-0.1-0.2-0.2-0.2-0.4c0.1-0.2,0.2-0.2,0.4-0.2l2,0.7
	c0.2,0.1,0.2,0.2,0.2,0.4C210.6,94.4,210.6,94.4,210.6,94.4"/>
<path class="st7" d="M211.8,91.9c-0.1,0.1-0.3,0.1-0.4,0l-1.7-1.4c-0.1-0.1-0.1-0.3,0-0.4c0.1-0.1,0.3-0.1,0.4,0l1.7,1.4
	C212,91.5,212,91.7,211.8,91.9C211.9,91.8,211.9,91.9,211.8,91.9"/>
<path class="st7" d="M213.9,90.4C213.8,90.4,213.8,90.4,213.9,90.4c-0.2,0.1-0.3,0.1-0.4,0l-1.5-2.1c-0.1-0.1-0.1-0.3,0.1-0.4
	c0.1-0.1,0.3-0.1,0.4,0.1l1.5,2.1C214,90.1,214,90.3,213.9,90.4"/>
<path class="st7" d="M216.1,89.5c0,0-0.1,0-0.1,0.1c-0.2,0-0.3,0-0.4-0.2l-0.6-1.8c0-0.2,0-0.3,0.2-0.4c0.2,0,0.3,0,0.4,0.2l0.6,1.8
	C216.2,89.3,216.2,89.5,216.1,89.5"/>
</svg>
