<?xml version="1.0" encoding="utf-8"?>
<!-- Generator: Adobe Illustrator 21.0.0, SVG Export Plug-In . SVG Version: 6.00 Build 0)  -->
<svg version="1.1" id="Layer_1" xmlns="http://www.w3.org/2000/svg" xmlns:xlink="http://www.w3.org/1999/xlink" x="0px" y="0px"
	 viewBox="0 0 48.6 50" style="enable-background:new 0 0 48.6 50;" xml:space="preserve">
<style type="text/css">
	.st0{fill:#F3F7FC;}
	.st1{clip-path:url(#SVGID_2_);}
	.st2{fill:#FFFFFF;}
	.st3{fill:#2F3E98;}
	.st4{fill:#BC1F34;}
	.st5{fill:#2C6A34;}
	.st6{fill:#4561AC;}
	.st7{fill:#F4CC29;}
	.st8{fill:#F8E623;}
</style>
<path class="st0" d="M47.2,9.9c4.8,12.7-3.9,36.7-11.3,39.5C26.5,53,6.1,40,1.3,27.4C-3.5,14.7,5.8,8.3,18.5,3.5
	C31.2-1.3,42.4-2.7,47.2,9.9z"/>
<g>
	<defs>
		<path id="SVGID_1_" d="M45.3,11.2c4.4,11.6-3.6,33.6-10.3,36.1c-8.7,3.3-27.3-8.6-31.7-20.2C-1.2,15.5,7.4,9.7,19,5.3
			C30.6,0.9,40.9-0.4,45.3,11.2z"/>
	</defs>
	<clipPath id="SVGID_2_">
		<use xlink:href="#SVGID_1_"  style="overflow:visible;"/>
	</clipPath>
	<g class="st1">
		<rect x="-0.4" y="16.1" class="st2" width="50.9" height="16.4"/>
		<rect x="-0.4" y="32.6" class="st3" width="50.9" height="16.4"/>
		<rect x="-0.4" y="-0.3" class="st4" width="50.9" height="16.4"/>
		<g>
			<path class="st2" d="M33.4,24.4c0,3.5-2.8,6.3-6.3,6.3c-3.5,0-6.3-2.8-6.3-6.3s2.8-6.3,6.3-6.3C30.6,18.1,33.4,20.9,33.4,24.4
				L33.4,24.4z"/>
			<g>
				<path d="M27.2,30.7c-3.5,0-6.4-2.9-6.4-6.4c0-3.5,2.9-6.4,6.4-6.4c3.5,0,6.4,2.9,6.4,6.4C33.5,27.9,30.7,30.7,27.2,30.7
					L27.2,30.7z M27.2,18.2c-3.4,0-6.2,2.8-6.2,6.1c0,3.4,2.8,6.2,6.2,6.2c3.4,0,6.2-2.8,6.2-6.2C33.3,21,30.5,18.2,27.2,18.2
					L27.2,18.2z"/>
			</g>
			<path class="st4" d="M27.2,19c-3,0-5.4,2.4-5.4,5.4c0,3,2.4,5.4,5.4,5.4c3,0,5.4-2.4,5.4-5.4C32.5,21.4,30.1,19,27.2,19L27.2,19z
				 M27.2,28.4c-2.2,0-4-1.8-4-4c0-2.2,1.8-4,4-4c2.2,0,4,1.8,4,4C31.2,26.6,29.4,28.4,27.2,28.4L27.2,28.4z"/>
			<g>
				<path d="M27.2,29.7c-3,0-5.4-2.4-5.4-5.4c0-3,2.4-5.4,5.4-5.4c3,0,5.4,2.4,5.4,5.4C32.5,27.3,30.1,29.7,27.2,29.7L27.2,29.7z
					 M27.2,19c-3,0-5.4,2.4-5.4,5.4c0,3,2.4,5.4,5.4,5.4c3,0,5.4-2.4,5.4-5.4C32.5,21.4,30.1,19,27.2,19L27.2,19z M27.2,28.4
					c-2.2,0-4-1.8-4-4c0-2.2,1.8-4,4-4c2.2,0,4,1.8,4,4C31.2,26.6,29.4,28.4,27.2,28.4L27.2,28.4z M27.2,20.3c-2.2,0-4,1.8-4,4
					c0,2.2,1.8,4,4,4c2.2,0,4-1.8,4-4C31.2,22.1,29.4,20.3,27.2,20.3L27.2,20.3z"/>
			</g>
			<path class="st5" d="M28,21.4c0,0,2.4,1,2,3.2c-0.4,2.1-1.8,2.1-2.3,2.4c-0.5,0.2-0.9,0.6-1.1,0.5c-0.2,0-0.5-0.2-0.5-0.2
				s0,0.4,0.4,0.4c0.4,0.1,1-0.6,1.2-0.6c0.3-0.1,1.9-0.2,2.3-2.4C30.5,22.3,28,21.5,28,21.4L28,21.4z"/>
			<g>
				<path d="M26.6,27.7L26.6,27.7L26.6,27.7c-0.5-0.1-0.5-0.4-0.5-0.4v0c0,0,0.3,0.2,0.5,0.2c0.2,0,0.3-0.1,0.5-0.2
					c0.2-0.1,0.4-0.2,0.6-0.3c0.1,0,0.2-0.1,0.3-0.1c0.6-0.2,1.6-0.5,2-2.3c0.3-1.7-1.1-2.7-1.7-3l-0.2-0.1c-0.1,0-0.1-0.1-0.1-0.1
					c0,0,0.1,0,0.3,0.2l0,0c1.4,0.7,2,1.8,1.8,3.1c-0.2,1.3-1,2.2-2.2,2.4c-0.2,0-0.3,0.1-0.5,0.3C27.1,27.5,26.8,27.7,26.6,27.7
					L26.6,27.7z M26.1,27.3c0,0,0,0.3,0.4,0.4l0.1,0c0.3,0,0.5-0.2,0.8-0.4c0.2-0.1,0.3-0.2,0.4-0.2c1.3-0.3,2.1-1.1,2.3-2.4
					c0.3-1.3-0.3-2.3-1.7-3.1c0.6,0.3,2,1.3,1.7,3c-0.4,1.8-1.3,2.1-2,2.3c-0.1,0-0.2,0.1-0.3,0.1c-0.2,0.1-0.4,0.2-0.6,0.3
					c-0.2,0.1-0.4,0.2-0.5,0.2C26.4,27.5,26.1,27.3,26.1,27.3L26.1,27.3z"/>
			</g>
			<path class="st5" d="M29.2,21.9c0,0.2,0,0.3,0,0.3c0,0-0.1-0.1-0.2-0.3c0-0.2,0-0.3,0-0.3C29.1,21.6,29.2,21.7,29.2,21.9
				L29.2,21.9z"/>
			<g>
				<path d="M29.2,22.2c-0.1,0-0.1-0.2-0.2-0.3c0-0.1,0-0.3,0-0.3c0,0,0,0,0,0c0,0,0,0.2,0,0.3C29.1,22.1,29.2,22.2,29.2,22.2
					L29.2,22.2L29.2,22.2c0-0.1,0-0.2,0-0.3c0-0.1-0.1-0.3-0.1-0.3c0.1,0,0.1,0.2,0.1,0.3C29.3,22,29.3,22.2,29.2,22.2L29.2,22.2
					L29.2,22.2z"/>
			</g>
			<path class="st5" d="M29.1,21.9c0.1,0.2,0.1,0.3,0.1,0.3c0,0-0.1-0.1-0.2-0.3c-0.1-0.2-0.1-0.3-0.1-0.3
				C28.9,21.6,29,21.7,29.1,21.9L29.1,21.9z"/>
			<g>
				<path d="M29.2,22.3c-0.1,0-0.2-0.1-0.2-0.3c-0.1-0.1-0.1-0.3-0.1-0.3c0,0,0,0,0,0c0,0.1,0,0.2,0.1,0.3
					C29.1,22.1,29.2,22.2,29.2,22.3L29.2,22.3L29.2,22.3c0-0.1,0-0.2-0.1-0.3c-0.1-0.1-0.1-0.2-0.2-0.3c0.1,0,0.1,0.1,0.2,0.3
					C29.2,22.1,29.2,22.2,29.2,22.3L29.2,22.3L29.2,22.3z"/>
			</g>
			<path class="st5" d="M28.9,22.1c0.2,0,0.3,0.1,0.3,0.2c0,0-0.1,0-0.3,0c-0.2,0-0.3-0.1-0.3-0.2C28.6,22,28.7,22,28.9,22.1
				L28.9,22.1z"/>
			<g>
				<path d="M29.1,22.3c-0.1,0-0.1,0-0.2,0c-0.2,0-0.3-0.1-0.3-0.2c0,0,0.1,0,0.1,0c-0.1,0.1,0.1,0.1,0.2,0.2
					C29,22.3,29,22.3,29.1,22.3L29.1,22.3L29.1,22.3c0.1-0.1,0-0.2-0.2-0.2c-0.1,0-0.1,0-0.2,0c0.1,0,0.1,0,0.2,0
					C29,22.1,29.2,22.2,29.1,22.3L29.1,22.3L29.1,22.3z"/>
			</g>
			<path class="st5" d="M28.9,22c0.2,0.1,0.3,0.2,0.2,0.3c0,0-0.2,0-0.3-0.1c-0.2-0.1-0.3-0.2-0.2-0.3C28.6,21.8,28.8,21.9,28.9,22
				L28.9,22z"/>
			<g>
				<path d="M29.1,22.3c-0.1,0-0.2-0.1-0.3-0.1c-0.1-0.1-0.3-0.2-0.3-0.3c0,0,0,0,0,0h0c0,0,0.1,0.1,0.2,0.3
					C29,22.2,29.1,22.2,29.1,22.3L29.1,22.3L29.1,22.3c0-0.1-0.1-0.2-0.2-0.3c-0.1-0.1-0.2-0.1-0.3-0.1c0.1,0,0.2,0.1,0.3,0.1
					C29.1,22.1,29.2,22.2,29.1,22.3L29.1,22.3L29.1,22.3z"/>
			</g>
			<path class="st5" d="M29,21.9c0.1,0.1,0.2,0.3,0.2,0.3c0,0-0.2-0.1-0.3-0.2c-0.1-0.1-0.2-0.3-0.2-0.3
				C28.8,21.7,28.9,21.8,29,21.9L29,21.9z"/>
			<g>
				<path d="M29.2,22.3c0,0-0.2-0.1-0.3-0.2c-0.1-0.1-0.2-0.3-0.2-0.3c0.1,0,0.2,0.1,0.3,0.2C29.2,22.1,29.3,22.2,29.2,22.3
					L29.2,22.3L29.2,22.3z M28.8,21.7c0,0,0,0.2,0.2,0.3c0.1,0.1,0.2,0.2,0.3,0.2v0l0,0c0,0,0-0.2-0.2-0.3
					C28.9,21.8,28.8,21.7,28.8,21.7L28.8,21.7z"/>
			</g>
			<path class="st5" d="M29.2,22.2c0,0-0.1,0.1-0.1,0.1c0,0,0,0-0.1,0c-0.1,0-0.1,0.1-0.1,0.1c0,0,0,0,0.1,0c0.1,0,0.1-0.1,0.1-0.1
				C29.1,22.3,29.2,22.3,29.2,22.2c0,0,0.1-0.1,0.1-0.1c0,0,0.1-0.1,0.2-0.2c0-0.1,0-0.1,0-0.1c0,0-0.1,0.1-0.1,0.1c0,0,0,0.1,0,0.1
				C29.3,22.1,29.2,22.2,29.2,22.2L29.2,22.2z"/>
			<g>
				<path d="M28.9,22.5L28.9,22.5c0-0.1,0-0.1,0.1-0.2l0.1,0c0,0,0.1-0.1,0.1-0.1l0.1-0.1l0,0l0-0.1c0,0,0.1-0.1,0.1-0.1l0,0.1
					c0,0-0.1,0.1-0.1,0.1l-0.1,0.1c0,0,0,0.1-0.1,0.1c0,0-0.1,0-0.1,0.1C29,22.4,29,22.4,28.9,22.5L28.9,22.5L28.9,22.5z"/>
			</g>
			<path class="st5" d="M29.9,22.5c0,0.3,0,0.5-0.1,0.5c-0.1,0-0.1-0.2-0.1-0.5c0-0.3,0-0.5,0.1-0.5C29.9,22,29.9,22.2,29.9,22.5
				L29.9,22.5z"/>
			<g>
				<path d="M29.8,23L29.8,23c-0.1,0-0.1-0.3-0.1-0.5c0-0.2,0-0.4,0.1-0.5c0,0,0,0,0,0c-0.1,0.1-0.1,0.2-0.1,0.5
					C29.7,22.7,29.8,22.9,29.8,23L29.8,23L29.8,23c0.1-0.1,0.1-0.3,0.1-0.5c0-0.2,0-0.4-0.1-0.4c0.1,0.1,0.1,0.3,0.1,0.4
					C30,22.7,29.9,22.9,29.8,23L29.8,23L29.8,23z"/>
			</g>
			<path class="st5" d="M29.8,22.5c0.1,0.3,0.1,0.5,0,0.5c-0.1,0-0.2-0.2-0.2-0.5c-0.1-0.3-0.1-0.5,0-0.5
				C29.7,22,29.8,22.2,29.8,22.5L29.8,22.5z"/>
			<g>
				<path d="M29.8,23c-0.1,0-0.2-0.3-0.2-0.5c-0.1-0.2-0.1-0.5,0-0.5c0,0,0,0,0,0c-0.1,0.1,0,0.3,0,0.5C29.7,22.8,29.8,23,29.8,23
					L29.8,23L29.8,23c0.1-0.1,0-0.3,0-0.5c0-0.2-0.1-0.4-0.2-0.5c0.1,0.1,0.1,0.3,0.2,0.5C29.9,22.7,29.9,22.9,29.8,23L29.8,23
					L29.8,23z"/>
			</g>
			<path class="st5" d="M29.4,22.6c0.2,0.1,0.4,0.3,0.4,0.4c0,0.1-0.2,0-0.4-0.2c-0.2-0.1-0.4-0.3-0.4-0.4
				C29,22.4,29.2,22.5,29.4,22.6L29.4,22.6z"/>
			<g>
				<path d="M29.7,23c-0.1,0-0.2-0.1-0.4-0.2c-0.2-0.2-0.4-0.3-0.4-0.4c0,0,0,0,0,0c0,0.1,0.1,0.2,0.3,0.4
					C29.5,22.9,29.7,23,29.7,23L29.7,23L29.7,23c0.1-0.1-0.1-0.2-0.3-0.4c-0.1-0.1-0.2-0.1-0.3-0.2c0.1,0,0.2,0.1,0.3,0.1
					C29.7,22.8,29.8,22.9,29.7,23L29.7,23L29.7,23z"/>
			</g>
			<path class="st5" d="M29.5,22.5c0.2,0.2,0.3,0.4,0.3,0.5c0,0-0.2-0.1-0.4-0.3c-0.2-0.2-0.3-0.4-0.3-0.5
				C29.2,22.1,29.3,22.3,29.5,22.5L29.5,22.5z"/>
			<g>
				<path d="M29.7,23c-0.1,0-0.2-0.1-0.4-0.3c-0.2-0.2-0.3-0.4-0.3-0.5c0.1,0,0.3,0.1,0.4,0.3C29.7,22.7,29.8,22.9,29.7,23L29.7,23
					L29.7,23z M29.1,22.2c0,0,0,0.2,0.2,0.5c0.2,0.2,0.3,0.3,0.4,0.3v0l0,0c0,0-0.1-0.2-0.3-0.5C29.4,22.3,29.2,22.2,29.1,22.2
					L29.1,22.2z"/>
			</g>
			<path class="st5" d="M29.7,22.5c0.1,0.3,0.2,0.5,0.2,0.5c0,0-0.2-0.2-0.3-0.4c-0.1-0.3-0.2-0.5-0.2-0.5
				C29.4,22,29.5,22.2,29.7,22.5L29.7,22.5z"/>
			<g>
				<path d="M29.8,23c-0.1,0-0.2-0.2-0.3-0.4c-0.1-0.2-0.2-0.5-0.2-0.5c0.1,0,0.2,0.2,0.3,0.4C29.8,22.7,29.9,23,29.8,23L29.8,23
					L29.8,23z M29.3,22.1c-0.1,0,0,0.2,0.2,0.5c0.1,0.3,0.3,0.4,0.3,0.4v0l0,0c0,0,0-0.2-0.2-0.5C29.5,22.2,29.4,22.1,29.3,22.1
					L29.3,22.1z"/>
			</g>
			<path class="st5" d="M29.8,23c0,0-0.1,0-0.2,0c0,0-0.1-0.1-0.2,0c-0.1,0-0.2,0.1-0.2,0.1c0,0,0,0.1,0.1,0.1
				c0.1,0,0.2-0.1,0.2-0.1C29.7,23,29.8,23,29.8,23c0,0,0.1-0.1,0.2-0.1c0,0,0.2-0.1,0.3-0.2c0.1-0.1,0.1-0.2,0-0.1
				c-0.1,0-0.2,0.1-0.2,0.1c0,0.1,0,0.1-0.1,0.2C29.9,22.9,29.8,23,29.8,23L29.8,23z"/>
			<g>
				<path d="M29.3,23.2L29.3,23.2C29.3,23.1,29.3,23.1,29.3,23.2L29.3,23.2L29.3,23.2c0.1,0,0.2-0.1,0.2-0.1
					c0.1-0.1,0.2-0.1,0.3-0.1c0,0,0.1-0.1,0.1-0.1c0.1-0.1,0.1-0.1,0.1-0.1c0.1,0,0.1-0.1,0.2-0.1c0,0,0-0.1,0-0.1c0,0,0,0.1,0,0.1
					c0,0.1-0.1,0.1-0.2,0.1c0,0-0.1,0-0.1,0.1c-0.1,0.1-0.1,0.1-0.2,0.2c-0.1,0-0.1,0-0.2,0C29.5,23.1,29.5,23.2,29.3,23.2
					L29.3,23.2L29.3,23.2z M29.3,23.1c0-0.1,0.1-0.1,0.2-0.1l0.1,0c0.1,0,0.2,0,0.2,0l0.2-0.1c0,0,0-0.1,0-0.1c0,0,0-0.1,0-0.1
					c0-0.1,0.1-0.1,0.2-0.1c0,0,0,0,0,0c-0.1,0-0.2,0.1-0.2,0.1c0,0,0,0.1,0,0.1c0,0,0,0.1,0,0.1L29.8,23c0,0-0.2,0-0.2,0l-0.1,0
					C29.4,23,29.3,23.1,29.3,23.1L29.3,23.1z"/>
			</g>
			<path class="st5" d="M30.3,23.5c0,0.3-0.1,0.5-0.2,0.4c-0.1,0-0.1-0.3,0-0.5c0-0.3,0.1-0.5,0.2-0.4C30.4,23,30.4,23.2,30.3,23.5
				L30.3,23.5z"/>
			<g>
				<path d="M30.2,23.9L30.2,23.9c-0.1,0-0.1-0.3,0-0.5c0-0.2,0.1-0.4,0.2-0.4c0.1,0,0.1,0.3,0,0.5C30.3,23.7,30.2,23.9,30.2,23.9
					L30.2,23.9z M30.3,23c-0.1,0-0.1,0.2-0.2,0.4c0,0.3,0,0.5,0,0.5l0,0c0,0,0.1-0.2,0.2-0.4C30.4,23.2,30.4,23,30.3,23L30.3,23
					L30.3,23z"/>
			</g>
			<path class="st5" d="M30.2,23.5c0,0.3,0,0.5-0.1,0.5c-0.1,0-0.1-0.2-0.1-0.5c0-0.3,0-0.5,0.1-0.5C30.2,22.9,30.2,23.2,30.2,23.5
				L30.2,23.5z"/>
			<g>
				<path d="M30.1,24L30.1,24c-0.1,0-0.1-0.3-0.1-0.5c0-0.2,0-0.4,0.1-0.5h0c0,0,0,0,0,0C30,23,30,23.2,30,23.4
					C30,23.7,30.1,24,30.1,24L30.1,24c0.1-0.1,0.1-0.3,0.1-0.5c0-0.2,0-0.4-0.1-0.5c0.1,0.1,0.1,0.3,0.1,0.5
					C30.2,23.7,30.2,23.9,30.1,24L30.1,24L30.1,24z"/>
			</g>
			<path class="st5" d="M29.8,23.5c0.2,0.2,0.3,0.4,0.3,0.4c0,0.1-0.2,0-0.4-0.2c-0.2-0.2-0.3-0.4-0.3-0.4
				C29.5,23.2,29.6,23.3,29.8,23.5L29.8,23.5z"/>
			<g>
				<path d="M30.1,24c-0.1,0-0.2-0.1-0.4-0.3c-0.2-0.2-0.3-0.4-0.3-0.5c0,0,0,0,0,0c0,0.1,0.1,0.3,0.3,0.4C29.9,23.9,30,24,30.1,24
					L30.1,24L30.1,24c0.1-0.1-0.1-0.3-0.3-0.5c-0.1-0.1-0.2-0.2-0.3-0.2c0.1,0,0.2,0.1,0.3,0.2C30,23.7,30.1,23.9,30.1,24L30.1,24
					L30.1,24z"/>
			</g>
			<path class="st5" d="M29.9,23.4c0.1,0.3,0.2,0.5,0.2,0.5c0,0-0.2-0.1-0.3-0.4c-0.1-0.3-0.2-0.5-0.2-0.5
				C29.6,23,29.8,23.2,29.9,23.4L29.9,23.4z"/>
			<g>
				<path d="M30.1,23.9c-0.1,0-0.2-0.2-0.3-0.4c-0.1-0.2-0.2-0.5-0.2-0.5c0.1,0,0.2,0.2,0.3,0.4C30,23.6,30.1,23.9,30.1,23.9
					L30.1,23.9L30.1,23.9z M29.6,23c-0.1,0,0,0.2,0.2,0.5c0.1,0.2,0.3,0.4,0.3,0.4v0l0,0c0,0,0-0.2-0.2-0.5
					C29.8,23.2,29.7,23,29.6,23L29.6,23z"/>
			</g>
			<path class="st5" d="M30.1,23.4c0.1,0.3,0.1,0.5,0.1,0.5c-0.1,0-0.2-0.2-0.3-0.5c-0.1-0.3-0.1-0.5-0.1-0.5
				C29.9,22.9,30,23.1,30.1,23.4L30.1,23.4z"/>
			<g>
				<path d="M30.1,24c-0.1,0-0.2-0.2-0.3-0.5c-0.1-0.2-0.1-0.5-0.1-0.5h0c0.1,0,0.2,0.2,0.3,0.5C30.2,23.7,30.2,23.9,30.1,24
					L30.1,24L30.1,24z M29.8,23c0,0,0,0.2,0.1,0.5c0.1,0.3,0.2,0.5,0.2,0.5v0l0,0c0,0,0-0.2-0.1-0.5C30,23.1,29.9,23,29.8,23
					L29.8,23z"/>
			</g>
			<path class="st5" d="M30.1,24c0,0-0.1,0-0.2,0c0,0,0-0.1-0.1-0.1c-0.1,0-0.2,0-0.2,0.1c0,0,0,0.1,0.1,0.1c0.1,0,0.2-0.1,0.2-0.1
				C30,24,30.1,24,30.1,24c0,0,0.1-0.1,0.2-0.1c0.1,0,0.2-0.1,0.3-0.1c0.1-0.1,0.1-0.1,0-0.1c-0.1,0-0.2,0-0.2,0.1
				c-0.1,0-0.1,0.1-0.1,0.2C30.2,23.9,30.1,24,30.1,24L30.1,24z"/>
			<g>
				<path d="M29.9,24l0.1,0c0,0,0,0,0,0L29.9,24c0-0.1-0.1-0.1-0.1-0.1l0,0c-0.1,0-0.1,0-0.2,0.1C29.7,23.8,29.9,23.9,29.9,24l0.1,0
					c0.1,0,0.1,0,0.2-0.1c0.1-0.1,0.1-0.1,0.1-0.1c0,0,0-0.1,0.1-0.1c0.1,0,0.2-0.1,0.2-0.1c0,0,0,0,0,0c-0.1,0-0.2,0-0.2,0.1
					c0,0,0,0.1-0.1,0.1c0,0,0,0.1-0.1,0.1l-0.1,0.1c0,0,0,0,0,0c0,0,0,0,0.1,0c0.1-0.1,0.1-0.1,0.2-0.1c0.1,0,0.2,0,0.2-0.1
					c0,0,0.1-0.1,0.1-0.1c0,0,0,0.1-0.1,0.1c-0.1,0-0.1,0.1-0.2,0.1c0,0-0.1,0-0.1,0c-0.1,0.1-0.2,0.1-0.2,0.1L29.9,24L29.9,24z"/>
			</g>
			<path class="st5" d="M30.4,24.6c-0.1,0.2-0.3,0.4-0.3,0.3c0,0,0-0.3,0.2-0.5c0.1-0.2,0.3-0.4,0.3-0.3
				C30.6,24.1,30.5,24.4,30.4,24.6L30.4,24.6z"/>
			<g>
				<path d="M30,25L30,25c-0.1-0.1,0-0.3,0.2-0.5c0.1-0.2,0.3-0.3,0.3-0.3c0,0,0,0,0,0c-0.1,0-0.2,0.1-0.3,0.3
					C30.1,24.7,30,24.9,30,25L30,25c0.1,0,0.2-0.1,0.3-0.4c0.1-0.2,0.2-0.4,0.2-0.5c0,0.1-0.1,0.3-0.2,0.5C30.2,24.8,30.1,25,30,25
					L30,25z"/>
			</g>
			<path class="st5" d="M30.3,24.5C30.2,24.8,30,25,30,25c0,0,0-0.3,0.1-0.5c0.1-0.3,0.2-0.5,0.3-0.4C30.4,24,30.4,24.3,30.3,24.5
				L30.3,24.5z"/>
			<g>
				<path d="M30,25L30,25c-0.1,0,0-0.3,0.1-0.6c0.1-0.3,0.2-0.4,0.3-0.4c0.1,0,0,0.3-0.1,0.6C30.2,24.8,30.1,25,30,25L30,25z
					 M30.4,24c-0.1,0-0.2,0.2-0.3,0.4C30,24.7,29.9,24.9,30,25l0,0c0,0,0.2-0.2,0.3-0.4C30.4,24.2,30.4,24,30.4,24L30.4,24L30.4,24z
					"/>
			</g>
			<path class="st5" d="M29.9,24.4c0.1,0.3,0.1,0.5,0.1,0.5c-0.1,0-0.2-0.1-0.3-0.4c-0.1-0.3-0.1-0.5-0.1-0.5
				C29.7,24,29.8,24.2,29.9,24.4L29.9,24.4z"/>
			<g>
				<path d="M30,24.9c-0.1,0-0.2-0.2-0.3-0.4c-0.1-0.3-0.1-0.5-0.1-0.5h0c0.1,0,0.2,0.2,0.3,0.4C30,24.7,30,24.9,30,24.9L30,24.9
					L30,24.9z M29.6,24c-0.1,0,0,0.3,0.1,0.5c0.1,0.3,0.2,0.4,0.2,0.4v0l0,0c0,0,0-0.3-0.1-0.5C29.8,24.2,29.7,24,29.6,24L29.6,24z"
					/>
			</g>
			<path class="st5" d="M30,24.4c0,0.3,0,0.5-0.1,0.6c-0.1,0-0.1-0.2-0.1-0.5c0-0.3,0-0.5,0.1-0.6C29.9,23.8,30,24.1,30,24.4
				L30,24.4z"/>
			<g>
				<path d="M30,24.9c-0.1,0-0.1-0.3-0.2-0.5c0-0.3,0-0.5,0.1-0.6h0c0.1,0,0.1,0.3,0.2,0.5C30,24.6,30,24.9,30,24.9L30,24.9L30,24.9
					z M29.9,23.9c-0.1,0-0.1,0.2-0.1,0.5c0,0.3,0.1,0.5,0.1,0.5v0l0,0c0,0,0.1-0.2,0-0.5C30,24.1,29.9,23.9,29.9,23.9L29.9,23.9z"/>
			</g>
			<path class="st5" d="M30.1,24.4c0,0.3-0.1,0.5-0.2,0.5c-0.1,0-0.1-0.2-0.1-0.5c0-0.3,0.1-0.5,0.2-0.5
				C30.2,23.9,30.2,24.1,30.1,24.4L30.1,24.4z"/>
			<g>
				<path d="M30,25L30,25c-0.1-0.1-0.1-0.3-0.1-0.6c0-0.3,0.1-0.5,0.2-0.5c0.1,0.1,0.1,0.3,0.1,0.6C30.1,24.7,30.1,25,30,25L30,25z
					 M30.1,23.9c-0.1,0-0.1,0.2-0.2,0.5c0,0.2,0,0.5,0,0.5l0,0l0,0c0,0,0.1-0.2,0.1-0.5C30.2,24.2,30.2,24,30.1,23.9L30.1,23.9
					L30.1,23.9z"/>
			</g>
			<path class="st5" d="M30,24.9c0,0-0.1-0.1-0.2-0.1c0,0,0-0.1-0.1-0.1c-0.1,0-0.2,0-0.2,0c0,0,0,0.1,0.1,0.1c0.1,0.1,0.2,0,0.2,0
				C29.8,24.9,29.9,24.9,30,24.9c0,0,0.2,0,0.2,0c0.1,0,0.2,0,0.3,0c0.1,0,0.1-0.1,0.1-0.1c-0.1,0-0.2,0-0.2,0
				c-0.1,0-0.1,0.1-0.2,0.1C30.1,24.9,30,24.9,30,24.9L30,24.9z"/>
			<g>
				<path d="M30,25L30,25c0,0-0.1-0.1-0.2-0.1C29.9,24.9,29.9,24.9,30,25c0,0,0.1,0,0.2,0l0.2,0c0,0,0.1,0,0.1,0
					c0.1,0,0.2,0,0.2-0.1c0,0,0,0.1-0.1,0.1c-0.1,0-0.2,0-0.2,0l-0.1,0C30.1,25,30,25,30,25L30,25L30,25z M30,24.9
					c0,0-0.2-0.1-0.2-0.1c0-0.1,0-0.1-0.1-0.1c-0.1,0-0.1,0-0.1,0l-0.1,0c0,0,0,0.1,0.1,0.1c0.1,0,0.1,0,0.1,0c0,0,0.1,0,0.1,0
					c-0.1,0-0.2,0-0.2,0c-0.1,0-0.1-0.1-0.1-0.1l0.1-0.1c0,0,0.1,0,0.1,0c0.1,0,0.1,0.1,0.1,0.1C29.8,24.9,30,24.9,30,24.9
					c0,0,0.1,0,0.1,0c0.1,0,0.2,0,0.2-0.1c0,0,0.1,0,0.1-0.1c0.1,0,0.2,0,0.2,0c0,0,0,0,0,0c-0.1-0.1-0.2,0-0.3,0
					c-0.1,0.1-0.1,0.1-0.2,0.1C30,24.9,30,24.9,30,24.9L30,24.9z"/>
			</g>
			<path class="st5" d="M30.1,25.7c-0.2,0.2-0.5,0.3-0.5,0.2c0-0.1,0.1-0.3,0.4-0.5c0.2-0.2,0.5-0.3,0.5-0.2
				C30.5,25.3,30.3,25.5,30.1,25.7L30.1,25.7z"/>
			<g>
				<path d="M29.6,26L29.6,26c-0.1-0.1,0.1-0.3,0.3-0.5c0.2-0.2,0.4-0.3,0.4-0.3c0,0,0,0,0,0c-0.1,0-0.3,0.1-0.5,0.2
					C29.7,25.7,29.6,25.9,29.6,26L29.6,26c0.1,0,0.3-0.1,0.4-0.3c0.2-0.1,0.3-0.3,0.3-0.4c-0.1,0.1-0.2,0.2-0.3,0.4
					C29.9,25.9,29.7,26,29.6,26L29.6,26z"/>
			</g>
			<path class="st5" d="M30,25.6c-0.2,0.3-0.4,0.4-0.4,0.4c0-0.1,0.1-0.3,0.3-0.6c0.2-0.3,0.4-0.4,0.4-0.4
				C30.3,25.1,30.2,25.4,30,25.6L30,25.6z"/>
			<g>
				<path d="M29.6,26L29.6,26c-0.1-0.1,0.1-0.4,0.3-0.6c0.2-0.2,0.4-0.4,0.4-0.4c0,0,0,0,0,0h0c-0.1,0-0.3,0.2-0.4,0.4
					C29.6,25.7,29.5,25.9,29.6,26L29.6,26c0.1,0,0.2-0.2,0.4-0.4c0.2-0.2,0.3-0.4,0.3-0.5c0,0.1-0.1,0.3-0.3,0.5
					C29.8,25.8,29.6,26,29.6,26L29.6,26z"/>
			</g>
			<path class="st5" d="M29.6,25.3c0,0.3,0,0.6-0.1,0.6c-0.1,0-0.1-0.2-0.2-0.5c0-0.3,0-0.6,0.1-0.6C29.5,24.8,29.6,25,29.6,25.3
				L29.6,25.3z"/>
			<g>
				<path d="M29.5,26c-0.1,0-0.1-0.2-0.2-0.5c0-0.3,0-0.6,0.1-0.6h0c0.1,0,0.2,0.3,0.2,0.5C29.6,25.7,29.6,25.9,29.5,26L29.5,26
					L29.5,26z M29.4,24.8c-0.1,0-0.1,0.3-0.1,0.6c0,0.3,0.1,0.5,0.2,0.5v0l0,0c0.1,0,0.1-0.3,0.1-0.6C29.6,25,29.5,24.8,29.4,24.8
					L29.4,24.8z"/>
			</g>
			<path class="st5" d="M29.8,25.3c-0.1,0.3-0.2,0.6-0.2,0.6c-0.1,0-0.1-0.3,0-0.6c0.1-0.3,0.2-0.6,0.2-0.6
				C29.8,24.7,29.8,25,29.8,25.3L29.8,25.3z"/>
			<g>
				<path d="M29.5,25.9L29.5,25.9c-0.1-0.1-0.1-0.3,0-0.6c0.1-0.3,0.2-0.6,0.2-0.6c0,0,0,0,0,0c0,0-0.2,0.2-0.3,0.6
					C29.5,25.6,29.5,25.9,29.5,25.9L29.5,25.9L29.5,25.9c0.1,0,0.2-0.2,0.2-0.6c0-0.2,0.1-0.4,0-0.5c0,0.1,0,0.3,0,0.5
					C29.7,25.6,29.6,25.9,29.5,25.9L29.5,25.9z"/>
			</g>
			<path class="st5" d="M29.9,25.5c-0.1,0.3-0.3,0.6-0.3,0.5c-0.1,0,0-0.3,0.1-0.6c0.1-0.3,0.3-0.6,0.3-0.5
				C30.1,24.9,30,25.2,29.9,25.5L29.9,25.5z"/>
			<g>
				<path d="M29.5,26L29.5,26c-0.1-0.1,0-0.3,0.1-0.6c0.1-0.3,0.3-0.5,0.3-0.5c0.1,0,0,0.3-0.1,0.6C29.8,25.8,29.6,26,29.5,26
					L29.5,26z M30,24.9c-0.1,0-0.2,0.2-0.3,0.5c-0.1,0.3-0.2,0.5-0.1,0.6l0,0c0.1,0,0.2-0.2,0.3-0.5C30,25.1,30,24.9,30,24.9
					L30,24.9L30,24.9z"/>
			</g>
			<path class="st5" d="M29.5,26c0,0-0.1-0.1-0.2-0.1c0,0,0-0.1-0.1-0.2c-0.1-0.1-0.2-0.1-0.3-0.1c-0.1,0-0.1,0.1,0,0.2
				c0.1,0.1,0.2,0.1,0.2,0.1C29.4,25.9,29.5,25.9,29.5,26c0,0,0.2,0.1,0.2,0.1c0.1,0,0.2,0.1,0.4,0.1c0.1,0,0.2-0.1,0.1-0.1
				c-0.1,0-0.2-0.1-0.3-0.1c-0.1,0-0.2,0.1-0.2,0.1C29.7,26,29.5,26,29.5,26L29.5,26z"/>
			<g>
				<path d="M30.1,26.2L30.1,26.2c-0.1,0-0.2,0-0.3-0.1c0,0-0.1,0-0.1,0c-0.1,0-0.2,0-0.3,0c0,0-0.1-0.1-0.2-0.2
					c0.1,0.1,0.2,0.1,0.2,0.2c0,0,0.1,0,0.2,0c0.1,0,0.1,0,0.2,0.1C30,26.1,30,26.1,30.1,26.2L30.1,26.2L30.1,26.2c0,0,0.1,0,0.1,0
					C30.2,26.1,30.2,26.2,30.1,26.2L30.1,26.2z M30.3,26.1C30.2,26,30.1,26,30,26c-0.1,0-0.1,0-0.1,0c0,0-0.1,0-0.1,0l-0.1,0
					c-0.1,0-0.1,0-0.1,0c0,0-0.1-0.1-0.2-0.1c0-0.1,0-0.1-0.1-0.2c-0.1-0.1-0.1-0.1-0.2-0.1c0.1,0,0.1,0,0.2,0.1
					c0.1,0.1,0.1,0.1,0.1,0.1c0,0.1,0.2,0.2,0.2,0.2c0,0,0.1,0,0.1,0c0,0,0.1,0,0.1,0c0.1,0,0.1,0,0.1,0c0,0,0.1,0,0.1,0
					C30.1,25.9,30.2,26,30.3,26.1C30.3,26.1,30.3,26.1,30.3,26.1L30.3,26.1z"/>
			</g>
			<path class="st5" d="M29.3,26.7c-0.3,0.1-0.6,0-0.6,0c0-0.1,0.3-0.2,0.6-0.3c0.3-0.1,0.6,0,0.6,0C29.9,26.6,29.6,26.7,29.3,26.7
				L29.3,26.7z"/>
			<g>
				<path d="M28.9,26.8c-0.1,0-0.2,0-0.3-0.1c0,0,0,0,0,0c0.1,0.1,0.3,0.1,0.6,0c0.2,0,0.5-0.1,0.6-0.2c-0.1,0.1-0.3,0.1-0.6,0.2
					C29.2,26.8,29,26.8,28.9,26.8L28.9,26.8z M28.8,26.6c0.1-0.1,0.3-0.1,0.6-0.2c0.3-0.1,0.5,0,0.6,0c0,0,0,0,0,0
					c-0.1-0.1-0.3-0.1-0.6,0C29.1,26.5,28.9,26.5,28.8,26.6L28.8,26.6z"/>
			</g>
			<path class="st5" d="M29.3,26.6c-0.3,0.1-0.6,0.2-0.6,0.1c0-0.1,0.2-0.2,0.6-0.4c0.3-0.1,0.6-0.2,0.6-0.1
				C29.9,26.3,29.6,26.4,29.3,26.6L29.3,26.6z"/>
			<g>
				<path d="M28.7,26.7c-0.1,0-0.1,0-0.1,0c0-0.1,0.2-0.2,0.6-0.4c0.3-0.1,0.6-0.2,0.6-0.1c0,0.1-0.2,0.2-0.6,0.4
					C29.1,26.7,28.9,26.7,28.7,26.7L28.7,26.7z M29.7,26.2c-0.2,0-0.3,0-0.5,0.1c-0.4,0.1-0.6,0.3-0.6,0.4l0.1,0
					c0.1,0,0.3-0.1,0.5-0.1c0.4-0.1,0.6-0.3,0.6-0.4C29.8,26.2,29.8,26.2,29.7,26.2L29.7,26.2z"/>
			</g>
			<path class="st5" d="M29.1,26.1c-0.1,0.3-0.3,0.6-0.4,0.5c-0.1,0,0-0.3,0.1-0.6c0.1-0.3,0.3-0.6,0.4-0.5
				C29.3,25.5,29.2,25.8,29.1,26.1L29.1,26.1z"/>
			<g>
				<path d="M28.7,26.6L28.7,26.6C28.6,26.6,28.6,26.6,28.7,26.6L28.7,26.6c0.1,0,0.3-0.3,0.4-0.5c0.1-0.2,0.1-0.3,0.2-0.4
					c0,0.1-0.1,0.3-0.1,0.5C28.9,26.4,28.7,26.6,28.7,26.6L28.7,26.6z M28.6,26.5c0-0.1,0.1-0.3,0.1-0.5c0.1-0.3,0.3-0.5,0.4-0.5
					c0,0,0,0,0,0h0c-0.1,0-0.3,0.2-0.4,0.5C28.7,26.2,28.6,26.4,28.6,26.5L28.6,26.5z"/>
			</g>
			<path class="st5" d="M29.2,26.2c-0.2,0.3-0.5,0.5-0.6,0.4c-0.1,0,0.1-0.3,0.3-0.6c0.2-0.3,0.5-0.5,0.6-0.4
				C29.6,25.6,29.5,25.9,29.2,26.2L29.2,26.2z"/>
			<g>
				<path d="M28.7,26.6L28.7,26.6C28.6,26.6,28.6,26.6,28.7,26.6L28.7,26.6c0.1,0,0.3-0.2,0.5-0.4c0.1-0.1,0.2-0.3,0.3-0.4
					c0,0.1-0.2,0.3-0.3,0.4C29,26.4,28.8,26.6,28.7,26.6L28.7,26.6z M28.7,26.5c0-0.1,0.2-0.3,0.3-0.5c0.2-0.2,0.4-0.4,0.5-0.4
					c0,0,0,0,0,0h0c-0.1,0-0.3,0.2-0.5,0.4C28.8,26.2,28.7,26.4,28.7,26.5L28.7,26.5z"/>
			</g>
			<path class="st5" d="M29.3,26.4c-0.3,0.2-0.6,0.4-0.6,0.3c0-0.1,0.2-0.3,0.5-0.5c0.3-0.2,0.6-0.4,0.6-0.3
				C29.8,25.9,29.6,26.1,29.3,26.4L29.3,26.4z"/>
			<g>
				<path d="M28.7,26.7L28.7,26.7C28.6,26.7,28.6,26.6,28.7,26.7C28.6,26.6,28.6,26.6,28.7,26.7L28.7,26.7c0.1,0,0.3-0.1,0.6-0.3
					c0.1-0.1,0.3-0.2,0.4-0.3c0.1-0.1,0.1-0.1,0.1-0.1c0,0,0,0.1-0.1,0.1c-0.1,0.1-0.2,0.2-0.4,0.3C29,26.6,28.8,26.7,28.7,26.7
					L28.7,26.7z M28.6,26.6c0.1-0.1,0.2-0.3,0.4-0.5c0.2-0.2,0.5-0.3,0.6-0.3c0,0,0,0,0,0c-0.1,0-0.4,0.1-0.6,0.3
					C28.9,26.3,28.7,26.5,28.6,26.6L28.6,26.6z"/>
			</g>
			<path class="st5" d="M28.6,26.6c0,0-0.1-0.2-0.1-0.2c0,0,0.1-0.1,0-0.2c0-0.1-0.1-0.2-0.2-0.2c-0.1,0-0.1,0-0.1,0.2
				c0,0.1,0.1,0.2,0.2,0.3C28.6,26.5,28.6,26.6,28.6,26.6c0,0,0.1,0.1,0.2,0.2c0.1,0.1,0.2,0.2,0.3,0.3c0.1,0.1,0.2,0.1,0.2,0
				c0-0.1-0.1-0.2-0.2-0.2c-0.1-0.1-0.2,0-0.3-0.1C28.8,26.8,28.6,26.6,28.6,26.6L28.6,26.6z"/>
			<g>
				<path d="M29.3,27.2c0,0-0.1,0-0.1,0C29,27.1,29,27,28.9,26.9c0,0-0.1-0.1-0.1-0.1c-0.1-0.1-0.2-0.2-0.2-0.2
					c0-0.1-0.1-0.2-0.1-0.3c0.1,0.1,0.1,0.2,0.1,0.2c0,0,0.1,0.1,0.2,0.1c0.1,0.1,0.1,0.1,0.2,0.2c0.1,0.1,0.1,0.2,0.2,0.2
					C29.2,27.2,29.2,27.2,29.3,27.2L29.3,27.2L29.3,27.2L29.3,27.2L29.3,27.2z M29.3,27.2c0-0.1-0.1-0.2-0.2-0.3c0,0-0.1,0-0.1,0
					c0,0-0.1,0-0.1,0l-0.1-0.1c-0.1-0.1-0.1-0.1-0.1-0.1h0c0,0-0.1-0.2-0.1-0.2c0-0.1,0.1-0.1,0-0.2c0-0.1-0.1-0.1-0.1-0.2
					c0.1,0,0.1,0.1,0.1,0.2c0,0.1,0,0.1,0,0.2c0,0.1,0.1,0.3,0.1,0.3c0,0,0.1,0.1,0.1,0.1l0.1,0.1c0,0,0.1,0,0.1,0c0,0,0.1,0,0.1,0
					C29.2,26.9,29.3,27,29.3,27.2L29.3,27.2L29.3,27.2z M28.5,26.4c-0.1-0.1-0.1-0.2-0.2-0.3c0-0.1,0-0.1,0-0.2c0,0,0,0,0,0
					c-0.1,0,0,0.1,0,0.2C28.4,26.2,28.4,26.3,28.5,26.4C28.5,26.3,28.5,26.4,28.5,26.4L28.5,26.4z"/>
			</g>
			<path class="st5" d="M28.3,27.3c-0.3,0-0.6-0.1-0.6-0.2c0-0.1,0.3-0.2,0.6-0.2c0.3,0,0.6,0.1,0.6,0.2
				C28.9,27.2,28.6,27.3,28.3,27.3L28.3,27.3z"/>
			<g>
				<path d="M28.2,27.3c-0.3,0-0.5,0-0.6-0.1c0,0,0,0,0,0C27.8,27.2,28,27.3,28.2,27.3L28.2,27.3L28.2,27.3c0.4,0,0.7-0.1,0.7-0.2
					c0-0.1-0.3-0.2-0.6-0.2c-0.2,0-0.4,0-0.6,0.1c0.1-0.1,0.3-0.1,0.5-0.1h0c0.4,0,0.6,0.1,0.6,0.2C28.9,27.2,28.6,27.3,28.2,27.3
					L28.2,27.3L28.2,27.3z"/>
			</g>
			<path class="st5" d="M28.2,26.7c-0.2,0.3-0.5,0.5-0.5,0.4c-0.1-0.1,0-0.3,0.3-0.6c0.2-0.3,0.5-0.5,0.5-0.4
				C28.5,26.1,28.4,26.4,28.2,26.7L28.2,26.7z"/>
			<g>
				<path d="M27.7,27.1L27.7,27.1c-0.1-0.1,0-0.4,0.2-0.7c0.2-0.2,0.4-0.4,0.5-0.4c0,0,0,0,0,0c-0.1,0-0.3,0.2-0.5,0.4
					C27.7,26.8,27.6,27.1,27.7,27.1L27.7,27.1c0.1,0,0.3-0.2,0.5-0.4c0.1-0.2,0.2-0.4,0.3-0.5c0,0.1-0.1,0.3-0.3,0.5
					C28,27,27.8,27.1,27.7,27.1L27.7,27.1z"/>
			</g>
			<path class="st5" d="M28.3,27c-0.3,0.1-0.6,0.2-0.7,0.1c0-0.1,0.2-0.3,0.5-0.4c0.3-0.1,0.6-0.2,0.7-0.1
				C28.8,26.7,28.6,26.9,28.3,27L28.3,27z"/>
			<g>
				<path d="M27.8,27.1c-0.1,0-0.1,0-0.1-0.1c0-0.1,0.2-0.3,0.5-0.4c0.3-0.1,0.6-0.2,0.7-0.1c0,0.1-0.2,0.3-0.5,0.4
					C28.1,27.1,27.9,27.1,27.8,27.1L27.8,27.1z M28.7,26.5c-0.1,0-0.3,0.1-0.5,0.1c-0.3,0.1-0.6,0.3-0.5,0.4c0,0.1,0.3,0,0.6-0.1
					c0.3-0.1,0.6-0.3,0.5-0.4C28.8,26.6,28.7,26.5,28.7,26.5L28.7,26.5z"/>
			</g>
			<path class="st5" d="M28.4,21.5c0.2,0.1,0.3,0.3,0.2,0.3c0,0-0.2-0.1-0.4-0.2c-0.2-0.1-0.3-0.3-0.2-0.3
				C28.1,21.2,28.3,21.3,28.4,21.5L28.4,21.5z"/>
			<g>
				<path d="M28.6,21.8c-0.1,0-0.2-0.1-0.4-0.2c-0.1-0.1-0.2-0.2-0.2-0.3c0,0,0,0,0,0c0,0.1,0.1,0.2,0.2,0.3
					C28.4,21.7,28.6,21.8,28.6,21.8L28.6,21.8L28.6,21.8c0-0.1-0.1-0.2-0.2-0.3c-0.1-0.1-0.2-0.2-0.3-0.2c0.1,0,0.2,0.1,0.3,0.2
					C28.6,21.6,28.7,21.7,28.6,21.8L28.6,21.8L28.6,21.8z"/>
			</g>
			<path class="st5" d="M28.3,21.6c0.2,0,0.4,0.1,0.4,0.1c0,0-0.2,0.1-0.4,0c-0.2,0-0.4-0.1-0.4-0.1C27.9,21.6,28,21.6,28.3,21.6
				L28.3,21.6z"/>
			<g>
				<path d="M28.5,21.8c-0.1,0-0.1,0-0.2,0c-0.2,0-0.4-0.1-0.4-0.1c0.1-0.1,0.2-0.1,0.4,0c0.2,0,0.4,0.1,0.4,0.1
					C28.6,21.8,28.5,21.8,28.5,21.8L28.5,21.8z M28,21.6c-0.1,0-0.1,0-0.2,0c0,0,0.2,0.1,0.4,0.1c0.2,0,0.3,0,0.4,0
					c0,0-0.2-0.1-0.4-0.1C28.2,21.6,28.1,21.6,28,21.6L28,21.6z"/>
			</g>
			<path class="st5" d="M28.3,21.5c0.2,0.1,0.4,0.2,0.3,0.3c0,0-0.2,0-0.4-0.1c-0.2-0.1-0.4-0.2-0.3-0.3
				C27.9,21.4,28.1,21.4,28.3,21.5L28.3,21.5z"/>
			<g>
				<path d="M28.6,21.8c-0.1,0-0.2-0.1-0.4-0.1c-0.2-0.1-0.3-0.2-0.3-0.2c0,0,0,0,0,0c0,0.1,0.1,0.2,0.3,0.2
					C28.4,21.8,28.6,21.8,28.6,21.8L28.6,21.8L28.6,21.8L28.6,21.8L28.6,21.8z M28.7,21.8c0,0-0.1-0.1-0.3-0.2
					c-0.1-0.1-0.2-0.1-0.3-0.1c0.1,0,0.2,0.1,0.3,0.1C28.5,21.6,28.7,21.7,28.7,21.8L28.7,21.8L28.7,21.8z"/>
			</g>
			<path class="st5" d="M25.5,26.7c0,0,0.5,0.1,1,0.3c0.5,0.2,1.2,0.7,1.4,0.8c0.2,0,0.5-0.1,0.6-0.4c-0.3,0.1-0.5,0.2-0.8,0
				c-0.1,0-0.5-0.4-0.9-0.5c-0.4-0.2-1.2-0.4-1.2-0.4L25.5,26.7z"/>
			<g>
				<path d="M27.9,27.7L27.9,27.7c-0.1,0-0.3-0.1-0.5-0.3c-0.3-0.2-0.6-0.4-0.9-0.5c-0.5-0.2-1-0.3-1-0.3l0.1-0.2l0,0
					c0,0,0.8,0.2,1.2,0.4c0.2,0.1,0.5,0.3,0.7,0.4c0.1,0.1,0.2,0.1,0.2,0.1c0.2,0.1,0.4,0.1,0.6,0l0.2-0.1
					C28.3,27.7,28,27.7,27.9,27.7L27.9,27.7z M25.5,26.7c0,0,0.5,0.1,1,0.3c0.3,0.1,0.6,0.3,0.9,0.5c0.2,0.1,0.4,0.3,0.5,0.3l0,0
					c0.1,0,0.5,0,0.6-0.4l-0.2,0.1c-0.2,0.1-0.4,0.1-0.7,0c0,0-0.1-0.1-0.2-0.1c-0.2-0.1-0.4-0.3-0.7-0.4c-0.4-0.2-1.2-0.4-1.2-0.4
					L25.5,26.7L25.5,26.7L25.5,26.7z"/>
			</g>
			<path class="st5" d="M26,21.9c0,0,0.6-0.3,0.6-0.3L26,21.7l-0.1,0.1L26,21.9z"/>
			<g>
				<path d="M26,21.9l-0.1,0l0.1-0.1l0.7-0.2C26.7,21.5,26.1,21.9,26,21.9L26,21.9L26,21.9z M26.7,21.5L26,21.7l-0.1,0.1l0.1,0
					C26.1,21.8,26.2,21.8,26.7,21.5L26.7,21.5z"/>
			</g>
			<path class="st5" d="M26.6,22c-0.2,0-0.6-0.1-0.8-0.1c0.2-0.2,0.4-0.5,0.5-0.7c-0.1,0.2-0.2,0.4-0.3,0.6
				C26.2,21.9,26.4,21.9,26.6,22L26.6,22z"/>
			<g>
				<path d="M26.6,22l-0.2,0c-0.2,0-0.5-0.1-0.7-0.1c0.2-0.2,0.4-0.5,0.5-0.7l-0.1,0.2c-0.1,0.1-0.2,0.3-0.2,0.4
					c0.1,0.1,0.3,0.1,0.4,0.1L26.6,22L26.6,22L26.6,22z M26.3,21.2c-0.1,0.2-0.3,0.5-0.5,0.7c0.2,0,0.4,0.1,0.7,0.1l0.1,0l-0.1,0
					c-0.1,0-0.3-0.1-0.4-0.2c0-0.1,0.1-0.3,0.2-0.4L26.3,21.2L26.3,21.2z"/>
			</g>
			<path class="st5" d="M25.9,21.9c0,0,0.5-0.4,0.5-0.4l-0.6,0.3l-0.1,0.1L25.9,21.9z"/>
			<g>
				<path d="M25.9,21.9l-0.1,0l0-0.1l0.6-0.3C26.5,21.5,26,21.9,25.9,21.9L25.9,21.9L25.9,21.9z M26.5,21.5l-0.6,0.3l-0.1,0.1h0.1
					C26,21.9,26,21.8,26.5,21.5L26.5,21.5z"/>
			</g>
			<path class="st5" d="M26.5,22c-0.2,0-0.6-0.1-0.8-0.1c0.2-0.2,0.4-0.5,0.5-0.7c-0.1,0.2-0.2,0.4-0.3,0.6
				C26.1,21.9,26.3,21.9,26.5,22L26.5,22z"/>
			<g>
				<path d="M26.5,22l-0.2,0c-0.2,0-0.5-0.1-0.6-0.1c0.2-0.2,0.4-0.5,0.5-0.7l0,0c-0.1,0.2-0.3,0.5-0.5,0.7c0.2,0,0.4,0.1,0.6,0.1
					L26.5,22l-0.2-0.1c-0.1,0-0.3-0.1-0.4-0.2c0-0.1,0.1-0.3,0.2-0.4l0.1-0.1l-0.1,0.1c-0.1,0.1-0.2,0.3-0.2,0.4
					c0.1,0.1,0.3,0.1,0.4,0.2L26.5,22L26.5,22L26.5,22z"/>
			</g>
			<path class="st5" d="M25.8,21.9c0,0,0.6-0.3,0.6-0.3l-0.7,0.1l-0.1,0.1L25.8,21.9z"/>
			<g>
				<path d="M25.8,21.9l-0.1,0l0.1-0.1l0.7-0.1C26.3,21.7,25.9,21.9,25.8,21.9L25.8,21.9L25.8,21.9z M26.5,21.7l-0.7,0.1l-0.1,0.1
					l0.1,0C25.9,21.9,26,21.9,26.5,21.7L26.5,21.7z"/>
			</g>
			<path class="st5" d="M26.4,22c-0.2,0-0.6-0.1-0.8-0.1c0.1-0.2,0.3-0.5,0.4-0.7c-0.1,0.2-0.2,0.5-0.2,0.6C26,21.9,26.3,22,26.4,22
				L26.4,22z"/>
			<g>
				<path d="M26.4,22l-0.2,0c-0.2,0-0.4,0-0.6,0l0,0c0.2,0,0.4,0,0.6,0L26.4,22L26.2,22c-0.1,0-0.3-0.1-0.4-0.1
					c0-0.1,0.1-0.3,0.1-0.5l0-0.1l0,0.1c-0.1,0.2-0.1,0.3-0.1,0.5c0.1,0,0.3,0.1,0.4,0.1L26.4,22L26.4,22L26.4,22z M25.7,21.7
					c0.1-0.2,0.2-0.4,0.3-0.5l0,0C25.9,21.4,25.8,21.6,25.7,21.7L25.7,21.7z"/>
			</g>
			<path class="st5" d="M25.8,21.9c0,0,0.4-0.5,0.4-0.5l-0.5,0.4l0,0.1L25.8,21.9z"/>
			<g>
				<path d="M25.6,22l0-0.1l0.6-0.4c-0.1,0.1-0.4,0.5-0.4,0.5L25.6,22L25.6,22z M26.2,21.4l-0.5,0.4l0,0.1l0.1,0
					C25.8,21.9,25.8,21.9,26.2,21.4L26.2,21.4z"/>
			</g>
			<path class="st5" d="M26.4,22c-0.3,0-0.7,0-0.9,0c0.1-0.2,0.3-0.6,0.4-0.8c0,0.2-0.1,0.5-0.2,0.7C25.9,22,26.2,22,26.4,22
				L26.4,22z"/>
			<g>
				<path d="M26.4,22.1l-0.2,0c-0.2,0-0.5,0-0.7,0c0.1-0.2,0.3-0.6,0.4-0.8l0,0c-0.1,0.3-0.2,0.6-0.3,0.8c0.2,0,0.5,0,0.7,0
					L26.4,22.1c-0.1,0-0.2,0-0.2,0c-0.2,0-0.3-0.1-0.5-0.1c0-0.1,0.1-0.3,0.1-0.5l0-0.1l0,0.1c0,0.2-0.1,0.3-0.1,0.5
					c0.1,0,0.3,0.1,0.5,0.1C26.3,22,26.4,22,26.4,22.1L26.4,22.1L26.4,22.1z"/>
			</g>
			<path class="st5" d="M25.7,22.1c0,0,0.5-0.5,0.5-0.5l-0.6,0.4l0,0.2L25.7,22.1z"/>
			<g>
				<path d="M25.7,22.1l-0.2,0l0-0.2l0.6-0.4C26,21.8,25.7,22,25.7,22.1L25.7,22.1L25.7,22.1z M26.2,21.6l-0.6,0.4l0,0.1l0.1,0
					C25.7,22,25.8,21.9,26.2,21.6L26.2,21.6z"/>
			</g>
			<path class="st5" d="M26.3,22.1c-0.3,0-0.7,0-1,0c0.2-0.3,0.4-0.7,0.6-0.9c-0.1,0.2-0.3,0.6-0.3,0.8C25.8,22,26.1,22,26.3,22.1
				L26.3,22.1z"/>
			<g>
				<path d="M25.3,22.1L25.3,22.1c0.2-0.3,0.4-0.7,0.6-0.9l0,0C25.8,21.4,25.5,21.8,25.3,22.1c0.2,0,0.3,0,0.5,0l0.4,0
					c0,0-0.1,0-0.2,0c-0.2,0-0.3-0.1-0.5-0.1c0-0.2,0.1-0.4,0.2-0.6l0.1-0.2l-0.1,0.2c-0.1,0.2-0.2,0.4-0.2,0.6
					c0.1,0,0.3,0.1,0.5,0.1c0.1,0,0.2,0,0.2,0l-0.2,0l-0.2,0C25.7,22.1,25.5,22.1,25.3,22.1L25.3,22.1L25.3,22.1z"/>
			</g>
			<path class="st5" d="M25.5,22.1c0,0,0.7-0.6,0.7-0.6l-0.8,0.4l-0.1,0.2L25.5,22.1z"/>
			<g>
				<path d="M25.3,22.1l0.1-0.2l0.8-0.4c-0.2,0.2-0.7,0.6-0.7,0.6L25.3,22.1L25.3,22.1z M26.2,21.5l-0.8,0.4l-0.1,0.2l0.2,0
					C25.5,22.1,25.6,22,26.2,21.5L26.2,21.5z"/>
			</g>
			<path class="st5" d="M26.2,22.1c-0.3,0-0.7,0.1-1,0.2c0.1-0.3,0.3-0.7,0.4-1c-0.1,0.2-0.2,0.6-0.2,0.8
				C25.7,22.1,26,22.1,26.2,22.1L26.2,22.1z"/>
			<g>
				<path d="M25.2,22.2L25.2,22.2c0.1-0.3,0.3-0.7,0.4-1l0,0C25.6,21.6,25.4,22,25.2,22.2c0.2-0.1,0.5-0.1,0.8-0.1l0.2,0
					c-0.1,0-0.2,0-0.2,0c-0.2,0-0.3,0-0.5,0c0-0.2,0.1-0.4,0.1-0.6l0-0.2l0,0.2c-0.1,0.2-0.1,0.4-0.1,0.6c0.1,0,0.3,0,0.5,0
					c0.1,0,0.2,0,0.2,0l-0.2,0C25.8,22.1,25.5,22.2,25.2,22.2L25.2,22.2L25.2,22.2z"/>
			</g>
			<polygon class="st5" points="25.4,22.2 25.9,21.5 25.3,22.1 25.3,22.3 			"/>
			<g>
				<path d="M25.3,22.3l0-0.2l0.7-0.6c-0.1,0.2-0.5,0.7-0.5,0.7L25.3,22.3L25.3,22.3z M25.9,21.5l-0.6,0.6l0,0.2l0.2,0
					C25.4,22.2,25.5,22.1,25.9,21.5L25.9,21.5z"/>
			</g>
			<path class="st5" d="M26.1,22.2c-0.3,0-0.7,0-1,0.1c0.2-0.3,0.4-0.7,0.5-1c-0.1,0.2-0.2,0.6-0.2,0.8
				C25.5,22.1,25.9,22.1,26.1,22.2L26.1,22.2z"/>
			<g>
				<path d="M25.1,22.3L25.1,22.3c0.2-0.3,0.4-0.7,0.5-1l-0.1,0.2c-0.1,0.2-0.1,0.4-0.2,0.6c0.1,0,0.3,0,0.5,0c0.1,0,0.2,0,0.3,0
					l-0.2,0C25.6,22.2,25.3,22.2,25.1,22.3L25.1,22.3L25.1,22.3z M25.6,21.3c-0.1,0.3-0.3,0.7-0.5,1c0.2,0,0.5-0.1,0.7-0.1l0.2,0
					c-0.1,0-0.2,0-0.3,0c-0.2,0-0.3,0-0.5-0.1c0-0.2,0.1-0.4,0.2-0.6L25.6,21.3L25.6,21.3z"/>
			</g>
			<path class="st5" d="M25.3,22.3c0,0,0.7-0.6,0.7-0.6l-0.7,0.4l-0.1,0.2L25.3,22.3z"/>
			<g>
				<path d="M25.2,22.3l0.1-0.2l0.8-0.4c-0.2,0.2-0.6,0.6-0.7,0.6L25.2,22.3L25.2,22.3z M26,21.7l-0.7,0.4l-0.1,0.2l0.2,0
					C25.3,22.3,25.4,22.2,26,21.7L26,21.7z"/>
			</g>
			<path class="st5" d="M26,22.2c-0.3,0.1-0.7,0.1-1,0.2c0.1-0.3,0.3-0.7,0.4-1c-0.1,0.2-0.1,0.6-0.2,0.8
				C25.5,22.2,25.8,22.2,26,22.2L26,22.2z"/>
			<g>
				<path d="M25,22.4L25,22.4c0.1-0.3,0.3-0.7,0.4-1l0,0C25.3,21.8,25.1,22.2,25,22.4c0.2-0.1,0.5-0.1,0.8-0.2l0.2,0
					c-0.1,0-0.2,0-0.3,0c-0.2,0-0.3,0-0.5,0c0-0.2,0.1-0.4,0.1-0.6l0-0.1l0,0.1c0,0.2-0.1,0.4-0.1,0.6c0.1,0,0.3,0,0.5,0
					c0.1,0,0.2,0,0.3,0l-0.2,0.1C25.5,22.3,25.2,22.3,25,22.4L25,22.4L25,22.4z"/>
			</g>
			<path class="st5" d="M25.2,22.3c0,0,0.4-0.8,0.4-0.8l-0.6,0.7l0,0.2L25.2,22.3z"/>
			<g>
				<path d="M25.1,22.4l0-0.2l0.6-0.7c-0.1,0.3-0.4,0.8-0.4,0.8L25.1,22.4L25.1,22.4z M25.6,21.5l-0.6,0.7l0,0.2l0.1-0.1
					C25.2,22.3,25.3,22.2,25.6,21.5L25.6,21.5z"/>
			</g>
			<path class="st5" d="M26,22.2c-0.3,0.1-0.8,0.2-1,0.3c0.1-0.3,0.2-0.8,0.3-1.1c0,0.3-0.1,0.7-0.1,0.9
				C25.4,22.3,25.7,22.2,26,22.2L26,22.2z"/>
			<g>
				<path d="M24.9,22.5L24.9,22.5c0.1-0.3,0.2-0.8,0.3-1.2l0,0.3c0,0.2-0.1,0.5,0,0.6c0,0,0.1,0,0.1,0c0.1,0,0.3,0,0.4,0
					c0.1,0,0.2,0,0.3,0l-0.2,0.1C25.5,22.4,25.2,22.4,24.9,22.5L24.9,22.5L24.9,22.5z M25.3,21.4c-0.1,0.3-0.2,0.8-0.3,1.1
					c0.2-0.1,0.5-0.2,0.8-0.2l0.2-0.1c-0.1,0-0.2,0-0.3,0c-0.2,0-0.4,0-0.5,0c0-0.2,0-0.4,0-0.7L25.3,21.4L25.3,21.4z"/>
			</g>
			<path class="st5" d="M25.1,22.5c0,0,0.5-0.8,0.5-0.8L25,22.3l0,0.2L25.1,22.5z"/>
			<g>
				<path d="M25,22.6l0-0.2l0.7-0.6c-0.1,0.2-0.5,0.8-0.5,0.8L25,22.6L25,22.6z M25.7,21.7L25,22.4l0,0.2l0.2,0
					C25.1,22.5,25.2,22.4,25.7,21.7L25.7,21.7z"/>
			</g>
			<path class="st5" d="M25.9,22.3c-0.3,0.1-0.7,0.2-1,0.3c0.1-0.3,0.2-0.8,0.2-1.2c0,0.3-0.1,0.7,0,0.9
				C25.3,22.4,25.6,22.3,25.9,22.3L25.9,22.3z"/>
			<g>
				<path d="M24.8,22.7L24.8,22.7c0.1-0.3,0.2-0.9,0.3-1.2l0,0.3c0,0.1,0,0.3,0,0.4c0-0.1,0-0.3,0-0.4l0-0.3
					C25.1,21.8,25,22.3,24.8,22.7c0.2-0.1,0.5-0.2,0.8-0.3l0.3-0.1c-0.1,0-0.2,0-0.3,0c-0.2,0-0.3,0.1-0.5,0.1c0,0,0,0,0,0
					c0.2,0,0.3,0,0.5-0.1c0.1,0,0.2,0,0.3,0l-0.2,0.1C25.4,22.5,25.1,22.6,24.8,22.7L24.8,22.7L24.8,22.7z"/>
			</g>
			<path class="st5" d="M25,22.6c0,0,0.4-0.9,0.4-0.9l-0.6,0.7l0,0.2L25,22.6z"/>
			<g>
				<path d="M24.9,22.7l0-0.2l0.6-0.8C25.3,22,25,22.6,25,22.6L24.9,22.7L24.9,22.7z M25.4,21.7l-0.6,0.8l0,0.2l0.2-0.1
					C25,22.6,25.1,22.5,25.4,21.7L25.4,21.7z"/>
			</g>
			<path class="st5" d="M25.8,22.4c-0.3,0.1-0.8,0.2-1,0.3c0.1-0.3,0.3-0.8,0.4-1.1c0,0.3-0.1,0.6-0.1,0.9
				C25.2,22.5,25.5,22.4,25.8,22.4L25.8,22.4z"/>
			<g>
				<path d="M24.7,22.7L24.7,22.7c0.1-0.3,0.3-0.8,0.4-1.1l0,0C25,21.9,24.8,22.4,24.7,22.7c0.2-0.1,0.5-0.2,0.8-0.2l0.3-0.1
					c-0.1,0-0.2,0-0.3,0c-0.2,0-0.4,0-0.5,0c0-0.2,0-0.4,0.1-0.7l0-0.2l0,0.2c0,0.2-0.1,0.5-0.1,0.6c0.1,0,0.3,0,0.5,0
					c0.1,0,0.2,0,0.3,0l-0.3,0.1C25.2,22.6,24.9,22.6,24.7,22.7L24.7,22.7L24.7,22.7z"/>
			</g>
			<path class="st5" d="M24.9,22.7c0,0,0.7-0.7,0.7-0.7l-0.8,0.5l-0.1,0.2L24.9,22.7z"/>
			<g>
				<path d="M24.7,22.7l0.1-0.2l0.8-0.5c-0.2,0.2-0.6,0.7-0.6,0.7L24.7,22.7L24.7,22.7z M25.6,22l-0.8,0.5l-0.1,0.2l0.2,0
					C24.9,22.7,25,22.6,25.6,22L25.6,22z"/>
			</g>
			<path class="st5" d="M25.6,22.6c-0.3,0-0.8,0.1-1,0.2c0.1-0.3,0.3-0.8,0.4-1.1c-0.1,0.3-0.2,0.6-0.2,0.9
				C25.1,22.6,25.4,22.5,25.6,22.6L25.6,22.6z"/>
			<g>
				<path d="M24.6,22.7L24.6,22.7c0.1-0.3,0.3-0.8,0.4-1.1l0,0C24.9,22,24.7,22.4,24.6,22.7c0.2-0.1,0.5-0.1,0.8-0.1l0.2,0
					c-0.1,0-0.2,0-0.3,0c-0.2,0-0.4,0-0.5,0c0-0.2,0.1-0.4,0.1-0.7l0-0.1l0,0.1c-0.1,0.2-0.1,0.5-0.1,0.7c0.1,0,0.3,0,0.5,0
					c0.1,0,0.2,0,0.3,0l-0.2,0C25.1,22.6,24.8,22.7,24.6,22.7L24.6,22.7L24.6,22.7z"/>
			</g>
			<path class="st5" d="M24.8,22.6c0,0,0.4-0.8,0.4-0.8l-0.6,0.7l0,0.2L24.8,22.6z"/>
			<g>
				<path d="M24.6,22.7l0-0.2l0.6-0.7c-0.1,0.2-0.4,0.8-0.4,0.9L24.6,22.7L24.6,22.7z M25.2,21.8l-0.6,0.7l0,0.2l0.2-0.1
					C24.8,22.6,24.8,22.5,25.2,21.8L25.2,21.8z"/>
			</g>
			<path class="st5" d="M25.7,22.5c-0.3,0.1-0.8,0.3-1.1,0.5c0.1-0.4,0.2-1,0.3-1.4c0,0.3-0.1,0.8,0,1C25,22.6,25.4,22.5,25.7,22.5
				L25.7,22.5z"/>
			<g>
				<path d="M24.5,23L24.5,23c0.1-0.4,0.2-1,0.3-1.4l0,0.3c0,0.3,0,0.5,0,0.7c0.2,0,0.4-0.1,0.6-0.1c0.1,0,0.2,0,0.3-0.1l-0.3,0.1
					C25.1,22.7,24.8,22.8,24.5,23L24.5,23L24.5,23z M24.8,21.6c-0.1,0.4-0.2,1-0.3,1.3c0.2-0.1,0.6-0.2,0.8-0.4l0.3-0.1
					c-0.1,0-0.2,0.1-0.3,0.1c-0.2,0-0.4,0.1-0.6,0.1c0-0.2,0-0.5,0-0.8L24.8,21.6L24.8,21.6z"/>
			</g>
			<path class="st5" d="M24.7,22.9c0,0,0.5-1,0.5-1l-0.7,0.8l0,0.2L24.7,22.9z"/>
			<g>
				<path d="M24.5,23l0-0.2l0.7-0.8c-0.2,0.3-0.5,1-0.5,1L24.5,23L24.5,23z M25.3,21.9l-0.7,0.8l0,0.2l0.2-0.1
					C24.7,22.9,24.8,22.8,25.3,21.9L25.3,21.9z"/>
			</g>
			<path class="st5" d="M25.5,22.6c-0.3,0.1-0.8,0.4-1.1,0.5c0.1-0.4,0.2-1,0.2-1.4c0,0.3,0,0.8,0,1C24.9,22.8,25.3,22.6,25.5,22.6
				L25.5,22.6z"/>
			<g>
				<path d="M24.4,23.1L24.4,23.1c0.1-0.4,0.2-1,0.2-1.4l0,0C24.6,22.2,24.5,22.7,24.4,23.1c0.2-0.2,0.6-0.3,0.8-0.4l0.3-0.1
					c-0.1,0-0.2,0.1-0.3,0.1c-0.2,0.1-0.4,0.1-0.6,0.1c0-0.2,0-0.5,0-0.7l0-0.3l0,0.3c0,0.3,0,0.5,0,0.7c0.2,0,0.4-0.1,0.6-0.1
					c0.1,0,0.2-0.1,0.3-0.1l-0.3,0.1C25,22.8,24.7,23,24.4,23.1L24.4,23.1L24.4,23.1z"/>
			</g>
			<path class="st5" d="M24.6,23c0,0,0.4-1,0.4-1l-0.6,0.9l0,0.2L24.6,23z"/>
			<g>
				<path d="M24.4,23.2l0-0.2L25,22c-0.1,0.4-0.4,1-0.4,1.1L24.4,23.2L24.4,23.2z M25,22l-0.6,0.9l0,0.2l0.2-0.1
					C24.6,23,24.7,22.9,25,22L25,22z"/>
			</g>
			<path class="st5" d="M25.4,22.7c-0.3,0.1-0.8,0.4-1.1,0.5c0.1-0.4,0.2-1,0.2-1.4c0,0.3,0,0.8,0,1C24.8,22.9,25.1,22.7,25.4,22.7
				L25.4,22.7z"/>
			<g>
				<path d="M24.3,23.2L24.3,23.2c0.1-0.4,0.2-1,0.2-1.4l0,0.3c0,0.3,0,0.5,0,0.7c0.2,0,0.4-0.1,0.6-0.1c0.1,0,0.2-0.1,0.3-0.1
					l-0.3,0.1C24.9,22.9,24.5,23.1,24.3,23.2L24.3,23.2L24.3,23.2z M24.5,21.9c0,0.4-0.1,1-0.2,1.3c0.2-0.1,0.6-0.3,0.8-0.4l0.3-0.1
					c-0.1,0-0.2,0.1-0.3,0.1c-0.2,0.1-0.4,0.1-0.6,0.1c0-0.2,0-0.5,0-0.7V21.9L24.5,21.9z"/>
			</g>
			<path class="st5" d="M24.5,23.2c0,0,0.6-0.9,0.6-0.9L24.4,23l0,0.2L24.5,23.2z"/>
			<g>
				<path d="M24.3,23.2l0-0.2l0.8-0.8c-0.2,0.3-0.6,0.9-0.6,0.9L24.3,23.2L24.3,23.2z M25.1,22.2L24.4,23l0,0.2l0.2-0.1
					C24.5,23.2,24.6,23.1,25.1,22.2L25.1,22.2z"/>
			</g>
			<path class="st5" d="M25.4,22.6c-0.3,0.2-0.7,0.6-1,0.8c0-0.4-0.1-1-0.1-1.3c0.1,0.3,0.1,0.7,0.2,1C24.8,23,25.1,22.8,25.4,22.6
				L25.4,22.6z"/>
			<g>
				<path d="M24.4,23.4L24.4,23.4c0-0.4,0-0.9-0.1-1.3l0,0C24.4,22.6,24.4,23.1,24.4,23.4c0.2-0.2,0.5-0.4,0.7-0.6l0.2-0.2
					c-0.1,0.1-0.2,0.1-0.3,0.2c-0.2,0.1-0.4,0.2-0.5,0.3c-0.1-0.2-0.1-0.5-0.2-0.7l0-0.1l0,0.1c0.1,0.2,0.1,0.5,0.2,0.7
					c0.2-0.1,0.3-0.2,0.5-0.3c0.1-0.1,0.2-0.1,0.3-0.2l-0.2,0.2C24.9,23,24.6,23.2,24.4,23.4L24.4,23.4L24.4,23.4z"/>
			</g>
			<path class="st5" d="M24.6,23.2c0,0,0.1-1.1,0.1-1.1l-0.3,1.1l0.1,0.2L24.6,23.2z"/>
			<g>
				<path d="M24.4,23.4l-0.1-0.2l0.3-1.1c0,0.3-0.1,1.1-0.1,1.1L24.4,23.4L24.4,23.4z M24.6,22.1l-0.3,1.1l0.1,0.2l0.1-0.2
					C24.6,23.2,24.6,23.1,24.6,22.1L24.6,22.1z"/>
			</g>
			<path class="st5" d="M25.3,22.7c-0.3,0.2-0.7,0.5-1,0.8c0-0.4,0-1-0.1-1.3c0.1,0.3,0.1,0.7,0.2,1C24.7,23.1,25,22.9,25.3,22.7
				L25.3,22.7z"/>
			<g>
				<path d="M24.3,23.5L24.3,23.5c0-0.4,0-1-0.1-1.3l0,0C24.3,22.6,24.3,23.1,24.3,23.5c0.2-0.2,0.5-0.4,0.7-0.6l0.2-0.2
					c-0.1,0.1-0.2,0.1-0.3,0.2c-0.2,0.1-0.4,0.2-0.5,0.3c-0.1-0.2-0.1-0.4-0.2-0.7l0-0.2l0.1,0.2c0.1,0.2,0.1,0.5,0.2,0.7
					c0.2-0.1,0.3-0.2,0.5-0.3c0.1-0.1,0.2-0.1,0.3-0.2L25,22.9C24.8,23.1,24.5,23.3,24.3,23.5L24.3,23.5L24.3,23.5z"/>
			</g>
			<path class="st5" d="M24.5,23.4c0,0,0.3-1.1,0.3-1.1l-0.5,1l0,0.2L24.5,23.4z"/>
			<g>
				<path d="M24.3,23.5l0-0.2l0.5-1c-0.1,0.4-0.3,1.1-0.3,1.1L24.3,23.5L24.3,23.5z M24.8,22.3l-0.5,1l0,0.2l0.2-0.1
					C24.5,23.4,24.5,23.3,24.8,22.3L24.8,22.3z"/>
			</g>
			<path class="st5" d="M25.3,22.7c-0.3,0.3-0.7,0.6-0.9,0.9c0-0.4-0.2-1-0.2-1.4c0.1,0.3,0.2,0.7,0.4,1
				C24.7,23.2,25,22.9,25.3,22.7L25.3,22.7z"/>
			<g>
				<path d="M24.3,23.7L24.3,23.7c0-0.4-0.2-1-0.2-1.4l0,0C24.2,22.7,24.3,23.3,24.3,23.7c0.2-0.2,0.5-0.5,0.7-0.7l0.2-0.2
					c-0.1,0.1-0.2,0.1-0.3,0.2c-0.2,0.1-0.4,0.3-0.5,0.3c-0.1-0.2-0.2-0.4-0.3-0.7l-0.1-0.2l0.1,0.2c0.1,0.2,0.2,0.5,0.3,0.7
					c0.1-0.1,0.3-0.2,0.5-0.3c0.1-0.1,0.2-0.1,0.3-0.2L25,23C24.8,23.2,24.5,23.5,24.3,23.7L24.3,23.7L24.3,23.7z"/>
			</g>
			<path class="st5" d="M24.5,23.5c0,0,0.1-1.1,0.1-1.1l-0.3,1.1l0.1,0.2L24.5,23.5z"/>
			<g>
				<path d="M24.4,23.7l-0.1-0.2l0.3-1.1c0,0.4,0,1.1,0,1.1L24.4,23.7L24.4,23.7z M24.6,22.4l-0.3,1.1l0.1,0.2l0.1-0.2
					C24.5,23.5,24.5,23.4,24.6,22.4L24.6,22.4z"/>
			</g>
			<path class="st5" d="M25.2,22.9c-0.3,0.2-0.7,0.6-1,0.8c0-0.4-0.1-1-0.1-1.4c0.1,0.3,0.2,0.8,0.3,1
				C24.6,23.3,24.9,23.1,25.2,22.9L25.2,22.9z"/>
			<g>
				<path d="M24.2,23.8L24.2,23.8c0-0.4-0.1-1-0.1-1.4l0.1,0.3c0.1,0.3,0.1,0.5,0.2,0.7c0.2-0.1,0.4-0.2,0.6-0.3
					c0.1-0.1,0.2-0.1,0.3-0.2l-0.2,0.2C24.7,23.3,24.4,23.6,24.2,23.8L24.2,23.8L24.2,23.8z M24.1,22.4c0.1,0.4,0.1,1,0.1,1.4
					c0.2-0.2,0.5-0.4,0.7-0.6l0.2-0.2C25.1,23,25,23,24.9,23.1c-0.2,0.1-0.4,0.2-0.6,0.3c-0.1-0.2-0.1-0.5-0.2-0.7L24.1,22.4
					L24.1,22.4z"/>
			</g>
			<path class="st6" d="M29.2,24.1c0,1.1-0.9,2-2,2c-1.1,0-2-0.9-2-2c0-1.1,0.9-2,2-2C28.3,22.1,29.2,23,29.2,24.1L29.2,24.1z"/>
			<path class="st5" d="M24.4,23.7c0,0,0.4-1.1,0.4-1.1l-0.6,1l0,0.2L24.4,23.7z"/>
			<g>
				<path d="M24.2,23.8l0-0.2l0.6-1c-0.1,0.4-0.4,1.1-0.4,1.1L24.2,23.8L24.2,23.8z M24.8,22.6l-0.6,1l0,0.2l0.2-0.1
					C24.4,23.6,24.4,23.6,24.8,22.6L24.8,22.6z"/>
			</g>
			<path class="st5" d="M25.2,22.9c-0.3,0.3-0.7,0.7-0.9,0.9c0-0.4-0.2-1-0.2-1.4c0.1,0.3,0.2,0.7,0.3,1
				C24.6,23.4,24.9,23.1,25.2,22.9L25.2,22.9z"/>
			<g>
				<path d="M24.3,23.9L24.3,23.9c0-0.4-0.1-1-0.2-1.3l0,0C24.2,23,24.3,23.5,24.3,23.9c0.2-0.2,0.4-0.5,0.7-0.8l0.2-0.2
					c-0.1,0.1-0.2,0.1-0.3,0.2c-0.2,0.1-0.3,0.3-0.5,0.4c-0.1-0.2-0.2-0.5-0.3-0.7l0-0.2l0.1,0.1c0.1,0.3,0.2,0.5,0.2,0.7
					c0.1-0.1,0.3-0.2,0.5-0.4c0.1-0.1,0.2-0.1,0.3-0.2L25,23.2C24.7,23.4,24.5,23.7,24.3,23.9L24.3,23.9L24.3,23.9z"/>
			</g>
			<path class="st5" d="M24.4,23.7c0,0,0-1.1,0-1.1l-0.2,1.1l0.1,0.2L24.4,23.7z"/>
			<g>
				<path d="M24.3,23.9l-0.1-0.2l0.2-1.1c0,0.4,0.1,1.1,0.1,1.1L24.3,23.9L24.3,23.9z M24.4,22.6l-0.2,1.1l0.1,0.2l0.1-0.2
					C24.4,23.7,24.4,23.6,24.4,22.6L24.4,22.6z"/>
			</g>
			<path class="st5" d="M25.1,23c-0.2,0.3-0.6,0.7-0.8,1c-0.1-0.4-0.2-1-0.3-1.4c0.1,0.3,0.2,0.7,0.4,1C24.5,23.5,24.8,23.2,25.1,23
				L25.1,23z"/>
			<g>
				<path d="M24.2,24L24.2,24c-0.1-0.4-0.2-1-0.3-1.4l0,0C24,23,24.2,23.6,24.2,24c0.2-0.2,0.4-0.5,0.6-0.8L25,23
					c-0.1,0.1-0.2,0.1-0.2,0.2c-0.2,0.1-0.3,0.3-0.5,0.4c-0.1-0.2-0.2-0.5-0.3-0.7L24,22.6l0.1,0.3c0.1,0.3,0.2,0.5,0.3,0.7
					c0.1-0.1,0.3-0.2,0.5-0.4c0.1-0.1,0.2-0.1,0.2-0.2l-0.2,0.2C24.6,23.5,24.4,23.8,24.2,24L24.2,24L24.2,24z"/>
			</g>
			<path class="st5" d="M24.4,23.8c0,0,0.1-1.2,0.1-1.2l-0.3,1.1l0.1,0.2L24.4,23.8z"/>
			<g>
				<path d="M24.2,24l-0.1-0.2l0.3-1.1c0,0.4-0.1,1.1-0.1,1.2L24.2,24L24.2,24z M24.5,22.7l-0.3,1.1l0.1,0.2l0.1-0.2
					C24.4,23.8,24.4,23.7,24.5,22.7L24.5,22.7z"/>
			</g>
			<path class="st5" d="M25,23.1c-0.2,0.3-0.6,0.7-0.8,1c-0.1-0.4-0.3-1-0.4-1.4c0.1,0.3,0.3,0.7,0.4,1C24.5,23.6,24.8,23.3,25,23.1
				L25,23.1z"/>
			<g>
				<path d="M24.2,24.1L24.2,24.1c-0.1-0.4-0.3-1-0.4-1.3l0,0C24,23.2,24.2,23.7,24.2,24.1c0.2-0.3,0.4-0.6,0.6-0.8l0.2-0.2
					c-0.1,0.1-0.1,0.1-0.2,0.2c-0.2,0.2-0.3,0.3-0.5,0.4c-0.1-0.2-0.2-0.4-0.3-0.7l-0.1-0.2L24,23c0.1,0.2,0.2,0.5,0.3,0.7
					c0.1-0.1,0.3-0.3,0.5-0.4c0.1-0.1,0.2-0.2,0.2-0.2l-0.2,0.2C24.6,23.6,24.4,23.9,24.2,24.1L24.2,24.1L24.2,24.1z"/>
			</g>
			<path class="st5" d="M24.4,23.9c0,0-0.1-1.2-0.1-1.2l-0.1,1.2l0.1,0.2L24.4,23.9z"/>
			<g>
				<path d="M24.3,24.1l-0.1-0.2l0.1-1.2c0,0.4,0.1,1.1,0.1,1.2L24.3,24.1L24.3,24.1z M24.3,22.8l-0.1,1.2l0.1,0.2l0.1-0.2
					C24.4,23.9,24.3,23.8,24.3,22.8L24.3,22.8z"/>
			</g>
			<path class="st5" d="M25,23.1c-0.2,0.3-0.5,0.8-0.7,1.1c-0.1-0.4-0.3-1-0.4-1.3c0.1,0.3,0.3,0.7,0.5,0.9
				C24.5,23.6,24.8,23.3,25,23.1L25,23.1z"/>
			<g>
				<path d="M24.3,24.2L24.3,24.2c-0.1-0.4-0.3-0.9-0.4-1.3l0-0.1l0.1,0.3c0.1,0.2,0.2,0.5,0.4,0.7c0.1-0.1,0.3-0.3,0.4-0.4
					c0.1-0.1,0.2-0.2,0.2-0.2l-0.2,0.3C24.6,23.7,24.4,24,24.3,24.2L24.3,24.2L24.3,24.2z M23.8,22.9L23.8,22.9
					c0.2,0.5,0.3,1,0.4,1.3c0.1-0.2,0.4-0.5,0.5-0.8l0.2-0.3c-0.1,0.1-0.1,0.2-0.2,0.2c-0.2,0.2-0.3,0.3-0.4,0.4
					c-0.1-0.2-0.2-0.4-0.4-0.7L23.8,22.9L23.8,22.9z"/>
			</g>
			<path class="st5" d="M24.4,24c0,0,0.1-1.2,0.1-1.2L24.2,24l0.1,0.2L24.4,24z"/>
			<g>
				<path d="M24.3,24.2L24.2,24l0.3-1.1c0,0.4-0.1,1.1-0.1,1.2L24.3,24.2L24.3,24.2z M24.6,22.9L24.2,24l0.1,0.2l0.1-0.1
					C24.4,24,24.4,23.9,24.6,22.9L24.6,22.9z"/>
			</g>
			<path class="st5" d="M24.9,23.2c-0.2,0.3-0.5,0.8-0.6,1.2c-0.1-0.4-0.4-0.9-0.6-1.3c0.2,0.3,0.4,0.7,0.6,0.9
				C24.5,23.8,24.7,23.5,24.9,23.2L24.9,23.2z"/>
			<g>
				<path d="M24.3,24.4L24.3,24.4c-0.1-0.4-0.4-0.9-0.6-1.3l0,0C23.9,23.5,24.2,24,24.3,24.4c0.1-0.3,0.3-0.6,0.5-0.9l0.2-0.3
					c-0.1,0.1-0.1,0.2-0.2,0.3c-0.1,0.2-0.3,0.4-0.4,0.5c-0.1-0.1-0.3-0.4-0.4-0.6l-0.1-0.2l0.2,0.2c0.1,0.2,0.3,0.5,0.4,0.6
					c0.1-0.1,0.3-0.3,0.4-0.5c0.1-0.1,0.1-0.2,0.2-0.3l-0.2,0.3C24.6,23.8,24.4,24.2,24.3,24.4L24.3,24.4L24.3,24.4z"/>
			</g>
			<path class="st5" d="M24.4,24.1c0,0-0.3-1.1-0.3-1.1l0.1,1.2l0.1,0.2L24.4,24.1z"/>
			<g>
				<path d="M24.3,24.4l-0.2-0.2L24.1,23c0.1,0.4,0.3,1.1,0.3,1.1L24.3,24.4L24.3,24.4z M24.1,23l0.1,1.2l0.1,0.2l0.1-0.2
					C24.4,24.1,24.4,24,24.1,23L24.1,23z"/>
			</g>
			<path class="st5" d="M24.9,23.4c-0.2,0.3-0.5,0.8-0.6,1.2c-0.1-0.4-0.4-0.9-0.6-1.3c0.2,0.3,0.4,0.7,0.6,0.9
				C24.5,23.9,24.7,23.6,24.9,23.4L24.9,23.4z"/>
			<g>
				<path d="M24.3,24.6L24.3,24.6c-0.1-0.4-0.4-0.9-0.6-1.3l0.2,0.2c0.1,0.2,0.3,0.5,0.4,0.6c0.1-0.1,0.3-0.3,0.4-0.5
					c0.1-0.1,0.1-0.2,0.2-0.3l-0.2,0.3C24.6,24,24.4,24.3,24.3,24.6L24.3,24.6L24.3,24.6z M23.7,23.3c0.2,0.3,0.4,0.9,0.6,1.3
					c0.1-0.2,0.3-0.6,0.5-0.9l0.2-0.3c-0.1,0.1-0.1,0.2-0.2,0.3c-0.1,0.2-0.3,0.4-0.4,0.5c-0.1-0.1-0.3-0.4-0.4-0.6L23.7,23.3
					L23.7,23.3z"/>
			</g>
			<path class="st5" d="M24.4,24.3c0,0-0.1-1.2-0.1-1.2l-0.1,1.2l0.1,0.2L24.4,24.3z"/>
			<g>
				<path d="M24.3,24.6l-0.1-0.2l0.1-1.2c0.1,0.4,0.1,1.1,0.1,1.2L24.3,24.6L24.3,24.6z M24.3,23.2l-0.1,1.2l0.1,0.2l0.1-0.2
					C24.4,24.3,24.4,24.2,24.3,23.2L24.3,23.2z"/>
			</g>
			<path class="st5" d="M24.9,23.5c-0.2,0.3-0.5,0.8-0.7,1.2c-0.1-0.4-0.4-0.9-0.5-1.3c0.2,0.3,0.4,0.7,0.6,0.9
				C24.5,24,24.7,23.7,24.9,23.5L24.9,23.5z"/>
			<g>
				<path d="M24.3,24.6L24.3,24.6c-0.1-0.4-0.4-0.9-0.5-1.3l0,0C23.9,23.7,24.1,24.2,24.3,24.6c0.1-0.3,0.3-0.6,0.5-0.9l0.1-0.2
					c-0.1,0.1-0.1,0.2-0.2,0.3c-0.1,0.2-0.3,0.4-0.4,0.5c-0.1-0.2-0.3-0.4-0.4-0.6l-0.2-0.2l0.2,0.2c0.1,0.2,0.3,0.5,0.4,0.6
					c0.1-0.1,0.3-0.3,0.4-0.5c0.1-0.1,0.1-0.2,0.2-0.3l-0.1,0.2C24.6,24,24.4,24.4,24.3,24.6L24.3,24.6L24.3,24.6z"/>
			</g>
			<polygon class="st5" points="24.4,24.4 24.2,23.3 24.2,24.5 24.3,24.7 			"/>
			<g>
				<path d="M24.3,24.7l-0.1-0.2l0-1.2c0.1,0.4,0.2,1.1,0.2,1.1L24.3,24.7L24.3,24.7z M24.2,23.3l0,1.2l0.1,0.2l0.1-0.2
					C24.4,24.4,24.4,24.3,24.2,23.3L24.2,23.3z"/>
			</g>
			<path class="st5" d="M24.9,23.6c-0.2,0.3-0.5,0.8-0.7,1.1c-0.1-0.4-0.3-1-0.5-1.3c0.2,0.3,0.3,0.7,0.5,0.9
				C24.4,24.2,24.7,23.9,24.9,23.6L24.9,23.6z"/>
			<g>
				<path d="M24.1,24.8L24.1,24.8c-0.1-0.4-0.3-0.9-0.5-1.3l0,0C23.9,23.9,24,24.4,24.1,24.8c0.1-0.3,0.4-0.6,0.5-0.9l0.2-0.3
					c-0.1,0.1-0.1,0.2-0.2,0.3c-0.2,0.2-0.3,0.3-0.5,0.5c-0.1-0.2-0.3-0.4-0.4-0.6l-0.1-0.1l0.1,0.1c0.1,0.2,0.3,0.5,0.4,0.6
					c0.1-0.1,0.3-0.3,0.4-0.5c0.1-0.1,0.2-0.2,0.2-0.2l-0.2,0.3C24.5,24.2,24.3,24.5,24.1,24.8L24.1,24.8L24.1,24.8z"/>
			</g>
			<path class="st5" d="M24.3,24.6c0,0,0.1-1.2,0.1-1.2l-0.3,1.1l0.1,0.2L24.3,24.6z"/>
			<g>
				<path d="M24.2,24.7l-0.1-0.2l0.3-1.1c0,0.4-0.1,1.1-0.1,1.2L24.2,24.7L24.2,24.7z M24.4,23.4l-0.3,1.1l0.1,0.2l0.1-0.2
					C24.3,24.6,24.3,24.5,24.4,23.4L24.4,23.4z"/>
			</g>
			<path class="st5" d="M24.9,23.7c-0.2,0.3-0.5,0.8-0.6,1.2c-0.1-0.4-0.4-0.9-0.6-1.2c0.2,0.3,0.4,0.6,0.6,0.8
				C24.5,24.3,24.7,23.9,24.9,23.7L24.9,23.7z"/>
			<g>
				<path d="M24.3,24.9L24.3,24.9c-0.1-0.4-0.4-0.8-0.6-1.2l0,0C23.9,24.1,24.1,24.5,24.3,24.9c0.1-0.3,0.3-0.6,0.4-0.9l0.2-0.3
					c-0.1,0.1-0.1,0.2-0.2,0.3c-0.1,0.2-0.3,0.4-0.4,0.5c-0.1-0.1-0.3-0.4-0.4-0.6l-0.1-0.1l0.1,0.1c0.1,0.2,0.3,0.4,0.4,0.6
					c0.1-0.1,0.3-0.3,0.4-0.5c0.1-0.1,0.1-0.2,0.2-0.3L24.7,24C24.6,24.3,24.4,24.6,24.3,24.9L24.3,24.9L24.3,24.9z"/>
			</g>
			<path class="st5" d="M24.3,24.7c0,0-0.4-1.1-0.4-1.1l0.1,1.2l0.2,0.2L24.3,24.7z"/>
			<g>
				<path d="M24.2,24.9L24,24.7l-0.1-1.2c0.1,0.4,0.4,1.1,0.4,1.1L24.2,24.9L24.2,24.9z M23.9,23.6l0.1,1.2l0.1,0.1l0.1-0.2
					C24.3,24.7,24.2,24.6,23.9,23.6L23.9,23.6z"/>
			</g>
			<path class="st5" d="M24.8,23.8c-0.1,0.4-0.3,0.9-0.4,1.3c-0.2-0.3-0.6-0.8-0.8-1.1c0.2,0.2,0.5,0.5,0.7,0.7
				C24.5,24.4,24.7,24,24.8,23.8L24.8,23.8z"/>
			<g>
				<path d="M24.4,25.1L24.4,25.1c-0.2-0.3-0.5-0.7-0.7-1L23.6,24l0.2,0.2c0.2,0.2,0.4,0.4,0.5,0.5c0.1-0.1,0.2-0.4,0.3-0.6
					c0.1-0.1,0.1-0.2,0.2-0.3l-0.1,0.3C24.6,24.4,24.5,24.8,24.4,25.1L24.4,25.1L24.4,25.1z M23.6,24L23.6,24
					c0.3,0.4,0.6,0.8,0.8,1.1c0.1-0.3,0.2-0.7,0.3-1l0.1-0.3c0,0.1-0.1,0.2-0.2,0.3c-0.1,0.2-0.2,0.4-0.3,0.6
					c-0.2-0.1-0.3-0.3-0.5-0.5L23.6,24L23.6,24z"/>
			</g>
			<path class="st5" d="M24.6,24.8c0,0-0.4-1.1-0.4-1.1l0.2,1.2l0.2,0.2L24.6,24.8z"/>
			<g>
				<path d="M24.5,25l-0.2-0.2l-0.2-1.2c0.1,0.4,0.4,1,0.4,1.1L24.5,25L24.5,25z M24.2,23.7l0.2,1.1l0.2,0.1l0.1-0.2
					C24.6,24.8,24.5,24.7,24.2,23.7L24.2,23.7z"/>
			</g>
			<path class="st5" d="M24.8,23.9c-0.1,0.4-0.3,0.9-0.4,1.3c-0.2-0.3-0.6-0.8-0.8-1.1c0.2,0.2,0.5,0.5,0.7,0.7
				C24.5,24.5,24.7,24.1,24.8,23.9L24.8,23.9z"/>
			<g>
				<path d="M24.4,25.2L24.4,25.2c-0.2-0.3-0.6-0.8-0.8-1.1l0.2,0.2c0.2,0.2,0.4,0.4,0.5,0.5c0.1-0.2,0.2-0.4,0.3-0.6
					c0.1-0.1,0.1-0.2,0.2-0.3l-0.1,0.3C24.6,24.5,24.5,24.9,24.4,25.2L24.4,25.2L24.4,25.2z M23.6,24.1c0.2,0.3,0.6,0.7,0.8,1.1
					c0.1-0.3,0.2-0.7,0.3-1l0.1-0.3c0,0.1-0.1,0.2-0.1,0.3c-0.1,0.2-0.2,0.4-0.3,0.6c-0.2-0.1-0.3-0.3-0.5-0.5L23.6,24.1L23.6,24.1z
					"/>
			</g>
			<path class="st5" d="M24.6,24.9c0,0-0.5-1-0.5-1l0.3,1.1l0.2,0.1L24.6,24.9z"/>
			<g>
				<path d="M24.6,25.2l-0.2-0.1l-0.3-1.1c0.2,0.3,0.5,1,0.5,1L24.6,25.2L24.6,25.2z M24.1,23.9l0.3,1.1l0.2,0.1l0-0.2
					C24.6,24.9,24.5,24.9,24.1,23.9L24.1,23.9z"/>
			</g>
			<path class="st5" d="M24.8,24c-0.1,0.4-0.2,1-0.3,1.4c-0.2-0.3-0.7-0.7-0.9-1c0.2,0.2,0.6,0.4,0.8,0.6
				C24.6,24.7,24.7,24.3,24.8,24L24.8,24z"/>
			<g>
				<path d="M24.5,25.3L24.5,25.3c-0.2-0.3-0.6-0.6-0.8-0.9l-0.1-0.1l0.2,0.2c0.2,0.2,0.4,0.3,0.6,0.4c0.1-0.2,0.2-0.4,0.2-0.6
					c0-0.1,0.1-0.2,0.1-0.3l-0.1,0.3C24.6,24.6,24.6,25,24.5,25.3L24.5,25.3L24.5,25.3z M23.6,24.4L23.6,24.4
					c0.3,0.3,0.7,0.7,0.9,0.9c0-0.3,0.1-0.7,0.2-1l0.1-0.3c0,0.1-0.1,0.2-0.1,0.3c-0.1,0.2-0.2,0.5-0.2,0.6
					c-0.2-0.1-0.4-0.2-0.6-0.4L23.6,24.4L23.6,24.4z"/>
			</g>
			<path class="st5" d="M24.6,25.1c0,0-0.3-1.1-0.3-1.1l0,1.2l0.1,0.2L24.6,25.1z"/>
			<g>
				<path d="M24.5,25.3l-0.1-0.2l0-1.2c0.1,0.4,0.3,1.1,0.3,1.1L24.5,25.3L24.5,25.3z M24.3,24l0.1,1.2l0.1,0.2l0.1-0.2
					C24.6,25.1,24.6,25,24.3,24L24.3,24z"/>
			</g>
			<path class="st5" d="M24.8,24.1c0,0.4-0.1,1-0.1,1.4c-0.3-0.3-0.7-0.6-1-0.8c0.3,0.1,0.6,0.4,0.8,0.5
				C24.6,24.8,24.7,24.4,24.8,24.1L24.8,24.1z"/>
			<g>
				<path d="M24.7,25.5L24.7,25.5c-0.3-0.3-0.7-0.6-0.9-0.8l0,0C24,24.9,24.4,25.2,24.7,25.5c0-0.3,0-0.7,0.1-1.1l0-0.3
					c0,0.1,0,0.2-0.1,0.4c-0.1,0.2-0.1,0.5-0.2,0.7c-0.2-0.1-0.4-0.2-0.6-0.3l-0.1-0.1l0.1,0.1c0.2,0.1,0.4,0.3,0.6,0.3
					c0.1-0.2,0.1-0.4,0.2-0.6c0-0.1,0.1-0.2,0.1-0.4l0,0.3C24.7,24.8,24.7,25.2,24.7,25.5L24.7,25.5L24.7,25.5z"/>
			</g>
			<path class="st5" d="M24.6,25.2c0,0-0.7-0.8-0.7-0.8l0.5,1l0.2,0.1L24.6,25.2z"/>
			<g>
				<path d="M24.7,25.4l-0.2-0.1l-0.5-1c0.2,0.3,0.7,0.8,0.7,0.8L24.7,25.4L24.7,25.4z M23.9,24.4l0.5,1l0.2,0.1l0-0.2l0,0
					C24.6,25.2,24.6,25.1,23.9,24.4L23.9,24.4z"/>
			</g>
			<path class="st5" d="M24.8,24.2c0,0.4-0.1,1-0.1,1.4c-0.3-0.3-0.7-0.6-1-0.8c0.3,0.1,0.6,0.4,0.8,0.5
				C24.6,25,24.7,24.5,24.8,24.2L24.8,24.2z"/>
			<g>
				<path d="M24.7,25.6L24.7,25.6c-0.3-0.3-0.7-0.6-0.9-0.8l0,0C24,25.1,24.4,25.4,24.7,25.6c0-0.3,0-0.7,0.1-1.1l0-0.4
					c0,0.1,0,0.2-0.1,0.3c-0.1,0.2-0.1,0.5-0.2,0.7c-0.2-0.1-0.4-0.2-0.6-0.3l-0.1-0.1l0.1,0.1c0.2,0.1,0.4,0.3,0.6,0.3
					c0.1-0.2,0.1-0.4,0.2-0.7c0-0.1,0.1-0.2,0.1-0.3l0,0.4C24.7,24.9,24.7,25.3,24.7,25.6L24.7,25.6L24.7,25.6z"/>
			</g>
			<path class="st5" d="M24.7,25.4c0,0-0.5-1-0.5-1l0.3,1.1l0.2,0.1L24.7,25.4z"/>
			<g>
				<path d="M24.7,25.6l-0.2-0.1l-0.3-1.1c0.2,0.3,0.5,1,0.6,1L24.7,25.6L24.7,25.6z M24.2,24.4l0.4,1.1l0.2,0.1l0-0.2
					C24.7,25.4,24.7,25.3,24.2,24.4L24.2,24.4z"/>
			</g>
			<path class="st5" d="M24.8,24.4c0,0.4-0.1,1-0.1,1.4c-0.3-0.2-0.7-0.6-1-0.8c0.3,0.1,0.6,0.3,0.9,0.4
				C24.7,25.1,24.8,24.7,24.8,24.4L24.8,24.4z"/>
			<g>
				<path d="M24.8,25.8L24.8,25.8c-0.3-0.2-0.7-0.6-1-0.8l0,0C24.1,25.3,24.5,25.5,24.8,25.8c0-0.3,0-0.7,0-1.1l0-0.3
					c0,0.1,0,0.2-0.1,0.4c0,0.2-0.1,0.5-0.2,0.7c-0.2,0-0.4-0.2-0.6-0.3l-0.1-0.1l0.1,0c0.2,0.1,0.4,0.2,0.6,0.3
					c0.1-0.2,0.1-0.4,0.2-0.7c0-0.1,0-0.2,0.1-0.4l0,0.3C24.8,25.1,24.8,25.5,24.8,25.8L24.8,25.8L24.8,25.8z"/>
			</g>
			<path class="st5" d="M24.8,25.5c0,0-0.7-0.9-0.7-0.9l0.5,1l0.2,0.1L24.8,25.5z"/>
			<g>
				<path d="M24.8,25.8l-0.2-0.1l-0.5-1c0.2,0.3,0.7,0.8,0.7,0.9L24.8,25.8L24.8,25.8z M24.1,24.7l0.5,1l0.2,0.1l0-0.2l0,0
					C24.8,25.5,24.7,25.5,24.1,24.7L24.1,24.7z"/>
			</g>
			<path class="st5" d="M24.8,24.6c0,0.4-0.1,1-0.1,1.4c-0.3-0.2-0.7-0.6-1-0.8c0.3,0.1,0.6,0.3,0.9,0.4
				C24.7,25.3,24.8,24.9,24.8,24.6L24.8,24.6z"/>
			<g>
				<path d="M24.8,26L24.8,26c-0.3-0.3-0.7-0.6-1-0.8l0.3,0.1c0.2,0.1,0.4,0.2,0.6,0.3c0.1-0.2,0.1-0.4,0.2-0.7c0-0.1,0-0.2,0.1-0.3
					l0,0.3C24.8,25.2,24.8,25.7,24.8,26L24.8,26L24.8,26z M23.8,25.2c0.3,0.2,0.7,0.5,1,0.8c0-0.3,0-0.7,0-1.1l0-0.3
					c0,0.1,0,0.2-0.1,0.3c0,0.2-0.1,0.5-0.2,0.7c-0.2,0-0.4-0.2-0.6-0.3L23.8,25.2L23.8,25.2z"/>
			</g>
			<path class="st5" d="M24.8,25.7c0,0-0.5-1-0.5-1l0.3,1.1l0.2,0.1L24.8,25.7z"/>
			<g>
				<path d="M24.8,25.9l-0.2-0.1l-0.3-1.1c0.2,0.3,0.5,1,0.5,1L24.8,25.9L24.8,25.9z M24.4,24.7l0.3,1.1l0.2,0.1l0-0.2
					C24.8,25.7,24.8,25.6,24.4,24.7L24.4,24.7z"/>
			</g>
			<path class="st5" d="M24.9,24.7c0,0.4,0,1,0.1,1.4c-0.3-0.2-0.8-0.5-1.1-0.6c0.3,0.1,0.6,0.3,0.9,0.3
				C24.8,25.4,24.8,25,24.9,24.7L24.9,24.7z"/>
			<g>
				<path d="M24.9,26.1L24.9,26.1c-0.3-0.2-0.7-0.5-1-0.6l0,0C24.2,25.7,24.6,25.9,24.9,26.1c0-0.3-0.1-0.7-0.1-1.1l0-0.3
					c0,0.1,0,0.2,0,0.4c0,0.2,0,0.5-0.1,0.7c-0.2,0-0.4-0.1-0.6-0.2l-0.1,0l0.1,0c0.2,0.1,0.5,0.2,0.6,0.2c0-0.2,0.1-0.4,0.1-0.7
					c0-0.1,0-0.3,0-0.4l0,0.3C24.9,25.4,24.9,25.8,24.9,26.1L24.9,26.1L24.9,26.1z"/>
			</g>
			<path class="st5" d="M24.9,25.7c0,0-0.9-0.6-0.9-0.6l0.7,0.8l0.2,0L24.9,25.7z"/>
			<g>
				<path d="M25,25.9l-0.2,0l-0.7-0.8c0.2,0.2,0.8,0.6,0.9,0.6L25,25.9L25,25.9z M24.1,25.1l0.7,0.8l0.2,0l-0.1-0.2l0,0
					C24.9,25.7,24.4,25.3,24.1,25.1L24.1,25.1z"/>
			</g>
			<path class="st5" d="M24.9,24.7c0,0.4,0.1,1,0.1,1.4c-0.3-0.2-0.8-0.4-1.1-0.6c0.3,0.1,0.7,0.2,0.9,0.3
				C24.9,25.5,24.9,25.1,24.9,24.7L24.9,24.7z"/>
			<g>
				<path d="M25,26.1L25,26.1c-0.3-0.2-0.8-0.4-1.1-0.6h0C24.3,25.7,24.7,25.9,25,26.1c-0.1-0.3-0.1-0.7-0.1-1.1l0-0.3
					c0,0.1,0,0.2,0,0.3c0,0.2,0,0.5-0.1,0.7c-0.2,0-0.4-0.1-0.7-0.2l-0.1,0l0.1,0c0.2,0.1,0.5,0.2,0.6,0.2c0-0.2,0-0.5,0.1-0.7
					c0-0.1,0-0.2,0-0.3l0,0.3C24.9,25.4,25,25.8,25,26.1L25,26.1L25,26.1z"/>
			</g>
			<path class="st5" d="M25,25.9c0,0-0.7-0.8-0.7-0.8l0.5,1l0.2,0.1L25,25.9z"/>
			<g>
				<path d="M25,26.1L24.8,26l-0.5-1c0.2,0.3,0.7,0.8,0.7,0.8L25,26.1L25,26.1z M24.3,25l0.6,1l0.2,0.1l0-0.2l0,0
					C25,25.9,24.9,25.8,24.3,25L24.3,25z"/>
			</g>
			<path class="st5" d="M25,24.9c0,0.4,0.1,1,0.2,1.4c-0.3-0.2-0.8-0.4-1.1-0.5c0.3,0.1,0.7,0.2,0.9,0.2C25,25.6,24.9,25.2,25,24.9
				L25,24.9z"/>
			<g>
				<path d="M25.2,26.3L25.2,26.3c-0.3-0.2-0.8-0.4-1.1-0.5h0C24.4,25.9,24.8,26.1,25.2,26.3C25.1,26,25,25.5,25,25.2l0-0.3
					c0,0.1,0,0.2,0,0.4c0,0.2,0,0.5,0,0.7c-0.2,0-0.4-0.1-0.6-0.1l-0.1,0l0.1,0c0.2,0.1,0.5,0.1,0.6,0.1c0-0.2,0-0.4,0-0.7
					c0-0.1,0-0.3,0-0.4l0,0.3C25,25.5,25.1,26,25.2,26.3L25.2,26.3L25.2,26.3z"/>
			</g>
			<path class="st5" d="M25.2,26c0,0-0.9-0.6-0.9-0.6l0.7,0.8l0.2,0L25.2,26z"/>
			<g>
				<path d="M25.2,26.2l-0.2,0l-0.7-0.8c0.3,0.2,0.8,0.6,0.9,0.6L25.2,26.2L25.2,26.2z M24.3,25.4l0.7,0.8l0.2,0L25.2,26l0,0
					C25.1,26,24.7,25.7,24.3,25.4L24.3,25.4z"/>
			</g>
			<path class="st5" d="M25,25.1c0.1,0.4,0.2,1,0.3,1.4c-0.3-0.1-0.8-0.3-1.2-0.4c0.3,0,0.7,0.1,0.9,0.1C25,25.8,25,25.4,25,25.1
				L25,25.1z"/>
			<g>
				<path d="M25.3,26.4L25.3,26.4c-0.3-0.1-0.8-0.3-1.1-0.4h0C24.5,26.1,25,26.3,25.3,26.4c-0.1-0.3-0.2-0.7-0.2-1.1L25,25.1
					c0,0.1,0,0.2,0,0.4c0,0.2,0,0.5,0,0.7c-0.2,0-0.5,0-0.7-0.1l-0.1,0l0.1,0c0.2,0,0.4,0.1,0.6,0.1c0.1-0.2,0-0.4,0-0.7
					c0-0.1,0-0.3,0-0.4l0.1,0.3C25.1,25.7,25.2,26.1,25.3,26.4L25.3,26.4L25.3,26.4z"/>
			</g>
			<path class="st5" d="M25.3,26.1c0,0-0.7-0.8-0.7-0.8l0.5,1l0.2,0.1L25.3,26.1z"/>
			<g>
				<path d="M25.3,26.4l-0.2-0.1l-0.5-1c0.2,0.3,0.7,0.8,0.7,0.8L25.3,26.4L25.3,26.4z M24.5,25.3l0.5,1l0.2,0.1l0-0.2l0,0
					C25.2,26.1,25.2,26.1,24.5,25.3L24.5,25.3z"/>
			</g>
			<path class="st5" d="M25,25.2c0.1,0.4,0.3,1,0.4,1.3c-0.3-0.1-0.9-0.2-1.2-0.3c0.3,0,0.7,0,0.9,0C25.2,25.9,25.1,25.5,25,25.2
				L25,25.2z"/>
			<g>
				<path d="M25.4,26.5L25.4,26.5c-0.3-0.1-0.9-0.2-1.2-0.3h0C24.6,26.3,25.1,26.4,25.4,26.5c-0.1-0.3-0.2-0.7-0.3-1L25,25.2
					c0,0.1,0,0.2,0.1,0.4c0,0.2,0.1,0.5,0.1,0.7c-0.2,0-0.4,0-0.7,0l-0.2,0l0.2,0c0.2,0,0.5,0,0.7,0c0-0.2,0-0.4-0.1-0.7
					c0-0.1,0-0.3-0.1-0.4l0.1,0.3C25.2,25.8,25.3,26.2,25.4,26.5L25.4,26.5L25.4,26.5z"/>
			</g>
			<path class="st5" d="M25.3,26.1c0,0-1-0.2-1-0.2l0.9,0.5l0.2-0.1L25.3,26.1z"/>
			<g>
				<path d="M25.2,26.4l-0.9-0.5c0.3,0.1,1,0.2,1,0.2l0.1,0.2L25.2,26.4L25.2,26.4z M24.3,25.9l0.9,0.5l0.2-0.1l-0.1-0.2
					C25.3,26.1,24.3,25.9,24.3,25.9L24.3,25.9z"/>
			</g>
			<path class="st5" d="M25.1,25.3c0.1,0.4,0.3,1,0.4,1.3c-0.3-0.1-0.9-0.2-1.2-0.3c0.3,0,0.7,0,0.9,0C25.2,26,25.1,25.6,25.1,25.3
				L25.1,25.3z"/>
			<g>
				<path d="M25.5,26.6L25.5,26.6c-0.3-0.1-0.8-0.2-1.1-0.3l0,0C24.8,26.4,25.2,26.5,25.5,26.6c-0.1-0.3-0.2-0.7-0.3-1l-0.1-0.3
					c0,0.1,0,0.2,0.1,0.3c0,0.2,0.1,0.5,0.1,0.7c-0.2,0-0.4,0-0.7,0l-0.1,0l0.1,0c0.1,0,0.2,0,0.3,0l0,0c0.1,0,0.2,0,0.3,0
					c0-0.2,0-0.5-0.1-0.7c0-0.1,0-0.2-0.1-0.4l0.1,0.3C25.3,25.9,25.4,26.3,25.5,26.6L25.5,26.6L25.5,26.6z"/>
			</g>
			<path class="st5" d="M25.5,26.2c0,0-0.9-0.5-0.9-0.5l0.9,0.7l0.2,0L25.5,26.2z"/>
			<g>
				<path d="M25.4,26.5l-0.9-0.7c0.3,0.1,0.9,0.4,1,0.4l0.1,0.2L25.4,26.5L25.4,26.5z M24.5,25.8l0.9,0.7l0.2,0l-0.1-0.2l0,0
					C25.4,26.2,24.7,25.9,24.5,25.8L24.5,25.8z"/>
			</g>
			<path class="st5" d="M25,25.3c0.2,0.3,0.5,0.9,0.7,1.2c-0.3,0-0.9,0-1.2,0c0.3-0.1,0.7-0.1,0.9-0.2C25.3,26,25.1,25.6,25,25.3
				L25,25.3z"/>
			<g>
				<path d="M24.5,26.6L24.5,26.6L24.5,26.6L24.5,26.6L24.5,26.6l0.3-0.1c0.2,0,0.5-0.1,0.6-0.2c0-0.2-0.1-0.4-0.2-0.7
					c0-0.1-0.1-0.2-0.1-0.3l0.2,0.3c0.2,0.3,0.4,0.7,0.5,0.9C25.4,26.6,24.9,26.6,24.5,26.6L24.5,26.6L24.5,26.6L24.5,26.6z
					 M25,25.3c0,0.1,0.1,0.2,0.1,0.3c0.1,0.2,0.2,0.5,0.2,0.7c-0.2,0.1-0.4,0.1-0.6,0.2l-0.2,0c0.3,0,0.8,0,1.1,0
					c-0.2-0.2-0.4-0.6-0.5-0.9L25,25.3L25,25.3z"/>
			</g>
			<path class="st5" d="M25.6,26.3c0,0-1-0.3-1-0.3l0.9,0.5l0.2-0.1L25.6,26.3z"/>
			<g>
				<path d="M25.5,26.6L25.5,26.6l-0.9-0.5c0.3,0.1,1,0.3,1,0.3l0.1,0.2L25.5,26.6L25.5,26.6z M24.6,26.1l0.9,0.5l0.2-0.1l-0.1-0.2
					C25.6,26.4,24.7,26.1,24.6,26.1L24.6,26.1z"/>
			</g>
			<path class="st5" d="M25.1,25.5c0.2,0.3,0.5,0.9,0.7,1.2c-0.3,0-0.9,0-1.2,0c0.3-0.1,0.7-0.1,0.9-0.2
				C25.4,26.2,25.2,25.8,25.1,25.5L25.1,25.5z"/>
			<g>
				<path d="M24.6,26.7L24.6,26.7L24.6,26.7L24.6,26.7L24.6,26.7L24.6,26.7l0.3-0.1c0.2,0,0.5-0.1,0.6-0.2c-0.1-0.2-0.1-0.4-0.2-0.7
					c0-0.1-0.1-0.2-0.1-0.3l0.2,0.3c0.2,0.3,0.4,0.7,0.5,0.9c-0.1,0-0.2,0-0.4,0C25.2,26.7,24.9,26.7,24.6,26.7L24.6,26.7L24.6,26.7
					L24.6,26.7z M25.1,25.5c0,0.1,0.1,0.2,0.1,0.3c0.1,0.2,0.2,0.5,0.2,0.7c-0.2,0.1-0.4,0.1-0.6,0.2l-0.2,0c0.3,0,0.8,0,1.1,0
					c-0.2-0.2-0.3-0.6-0.5-0.9L25.1,25.5L25.1,25.5z"/>
			</g>
			<path class="st5" d="M25.7,26.4c0,0-0.9-0.6-0.9-0.6l0.8,0.8l0.2,0L25.7,26.4z"/>
			<g>
				<path d="M25.8,26.6l-0.2,0l-0.8-0.8c0.3,0.2,0.9,0.5,0.9,0.5L25.8,26.6L25.8,26.6z M24.8,25.9l0.8,0.8h0.2l-0.1-0.2l0,0
					C25.7,26.4,25.1,26.1,24.8,25.9L24.8,25.9z"/>
			</g>
			<path class="st5" d="M25.2,25.6c0.2,0.3,0.5,0.8,0.8,1.1c-0.3,0-0.9,0.1-1.2,0.2c0.3-0.1,0.6-0.2,0.9-0.3
				C25.6,26.2,25.4,25.9,25.2,25.6L25.2,25.6z"/>
			<g>
				<path d="M24.8,26.9L24.8,26.9L24.8,26.9L24.8,26.9L24.8,26.9L24.8,26.9l0.2-0.1c0.2-0.1,0.5-0.2,0.6-0.3
					c-0.1-0.2-0.2-0.4-0.3-0.6c-0.1-0.1-0.1-0.2-0.2-0.3l0.2,0.3c0.2,0.3,0.4,0.6,0.6,0.9C25.7,26.7,25.2,26.8,24.8,26.9L24.8,26.9
					L24.8,26.9L24.8,26.9z M25.2,25.6c0.1,0.1,0.1,0.2,0.2,0.3c0.1,0.2,0.2,0.4,0.3,0.6c-0.2,0.1-0.4,0.2-0.6,0.3l-0.2,0.1
					c0.3-0.1,0.8-0.1,1.1-0.2c-0.2-0.2-0.4-0.6-0.6-0.8L25.2,25.6L25.2,25.6z"/>
			</g>
			<path class="st5" d="M25.8,26.5c0,0-1,0-1,0l1,0.3l0.2-0.1L25.8,26.5z"/>
			<g>
				<path d="M25.8,26.8l-1-0.3c0,0,0.8,0,1,0l0,0c-0.2,0-1,0-1,0L25.8,26.8l0.2-0.1l0,0l0.1,0L25.8,26.8L25.8,26.8z"/>
			</g>
			<polygon class="st5" points="26.4,21.7 27.1,21.6 26.4,21.6 26.3,21.7 			"/>
			<g>
				<path d="M26.4,21.7l-0.1,0l0.1-0.1l0.7,0C27.1,21.6,26.4,21.7,26.4,21.7L26.4,21.7L26.4,21.7z M27.1,21.6l-0.7,0l-0.1,0.1l0.1,0
					C26.4,21.7,26.5,21.7,27.1,21.6L27.1,21.6z"/>
			</g>
			<path class="st5" d="M26.8,21.8c-0.2-0.1-0.5-0.2-0.7-0.2c0.2-0.1,0.6-0.2,0.8-0.3c-0.2,0.1-0.4,0.2-0.5,0.3
				C26.4,21.7,26.6,21.8,26.8,21.8L26.8,21.8z"/>
			<g>
				<path d="M26.8,21.9l-0.2-0.1c-0.2-0.1-0.4-0.1-0.5-0.2c0.2-0.1,0.6-0.3,0.8-0.4l0,0c-0.2,0.1-0.5,0.3-0.8,0.4
					c0.2,0,0.4,0.1,0.5,0.1L26.8,21.9l-0.2-0.1c-0.1-0.1-0.2-0.1-0.3-0.2c0.1-0.1,0.2-0.2,0.4-0.2l0.1-0.1l-0.1,0.1
					c-0.1,0.1-0.3,0.2-0.4,0.2c0.1,0,0.2,0.1,0.3,0.1L26.8,21.9L26.8,21.9L26.8,21.9z"/>
			</g>
			<polygon class="st5" points="26.3,21.7 27,21.5 26.3,21.6 26.2,21.7 			"/>
			<g>
				<path d="M26.3,21.7l-0.1,0l0.1-0.1l0.7-0.1C27,21.5,26.4,21.7,26.3,21.7L26.3,21.7L26.3,21.7z M27,21.5l-0.7,0.1l-0.1,0.1l0.1,0
					C26.4,21.7,26.5,21.7,27,21.5L27,21.5z"/>
			</g>
			<path class="st5" d="M26.8,21.9c-0.2,0-0.6-0.1-0.9-0.1c0.2-0.2,0.4-0.4,0.6-0.6c-0.1,0.2-0.3,0.4-0.3,0.5
				C26.4,21.8,26.6,21.8,26.8,21.9L26.8,21.9z"/>
			<g>
				<path d="M26.8,21.9l-0.2,0c-0.2,0-0.5,0-0.6-0.1c0.2-0.2,0.4-0.4,0.6-0.6l0,0c-0.2,0.2-0.4,0.4-0.6,0.6c0.2,0,0.4,0,0.6,0
					L26.8,21.9l-0.2-0.1c-0.1,0-0.3-0.1-0.4-0.1c0-0.1,0.1-0.2,0.2-0.4l0.1-0.1l-0.1,0.1c-0.1,0.1-0.2,0.2-0.2,0.4
					c0.1,0,0.2,0.1,0.4,0.1L26.8,21.9L26.8,21.9L26.8,21.9z"/>
			</g>
			<polygon class="st5" points="26.1,21.8 26.8,21.7 26.1,21.7 26,21.7 			"/>
			<g>
				<path d="M26.1,21.8l-0.1,0l0.1-0.1l0.7,0C26.8,21.7,26.1,21.8,26.1,21.8L26.1,21.8L26.1,21.8z"/>
			</g>
			<path class="st5" d="M26.6,21.9c-0.2,0-0.6-0.1-0.8-0.1c0.2-0.1,0.5-0.3,0.7-0.4c-0.1,0.1-0.4,0.2-0.5,0.4
				C26.2,21.8,26.5,21.9,26.6,21.9L26.6,21.9z"/>
			<g>
				<path d="M26.6,21.9l-0.2,0c-0.2,0-0.4-0.1-0.6-0.1c0.2-0.1,0.5-0.3,0.7-0.4l0,0c-0.2,0.1-0.5,0.3-0.7,0.4c0.2,0,0.4,0.1,0.6,0.1
					L26.6,21.9l-0.2-0.1c-0.1,0-0.3-0.1-0.4-0.1c0.1-0.1,0.2-0.2,0.3-0.3l0.1-0.1l-0.1,0.1c-0.1,0.1-0.2,0.2-0.3,0.2
					c0.1,0,0.2,0.1,0.3,0.1L26.6,21.9L26.6,21.9L26.6,21.9z"/>
			</g>
			<polygon class="st5" points="26,21.8 26.7,21.5 26,21.7 25.9,21.8 			"/>
			<g>
				<path d="M26,21.8l-0.1,0l0.1-0.1l0.7-0.2C26.7,21.5,26,21.8,26,21.8L26,21.8L26,21.8z M26.7,21.5L26,21.7l-0.1,0.1l0.1,0
					C26,21.7,26.1,21.7,26.7,21.5L26.7,21.5z"/>
			</g>
			<path class="st5" d="M26.6,22c-0.2-0.1-0.5-0.2-0.6-0.3c0.1-0.1,0.3-0.4,0.5-0.5c-0.1,0.1-0.2,0.3-0.3,0.5
				C26.3,21.8,26.5,21.9,26.6,22L26.6,22z"/>
			<g>
				<path d="M26.6,22L26.5,22c-0.2-0.1-0.4-0.2-0.5-0.2c0.1-0.1,0.3-0.4,0.4-0.5l0,0c-0.1,0.2-0.3,0.4-0.4,0.5
					c0.1,0,0.3,0.1,0.5,0.2L26.6,22l-0.2-0.1c-0.1-0.1-0.2-0.1-0.3-0.2c0-0.1,0.1-0.2,0.2-0.3l0.1-0.1l0,0.1
					c-0.1,0.1-0.1,0.2-0.2,0.3c0.1,0.1,0.2,0.1,0.3,0.2L26.6,22L26.6,22L26.6,22z"/>
			</g>
			<path class="st5" d="M26.1,21.8c0,0,0.5-0.2,0.5-0.2L26,21.7l-0.1,0.1L26.1,21.8z"/>
			<g>
				<path d="M26.1,21.8l-0.1,0l0.1-0.1l0.5-0.1C26.4,21.7,26.1,21.8,26.1,21.8L26.1,21.8L26.1,21.8z M26.5,21.6L26,21.7L26,21.8
					l0.1,0C26.1,21.8,26.2,21.8,26.5,21.6L26.5,21.6z"/>
			</g>
			<polygon class="st5" points="25.6,26.4 24.6,26.4 25.7,26.7 25.8,26.6 			"/>
			<g>
				<path d="M25.7,26.7l-1-0.3c0.3,0,1,0,1,0l0.2,0.1L25.7,26.7L25.7,26.7z M25.6,26.4c0,0-0.1,0-1,0l1,0.2l0.2-0.1L25.6,26.4
					L25.6,26.4z"/>
			</g>
			<path class="st5" d="M25.8,26.5c0,0-1-0.2-1-0.2l1,0.5l0.2-0.1L25.8,26.5z"/>
			<g>
				<path d="M25.8,26.7L25.8,26.7l-1-0.5c0.4,0.1,1,0.2,1,0.2l0.2,0.2L25.8,26.7L25.8,26.7z M24.8,26.2l1,0.5l0.2-0.1l-0.2-0.2l0,0
					C25.8,26.5,24.8,26.3,24.8,26.2L24.8,26.2z"/>
			</g>
			<path class="st5" d="M26,26.5c0,0-1-0.1-1-0.1l1,0.3l0.2-0.1L26,26.5z"/>
			<g>
				<path d="M26,26.8l-1-0.3c0,0,0.9,0,1,0l0.2,0.2L26,26.8L26,26.8z M25,26.5l1,0.3l0.2-0.1L26,26.6C25.8,26.5,25,26.5,25,26.5
					L25,26.5z"/>
			</g>
			<path class="st5" d="M25.3,25.8c0.3,0.3,0.7,0.8,0.9,1c-0.3,0.1-0.9,0.2-1.2,0.3c0.3-0.1,0.6-0.3,0.8-0.4
				C25.8,26.4,25.5,26.1,25.3,25.8L25.3,25.8z"/>
			<g>
				<path d="M25.1,27.1L25.1,27.1L25.1,27.1L25.1,27.1L25.1,27.1L25.1,27.1l0.2-0.1c0.2-0.1,0.4-0.2,0.6-0.3
					c-0.1-0.2-0.2-0.4-0.4-0.6c-0.1-0.1-0.1-0.2-0.2-0.3l0.2,0.2c0.2,0.3,0.5,0.6,0.7,0.8C26,26.9,25.5,27,25.1,27.1L25.1,27.1
					L25.1,27.1L25.1,27.1z M25.3,25.8c0.1,0.1,0.1,0.2,0.2,0.3c0.1,0.2,0.3,0.4,0.4,0.6c-0.1,0.1-0.4,0.2-0.6,0.3l-0.2,0.1
					c0.3-0.1,0.8-0.2,1.1-0.3c-0.2-0.2-0.5-0.5-0.7-0.8L25.3,25.8L25.3,25.8z"/>
			</g>
			<path class="st5" d="M26.1,26.6c0,0-1-0.3-1-0.3l1,0.6l0.2,0L26.1,26.6z"/>
			<g>
				<path d="M26.1,26.8L26.1,26.8l-1-0.6c0.3,0.1,1,0.3,1,0.3l0.1,0.2L26.1,26.8L26.1,26.8z M25.1,26.3l1,0.6l0.2,0l-0.1-0.2l0,0
					C26.1,26.6,25.2,26.3,25.1,26.3L25.1,26.3z"/>
			</g>
			<path class="st5" d="M25.4,25.9c0.3,0.3,0.7,0.7,1,0.9c-0.3,0.1-0.8,0.3-1.1,0.4c0.2-0.2,0.6-0.3,0.8-0.5
				C25.9,26.5,25.6,26.1,25.4,25.9L25.4,25.9z"/>
			<g>
				<path d="M25.4,27.2L25.4,27.2L25.4,27.2L25.4,27.2l0.2-0.1c0.2-0.1,0.4-0.3,0.5-0.4c-0.1-0.2-0.3-0.4-0.4-0.5
					c-0.1-0.1-0.2-0.2-0.2-0.3l0.3,0.2c0.3,0.2,0.6,0.5,0.8,0.7C26.2,26.9,25.7,27.1,25.4,27.2L25.4,27.2L25.4,27.2L25.4,27.2z
					 M25.4,25.9c0.1,0.1,0.2,0.2,0.2,0.3c0.2,0.2,0.3,0.4,0.4,0.6c-0.1,0.1-0.3,0.3-0.5,0.4l-0.2,0.1c0.3-0.1,0.8-0.3,1.1-0.4
					c-0.2-0.2-0.5-0.4-0.8-0.7L25.4,25.9L25.4,25.9z"/>
			</g>
			<path class="st5" d="M26.2,26.7c0,0-1,0.2-1,0.2l1,0.1l0.1-0.1L26.2,26.7z"/>
			<g>
				<path d="M26.3,26.9L26.3,26.9l-1-0.1c0.3-0.1,0.9-0.2,1-0.2l0.2,0.1L26.3,26.9L26.3,26.9z M26.2,26.7c0,0-0.1,0-1,0.2l1,0.1
					l0.1-0.1L26.2,26.7L26.2,26.7z"/>
			</g>
			<path class="st5" d="M26,26.6c0,0-1,0.1-1,0.1l1,0.2l0.2-0.1L26,26.6z"/>
			<g>
				<path d="M26.1,26.9L25,26.7c0.3,0,1-0.1,1-0.1l0.2,0.1L26.1,26.9L26.1,26.9z M26,26.6c0,0-0.1,0-1,0.1l1,0.2l0.2-0.1L26,26.6
					L26,26.6z"/>
			</g>
			<path class="st5" d="M26.2,26.7c0,0-1.1-0.2-1.1-0.2l1,0.4l0.2-0.1L26.2,26.7z"/>
			<g>
				<path d="M26.2,26.9L26.2,26.9l-1-0.4c0,0,1,0.2,1.1,0.2l0.2,0.2L26.2,26.9L26.2,26.9z M25.2,26.5l1,0.4l0.2-0.1l-0.2-0.2h0
					C26.2,26.7,25.2,26.5,25.2,26.5L25.2,26.5z"/>
			</g>
			<path class="st5" d="M26.4,26.7c0,0-1,0-1,0l1,0.2l0.2-0.1L26.4,26.7z"/>
			<g>
				<path d="M26.4,27l-1.1-0.2c0.3,0,1,0,1,0l0.2,0.1L26.4,27L26.4,27z M26.4,26.7c0,0-0.1,0-1,0l1,0.2l0.2-0.1L26.4,26.7L26.4,26.7
					z"/>
			</g>
			<path class="st5" d="M25.7,26c0.3,0.3,0.7,0.7,1,1c-0.3,0.1-0.8,0.3-1.2,0.4c0.2-0.1,0.6-0.3,0.8-0.5
				C26.2,26.6,25.9,26.3,25.7,26L25.7,26z"/>
			<g>
				<path d="M25.5,27.4L25.5,27.4L25.5,27.4L25.5,27.4L25.5,27.4l0.2-0.1c0.2-0.1,0.4-0.2,0.6-0.3c-0.1-0.2-0.3-0.4-0.4-0.6
					c-0.1-0.1-0.2-0.2-0.2-0.3l0.3,0.2c0.3,0.2,0.6,0.5,0.8,0.7C26.4,27.1,25.9,27.2,25.5,27.4L25.5,27.4L25.5,27.4L25.5,27.4z
					 M25.7,26c0.1,0.1,0.2,0.2,0.2,0.3c0.2,0.2,0.3,0.4,0.4,0.6c-0.1,0.1-0.4,0.2-0.6,0.3l-0.2,0.1c0.3-0.1,0.8-0.3,1.1-0.3
					c-0.2-0.2-0.5-0.5-0.8-0.7L25.7,26L25.7,26z"/>
			</g>
			<path class="st5" d="M26.5,26.8c0,0-1.1-0.3-1.1-0.3l1,0.5l0.2-0.1L26.5,26.8z"/>
			<g>
				<path d="M26.5,27l-1-0.5c0.4,0.1,1,0.2,1.1,0.3l0.2,0.2L26.5,27L26.5,27z M25.5,26.5l1,0.5l0.2-0.1l-0.2-0.2l0,0
					C26.5,26.8,25.5,26.5,25.5,26.5L25.5,26.5z"/>
			</g>
			<path class="st5" d="M25.8,26.1c0.3,0.2,0.8,0.6,1.1,0.8c-0.3,0.1-0.8,0.4-1.1,0.5c0.2-0.2,0.5-0.4,0.7-0.6
				C26.3,26.6,26,26.3,25.8,26.1L25.8,26.1z"/>
			<g>
				<path d="M25.8,27.4L25.8,27.4L25.8,27.4L25.8,27.4l0.2-0.2c0.2-0.1,0.4-0.3,0.5-0.4c-0.1-0.2-0.3-0.3-0.5-0.5
					c-0.1-0.1-0.2-0.2-0.2-0.3l0.3,0.2c0.3,0.2,0.6,0.5,0.8,0.6C26.6,27.1,26.1,27.3,25.8,27.4L25.8,27.4L25.8,27.4z M25.8,26.1
					c0.1,0.1,0.2,0.2,0.3,0.2c0.2,0.2,0.4,0.4,0.5,0.5c-0.1,0.1-0.3,0.3-0.5,0.4l-0.2,0.1c0.3-0.1,0.7-0.4,1-0.5
					c-0.2-0.1-0.6-0.4-0.8-0.6L25.8,26.1L25.8,26.1z"/>
			</g>
			<path class="st5" d="M26.6,26.8c0,0-1,0.3-1,0.3l1,0l0.1-0.2L26.6,26.8z"/>
			<g>
				<path d="M25.7,27.1L25.7,27.1c0.3-0.1,0.9-0.3,1-0.3l0.2,0.1l-0.1,0.2L25.7,27.1L25.7,27.1z M26.6,26.8c0,0-0.1,0-0.9,0.2h1
					l0.1-0.2L26.6,26.8L26.6,26.8z"/>
			</g>
			<polygon class="st7" points="28.2,25.5 27.2,24.7 26.1,25.5 26.5,24.3 25.5,23.5 26.7,23.5 27.2,22.3 27.6,23.5 28.8,23.5 
				27.8,24.3 			"/>
			<g>
				<path d="M28.3,25.5l-1.1-0.8l-1.1,0.8l0.4-1.2l-1-0.8l1.2,0l0.4-1.2l0.4,1.2l1.2,0l-1,0.8L28.3,25.5L28.3,25.5z M27.1,22.3
					l-0.4,1.2l-1.2,0l1,0.7l-0.4,1.2l1.1-0.8l1.1,0.7l-0.4-1.2l1-0.8l-1.2,0L27.1,22.3L27.1,22.3z"/>
			</g>
			<path class="st8" d="M31.2,25.3l0.4,0.1l0.6-0.1l0,0.1l-0.3,0.1c-0.1,0-0.1,0-0.2,0c0,0,0.1,0.1,0.1,0.1l0.2,0.2l0,0.1l-0.4-0.5
				L31.2,25.3L31.2,25.3z"/>
			<path class="st8" d="M32.2,24l0,0.1l-0.5,0.1c-0.1,0-0.2,0-0.2,0c-0.1,0-0.1,0-0.1-0.1c0,0-0.1-0.1-0.1-0.2c0-0.1,0-0.1,0-0.2
				c0,0,0.1-0.1,0.1-0.1c0.1,0,0.1,0,0.2-0.1l0.5-0.1l0,0.1l-0.5,0.1c-0.1,0-0.1,0-0.2,0c0,0-0.1,0-0.1,0.1c0,0,0,0.1,0,0.1
				c0,0.1,0,0.1,0.1,0.2c0,0,0.1,0,0.2,0L32.2,24z"/>
			<path class="st8" d="M31.5,22.9l0.1,0l0.1,0.3l-0.3,0.1c-0.1,0-0.1-0.1-0.1-0.1c0,0-0.1-0.1-0.1-0.2c0-0.1,0-0.1,0-0.2
				c0-0.1,0.1-0.1,0.1-0.2c0.1,0,0.1-0.1,0.2-0.1c0.1,0,0.2,0,0.2,0c0.1,0,0.1,0.1,0.2,0.1c0,0.1,0.1,0.1,0.1,0.2c0,0.1,0,0.1,0,0.2
				c0,0,0,0.1-0.1,0.1c0,0-0.1,0.1-0.1,0.1l0-0.1c0,0,0.1,0,0.1-0.1c0,0,0-0.1,0-0.1c0,0,0-0.1,0-0.1c0,0,0-0.1-0.1-0.1
				c0,0,0-0.1-0.1-0.1c0,0-0.1,0-0.1,0c-0.1,0-0.1,0-0.2,0c-0.1,0-0.1,0-0.2,0.1c0,0-0.1,0.1-0.1,0.1c0,0.1,0,0.1,0,0.2
				c0,0,0,0.1,0.1,0.1c0,0,0.1,0.1,0.1,0.1l0.2,0L31.5,22.9z"/>
			<polygon class="st8" points="27.8,20.1 27.9,19.2 28,19.3 27.9,20 28.3,20.1 28.3,20.2 			"/>
			<polygon class="st8" points="26.9,20.1 26.9,19.2 27.5,19.2 27.5,19.3 27,19.3 27,19.5 27.5,19.5 27.5,19.7 27,19.7 27,20 
				27.5,20 27.5,20.1 			"/>
			<path class="st8" d="M24.5,20.6L24.5,20.6c0.1,0,0.2,0.1,0.2,0.2c0,0.1,0,0.1-0.1,0.2c-0.1,0.1-0.1,0.1-0.2,0.1
				c-0.1,0-0.1,0-0.2-0.1C24,21,24,21,23.9,20.9c-0.1-0.1-0.1-0.1-0.1-0.2c0-0.1,0-0.1,0-0.2c0-0.1,0.1-0.1,0.1-0.2
				c0.1,0,0.1-0.1,0.2-0.1c0.1,0,0.1,0,0.2,0.1l-0.1,0.1c-0.1,0-0.1-0.1-0.2-0.1c0,0-0.1,0-0.1,0.1c0,0-0.1,0.1-0.1,0.1
				c0,0.1,0,0.1,0,0.2c0,0.1,0.1,0.1,0.1,0.1c0.1,0.1,0.1,0.1,0.2,0.1c0.1,0,0.1,0,0.2,0c0,0,0.1,0,0.1-0.1c0,0,0.1-0.1,0.1-0.1
				C24.5,20.7,24.5,20.7,24.5,20.6L24.5,20.6z"/>
			<polygon class="st8" points="24.1,21.4 23.4,20.8 23.5,20.7 24.2,21.3 			"/>
			<polygon class="st8" points="23.7,21.9 23,21.4 23,21.3 23.6,21.8 23.9,21.4 24,21.5 			"/>
			<path class="st8" d="M22.3,22.4L22.3,22.4l0.5,0.1c0.1,0,0.1,0.1,0.2,0.1c0,0,0.1,0.1,0.1,0.1c0,0.1,0,0.1,0,0.2
				c0,0.1-0.1,0.1-0.1,0.2c0,0-0.1,0-0.2,0c-0.1,0-0.1,0-0.2-0.1l-0.5-0.2l0-0.1l0.5,0.2c0.1,0,0.1,0,0.2,0c0,0,0.1,0,0.1,0
				c0,0,0.1-0.1,0.1-0.1c0-0.1,0-0.1,0-0.2c0,0-0.1-0.1-0.2-0.1L22.3,22.4z"/>
			<polygon class="st8" points="22.9,24.6 22,24.6 22,24 22.1,24 22.1,24.5 22.3,24.5 22.3,24 22.4,24 22.5,24.5 22.8,24.5 22.8,24 
				22.9,24 			"/>
			<path class="st8" d="M26.2,20.2L26,19.3l0.3-0.1c0.1,0,0.1,0,0.1,0c0,0,0.1,0,0.1,0c0,0,0.1,0.1,0.1,0.1c0,0.1,0.1,0.1,0.1,0.2
				c0,0.1,0,0.1,0,0.2c0,0.1,0,0.1,0,0.1c0,0,0,0.1-0.1,0.1c0,0,0,0-0.1,0.1c0,0-0.1,0-0.1,0L26.2,20.2z M26.3,20.1l0.2,0
				c0.1,0,0.1,0,0.1,0c0,0,0,0,0.1-0.1c0,0,0-0.1,0-0.1c0,0,0-0.1,0-0.2c0-0.1,0-0.2-0.1-0.2c0,0-0.1-0.1-0.1-0.1c0,0-0.1,0-0.1,0
				l-0.2,0L26.3,20.1z"/>
			<path class="st8" d="M29.1,20.5l0.4-0.8l0.3,0.1c0,0,0.1,0,0.1,0.1c0,0,0.1,0.1,0.1,0.1c0,0,0,0.1,0,0.1c0,0,0,0.1,0,0.1
				c0,0.1-0.1,0.1-0.1,0.1c-0.1,0-0.1,0-0.2,0l-0.2-0.1L29.1,20.5L29.1,20.5z M29.4,20.2l0.2,0.1c0.1,0,0.1,0,0.1,0
				c0,0,0.1,0,0.1-0.1c0,0,0-0.1,0-0.1c0,0,0-0.1,0-0.1c0,0,0,0-0.1-0.1l-0.2-0.1L29.4,20.2z"/>
			<path class="st8" d="M29.5,20.8l0.8-0.5l0.1,0.1l-0.4,0.9L30,21.2l0.1-0.3l-0.2-0.2L29.5,20.8L29.5,20.8z M29.9,20.7l0.2,0.2
				l0.1-0.2c0-0.1,0.1-0.1,0.1-0.2c0,0-0.1,0.1-0.1,0.1L29.9,20.7z"/>
			<path class="st8" d="M30.1,21.4l0.7-0.5l0.2,0.3c0,0.1,0.1,0.1,0.1,0.1c0,0,0,0.1,0,0.1c0,0,0,0.1-0.1,0.1c0,0-0.1,0.1-0.2,0.1
				c-0.1,0-0.1,0-0.2-0.1c0,0,0,0.1,0,0.1c0,0,0,0.1,0,0.1l-0.1,0.3l-0.1-0.1l0.1-0.2c0-0.1,0-0.1,0.1-0.1c0,0,0-0.1,0-0.1
				c0,0,0,0,0-0.1c0,0,0,0,0,0l-0.1-0.1L30.1,21.4L30.1,21.4z M30.6,21.1l0.1,0.2c0,0,0.1,0.1,0.1,0.1c0,0,0.1,0,0.1,0
				c0,0,0.1,0,0.1,0c0,0,0.1-0.1,0.1-0.1c0,0,0-0.1,0-0.1L30.8,21L30.6,21.1z"/>
			<path class="st8" d="M30.6,22l0.9-0.2l0.1,0.1L31,22.6l-0.1-0.1l0.2-0.2L31,22L30.6,22L30.6,22z M31,22l0.1,0.2l0.2-0.2
				c0.1-0.1,0.1-0.1,0.1-0.1c-0.1,0-0.1,0-0.2,0L31,22z"/>
			<path class="st8" d="M31.4,24.3l0.9,0.4l0,0.1L31.3,25l0-0.1l0.3-0.1l0-0.3l-0.3-0.1L31.4,24.3z M31.7,24.5l0,0.3l0.3-0.1
				c0.1,0,0.1,0,0.2,0c-0.1,0-0.1,0-0.2-0.1L31.7,24.5z"/>
			<path class="st8" d="M23,25.4l-0.9,0.2l-0.1-0.3c0-0.1,0-0.1,0-0.2c0,0,0-0.1,0.1-0.1c0,0,0.1,0,0.1-0.1c0.1,0,0.1,0,0.2,0
				c0,0,0.1,0.1,0.1,0.1c0,0,0-0.1,0-0.1c0,0,0.1-0.1,0.1-0.1l0.2-0.2l0,0.1L22.7,25c0,0-0.1,0.1-0.1,0.1c0,0,0,0,0,0.1
				c0,0,0,0,0,0.1c0,0,0,0,0,0.1l0,0.1l0.4-0.1L23,25.4z M22.5,25.4l0-0.2c0,0,0-0.1,0-0.1c0,0,0,0-0.1,0c0,0-0.1,0-0.1,0
				c0,0-0.1,0-0.1,0.1c0,0,0,0.1,0,0.1l0.1,0.2L22.5,25.4z"/>
			<path class="st8" d="M22.9,23.8L22,23.7l0-0.3c0-0.1,0-0.1,0-0.1c0,0,0-0.1,0-0.1c0,0,0.1,0,0.1-0.1c0,0,0.1,0,0.1,0
				c0.1,0,0.1,0,0.2,0.1c0,0,0.1,0.1,0.1,0.2l0,0.2l0.4,0L22.9,23.8z M22.4,23.6l0-0.2c0-0.1,0-0.1,0-0.1c0,0-0.1,0-0.1-0.1
				c0,0-0.1,0-0.1,0c0,0,0,0-0.1,0.1c0,0,0,0,0,0.1l0,0.2L22.4,23.6z"/>
			<path class="st8" d="M23.3,22.5L22.5,22l0.2-0.2c0-0.1,0.1-0.1,0.1-0.1c0,0,0.1,0,0.1,0c0,0,0.1,0,0.1,0c0,0,0.1,0,0.1,0.1
				c0,0,0,0.1,0,0.1c0,0,0.1,0,0.1,0s0.1,0,0.1,0c0,0,0.1,0.1,0.1,0.1c0,0,0,0.1,0,0.1c0,0,0,0.1,0,0.1c0,0,0,0.1-0.1,0.1L23.3,22.5
				z M22.9,22.1L23,22c0,0,0-0.1,0-0.1c0,0,0-0.1,0-0.1c0,0,0,0-0.1-0.1c0,0,0,0-0.1,0c0,0,0,0-0.1,0c0,0,0,0-0.1,0.1L22.7,22
				L22.9,22.1z M23.2,22.3l0.1-0.2c0,0,0,0,0-0.1c0,0,0,0,0-0.1c0,0,0,0,0-0.1c0,0,0,0-0.1-0.1c0,0-0.1,0-0.1,0c0,0-0.1,0-0.1,0
				c0,0,0,0-0.1,0.1L23,22.2L23.2,22.3z"/>
			<path class="st8" d="M24.7,20.8l-0.2-0.9l0.1-0.1l0.7,0.6l-0.1,0.1L25,20.3l-0.3,0.2L24.7,20.8L24.7,20.8z M24.7,20.3l0.2-0.1
				L24.8,20c-0.1-0.1-0.1-0.1-0.1-0.1c0,0.1,0,0.1,0.1,0.2L24.7,20.3z"/>
		</g>
	</g>
</g>
</svg>
