<?xml version="1.0" encoding="utf-8"?>
<!-- Generator: Adobe Illustrator 21.0.0, SVG Export Plug-In . SVG Version: 6.00 Build 0)  -->
<svg version="1.1" id="Layer_1" xmlns="http://www.w3.org/2000/svg" xmlns:xlink="http://www.w3.org/1999/xlink" x="0px" y="0px"
	 viewBox="0 0 370.8 126" style="enable-background:new 0 0 370.8 126;" xml:space="preserve">
<style type="text/css">
	.st0{fill:#2828DC;}
	.st1{fill:#A9C935;}
	.st2{fill:#E4145B;}
	.st3{fill:#FFFFFF;}
	.st4{fill:#130D13;}
</style>
<g>
	<path class="st0" d="M66.6,18.9l0.4,0c0.6,0,1.2-0.1,1.9-0.7l0.3-0.3v-1.5c0-1.2,0-4.5-3.6-4.5c0,0,0,0,0,0l-0.1,0
		c-1.7-0.1-2.2,0.7-2.4,1.5c0,0.1,0,0.5,0,0.9c0,0.3,0,0.7,0,0.7C63.1,16.9,63.3,18.9,66.6,18.9z"/>
	<path class="st0" d="M72.1,50.4c-1.8,0-2.9,1.6-3.9,3.1c-1.1,1.6-2.1,3.1-3.8,3.1c-1.2,0-1.7-0.3-1.7-2c0-2.7,1.4-5.1,2.9-7.6
		c0.7-1.2,1.4-2.4,1.9-3.6c1.8-3.9,1.8-8.1,1.8-12.2c0-0.5,0-1.1,0-1.6v-6.7l-0.1-0.2c-0.4-0.6-1.2-1.4-3.2-1.4
		c-2.3,0-2.4,1.4-2.4,1.9v12.2c0,3.4-1.6,6.2-3.3,9.1c-1.8,3.1-3.6,6.3-3.6,10.2c0,4.8,4.1,7.4,8.2,7.4c3.9,0,9.8-3.7,9.8-8.7
		C74.5,51.6,73.5,50.4,72.1,50.4z"/>
	<path class="st0" d="M98.4,53.1c1.1-5.7,1.6-11.4,1.6-17.4c0-17.7-4.1-27-11.8-27c-9.2,0-9.6,20.1-9.6,24.1
		c0,8.5,1.1,28.3,11.8,28.3c2.5,0,4.4-1.6,5.3-2.4l4.2,4.1c0.4,0.5,1.1,0.5,1.6,0.5c2.1,0,2.9-1.3,3.1-2.1l0-0.2
		c0-0.3-0.1-1.5-0.8-2.1C102.3,57.5,100.1,55.3,98.4,53.1z M87.8,49c0,1.4,0.4,1.8,1.2,2.6l0.4,0.4c0.3,0.3,1.1,1.2,2.1,2.1l0.2,0.2
		c-0.1,0.8-1.2,1-2.1,1c-3.3,0-5.2-11.7-5.2-19.8c0-0.9,0-3,0-4.2c0-0.5,0-0.9,0-1c0-4.9,1.1-15.2,4.6-15.8c0.1,0,0.2,0,0.3,0
		c0.4,0,0.7,0.1,1.1,0.4c2.9,2.5,4.2,13.8,4.2,19c0,5.5-0.3,9.9-0.9,13.9c-0.7-0.7-1.7-1.3-2.9-1.3C89,46.4,87.8,47.4,87.8,49z"/>
	<path class="st0" d="M122.4,28.6c0-5.4,0.1-10.9-0.1-16.4c-0.1-1-0.6-2.2-2.9-2.2c-1.4,0-2.3,0.3-2.8,1.9l0,0.2l0,0.1
		c0.3,12,0.4,29.1,0.2,36.6c-0.1,1.7-0.8,4.2-1.9,4.2c-5.2,0-5.4-24-5.4-33c0-6.1-0.1-7.5-0.4-8.1c-0.5-1.3-2.2-1.8-3.7-1.5
		c-1.2,0.2-2,1-2,2l0.1,3.3c0.6,22.1,1.2,41.1,9.6,42.1l0.2,0c0.5,0.1,0.9,0.1,1.4,0.1c7.3,0,7.5-7.1,7.6-12.3l0-0.2
		C122.3,39.7,122.4,34.1,122.4,28.6z"/>
	<path class="st0" d="M142.1,55.8c-1-0.9-2.5-0.7-4.4-0.5c-0.9,0.1-2,0.2-3,0.2c-1,0-1.7,0-2.2,0l0.2-14.2l5.3-0.8
		c2.1-0.3,3.4-1.9,3.3-3.3c0-0.3-0.3-2-2.8-2c0,0,0,0,0,0l-5.9,0.8l-0.3-18.2h6.3c1.5,0,3.7-0.9,3.7-2.8c0-0.2,0-0.4-0.1-0.7
		c-0.3-0.8-1.8-1.8-2.6-1.8h-9.7c-1.7,0-3.2,1.5-3.2,3.2l0.7,42.9c0,0.3,0.1,0.8,0.7,1.1c1,0.6,4.1,0.8,6.5,0.8c1.4,0,6-0.1,7.6-1.1
		c0.8-0.5,0.9-1.2,0.9-1.5C142.9,56.9,142.6,56.3,142.1,55.8z"/>
	<path class="st0" d="M132.2,8.3c0.5,0,0.9,0,1.5-0.5l2.2-1.7l3.2-2c0.7-0.4,0.8-0.9,0.8-1.5l0-0.1c0-1.4-1.5-2.6-2.8-2.6l-0.4,0.1
		c0,0-0.5,0.2-0.7,0.3l-4.3,2.7c-0.8,0.5-2,1.3-2,2.7C129.7,7.2,130.8,8.3,132.2,8.3z"/>
	<path class="st0" d="M181.1,55.8c-1-0.9-2.5-0.7-4.4-0.5c-0.9,0.1-1.9,0.2-3,0.2c-1,0-1.7,0-2.2,0l0.2-14.2l5.3-0.8
		c2.1-0.3,3.4-1.9,3.3-3.3c0-0.3-0.3-2-2.8-2c0,0,0,0,0,0l-5.9,0.8l-0.3-18.2h6.3c1.5,0,3.7-0.9,3.7-2.8c0-0.2,0-0.4-0.1-0.7
		c-0.3-0.8-1.8-1.8-2.6-1.8h-9.7c-1.7,0-3.2,1.5-3.2,3.2l0.7,42.9c0,0.3,0.1,0.8,0.7,1.1c1,0.6,4.1,0.8,6.5,0.8c1.4,0,6-0.1,7.6-1.1
		c0.8-0.5,0.9-1.2,0.9-1.5C181.9,56.9,181.6,56.3,181.1,55.8z"/>
	<path class="st0" d="M194,30.7c-2.4-3.3-4.7-6.5-4.7-10.4c0-3.6,0.8-5.5,2.4-5.5c1.2,0,1.6,0.6,2.1,1.6c0.5,0.9,1.2,2.1,2.9,2.1
		c1.7,0,2.6-1,2.6-2.9c0-3.8-5-6.4-8.2-6.4c-4.7,0-7.4,6-7.4,10.2c0,5.3,2.8,9.6,5.4,13.7c1.4,2.1,2.8,4.3,3.7,6.5
		c1.4,3.1,1.6,6.7,1.6,9.8c0,1.6-0.6,6.2-3.4,6.2h-0.1c-0.9-0.7-1-2.1-1.1-3.6c-0.1-1.7-0.2-3.7-2.1-4.2c-0.8-0.2-1.7,0-2.5,0.5
		c-0.8,0.6-1.3,1.4-1.3,2.2c0,5,2.2,10.4,7,10.4c4.1,0,7.3-4.3,8.5-8.3c1.6-5.2,0-12.5-2.4-17.1C196.3,33.8,195.1,32.2,194,30.7z"/>
	<path class="st0" d="M249.1,48.1c-0.1-2.4-0.1-4.8-0.2-7.3c0-3.9-0.1-10.9-0.2-17.7c0-3.1-0.1-5.9-0.1-7.9
		c-0.1-3.7-0.1-4.1-0.8-4.3c-1.2-0.8-2.3-1-3.2-0.8c-0.7,0.2-1.2,0.6-1.6,1.3c-0.6,1-1.8,4.4-3.3,8.7c-1.3,3.8-3,8.4-4.1,11
		l-6.7-18.4c-0.4-1.2-1.5-1.9-2.8-1.6c-1.3,0.2-2.8,1.5-2.8,3.2c0.1,31.9-0.3,38.4-0.4,40.8c0,0.6,0,0.9,0,1.3v0.2
		c0,0.7,0,1.3,0.5,1.8c0.5,0.5,1.1,0.5,1.8,0.5c0.8,0,1.5,0,2.5-0.6l0.4-0.3l0.1-0.5c0.8-6.3,0.8-12.8,0.8-19.1c0-3.6,0-7.3,0.1-11
		c0.9,2.5,1.6,5,2.4,7.5c0.3,1.1,0.7,2.2,1,3.2c0.1,0.3,0.5,0.9,0.6,1.1c0.7,0.8,2.6,0.8,3.6,0.4c1.2-0.4,1.6-1.2,1.7-1.6l4.8-11.9
		c0.5,12.2,0.7,22.6,0.6,32.4l0,0.2l0.1,0.2c0.5,1.2,1,1.9,2.6,1.9c1.7,0,2.9-1.3,2.9-3.1c0-3.1-0.1-6.3-0.2-9.3L249.1,48.1z"/>
	<path class="st0" d="M266.6,10.1L266,8.6c-0.6-1-1.8-1.4-2.8-1.4c-2.3,0-2.9,2.4-3.3,3.7l-0.1,0.5l0,0c-0.3,1.7-1.4,9.1-6.4,44.5
		c0,0.9,0.7,3.2,2.4,3.2c2.5,0,2.7-2.8,2.8-4l0-0.1c0-0.1,0-0.2,0-0.3l1-6.4h7.6l1.4,10.8c0.1,0.9,0.8,1.3,2.1,1.3h0.2
		c1.8,0,2.3-1,2.8-2.2l0.2-0.2l-0.4-4.5C271.9,39.1,270.2,24.4,266.6,10.1z M266.5,42.5l-5.3-0.1l2.5-19.8L266.5,42.5z"/>
	<path class="st0" d="M282,10.8l-0.2,0c-1,0-2.8,0-3.3,1.5l0,0.2c-0.1,5-0.4,28.1-0.4,32.9v16.5l0.5,0.3c0.7,0.4,1,0.5,1.7,0.5
		c1,0,2.2-0.3,2.8-1.3l0.2-0.3l0-0.3c-0.1-2-0.1-11.5,0-13.6c0-0.8,0.2-4.5,0.3-6.1C289.5,38,294,30.5,294,23.6
		C294,16.5,288.6,10.8,282,10.8z M288.2,24c0,4.1-1.5,7.5-4.9,10.7l0.4-18.5C286.6,17.1,288.2,21.7,288.2,24z"/>
	<path class="st0" d="M313.9,53.4c-1.6-14.2-3.3-29-6.9-43.3l-0.6-1.5c-0.6-1-1.8-1.4-2.8-1.4c-2.3,0-2.9,2.4-3.3,3.7l-0.1,0.5l0,0
		c-0.3,1.7-1.4,9.1-6.4,44.5c0,0.9,0.7,3.2,2.4,3.2c2.5,0,2.7-2.8,2.8-4.1c0-0.1,0-0.2,0-0.3l1-6.4h7.6L309,59
		c0.1,0.9,0.8,1.3,2.1,1.3h0.2c1.8,0,2.3-1,2.8-2.2l0.2-0.2L313.9,53.4z M306.8,42.5l-5.3-0.1l2.5-19.8L306.8,42.5z"/>
</g>
<g>
	<path class="st1" d="M13.2,74l-0.6-1.6c-0.6-1-1.8-1.4-2.8-1.4c-2.3,0-2.9,2.4-3.2,3.6l0,0c-0.1,0.6-0.8,4.7-6.5,45.1
		c0,0.9,0.7,3.2,2.4,3.2c2.5,0,2.7-2.8,2.8-4.1c0-0.1,0-0.2,0-0.3l1-6.4h7.6l1.4,10.8c0.1,0.9,0.8,1.3,2.1,1.3h0.2
		c1.8,0,2.3-1,2.8-2.2l0.2-0.2l-0.4-4.5C18.4,103,16.8,88.2,13.2,74z M7.7,106.2l2.5-19.8l2.9,19.9L7.7,106.2z"/>
	<path class="st1" d="M34.6,89.1c1.8-2.4,2.8-5.2,2.8-8.2c0-3.5-1.8-6.2-4.9-7.4c-3.5-1.3-7.6-0.3-10,2.4l-0.3,0.3l0,1.8l1.2,14.6
		c0.5,6.2,0.7,11.9,1,17.3c0.2,4.4,0.3,8.5,0.6,12.7l0.1,0.3l0,0.1c0.7,1.3,2.2,1.4,3,1.4c10.7,0,15.5-8.7,15.5-17.3
		C43.9,98.8,41.2,93.5,34.6,89.1z M28,78.6c1.2-0.4,2.2-0.4,2.9,0.1c0.9,0.6,1.1,1.6,1.1,2.5c0,2.4-1.2,5.1-3.3,5.8L28,78.6z
		 M30.6,118.7c0,0-0.1,0-0.1,0c-0.7-8.2-1.3-17-1.3-25.6c7.2,0.7,9.1,9.1,9.1,14C38.2,112.7,36.2,118.7,30.6,118.7z"/>
	<path class="st1" d="M52.7,73.4h-0.6c-2.4,0-4.5,0-4.7,3.8c-0.1,2.8-0.2,5.5-0.2,8.3c-0.3,11-0.6,22.3-0.6,33.4v5.5l0.2,0.3
		c0.6,0.8,1.6,1.3,2.7,1.3c0.7,0,1.3-0.2,1.7-0.6c0.7-0.7,0.7-1.7,0.7-2.5l0-0.3c0.1-5.2,0.4-18.8,0.4-19.4c0-0.3,0.1-1.6,0.2-2.5
		h0.1c2.2,0,3.2,1.8,3.6,6.2l0,0.2c0.4,7.5,0.7,12,0.7,13.4l0,0.2c0.5,1.6,2,1.6,2.8,1.6c2.5,0,2.8-1.5,2.8-2.2v-0.5
		c0-0.2-0.1-0.8-0.2-1.9c0-0.4-0.2-1.5-0.2-1.7c-0.1-0.9-0.1-2.2-0.1-3.5c-0.1-4.8-0.2-10.7-2.4-13.6c-0.2-0.4-0.9-1.2-1.4-1.7
		c4.1-3.5,4.8-9.4,4.8-12.6v-0.7C63,77.5,58.9,73.4,52.7,73.4z M52.6,94.1c0-2.4,0.1-4.6,0.2-6.8c0.1-2.5,0.2-5.2,0.2-8
		c0-0.5,0.2-0.6,0.5-0.6c3,0,3.8,3.6,3.8,5.6C57.4,87.1,55.8,93.8,52.6,94.1z"/>
	<path class="st1" d="M71.9,75.3c-1.6,0-2.4,0.2-3,2l0,0.1l-1.7,45.9c0,1.2,1,2.1,2.4,2.2c1.5,0,3.2-1.2,3.3-3.3L74.6,80
		c0,0,0-0.2,0-0.4c0-0.3,0-0.6,0-0.7C74.7,77.2,74.7,75.3,71.9,75.3z"/>
	<path class="st1" d="M94.2,119.6c-1-0.9-2.5-0.7-4.4-0.5c-0.9,0.1-1.9,0.2-3,0.2c-1,0-1.7,0-2.2,0l0.2-14.2l5.3-0.8
		c2.1-0.3,3.4-1.9,3.3-3.3c0-0.3-0.3-2-2.8-2c0,0,0,0,0,0l-5.9,0.8l-0.3-18.2h6.3c1.5,0,3.7-0.9,3.7-2.8c0-0.2,0-0.4-0.1-0.7
		c-0.3-0.8-1.8-1.8-2.6-1.8H82c-1.7,0-3.2,1.5-3.2,3.2l0.7,42.9c0,0.3,0.1,0.8,0.7,1.1c1,0.6,4.1,0.8,6.5,0.8c1.4,0,6-0.1,7.6-1.1
		c0.8-0.5,0.9-1.2,0.9-1.5C95.1,120.8,94.8,120.1,94.2,119.6z"/>
	<path class="st1" d="M121.5,76.3l0,0.5L121.5,76.3L121.5,76.3c-0.9,0-2.6,0-2.7,1.5c-0.6,2.5-0.6,5.2-0.7,7.9c0,1,0,2.1-0.1,3.1
		c-0.3,4.3-0.6,13-0.8,18.6l-10.7-29c-0.9-2.4-2.6-3-3.9-2.7c-1.6,0.3-2.7,1.8-2.6,3.5l-0.7,43.3c0,1.2,1.1,2,2.5,2
		c0.6,0,1.3-0.2,1.7-0.5c0.6-0.4,0.9-1.1,0.9-1.9l0.4-32.2c11.1,29.6,11.6,31,12.2,32.3c0.5,1.1,1.8,1.8,2.9,1.8
		c0.9-0.1,1.5-0.6,1.8-1.5l0-0.2c0-3.1,0.5-16.4,0.7-22l0.1-2.1c0.1-3,0.4-6.1,0.7-9.1c0.3-3.3,0.6-6.7,0.7-10
		c0-0.7,0.1-1.4-0.4-1.9C123.1,76.4,122.3,76.4,121.5,76.3z"/>
	<path class="st1" d="M139.1,74.7c-2.3-2-5.4-2.5-7.6-2.5H131l-0.4,0.1c-1.5,0.6-2.4,2.2-2.4,4.3v0.3c0.1,5.2,0.1,29.8,0,35.1v10.5
		c0,1.2,0.3,2.1,1,2.7c0.6,0.5,1.3,0.7,2.3,0.7c0.3,0,0.7,0,1.1-0.1c9-1.1,13.7-9.4,14.3-25.4C147.3,92.2,146.2,81,139.1,74.7z
		 M133.7,119.8c-0.1-4.1,0-9.3,0-13.8c0-2.2,0-4.3,0-5.9c0-3.1,0.3-16.9,0.4-21.8c6.7,0.9,7.3,17.6,7.3,22.8
		C141.4,106.7,139.8,117.7,133.7,119.8z"/>
</g>
<g>
	<path class="st2" d="M209.5,116.6l0,0.5l0,0L209.5,116.6c-1.5,0.1-3,0.2-4.1-0.7l0,0c-5.1-4.3-5.5-9.8-5.5-17.1
		c0-6.6,2.5-18.3,7.6-18.3h0.4c0.1,0,0.2,0,0.4,0c1.1,0,3.2,0.1,4.4-1c0.5-0.5,0.7-1.1,0.7-1.8c0-2-2-3.3-3.9-3.3
		c-9.6,0-13.2,11-14.3,15.7c-1.9,8.2-1.6,20,3.6,26.8c2.7,3.4,6.3,5.2,10.7,5.3c0.9,0,3.2-0.2,4.1-1.7c0.3-0.5,0.6-1.4-0.2-2.8
		C212.6,116.4,210.9,116.5,209.5,116.6z"/>
	<path class="st2" d="M230.6,74l-0.6-1.6c-0.6-1-1.8-1.4-2.8-1.4c-2.3,0-2.9,2.4-3.2,3.5c-0.1,0.2-0.1,0.3-6.6,45.2
		c0,0.9,0.7,3.2,2.4,3.2c2.5,0,2.7-2.8,2.8-4c0-0.2,0-0.3,0-0.4l1-6.4h7.6l1.4,10.8c0.1,0.9,0.8,1.3,2.1,1.3h0.2
		c1.8,0,2.3-0.9,2.8-2.2l0.2-0.2l-0.4-4.5C235.9,103,234.2,88.2,230.6,74z M230.5,106.3l-5.3-0.1l2.5-19.8L230.5,106.3z"/>
	<path class="st2" d="M268,104.7c0-4-0.1-11-0.2-17.7c0-3.1-0.1-5.9-0.1-7.9c-0.1-3.7-0.1-4.2-0.8-4.3c-1.2-0.8-2.3-1-3.2-0.8
		c-0.7,0.2-1.2,0.6-1.6,1.3c-0.6,1-1.9,4.6-3.3,8.7c-1.3,3.8-3,8.4-4.1,10.9L248,76.5c-0.4-1.2-1.5-1.8-2.8-1.6
		c-1.3,0.2-2.8,1.5-2.8,3.2c0.1,31.8-0.3,38.3-0.4,40.8c0,0.6,0,0.9,0,1.3v0.1c0,0.7,0,1.3,0.5,1.8c0.5,0.5,1.1,0.5,1.8,0.5
		c0.8,0,1.5,0,2.5-0.6l0.4-0.3l0.1-0.5c0.8-6.3,0.8-12.8,0.8-19c0-3.6,0-7.4,0.1-11.1c0.8,2.5,1.6,5,2.4,7.5c0.3,1.1,0.6,2.1,1,3.2
		c0.1,0.3,0.5,0.9,0.6,1.1c0.8,0.8,2.6,0.8,3.6,0.4c1.2-0.4,1.6-1.2,1.7-1.6l4.8-11.9c0.5,12.2,0.7,22.5,0.6,32.4l0,0.2l0.1,0.2
		c0.5,1.3,1,1.9,2.6,1.9c1.7,0,2.9-1.3,2.9-3.1c0-3.1-0.1-6.3-0.2-9.5C268.1,109.6,268,107.1,268,104.7z"/>
	<path class="st2" d="M277.2,75.3c-1.6,0-2.4,0.2-3,2l0,0.1l-1.7,45.9c0,1.2,1,2.1,2.4,2.2c1.5,0,3.2-1.2,3.3-3.3L280,80
		c0-0.1,0-0.2,0-0.4c0-0.3,0-0.6,0-0.7C280,77.2,280,75.3,277.2,75.3z"/>
	<path class="st2" d="M306.3,76.3l0,0.5l0,0L306.3,76.3L306.3,76.3c-0.9,0-2.6,0-2.7,1.5c-0.6,2.5-0.6,5.2-0.7,7.8l0,0.1
		c0,1,0,2.1-0.1,3.1c-0.3,4.2-0.6,12.9-0.8,18.6l-10.7-29c-0.9-2.4-2.6-3-3.9-2.7c-1.6,0.3-2.7,1.8-2.6,3.5l-0.7,43.3
		c0,1.2,1.1,2,2.5,2c0.6,0,1.3-0.2,1.7-0.5c0.6-0.4,0.9-1.1,0.9-1.9l0.4-32.2c11.1,29.6,11.6,31,12.2,32.3c0.5,1.1,1.8,1.9,2.9,1.8
		c0.9-0.1,1.5-0.6,1.8-1.5l0-0.2c0-3.1,0.5-16.1,0.7-21.7l0.1-2.5c0.1-3,0.4-6.1,0.7-9.1c0.3-3.3,0.6-6.7,0.7-10.1
		c0-0.7,0.1-1.4-0.4-1.9C307.9,76.4,307.1,76.4,306.3,76.3z"/>
	<path class="st2" d="M323.2,73.7l-0.1,0c-12.5,0-12.5,16.8-12.5,23.2c0,17.8,4.2,26.8,12.4,26.8c6.4,0,9.3-7.1,9.9-13.3
		C334.6,87.3,331.2,74.6,323.2,73.7z M327.9,99.8v0.3c0,11.7-1.8,18.5-5.1,18.5c-4.4,0-6.7-7.4-6.7-21.9c0-1.7,0-3.4,0.1-5.4
		c0-3.6,2.2-12.3,5.5-12.3C325.8,78.9,327.9,92.3,327.9,99.8z"/>
	<path class="st2" d="M345.3,94.5c-2.4-3.3-4.7-6.5-4.7-10.4c0-3.6,0.8-5.5,2.4-5.5c1.2,0,1.6,0.6,2.1,1.6c0.5,0.9,1.2,2.1,2.9,2.1
		c1.7,0,2.6-1,2.6-2.9c0-3.8-5-6.4-8.2-6.4c-4.7,0-7.4,6-7.4,10.2c0,5.3,2.8,9.6,5.4,13.7c1.4,2.1,2.8,4.3,3.7,6.5
		c1.4,3.1,1.6,6.7,1.6,9.8c0,1.6-0.6,6.2-3.4,6.2h-0.1c-0.9-0.7-1-2.1-1.1-3.6c-0.1-1.7-0.2-3.7-2.1-4.2c-0.8-0.2-1.7,0-2.5,0.5
		c-0.8,0.6-1.3,1.4-1.3,2.2c0,5,2.2,10.4,7,10.4c4.1,0,7.3-4.3,8.5-8.3c1.6-5.2,0-12.5-2.4-17.1C347.6,97.7,346.4,96.1,345.3,94.5z"
		/>
	<path class="st2" d="M360.7,118.6l-0.2,0c-0.5,0-1.3,0-2.1,0.7l-0.3,0.3v1.5c0,1.2,0,4.5,3.6,4.5c0,0,0,0,0,0l0.1,0
		c0.1,0,0.2,0,0.4,0c1.5,0,1.9-0.9,2-1.5c0-0.1,0-0.5,0-0.8l0-0.2c0-0.3,0-0.5,0-0.6C364.3,120.2,363.7,118.6,360.7,118.6z"/>
	<path class="st2" d="M362.6,75.6c-3.9,0-9.8,3.7-9.8,8.7c0,1.6,1,2.8,2.4,2.8c1.8,0,2.9-1.6,3.9-3.1c1.1-1.6,2.1-3.1,3.8-3.1
		c1.2,0,1.7,0.3,1.7,2c0,2.7-1.4,5.1-2.9,7.6c-0.7,1.2-1.4,2.4-1.9,3.6c-1.8,3.9-1.8,8.1-1.8,12.3c0,0.5,0,1.1,0,1.6v6.7l0.1,0.2
		c0.5,0.9,1.6,1.4,3.2,1.4c2.3,0,2.4-1.4,2.4-1.9v-12.2c0-3.4,1.6-6.2,3.3-9.1c1.8-3.1,3.6-6.3,3.6-10.2
		C370.8,78.1,366.7,75.6,362.6,75.6z"/>
</g>
<g>
	<path class="st3" d="M154,100.9c0,0,1.8-4.6,4.8-4.8c3-0.2,5.5,1,7.3,4.6c0,0-1.6,4.8-7.1,4.4C159,105,155.5,104.9,154,100.9"/>
	<path class="st4" d="M162.1,100.3c0.1,1-0.7,1.9-1.7,1.9c-1,0.1-1.9-0.7-2-1.7c-0.1-1,0.7-1.9,1.7-2
		C161.1,98.5,162,99.3,162.1,100.3"/>
	<path class="st1" d="M182.1,89.5c-1.2-1.4-3.1-0.4-3.9,0.3l-3.4,2.6l1-5c0.1-0.2,1.9-5.2,0.8-7.3c-0.2-0.5-0.6-0.8-1.1-0.9
		c-0.9-0.2-1.6-0.1-2.2,0.3c-0.9,0.7-1,2-1,2.1L171,89c-0.4-1.7-1.1-4.6-1.6-7.1c-0.3-1.3-0.5-2.4-0.8-3.2c0-0.2-0.1-0.5-0.2-0.7
		c-0.9-2.3-3.1-4.1-5.6-4.2c-1.3-0.1-2.4,0.7-2.6,2c-0.1,1.2,0.8,2.5,2,2.6c0.1,0,0.3,0,0.4,0c0,0,0,0,0.1,0c0,0,0,0,0.1,0
		c0.1,0.1,0.3,0.1,0.4,0.2c0,0,0,0,0,0c0,0,0.1,0.1,0.1,0.1c0.4,0.4,0.9,1,1.2,1.6l1.9,10.1c-7.6-2.8-12.9-1.5-15.8,3.7
		c-0.9,1.6-1.7,3.6,0,4.8c0.3,0.2,0.7,0.3,1.1,0.3c0.9-0.2,1.5-1.2,1.6-1.3l0-0.1c1.8-5.5,7.2-4.6,7.4-4.6c3,0.7,5.2,2,6.3,3.9
		c1.5,2.5,0.8,5.1,0.8,5.1l0,0c-0.2,2-1.3,3.8-2.9,5c-1.8,1.3-4.1,1.8-6.5,1.3c-3.7-0.8-4.4-3.4-4.9-5.3c-0.2-0.6-0.3-1.2-0.5-1.6
		c-0.5-0.8-1.7-1.1-2.7-0.6c-1,0.5-1.8,1.8-0.9,3.8l0.2,0.5c1.4,3.2,2.8,6.6,6.4,7.7c1,0.3,2.1,0.4,3.2,0.4c3.1,0,6.5-1.1,9-3.1
		c1.8-1.5,2.4-1.4,3.2-1.2c0.6,0.1,1.3,0.2,2.6-0.2c1.5-0.5,2.1-1.3,2.3-2c0.3-1,0-2.2-0.3-2.6c-0.4-0.5-1.1-4.1-0.3-6.1
		c0.8-2,4.2-4.1,4.3-4.1c0.1-0.1,2.5-2.1,2.6-3.8C182.5,90.1,182.3,89.8,182.1,89.5"/>
	<path class="st0" d="M154.8,95.3c-0.2,0-0.4-0.1-0.5-0.2l-2.1-2.7c-0.2-0.3-0.1-0.6,0.1-0.8c0.3-0.2,0.6-0.1,0.8,0.1l2.1,2.7
		c0.2,0.3,0.1,0.6-0.1,0.8C155.1,95.3,154.9,95.3,154.8,95.3"/>
	<path class="st0" d="M158.6,93.6c-0.3,0-0.5-0.2-0.6-0.5l-0.6-3.6c-0.1-0.3,0.2-0.6,0.5-0.7c0.3-0.1,0.6,0.2,0.7,0.5l0.6,3.6
		C159.2,93.2,159,93.5,158.6,93.6C158.7,93.6,158.6,93.6,158.6,93.6"/>
	<path class="st0" d="M162.8,94.2c-0.1,0-0.1,0-0.2,0c-0.3-0.1-0.5-0.5-0.3-0.8l1.3-3.6c0.1-0.3,0.5-0.5,0.8-0.3
		c0.3,0.1,0.5,0.5,0.3,0.8l-1.3,3.6C163.3,94.1,163.1,94.2,162.8,94.2"/>
	<path class="st0" d="M166.3,96.2c-0.1,0-0.2,0-0.3-0.1c-0.3-0.2-0.4-0.5-0.2-0.8l1.8-3c0.2-0.3,0.5-0.4,0.8-0.2
		c0.3,0.2,0.4,0.5,0.2,0.8l-1.8,3C166.7,96.1,166.5,96.2,166.3,96.2"/>
</g>
</svg>
