<?xml version="1.0" encoding="utf-8"?>
<!-- Generator: Adobe Illustrator 21.0.0, SVG Export Plug-In . SVG Version: 6.00 Build 0)  -->
<svg version="1.1" id="Layer_1" xmlns="http://www.w3.org/2000/svg" xmlns:xlink="http://www.w3.org/1999/xlink" x="0px" y="0px"
	 viewBox="0 0 39.6 30" style="enable-background:new 0 0 39.6 30;" xml:space="preserve">
<style type="text/css">
	.st0{fill:#EE841E;}
</style>
<g>
	<path class="st0" d="M0,23.1c0-6,2.3-11.4,6.8-16c4.5-4.7,7.6-7,9.1-7c1.5,0,2.3,0.2,2.3,0.5c0,0.4-1.5,2.2-4.5,5.6
		c-3,3.4-4.5,6.1-4.5,8.3c0,2.2,0.9,4.1,2.8,5.7c1.9,1.6,2.8,2.8,2.8,3.7c0,4.2-2.1,6.3-6.3,6.3c-2,0-3.9-0.7-5.8-2.1
		C0.9,26.5,0,24.9,0,23.1z M21.2,23.1c0-6,2.3-11.4,6.8-16c4.5-4.7,7.6-7,9.2-7c1.6,0,2.4,0.2,2.4,0.5c0,0.4-1.5,2.2-4.6,5.6
		c-3.1,3.4-4.6,6.1-4.6,8.3c0,2.2,0.9,4.1,2.8,5.7c1.9,1.6,2.8,2.8,2.8,3.7c0,4.2-2,6.3-6.1,6.3c-2.1,0-4.1-0.7-6-2
		C22.1,26.7,21.2,25,21.2,23.1z"/>
</g>
</svg>
