<?xml version="1.0" encoding="utf-8"?>
<!-- Generator: Adobe Illustrator 21.0.0, SVG Export Plug-In . SVG Version: 6.00 Build 0)  -->
<svg version="1.1" id="Layer_1" xmlns="http://www.w3.org/2000/svg" xmlns:xlink="http://www.w3.org/1999/xlink" x="0px" y="0px"
	 viewBox="0 0 39.7 30" style="enable-background:new 0 0 39.7 30;" xml:space="preserve">
<style type="text/css">
	.st0{fill:#EE841E;}
</style>
<g>
	<path class="st0" d="M18.5,6.9c0,6-2.3,11.4-6.8,16c-4.5,4.7-7.9,7-10,7C0.6,30,0,29.8,0,29.4c0.6-0.7,1.3-1.5,2.2-2.5
		c0.9-1,1.8-2,2.6-2.9c2.9-3.2,4.4-5.9,4.4-8.1c0-2.2-0.9-4.1-2.8-5.8C4.5,8.4,3.6,7.1,3.6,6.3c0-4.2,2-6.3,6.1-6.3
		c2.1,0,4.1,0.7,6,2C17.5,3.3,18.5,5,18.5,6.9z M39.7,6.9c0,6-2.2,11.4-6.7,16c-4.5,4.7-7.5,7-9.1,7c-1.6,0-2.4-0.2-2.4-0.5
		c0-0.3,1.5-2.2,4.5-5.7c3-3.4,4.5-6.2,4.5-8.2c0-2-0.9-3.9-2.8-5.6c-1.9-1.7-2.8-2.9-2.8-3.8C24.8,2.1,26.9,0,31,0
		c2.1,0,4.1,0.7,5.9,2C38.7,3.3,39.7,5,39.7,6.9z"/>
</g>
</svg>
