<?xml version="1.0" encoding="utf-8"?>
<!-- Generator: Adobe Illustrator 21.0.0, SVG Export Plug-In . SVG Version: 6.00 Build 0)  -->
<svg version="1.1" id="Layer_1" xmlns="http://www.w3.org/2000/svg" xmlns:xlink="http://www.w3.org/1999/xlink" x="0px" y="0px"
	 viewBox="0 0 48.6 50" style="enable-background:new 0 0 48.6 50;" xml:space="preserve">
<style type="text/css">
	.st0{fill:#F3F7FC;}
	.st1{clip-path:url(#SVGID_2_);}
	.st2{fill:#FFFFFF;}
	.st3{fill:#FF352D;}
	.st4{fill:#001E98;}
	.st5{fill:#007B49;}
	.st6{fill:#FFB600;}
</style>
<path class="st0" d="M47.2,9.9c4.8,12.7-3.9,36.7-11.3,39.5C26.5,53,6.1,40,1.3,27.4C-3.5,14.7,5.8,8.3,18.5,3.5
	C31.2-1.3,42.4-2.7,47.2,9.9z"/>
<g>
	<defs>
		<path id="SVGID_1_" d="M45.3,11.2c4.4,11.6-3.6,33.6-10.3,36.1c-8.7,3.3-27.3-8.6-31.7-20.2C-1.2,15.5,7.4,9.7,19,5.3
			C30.6,0.9,40.9-0.4,45.3,11.2z"/>
	</defs>
	<clipPath id="SVGID_2_">
		<use xlink:href="#SVGID_1_"  style="overflow:visible;"/>
	</clipPath>
	<g class="st1">
		<rect x="-0.1" class="st2" width="94.7" height="49.8"/>
		<polygon class="st3" points="14.3,0.1 94.7,0.1 94.7,16.7 43.7,16.7 		"/>
		<polygon class="st4" points="14.3,50 94.7,50 94.7,33.3 43.7,33.3 		"/>
		<polygon class="st5" points="94.7,20 42.7,20 8.6,0 0.1,0 0.1,50 8.6,50 42.7,30 94.7,30 		"/>
		<polygon class="st6" points="32.8,25.1 0,44 0,6 		"/>
		<polygon points="27.1,25.1 0,40 0,9.9 		"/>
	</g>
</g>
</svg>
